<?xml version="1.0" encoding="utf-8"?>
<!-- Generator: Adobe Illustrator 15.0.2, SVG Export Plug-In . SVG Version: 6.00 Build 0)  -->
<!DOCTYPE svg PUBLIC "-//W3C//DTD SVG 1.1//EN" "http://www.w3.org/Graphics/SVG/1.1/DTD/svg11.dtd">
<svg version="1.1" id="Layer_1" xmlns="http://www.w3.org/2000/svg" xmlns:xlink="http://www.w3.org/1999/xlink" x="0px" y="0px"
	 width="492.157px" height="26.075px" viewBox="0 0 492.157 26.075" enable-background="new 0 0 492.157 26.075"
	 xml:space="preserve">
<g>
	<path d="M0,0.433h2.852l6.63,20.997L15.847,0.36h2.154l6.365,21.069l6.63-20.997h2.751l-8.288,25.392h-2.221L16.873,5.366
		l-6.398,20.458H8.288L0,0.433z"/>
	<path d="M37.817,0.433H54.59v2.593H40.436v8.607h12.662v2.594H40.436v8.823h14.32v2.594H37.817V0.433z"/>
	<path d="M67.944,0.251h2.453l10.575,25.391h-2.817l-2.718-6.662h-12.63l-2.751,6.662H57.37L67.944,0.251z M74.407,16.387
		L69.137,3.565l-5.304,12.821H74.407z"/>
	<path d="M84.876,0.433h9.979c2.851,0,5.139,0.937,6.597,2.521c1.127,1.225,1.79,2.989,1.79,4.971v0.072
		c0,4.177-2.651,6.626-6.299,7.348l7.127,10.3h-3.215l-6.729-9.796h-6.63v9.796h-2.619V0.433L84.876,0.433z M94.622,13.289
		c3.481,0,5.968-1.943,5.968-5.187V8.031c0-3.098-2.188-4.971-5.934-4.971h-7.161v10.229H94.622z"/>
	<path d="M108.176,0.433h16.773v2.593h-14.154v8.607h12.662v2.594h-12.662v8.823h14.321v2.594h-16.938V0.433H108.176z"/>
	<path d="M129.718,0.433h9.978c2.85,0,5.138,0.937,6.596,2.521c1.127,1.225,1.79,2.989,1.79,4.971v0.072
		c0,4.177-2.652,6.626-6.299,7.348l7.127,10.3h-3.215l-6.729-9.796h-6.63v9.796h-2.619V0.433H129.718z M139.463,13.289
		c3.481,0,5.968-1.943,5.968-5.187V8.031c0-3.098-2.188-4.971-5.934-4.971h-7.16v10.229H139.463z"/>
	<path d="M153.016,0.433h16.773v2.593h-14.154v8.607h12.662v2.594h-12.662v8.823h14.321v2.594h-16.938V0.433H153.016z"/>
	<path d="M183.144,0.251h2.453l10.576,25.391h-2.817l-2.719-6.662h-12.629l-2.751,6.662h-2.686L183.144,0.251z M189.608,16.387
		l-5.271-12.821l-5.303,12.821H189.608z"/>
	<path d="M198.089,21.969l1.624-2.089c2.421,2.377,4.741,3.565,7.956,3.565c3.116,0,5.172-1.801,5.172-4.285v-0.072
		c0-2.342-1.159-3.673-6.033-4.789c-5.338-1.262-7.791-3.134-7.791-7.276V6.95c0-3.962,3.215-6.878,7.625-6.878
		c3.381,0,5.8,1.044,8.154,3.098l-1.524,2.196c-2.155-1.909-4.31-2.737-6.696-2.737c-3.017,0-4.939,1.802-4.939,4.07v0.072
		c0,2.376,1.193,3.709,6.299,4.897c5.171,1.225,7.559,3.279,7.559,7.132v0.072c0,4.321-3.316,7.13-7.923,7.13
		C203.89,26.003,200.872,24.672,198.089,21.969z"/>
	<path d="M219.134,13.109v-0.072C219.134,6.087,223.941,0,231,0c7.061,0,11.802,6.014,11.802,12.967v0.072
		c0,6.95-4.807,13.036-11.868,13.036S219.134,20.061,219.134,13.109z M240.084,13.109v-0.072c0-5.726-3.846-10.408-9.15-10.408
		s-9.083,4.609-9.083,10.336v0.072c0,5.727,3.845,10.408,9.149,10.408S240.084,18.836,240.084,13.109z"/>
	<path d="M247.669,0.433h2.453l14.619,20.206V0.433h2.552v25.211h-2.088L250.222,4.97v20.674h-2.553V0.433L247.669,0.433z"/>
	<path d="M281.774,0.251h2.452l10.573,25.391h-2.817l-2.718-6.662h-12.63l-2.751,6.662h-2.684L281.774,0.251z M288.238,16.387
		l-5.271-12.821l-5.304,12.821H288.238z"/>
	<path d="M298.705,0.433h9.879c2.653,0,4.741,0.828,6.067,2.233c0.96,1.079,1.492,2.413,1.492,4.034v0.072
		c0,3.277-1.857,4.97-3.68,5.835c2.751,0.898,4.973,2.628,4.973,6.085v0.072c0,4.321-3.349,6.879-8.42,6.879h-10.311L298.705,0.433
		L298.705,0.433z M313.49,7.096c0-2.486-1.822-4.105-5.138-4.105h-7.061v8.68h6.862c3.15,0,5.336-1.549,5.336-4.502V7.096z
		 M308.616,14.191h-7.325v8.895h7.791c3.514,0,5.701-1.693,5.701-4.501v-0.073C314.783,15.774,312.662,14.191,308.616,14.191z"/>
	<path d="M321.971,0.433h2.619v22.583h13.06v2.628h-15.681V0.433H321.971z"/>
	<path d="M341.823,0.433h16.775v2.593h-14.155v8.607h12.662v2.594h-12.662v8.823h14.32v2.594h-16.939L341.823,0.433L341.823,0.433z"
		/>
	<path d="M363.365,0.433h8.686c5.238,0,8.686,3.024,8.686,7.996v0.073c0,5.438-4.176,8.246-9.115,8.246h-5.637v8.896h-2.619V0.433
		L363.365,0.433z M371.719,14.154c3.845,0,6.365-2.233,6.365-5.546V8.535c0-3.602-2.487-5.475-6.233-5.475h-5.867v11.094H371.719
		L371.719,14.154z"/>
	<path d="M384.84,0.433h16.774v2.593H387.46v8.607h12.662v2.594H387.46v8.823h14.32v2.594h-16.939L384.84,0.433L384.84,0.433z"/>
	<path d="M405.357,13.109v-0.072c0-6.95,4.806-13.037,11.866-13.037c7.06,0,11.8,6.014,11.8,12.967v0.072
		c0,6.95-4.807,13.036-11.866,13.036C410.096,26.075,405.357,20.061,405.357,13.109z M426.306,13.109v-0.072
		c0-5.726-3.845-10.408-9.149-10.408c-5.304,0-9.084,4.609-9.084,10.336v0.072c0,5.727,3.847,10.408,9.15,10.408
		C422.528,23.447,426.306,18.836,426.306,13.109z"/>
	<path d="M433.89,0.433h8.686c5.238,0,8.686,3.024,8.686,7.996v0.073c0,5.438-4.177,8.246-9.116,8.246h-5.636v8.896h-2.619V0.433
		L433.89,0.433z M442.245,14.154c3.846,0,6.365-2.233,6.365-5.546V8.535c0-3.602-2.487-5.475-6.233-5.475h-5.867v11.094H442.245
		L442.245,14.154z"/>
	<path d="M455.366,0.433h2.619v22.583h13.06v2.628h-15.681V0.433H455.366z"/>
	<path d="M475.217,0.433h16.775v2.593h-14.154v8.607H490.5v2.594h-12.662v8.823h14.319v2.594h-16.94V0.433z"/>
</g>
</svg>
