<svg version="1.1" id="Layer_1" xmlns="http://www.w3.org/2000/svg" xmlns:xlink="http://www.w3.org/1999/xlink" x="0px" y="0px"
	 width="6.707px" height="1.127px" viewBox="0 0 6.707 1.127" enable-background="new 0 0 6.707 1.127" xml:space="preserve">
<path fill="#FFFFFF" d="M3.012,0.736c0,0.214,0.169,0.383,0.391,0.383c0.116,0,0.2-0.022,0.306-0.099
	c0-0.007-0.091-0.139-0.091-0.139C3.55,0.935,3.495,0.958,3.411,0.958c-0.106,0-0.192-0.061-0.222-0.169h0.576
	c0-0.023,0-0.046,0-0.061c0-0.215-0.162-0.392-0.376-0.392C3.204,0.344,3.012,0.49,3.012,0.736 M3.196,0.652
	c0.03-0.083,0.106-0.139,0.2-0.139c0.099,0,0.169,0.068,0.192,0.139H3.196z M2.79,0.683C2.873,0.72,2.951,0.773,2.951,0.89
	c0,0.146-0.106,0.237-0.283,0.237c-0.139,0-0.222-0.053-0.291-0.099L2.469,0.89C2.56,0.966,2.63,0.966,2.668,0.966
	c0.091,0,0.106-0.053,0.106-0.069c0-0.03-0.03-0.053-0.068-0.068c-0.03-0.007-0.131-0.038-0.169-0.053
	c-0.076-0.03-0.146-0.083-0.146-0.192c0-0.146,0.099-0.237,0.26-0.237c0.076,0,0.192,0.015,0.283,0.099L2.851,0.568
	c-0.068-0.045-0.139-0.061-0.2-0.061c-0.076,0-0.091,0.038-0.091,0.053c0,0.031,0.031,0.054,0.061,0.061
	C2.661,0.637,2.759,0.667,2.79,0.683z M0.689,0.736c0-0.253,0.192-0.392,0.384-0.392c0.207,0,0.376,0.169,0.376,0.392
	c0,0.015,0,0.038,0,0.061H0.874C0.897,0.903,0.99,0.966,1.096,0.966c0.084,0,0.139-0.023,0.208-0.076c0,0,0.091,0.131,0.091,0.139
	C1.288,1.104,1.203,1.127,1.089,1.127C0.866,1.127,0.689,0.95,0.689,0.736 M1.271,0.652C1.249,0.576,1.18,0.513,1.079,0.513
	c-0.091,0-0.169,0.053-0.199,0.139H1.271z M0.192,0H0v1.104h0.652V0.92h-0.46V0z M1.832,0.352C1.854,0.344,1.877,0.344,1.9,0.344
	c0.076,0,0.154,0.023,0.222,0.068c0-0.023,0-0.053,0-0.053h0.185v0.743H2.123c0,0,0-0.03,0-0.053C2.054,1.103,1.984,1.117,1.9,1.117
	c-0.192,0-0.354-0.138-0.384-0.321L1.832,0.352 M2.123,0.736c0-0.116-0.099-0.215-0.222-0.215c-0.116,0-0.215,0.099-0.215,0.215
	c0,0.116,0.099,0.214,0.215,0.214C2.024,0.95,2.123,0.85,2.123,0.736 M4.255,0H3.863v1.104h0.192V0.798h0.2
	c0.2,0,0.407-0.139,0.407-0.399C4.66,0.192,4.508,0,4.255,0z M4.255,0.604c-0.045,0-0.146,0-0.2,0V0.183c0,0,0.146,0,0.2,0
	c0.131,0,0.215,0.099,0.215,0.215C4.47,0.521,4.369,0.604,4.255,0.604z M6.453,0.352c0.107,0.023,0.192,0.084,0.23,0.185
	c0.016,0.038,0.023,0.099,0.023,0.2c0,0.161,0,0.369,0,0.369H6.521V0.713c0-0.106-0.061-0.192-0.16-0.192S6.199,0.597,6.199,0.698
	v0.407H6.015V0.361h0.185c0,0,0,0.045,0,0.053C6.294,0.344,6.385,0.336,6.453,0.352z M5.412,0.352
	C5.436,0.344,5.458,0.344,5.48,0.344c0.076,0,0.154,0.023,0.223,0.068c0-0.023,0-0.053,0-0.053h0.184v0.743H5.703
	c0,0,0-0.03,0-0.053C5.635,1.103,5.564,1.117,5.48,1.117c-0.191,0-0.354-0.138-0.384-0.321L5.412,0.352 M5.703,0.736
	c0-0.116-0.099-0.215-0.223-0.215c-0.115,0-0.215,0.099-0.215,0.215c0,0.116,0.1,0.214,0.215,0.214
	C5.604,0.95,5.703,0.85,5.703,0.736 M4.938,0.827c0-0.068,0-0.766,0-0.766H4.753c0,0,0,0.675,0,0.789c0,0.116,0.068,0.26,0.29,0.26
	c0-0.007,0-0.176,0-0.176C4.99,0.935,4.938,0.905,4.938,0.827z"/>
</svg>
