<svg xmlns="http://www.w3.org/2000/svg" width="160" height="160" viewBox="0 0 42.333 42.333"><defs><clipPath id="a" clipPathUnits="userSpaceOnUse"><path d="M390.052 132.357h149.76v-147.96h-149.76z"/></clipPath><clipPath id="b" clipPathUnits="userSpaceOnUse"><path d="M390.052 132.357h149.76v-147.96h-149.76z"/></clipPath></defs><path d="M0 42.333h42.333V0H0z" fill="#fff"/><path d="M4.016 31.043h.286l-.444 1.03H3.85l-.401-1.03h.267v-.257h-.842v.257h.234l.608 1.512h.226l.66-1.512h.24v-.257h-.826zM3.716 24.255h.226l.66-1.513h.24v-.256h-.827v.256h.287l-.444 1.03H3.85l-.401-1.03h.267v-.256h-.842v.256h.234zM4.016 35.193h.286l-.444 1.03H3.85l-.401-1.03h.267v-.257h-.842v.257h.234l.608 1.512h.226l.66-1.512h.24v-.257h-.826zM5.172 28.149v.256h.846v-.256h-.249v-.916c0-.305-.145-.636-.506-.636-.279 0-.447.111-.658.318a.544.544 0 00-.49-.318c-.2 0-.437.15-.559.288v-.25h-.61v.258h.28v1.256h-.28v.256h.877v-.256h-.267v-.977c.08-.123.302-.299.47-.299.219 0 .307.12.307.326v.95h-.26v.256h.842v-.256h-.253v-.977c.08-.123.303-.299.472-.299.218 0 .306.12.306.326v.95zM8.748 15.45c0-.763-1.257-.357-1.257-.8 0-.2.184-.242.41-.242a.5.5 0 01.28.085.41.41 0 01.175.233h.273v-.54h-.257v.165a.84.84 0 00-.536-.203c-.325 0-.644.141-.644.51 0 .846 1.257.367 1.257.819 0 .241-.28.257-.433.257-.21 0-.486-.097-.567-.353h-.257v.574h.257v-.176c.15.169.391.215.609.215.353 0 .69-.15.69-.544M4.991 14.443v-.257h-.59v.268h-.01a.782.782 0 00-.602-.306c-.547 0-.877.402-.877.919s.33.927.877.927a.77.77 0 00.601-.307h.012v.268h.59V15.7h-.299v-1.256zm-1.17 1.29c-.403 0-.58-.325-.58-.666 0-.33.177-.66.58-.66.286 0 .574.239.574.66 0 .421-.288.667-.575.667M6.3 15.733a.247.247 0 00-.246-.245c-.133 0-.24.111-.24.245 0 .138.107.242.24.242a.242.242 0 00.246-.242M4.723 19.848V17.34h-.666v.257h.337v1.007H4.39a.767.767 0 00-.593-.306c-.548 0-.881.406-.881.922 0 .518.333.923.881.923.222 0 .475-.13.601-.306h.007v.268H5v-.257zm-.9.035c-.401 0-.578-.33-.578-.663s.177-.662.578-.662c.288 0 .571.241.571.662 0 .422-.283.663-.57.663M6.674 19.883a.594.594 0 01-.585-.551h1.535c0-.583-.375-1.034-.93-1.034a.925.925 0 00-.935.93c0 .528.421.915.911.915.41 0 .82-.214.916-.551H7.26c-.104.176-.318.29-.586.29m.016-1.324c.31 0 .605.238.605.517H6.089c.03-.287.299-.517.6-.517M24.283 21.879a.247.247 0 00-.246-.246.244.244 0 00-.241.246c0 .137.108.241.24.241a.242.242 0 00.247-.241M25.1 19.848h-.295V17.34h-.631v.257h.302v2.251h-.309v.257h.934zM23.154 18.588v-.29c-.303 0-.555.103-.682.387h-.006v-.35h-.606v.257h.295v1.257h-.295v.256h.953v-.256h-.329v-.605c0-.449.126-.617.67-.656M22.636 22.738v-.29c-.302 0-.555.103-.682.386h-.007v-.348h-.605v.256h.295V24h-.295v.256h.953v-.256h-.33v-.606c0-.448.128-.616.671-.655M34.376 26.267a.241.241 0 00.246-.24.247.247 0 00-.246-.246.244.244 0 00-.241.245c0 .138.108.241.24.241M17.31 15.783h11.493v-.267H17.42l-3.355-3.361H2.918v.266h11.038zM23.643 23.999v.256h.939v-.256h-.296v-1.513h-.631v.256h.302V24z"/><path d="M12.335 14.439v-.291c-.303 0-.556.103-.682.386h-.008v-.348h-.605v.257h.295v1.256h-.295v.256h.954V15.7h-.33v-.605c0-.448.127-.617.67-.655M10.546 24.255h1.52v-.636h-.299V24h-.807l1.068-1.253v-.26H10.58v.586h.3v-.33h.734l-1.068 1.249zM9.82 15.488a.244.244 0 00-.241.245c0 .138.107.242.241.242a.24.24 0 00.245-.242.246.246 0 00-.245-.245M17.71 22.742v-.257h-.858v.257h.238l-.636.556V21.49h-.605v.257h.276v2.252h-.291v.256h.842v-.256h-.222v-.644l.643.644h-.218v.256h.831v-.256h-.202l-.663-.667.663-.59zM9.566 22.738v-.29c-.303 0-.555.103-.682.386h-.008v-.348h-.605v.256h.295V24h-.295v.256h.953v-.256h-.329v-.606c0-.448.126-.616.671-.655M19.983 19.883a.595.595 0 01-.586-.551h1.535c0-.583-.375-1.034-.93-1.034a.925.925 0 00-.935.93c0 .528.42.915.912.915.409 0 .819-.214.915-.551h-.326c-.103.176-.318.29-.585.29m.015-1.324c.31 0 .605.238.605.517h-1.206c.03-.287.298-.517.601-.517M14.271 18.297a.925.925 0 00-.933.931c0 .529.42.916.91.916.41 0 .82-.215.916-.552h-.326c-.103.176-.317.29-.586.29a.595.595 0 01-.586-.55h1.536c0-.583-.375-1.035-.93-1.035m-.606.778c.031-.287.3-.517.602-.517.31 0 .605.238.605.517zM17.973 17.34h-.667v.256h.338v1.008h-.004a.77.77 0 00-.593-.307c-.548 0-.882.406-.882.924 0 .517.334.922.882.922.222 0 .474-.13.601-.306h.008v.268h.593v-.257h-.276zm-.9 2.543c-.402 0-.577-.33-.577-.662 0-.334.175-.663.577-.663.288 0 .57.241.57.663 0 .42-.282.662-.57.662M15.26 28.229c.149.168.39.215.608.215.353 0 .69-.15.69-.544 0-.762-1.256-.357-1.256-.8 0-.2.184-.242.41-.242.103 0 .199.03.279.085a.42.42 0 01.176.233h.272v-.54h-.256v.165a.842.842 0 00-.536-.203c-.326 0-.644.141-.644.509 0 .846 1.257.367 1.257.82 0 .24-.28.256-.433.256-.211 0-.486-.096-.567-.352h-.257v.574h.257zM18.963 32.299h-.294V29.79h-.632v.257h.302v2.252h-.31v.256h.934zM24.466 34.936h-.631v.257h.302v1.256h-.314v.256h.939v-.256h-.296zM24.465 34.326a.247.247 0 00-.246-.246.244.244 0 00-.24.246c0 .138.107.24.24.24a.241.241 0 00.246-.24M30.877 18.81c0-.337-.264-.512-.544-.512-.218 0-.49.149-.632.306v-.268h-.624v.256h.295v1.256h-.295v.257h.917v-.257H29.7v-.98c.177-.164.35-.295.602-.295.157 0 .245.134.245.318v.957h-.302v.257h.903v-.257h-.272zM26.374 23.999h-.29v-.981c.175-.165.348-.295.601-.295.157 0 .245.134.245.318v.958h-.303v.256h.904v-.256h-.272V22.96c0-.336-.264-.512-.543-.512-.219 0-.49.148-.632.306v-.268h-.624v.256h.294V24h-.294v.256h.914zM35.407 18.8c0-.2.185-.242.41-.242.104 0 .2.03.28.084a.416.416 0 01.176.234h.272v-.54h-.257v.165a.839.839 0 00-.536-.203c-.324 0-.643.141-.643.509 0 .846 1.256.368 1.256.82 0 .24-.28.256-.433.256-.21 0-.486-.096-.566-.353h-.257v.575h.257v-.176c.149.169.39.214.608.214.353 0 .69-.15.69-.543 0-.762-1.257-.357-1.257-.8M36.076 35.411c0-.337-.264-.513-.544-.513-.218 0-.49.15-.632.306v-.268h-.624v.257h.295v1.256h-.295v.256h.916v-.256H34.9v-.981c.177-.164.349-.294.602-.294.157 0 .245.133.245.317v.958h-.303v.256h.904v-.256h-.272zM34.625 28.378v-1.742h-.655v.257h.326v1.62c0 .248-.12.397-.375.397v.291c.582-.037.704-.282.704-.823M32.54 36.483a.595.595 0 01-.585-.55h1.536c0-.583-.375-1.035-.93-1.035a.925.925 0 00-.935.93c0 .528.421.916.911.916.41 0 .82-.215.915-.552h-.326c-.103.176-.317.291-.585.291m.015-1.325c.31 0 .605.238.605.517h-1.206c.03-.287.299-.517.601-.517M32.139 28.149v.256h.938v-.256h-.294v-1.513h-.632v.257h.302v1.256zM32.788 26.026a.247.247 0 00-.246-.245c-.133 0-.24.111-.24.245 0 .138.107.241.24.241a.241.241 0 00.246-.24M31.781 24.079c.15.168.39.215.609.215.352 0 .69-.15.69-.544 0-.762-1.256-.357-1.256-.801 0-.2.183-.241.41-.241.103 0 .198.03.28.084a.42.42 0 01.175.234h.272v-.54h-.257v.164a.84.84 0 00-.536-.202c-.325 0-.643.141-.643.509 0 .846 1.256.368 1.256.82 0 .24-.28.256-.433.256-.21 0-.486-.096-.567-.352h-.256v.574h.256zM27.617 35.411c0-.337-.264-.513-.543-.513-.219 0-.49.15-.632.306v-.268h-.625v.257h.295v1.256h-.295v.256h.915v-.256h-.29v-.981c.175-.164.348-.294.601-.294.157 0 .244.133.244.317v.958h-.302v.256h.904v-.256h-.272zM11.636 31.135h-.007v-.35h-.605v.258h.294v1.256h-.294v.256h.953V32.3h-.33v-.606c0-.448.127-.616.67-.655v-.29c-.302 0-.554.103-.681.387M12.18 18.81c0-.337-.264-.512-.544-.512-.218 0-.49.149-.63.306v-.268h-.625v.256h.295v1.256h-.295v.257h.914v-.257h-.29v-.98c.175-.164.349-.295.601-.295.157 0 .245.134.245.318v.957h-.303v.257h.903v-.257h-.27zM11.817 36.449h-.808l1.069-1.252v-.261h-1.449v.586h.3v-.33h.734l-1.068 1.249v.264h1.52v-.635h-.298zM13.147 15.975a.24.24 0 00.245-.242.246.246 0 00-.245-.245.244.244 0 00-.241.245c0 .138.107.242.24.242M13.254 27.98c0 .38.071.464.378.464a.998.998 0 00.284-.04v-.263c-.054.004-.111.012-.165.012-.134 0-.168-.016-.168-.261v-1h.337v-.256h-.337v-.613h-.33v.613h-.303v.257h.304zM8.988 35.284H8.98v-.348h-.605v.257h.295v1.256h-.295v.256h.953v-.256h-.33v-.605c0-.448.127-.617.671-.655v-.29c-.302 0-.555.102-.682.385M19.202 28.042l-.195-.176c-.16.171-.364.317-.609.317-.338 0-.556-.26-.556-.667 0-.367.234-.658.548-.658.238 0 .448.157.51.387h.245v-.61h-.26v.192h-.009c-.1-.141-.322-.23-.493-.23-.567 0-.87.403-.87.924 0 .52.303.923.87.923.34 0 .612-.157.82-.402M20.556 29.79h-.633v.257h.303v2.252h-.31v.256h.934V32.3h-.294zM30.251 34.936v.253h-.008a.773.773 0 00-.609-.29c-.593 0-.88.481-.88.926 0 .444.287.919.88.919.303 0 .56-.192.583-.295h.007v.21c0 .437-.222.578-.574.583-.2 0-.422-.077-.494-.268h-.376c.123.364.494.528.854.528.602 0 .92-.272.92-.884v-1.425h.305v-.257zm-.59 1.548c-.382 0-.578-.346-.578-.66 0-.451.28-.666.579-.666.36 0 .562.253.562.667 0 .42-.333.659-.562.659M19.558 34.898a.924.924 0 00-.935.93c0 .529.421.916.911.916.41 0 .82-.215.916-.552h-.326c-.103.176-.317.292-.586.292a.594.594 0 01-.585-.552h1.535c0-.582-.375-1.034-.93-1.034m-.605.777c.03-.287.298-.517.601-.517.31 0 .605.238.605.517zM6.529 34.898a.925.925 0 00-.935.93c0 .529.422.916.912.916.41 0 .82-.215.915-.552h-.325c-.103.176-.318.292-.586.292a.596.596 0 01-.587-.552H7.46c0-.582-.375-1.034-.931-1.034m-.606.777c.031-.287.299-.517.602-.517.31 0 .605.238.605.517zM14.007 36.483a.595.595 0 01-.586-.55h1.535c0-.583-.375-1.035-.93-1.035a.925.925 0 00-.934.93c0 .528.421.916.91.916.41 0 .82-.215.916-.552h-.325c-.104.176-.318.291-.586.291m.015-1.325c.31 0 .605.238.605.517h-1.206c.03-.287.298-.517.6-.517M22.134 35.284h-.008v-.348h-.605v.257h.296v1.256h-.296v.256h.954v-.256h-.33v-.605c0-.448.127-.617.671-.655v-.29c-.302 0-.555.102-.682.385M21.27 28.149v.256h.905v-.256h-.28V27.11c0-.338-.257-.514-.536-.514-.218 0-.49.15-.632.307V25.64h-.624v.257h.295v2.252h-.295v.256h.915v-.256h-.29v-.98c.175-.166.347-.296.6-.296.146 0 .238.1.238.319v.957zM6.448 30.748c-.532 0-.946.356-.946.923 0 .59.376.923.946.923.571 0 .946-.334.946-.923 0-.567-.413-.923-.946-.923m0 1.585c-.37 0-.616-.268-.616-.662 0-.395.245-.663.616-.663.372 0 .617.268.617.663 0 .394-.245.662-.617.662M9.167 30.748c-.532 0-.946.356-.946.923 0 .59.376.923.946.923s.947-.334.947-.923c0-.567-.414-.923-.947-.923m0 1.585c-.37 0-.616-.268-.616-.662 0-.395.245-.663.616-.663s.617.268.617.663c0 .394-.246.662-.617.662M16.487 31.054h-.01a.78.78 0 00-.602-.306c-.548 0-.877.402-.877.919s.33.926.877.926a.77.77 0 00.601-.306h.011v.268h.59V32.3h-.299v-1.256h.299v-.257h-.59zm-.582 1.28c-.402 0-.578-.326-.578-.667 0-.33.176-.659.578-.659.287 0 .575.237.575.659 0 .421-.288.666-.575.666M22.647 32.333a.594.594 0 01-.585-.551h1.535c0-.583-.375-1.034-.931-1.034a.925.925 0 00-.935.93c0 .528.422.915.913.915.41 0 .819-.214.914-.55h-.325c-.104.175-.318.29-.586.29m.015-1.325c.31 0 .606.237.606.517h-1.206c.03-.288.297-.517.6-.517M7.385 23.742h-.326c-.103.176-.317.29-.585.29a.596.596 0 01-.587-.55h1.537c0-.582-.376-1.035-.931-1.035a.926.926 0 00-.935.931c0 .528.422.915.912.915.41 0 .82-.214.915-.551m-.896-1.034c.31 0 .605.237.605.517H5.887c.031-.287.299-.517.602-.517M26.908 20.143a.77.77 0 00.6-.306h.012v.268h.59v-.257h-.3v-1.256h.3v-.256h-.59v.268h-.011a.783.783 0 00-.601-.307c-.549 0-.878.402-.878.92 0 .516.33.926.878.926m.03-1.585c.287 0 .575.237.575.659 0 .42-.288.666-.575.666-.402 0-.579-.325-.579-.666 0-.33.177-.659.579-.659M11.333 26.904h-.012a.78.78 0 00-.6-.306c-.548 0-.877.402-.877.919 0 .516.329.927.876.927.227 0 .48-.127.601-.307h.012v.268h.59v-.257h-.299v-1.255h.3v-.257h-.59zm-.582 1.279c-.402 0-.578-.325-.578-.666 0-.33.176-.659.578-.659.288 0 .575.237.575.659 0 .42-.287.666-.575.666M19.421 22.448a.925.925 0 00-.934.93c0 .528.42.916.911.916.41 0 .82-.215.916-.552h-.326c-.104.176-.317.29-.587.29a.594.594 0 01-.585-.55h1.536c0-.583-.376-1.034-.93-1.034m-.606.777c.03-.287.299-.517.602-.517.31 0 .604.237.604.517zM30.305 26.597c-.288 0-.46.085-.654.292v-.253h-.617v.257h.302v2.052h-.299v.256h.958v-.256h-.33v-.781h.008c.13.203.352.28.632.28.44 0 .83-.372.83-.916s-.39-.93-.83-.93m-.084 1.585c-.31 0-.555-.28-.555-.667 0-.386.244-.658.555-.658.364 0 .586.326.586.663 0 .325-.238.662-.586.662M27.34 26.597c-.288 0-.46.085-.656.292v-.253h-.615v.257h.302v2.052h-.3v.256h.958v-.256H26.7v-.781h.008c.13.203.352.28.632.28.44 0 .83-.372.83-.916s-.39-.93-.83-.93m-.084 1.585c-.31 0-.556-.28-.556-.667 0-.386.245-.658.556-.658.363 0 .584.326.584.663 0 .325-.236.662-.584.662M24.524 26.904h-.012a.781.781 0 00-.6-.306c-.549 0-.878.402-.878.919 0 .516.33.927.877.927a.768.768 0 00.601-.307h.012v.268h.59v-.257h-.299v-1.255h.3v-.257h-.591zm-.583 1.279c-.4 0-.578-.325-.578-.666 0-.33.177-.659.578-.659.288 0 .576.237.576.659 0 .42-.288.666-.576.666M30.261 24.167v-1.425h.306v-.256h-.609v.252h-.007a.773.773 0 00-.609-.29c-.593 0-.88.482-.88.927 0 .443.287.919.88.919.303 0 .56-.192.582-.295h.007v.21c0 .437-.221.578-.573.582-.2 0-.422-.077-.494-.268h-.376c.123.364.494.528.854.528.601 0 .92-.271.92-.884m-.892-.134c-.384 0-.579-.345-.579-.658 0-.453.279-.667.579-.667.359 0 .561.253.561.667 0 .42-.333.658-.561.658M38.506 19.883a.595.595 0 01-.586-.551h1.536c0-.583-.376-1.034-.93-1.034a.925.925 0 00-.935.93c0 .528.421.915.911.915.41 0 .82-.214.915-.551h-.325c-.103.176-.318.29-.586.29m.016-1.324c.31 0 .605.238.605.517H37.92c.03-.287.3-.517.602-.517M33.822 17.34h-.666v.256h.336v1.008h-.004a.767.767 0 00-.593-.307c-.548 0-.881.406-.881.924 0 .517.333.922.881.922.221 0 .475-.13.601-.306h.008v.268h.594v-.257h-.276zm-.9 2.543c-.402 0-.579-.33-.579-.662 0-.334.177-.663.579-.663.287 0 .57.241.57.663 0 .42-.283.662-.57.662M8.325 26.904h-.012a.782.782 0 00-.602-.306c-.547 0-.876.402-.876.919 0 .516.33.927.876.927.227 0 .48-.127.602-.307h.012v.268h.589v-.257h-.299v-1.255h.299v-.257h-.59zm-.583 1.279c-.401 0-.578-.325-.578-.666 0-.33.177-.659.578-.659.288 0 .575.237.575.659 0 .42-.287.666-.575.666M14.063 22.448a.926.926 0 00-.936.93c0 .528.422.916.912.916.41 0 .82-.215.915-.552h-.325c-.104.176-.318.29-.586.29a.595.595 0 01-.586-.55h1.535c0-.583-.374-1.034-.93-1.034m-.605.777c.03-.287.298-.517.601-.517.31 0 .605.237.605.517zM16.866 35.193h.238l-.636.555V33.94h-.605v.257h.275v2.252h-.291v.256h.843v-.256h-.222v-.643l.643.643h-.218v.256h.83v-.256h-.202l-.663-.666.663-.59h.203v-.257h-.858z"/></svg>