<svg xmlns="http://www.w3.org/2000/svg" width="198" height="49" viewBox="0 0 197.7 48.9"><path d="M110.1 35.5v9.4c-5.3 2.6-10.2 4-15.3 4 -13.8 0-22.1-8.2-22.1-18.4 0-11.1 9.4-20.2 21.6-20.2 3 0 5.3 0.5 7.6 1.4 1.8 0.5 2.7 1.2 3.8 1.2 0.9 0 1.2-1.6 1.4-2.5h1.3l1.2 12.7h-1.6c-0.7-2.5-1.8-4.6-3.4-6 -2.5-2.5-5.9-3.8-9.8-3.8 -8.3 0-13.1 6.6-13.1 16.4 0 9.7 5.9 16.4 13.8 16.4 2.3 0 4.5-0.5 7.1-1.8v-9.7c0-3.1-0.5-4.4-5-4.4v-1.5h16.7v1.5C110 30.3 110.1 31.6 110.1 35.5L110.1 35.5zM64.3 20v28.2h-2.2l-28.2-29.2c0.1 0.8 0.1 1.5 0.1 2.2v17.7c0 5.5 0 7.5 5 7.5v1.5H25.7v-1.5c5 0 5-2.3 5-7.5V18.8c0-3 0-6.3-5.3-6.3v-1.5h12.5l23.2 23.9c-0.1-0.7-0.1-1.1-0.1-1.9V19.9c0-5.3 0.1-7.5-4.9-7.5v-1.5h13.2v1.5C64.6 12.5 64.3 14.6 64.3 20L64.3 20zM0 48.1v-1.5c3.1 0 5.4-0.3 5.4-4.9V17.4c0-4.8-1.8-4.9-5.3-4.9v-1.5h18.7v1.5c-3.8 0-5.4 0.1-5.4 4.9v24.3c0 4.6 1.9 4.9 5.4 4.9v1.5H0L0 48.1z" fill="#003876"/><path d="M110.1 35.5v9.4c-5.3 2.6-10.2 4-15.3 4 -13.8 0-22.1-8.2-22.1-18.4 0-11.1 9.4-20.2 21.6-20.2 3 0 5.3 0.5 7.6 1.4 1.8 0.5 2.7 1.2 3.8 1.2 0.9 0 1.2-1.6 1.4-2.5h1.3l1.2 12.7h-1.6c-0.7-2.5-1.8-4.6-3.4-6 -2.5-2.5-5.9-3.8-9.8-3.8 -8.3 0-13.1 6.6-13.1 16.4 0 9.7 5.9 16.4 13.8 16.4 2.3 0 4.5-0.5 7.1-1.8v-9.7c0-3.1-0.5-4.4-5-4.4v-1.5h16.7v1.5C110 30.3 110.1 31.6 110.1 35.5L110.1 35.5zM64.3 20v28.2h-2.2l-28.2-29.2c0.1 0.8 0.1 1.5 0.1 2.2v17.7c0 5.5 0 7.5 5 7.5v1.5H25.7v-1.5c5 0 5-2.3 5-7.5V18.8c0-3 0-6.3-5.3-6.3v-1.5h12.5l23.2 23.9c-0.1-0.7-0.1-1.1-0.1-1.9V19.9c0-5.3 0.1-7.5-4.9-7.5v-1.5h13.2v1.5C64.6 12.5 64.3 14.6 64.3 20L64.3 20zM0 48.1v-1.5c3.1 0 5.4-0.3 5.4-4.9V17.4c0-4.8-1.8-4.9-5.3-4.9v-1.5h18.7v1.5c-3.8 0-5.4 0.1-5.4 4.9v24.3c0 4.6 1.9 4.9 5.4 4.9v1.5H0L0 48.1z" fill="none"/><path d="M191.2 15.3c-1.8-1.8-3.9-2.7-5.4-4.6 -0.8-0.8-1.5-1.6-1.9-2.6 -0.7-0.7-1.1-1.1-1.8-1.5 0.1 0.4 0.3 0.8 0.4 1.2h-0.1c-0.7 0-1.3-0.4-1.8-0.8l0.5-0.5c-0.1-0.3-0.5-0.3-0.8-0.3 -2.1-0.4-4.1 0.8-6.1 1.2v0.3c1.3 0.4 1.6 1.9 2.3 2.7h0.8c0.3 0 0.7 0.3 0.9 0.3 0-0.3-0.3-0.8-0.3-0.8 0.3-0.3 0.5-0.3 0.8 0 0.7 0.4 1.6-0.3 2.2 0.8 -0.8 0-1.6 0-2.2 0.4 0 0.1 0.4 0.4 0.3 0.7 -0.7-0.3-1.5 0-1.7-0.5l-0.1 0.1c0.8 0.9 1.9 1.7 3.1 2.1 1.7 0.3 3.1-0.5 4.9-0.1 6 2.9 10.2 9.7 10.2 16.4 0 9.7-5.4 13.6-9 13.6 -0.7 0-1.7-0.4-2.1-0.8 0.4-1.5 0.7-3 0.7-5.3 0-5.6-2.2-11.7-5.3-14.8 -1.5-1.5-3-2.6-4.7-2.6 -0.8 0-1.6 0-2 0.7 -0.7 0.5-1.1 1.6-0.9 2.2 -1.1 0.8-2.7 1.2-4.1 1.2 -1.5 0-3.3-0.5-5-1.8v-1.9c-0.4-0.1-1.8-0.9-1.1-1.6 0.4 0.1 0.7 0.4 0.8 0.5 -0.1-0.9-0.1-1.9-0.8-2.7 -0.3 0-0.7 0-1.1-0.3 -0.4-0.4-0.8-0.9-0.8-1.6 0.4 0.7 1.1 0.4 1.5 0.8 -0.7-1.6-0.4-2.2-1.6-4.6 -0.3-1.2-1.5-1.8-2.2-2.6 -0.4-0.3-0.5-0.7-1.1-0.7 -0.5-0.1-0.5-0.8-0.5-1.2 0.1 0 0.5 0.3 0.8 0.4 -0.8-1.8-1.3-3.8-3-4.9l-0.4 0.3h-2c0.3-0.3 0.8-0.4 1.2-0.7 -0.4-0.4-0.7-0.5-1.5-0.5 -0.4 0.1-0.9 0.5-1.5 0.5h-0.1c0-0.4-0.1-0.9 0.7-1.2 -0.8-0.1-1.5-0.1-2.3 0 -0.1 0.7-0.5 1.1-0.5 1.6 -0.4 0.3-0.5 0.7-0.9 1.1 0-0.8 0.4-1.6 0.5-2.3 -0.5 0.1-1.2 0.5-1.5 0.5C144.4 0.6 143.2 0 142.6 0c0.8 0.5 0.4 1.5 0.5 2.1l-0.5-0.3c-0.1-0.5-0.8-0.9-0.9-1.6 -0.8 0-1.3 0.3-1.9 0.7v0.1c0.4 0 0.9 0.4 1.2 0.8 -0.9 0-1.6-0.4-2.5-0.4 0 0 0-0.1-0.1-0.1 -0.4 0.1-0.8 0.5-1.1 0.8 -0.9 0.8-1.6 1.5-1.9 2.6 0.3 0 0.7 0 0.8 0.1 -0.5 0.1-0.8 0.8-1.3 0.9v1.9c-0.4 0.4-0.9 0.8-1.2 1.6 -0.7 2.1-0.8 4.5-0.8 7.1 -0.1 0.5-0.4 0.7-0.7 0.8v2.1c0 0 0.8-0.8 1.2-1.1v1.7c-0.5 0-0.9 0.7-0.9 1.1 0 0.5 0.1 1.1 0.1 1.6 0 0.3 0 0.3 0.1 0.5 0-0.3 0.3-0.5 0.7-0.7 0 0 0.3-0.3 0.8-0.3 -0.4 0.4-0.5 0.9-0.8 1.5 -0.4 0.4-0.4 0.4-0.4 0.4s-0.1 0.3-0.1 0.4c0.5 2.7 1.3 5.1 2.3 7.7 -1.1 1.7-2.2 5-3 8.1 -0.7-0.7-1.6-0.8-2.3-0.8 -0.8 0.1-1.6 0.4-2.1 1.2 -0.8-0.4-1.8-0.3-2.3 0.3 -1.2 1.1-1.2 1.6-1.2 2.3 -0.3 0.3-0.8 0.9-0.8 1.8 0 1.2 0.1 1.9 0.8 3h19.8c-0.1-0.4-0.4-0.9-0.7-1.2 -0.4-0.8-0.1-1.8-0.1-2.6 0.4-0.8 0.8-1.6 1.3-2.2 0.1-0.4 0-0.4 0.1-0.5l0.9-0.3c0.5 0 0.9-0.4 1.6-0.4 0.4 0.7 0.4-0.4 1.1-0.7 1.5-0.3 2.9 0 3.7 1.1 0 0.3 0.1 0.3 0.1 0.4h-0.7c-0.8-0.4-1.7-0.8-2.6-0.4 0 0.4-0.1 0.4-0.1 0.8 0 0.3 0 0.3 0 0.7 0.5 0 0.9 0.5 1.5 0.8 0.3-0.4 1.1-0.8 1.6-0.8 0.7 0 1.6 0.4 1.6 1.5v1.5c0.5 0.5 1.2 0.7 1.8 0.9 -0.3 0.5-0.7 0.5-1.1 0.5h-1.1c-0.1-0.1-0.4-0.1-0.4-0.5 -0.4 0.5-0.7 1.1-0.9 1.6h15.3c-0.3-0.5-0.5-0.9-0.7-1.2 -0.3-0.8-0.3-1.8-0.3-2.6l1.5-1.9c0.8 0 1.5-0.3 2.9-0.4 0.3-0.4 0-0.7 1.2-0.7 0.9 0 1.6 0.3 1.8 0.4 0.1 0.3 0.1 0.3 0 0.5 -0.3 0.3-0.8-0.3-1.2-0.1 -0.3 0.3 0.1 0.4 0.1 0.7 0.3 0.3-1.2-0.3-1.2-0.3s-0.3 0.8-0.4 1.1c0 0 0.5 0.5 0.8 0.8 0.3 0.4-0.4 0.8-0.4 1.2 -0.3-0.1-0.8-0.5-0.8-0.4 -0.3 1.1 0 1.9-0.1 3h1.5l0.1-2.2c0.1-1.3 1.7-3.7 2.6-3.7 0.5 0 0.9 0.3 1.3 0.5 0.3 0.5 0.9 0.8 0.9 1.1s-0.4 0.4-1.1 0.4c-0.3 0-0.3-0.4-0.7-0.7l-0.8 0.8c0 0 0.9 0.8 0.9 1.3 0 0.7-0.1 0.9-0.5 1.3l-0.8-1.6c-0.4 0-1.1 0.8-1.1 1.2 0 0.5-0.3 0.8-0.3 1.6h8.1c0.9 0 1.7-0.3 2.6-0.8h1.6c3.3 0 5.9-0.9 8.3-3.3 3.1-3.1 5-8.1 5-12.9C197.8 25.3 195.4 19.5 191.2 15.3zM178.5 8.5c-0.3-0.4-0.7 0-0.9 0 -0.3 0-0.4 0-0.9-0.4 0.8 0 1.2-0.4 1.8-0.7 0.5 0.4 1.1 0.5 1.5 1.1H178.5L178.5 8.5zM182.7 10.5c-0.4-0.5-0.9-1.2-1.5-1.2 0.4 0 0.9-0.4 1.6-0.4 0.3 0.7 0.8 1.1 0.9 1.6l0.1 0.8C183.5 10.7 183.1 10.5 182.7 10.5zM161.1 27.7l-0.7 0.3c-1.5 0-2.1-0.4-2.7-0.9 0.5 0 1.2-0.7 1.2-0.7C159.5 27 160.4 27.6 161.1 27.7zM154.3 26.3c-0.7 0.1-1.2-0.5-1.8-0.8 -0.3-0.8-0.3-1.6-0.5-1.9 0.5 0.4 1.8 0.4 1.5 1.6C153.3 25.5 153.9 25.8 154.3 26.3zM154.3 30.6c0.4 0.1 1.1 0.5 1.5 0.8 0 0-0.3 0-0.4 0 -1.5 0.5-2.6-0.4-3.8-1.2 0.7-0.3 1.6-0.4 2.3-0.4L154.3 30.6zM154.5 28.5c0.5-0.4 1.2-0.4 1.5-0.5 0.5 0.5 1.1 1.5 1.9 1.9 -0.5 0-1.5 0-1.9-0.4C155.1 29.2 154.9 28.9 154.5 28.5zM153.1 36.7c0-0.4 0.3-0.8 0.8-1.1 0.8 0.3 1.5-1.5 2.2-0.5 0.4 0.1 0.8 0.1 1.1 0.1 0.9 0.4 1.2 1.2 1.6 1.8 -0.7 0-1.2 0-1.6-0.7 -0.1 0-0.4-0.4-0.5-0.1 -0.7 0.5-1.3-0.4-2.1-0.3 -0.4 0.4-0.8 0.7-1.5 0.8V36.7L153.1 36.7zM159.6 22.8c-0.1 0.5-0.7 0-0.8 0h-1.2c-0.1-0.3-0.3-0.4-0.3-0.7 0.5-0.1 0.9-0.4 1.3-0.1C158.9 22.4 159.2 22.8 159.6 22.8zM157.1 17.1c0.3 0.5 0.3 0.8 0.5 1.1 0.5-0.3 0.5 0.4 0.7 0.5 0.1 0.4 0.4 0.8 0.4 1.2 -0.8 0-1.2-0.4-1.6-1.2C157.1 18.3 157 17.8 157.1 17.1zM156.1 23.5l1.3 1.2c-0.8 0-1.7 0.4-2.1-0.4C155.5 24.2 155.8 23.8 156.1 23.5zM155.9 13.6c0 0.1-0.3 1.3-0.3 1.3l-1.1 0.3 0.7-2.9C155.5 12.8 155.9 13.3 155.9 13.6zM137.3 4.1c0.3 0 0.7-0.1 0.8-0.4 0.7-0.1 1.1-0.8 1.8-0.4 0.5 0 1.1 0.3 1.5 0.4 0 0.3 0 0.4 0.3 0.7 0.8 0 0.8 0.8 1.2 1.5 0.4 0.1 0.8 0.1 1.1 0.1 0.8 0.3 1.5 0.3 1.7 0.7 1.1-0.7 2.1-0.8 3.3-0.7 0.1-0.4 0.4-0.9 0.5-1.6 0.1 0.4 0.1 0 0.4 0 0.5-0.4 1.2-1.1 2.1-0.8 0.5 0.4 1.5 0.1 1.9 0.8 0.4 0.5 0.7 1.3 1.1 1.9 -0.4 0.8 0 1.8-0.8 2.2l-0.8 0.8c-0.3 0-0.3 0.3-0.7 0.3 0.4 0.9 0.1 2.2-0.3 3.1 0.3-0.1 0.7-0.1 0.7-0.5 0.1 0.1 0 0.4 0 0.5 0 0.3 0 0.4 0 0.4 0 0.7-0.4 1.3-0.9 1.8 -0.3 0.8-0.9 1.8-1.8 1.9v0.3c1.9 0 3.5 0.5 5.4 1.5v0.9c-1.6-0.9-3.3-1.6-5.3-1.7 0 0.4 0 0.8-0.1 0.9 1.6 0.8 3 1.5 4.3 2.6v1.2c-1.3-1.3-2.7-2.6-4.5-3 -0.1 0.3-0.7 0.5-0.8 1.1 -0.9-0.7-1.9-1.3-3-1.5 -0.4 0-0.7-1.5-0.7-1.5 0.7-0.3 1.1-0.7 1.3-1.3h0.5c0.4 0 0.4-0.3 0.4-0.7 0-0.8-1.7-0.8-2.5-0.8 -0.9 0-1.6 0-2.1 0.4 -0.3 0-0.1 0.4-0.1 0.7 0 0.1 0.4 0.4 0.4 0.4 0.3 0 0.5-0.3 0.8-0.3 -0.1 0.8 0.1 1.2 0.9 1.6l-0.1 1.3c-1.6 0-2.6 0.7-3.8 1.2 -0.4-0.3-0.7-0.7-0.9-1.1 -1.6 0.5-4.3 2.6-4.3 2.6s0-0.5 0-0.9c1.2-1.1 2.7-1.6 3.9-2.2v-0.9c-0.5-0.3-1.1 0-1.6 0 -1.2 0.1-2.3 0.7-3.1 1.3 0-0.4-0.1-0.9-0.1-0.9 1.5-0.8 3.3-1.5 5-1.2 0-0.1 0-0.5 0-0.5 -0.1-0.3-0.1-0.7-0.4-0.7 -0.8-0.8-1.6-1.9-1.6-2.7l0.5-0.3c-0.3-0.8-0.5-2.7 0-3.4 -0.8-0.4-1.6-1.1-1.8-1.6 -0.3-0.7-0.5-1.1-0.7-1.8C136.8 5.1 137 4.9 137.3 4.1zM149.5 28.5c-0.7-0.4-1.8-0.5-1.6-1.3 0.3-0.7 0.7-0.8 0.9-1.1C149 27 149.1 27.7 149.5 28.5zM141.4 24.7l-0.4 1.7c-0.4-0.8-0.8-1.6-0.9-2.5L141.4 24.7zM139.7 26.8c-0.8-0.3-1.7-1.1-2.1-1.7 -0.3-0.5-0.4-1.2-0.4-1.6 0.5 0 0.9 0.4 1.1 0.7v0.1C138.9 25.1 139.6 25.8 139.7 26.8zM138.3 28.4c0 0.5-0.3 1.2-0.9 1.8 -0.1 0.1-0.5 0.4-0.5 0.4 0-0.8 0.4-1.5 0.4-2.1C137.6 28.4 138 28.1 138.3 28.4zM139.6 30c0.1-0.1 0.3 0 0.5 0l-0.5 1.9c-0.7 0.5-1.6 0.3-2.3 0.3C138.3 31.9 139.1 30.7 139.6 30zM135 9.2c0.3-0.4 0.4-0.8 0.8-1.2v1.6l-0.9 0.3L135 9.2zM135 11.9l1.1-0.4 -0.7 0.8c0.1 1.3-0.4 2.2-0.4 3.4l-0.7-2.1C134.5 13 134.6 12.5 135 11.9zM134.9 27c0.1-0.5 0.5-0.8 0.7-0.9 0.4 0.1 0.7 0.1 1.2 0.3 -0.7 0.7-1.3 0.9-1.6 1.7C135.1 27.7 135 27.3 134.9 27zM126.5 44.6c-0.1 0-0.5-0.4-0.9-0.4 -0.4 0.8 0 1.3 0 2.2 0 0.4-0.1 0.8-0.1 0.8 -0.3 0-0.8-0.5-0.9-1.1v-2.1l1.2-1.5C126.5 43.2 126.7 44 126.5 44.6zM129.6 44.6c-0.1-0.5-0.5-1.2-1.2-1.2 -0.5 1.1-0.7 1.5-0.1 3 -0.4 0.4-0.7 0.5-1.2 0.8 -0.3-0.5-0.3-1.5-0.3-1.9 0-0.9 0.1-1.8 0.4-2.6 0.4-0.4 0.7-1.1 1.1-1.5h1.5c-0.7 0-0.7 0.7-0.7 1.1 0.4 0.1 0.9 0.3 0.9 0.9C129.9 43.7 129.8 44.3 129.6 44.6zM132.8 46.4c0-0.7 0.4-1.5 0.4-2.2 0 0-0.5-0.5-1.1-0.5 -0.4 0.3-0.4 0.5-0.5 0.9 -0.4 0.8-1.2 1.6-1.3 2.3 -0.1 0-0.1-0.1-0.1-0.1 0-1.3 0.1-3.5 0.9-4.5 0.7-0.8 1.2-0.8 1.9-0.9l0.7 0.1 -0.5 0.8c0.5 0.3 1.3 0.8 1.3 1.6C134.5 45 132.8 46.4 132.8 46.4zM137.7 44l-0.9-2.3c-1.1-1.1-2.2-1.2-2.9-1.7 -0.5-0.1-0.5 0.3-0.8 0 0-0.3 0-0.7 0.4-1.1h0.8l0.8 0.4c0.4 0.4 1.3 0.4 1.3 1.2 0 0.1-0.1 0.3 0.3 0.8l1.3 0.4 0.1 1.1L137.7 44zM139.2 41.6c-0.3-0.4 0-1.1-0.4-1.5 0-0.3 0.3-0.4 0.1-0.5 -0.1-0.3-1.7-0.8-1.7-0.8 -0.5-0.4-1.2-0.8-1.8-1.3 -0.5-0.1-0.9 0.1-1.6 0.3 0-0.1 0-0.3 0-0.3 0.3-0.5 0.3-1.2 1.1-1.2 0.4 0 0.9 0 1.2 0.4 0.5 0 0.8 0.5 1.2 0.7 0.7 0.7 1.2 0.9 1.6 1.2 0 0.4 0.1 0.7 0.4 0.8 0.8 0 0.5 0.8 0.8 1.3L139.2 41.6zM140.7 38.6c-0.3-0.9-0.9-1.8-1.7-1.8 -0.4-0.4-0.8-0.8-0.9-1.2 -0.4-0.4-0.8 0-1.3-0.4 -0.5 0-1.2 0-1.7 0.4v-0.4l0.9-1.1c0.9 0.1 2.1 0 2.3 0.7 0.7 0.4 1.3 0.8 1.5 1.1 0 0.1 0 0.1 0 0.4 0.3 0.1 0.8 0.3 1.1 0.4C140.7 37.1 140.7 38.6 140.7 38.6zM142.1 32.2c-0.4 0-1.1 0.3-1.8 0 0.4-0.3 0.8-0.4 1.3-0.8l1.1-1.1h1.1C143.3 31.1 142.9 31.9 142.1 32.2zM142.5 26.3c0.4 0 0.8 0 1.2 0.3 0 0.7 0.3 1.2 0.3 1.9C143.1 27.7 142.5 27 142.5 26.3zM142.9 34.1c0.1-0.4 0.5-0.5 0.8-0.9 0.3-0.4 0.8-1.1 0.9-1.5 0.7-0.4 0.9-0.4 1.5-0.4 -0.1 0.8-0.5 1.1-1.2 1.9C144.4 33.7 143.7 33.8 142.9 34.1zM144.7 36.7l-0.8-1.1h1.9l0.4 0.8C145.7 36.8 145.3 36.8 144.7 36.7zM145.6 28.9l-0.3-1.3c0.4-0.3 0.8-0.5 1.3-1.2C146.7 27.3 146.5 28.5 145.6 28.9zM147.2 22.1c-0.1 0 0 0.4-0.1 0.4 0 0.3-0.3 0.8-0.3 1.3 -0.3 0.1-0.8 0.4-1.3 0.1v-0.4c-0.1-0.3-0.1-0.8-0.1-1.1h-0.2c-0.4 0.1-0.4 0.4-0.4 0.7 -0.1 0.3-0.4 0.5-0.4 0.9 -0.5 0-0.8-0.1-1.2-0.4v-1.2c0-0.3 0-0.3-0.1-0.3l-0.7 0.7c-0.5-0.4-0.7-1.5-0.7-2.1 2.1-1.2 4.7-0.8 6.3-0.1 0.3 0.1 0.5 0.1 0.8 0.3 -0.1 0.8-0.4 1.9-1.2 2.5C147.7 22.8 147.5 22.5 147.2 22.1zM149.5 36.2c-0.1 0-1.1-0.4-1.3-0.7 -0.1-0.4-0.1-0.8-0.1-0.8h1.1l0.7 1.5H149.5zM149.5 32.7c-0.8-0.7-1.3-1.5-2.1-2.5l2.1 0.4c0.4 0.3 1.2 1.2 1.6 1.6C150.9 32.4 150.1 32.7 149.5 32.7zM151 27.7c-0.8-1.2-0.4-2.2 0-3.1 0.3 0.8 0.4 1.6 0.5 2.2 0.1 0.5 0.9 0.8 1.2 1.2C152.1 28.1 151.3 28.4 151 27.7zM151.5 39.4l0.7-1.6c0.5 0 0.9-0.3 1.2-0.3 0.5-0.1 0.9-0.1 1.3-0.1v0.1c1.5 0 3.1-0.1 4.2 1.1l0.1 1.1c-0.5-0.4-1.3-0.4-1.6-1.1 -0.5-0.1-0.9-0.1-1.6-0.1 -0.5 0.1-1.2 0.1-1.7 0.1 -0.1 0 0-0.1-0.3-0.3C153.1 38.6 152.3 38.6 151.5 39.4zM155.7 44.3l-0.4 0.4c-0.4-0.4-0.1-1.5-0.8-1.6 -0.7 0-1.2-0.7-1.5-0.8l0.5-0.3c0 0 0.3-0.1 0.5 0 0.3 0.3 0.5 0.4 0.5 0.7 0.3 0.4 0.7 0 0.9 0.4C155.7 43.4 155.8 44 155.7 44.3zM159.7 44c-0.3-0.8-0.5-1.9-1.5-1.9 -0.1-0.5-0.3-0.8-0.8-1.2l-1.1-0.1c0.1 0.5 0.9 0.5 0.4 1.3 0.5 0.4 0.9 0.4 1.2 1.1 0.3 0.4 0 0.9 0.1 1.2l-0.8 0.4c0-0.7 0.1-1.9-0.8-2.2 -0.8 0.3-0.9-0.8-1.5-1.2 -0.3 0-0.3-0.7-0.7-0.4 -0.7 0.4-1.5 0-2.1 0.4l0.7-1.1c0.5-0.4 1.1-0.3 1.6-0.4l1.1-0.1c1.1 0 1.9 0.5 3 0.9 0.5 0.3 0.8 0.7 0.8 1.3 0.3 0.1 0.8 0.1 0.8 0.5C160.1 42.6 159.9 43.4 159.7 44zM161.6 42c-0.3-0.4-0.4-0.8-0.7-0.8 0.4-1.5-0.4-2.6-0.7-3.8v-0.4c0.4 0.7 1.5 1.3 1.3 1.9C161.6 40.2 161.6 41.2 161.6 42L161.6 42zM160.3 25.7l1.1-0.5c0.4 0.4 0.9 0.5 1.2 0.7C162 26.2 161.1 26.3 160.3 25.7zM169.1 27.7c0.3 0.3 0.5 0.4 0.8 0.8v1.1c-1.2-0.7-1.8-1.8-2.9-3C168.1 26.6 168.4 27.6 169.1 27.7zM163.3 28c0.4 0.4 0.9 0.9 0.9 1.3 0 0.4-0.3 0.5-0.5 0.8 0 0-0.5-0.7-0.5-0.9C163.1 28.6 163.1 28.4 163.3 28zM164.5 37.8c0-0.8-0.1-1.5-0.7-1.9 0-0.3 0.4-0.3 0.1-0.7 0 0-0.8-0.4-0.8-0.9s0.5-0.9 0.8-1.3c0-0.1 0.5 0.3 0.5 1.1 0 0.1 0 0.5-0.1 0.8 -0.1 0.4 0.8 0.4 0.8 0.8C165.1 36.4 164.6 37.1 164.5 37.8zM165.8 32.2c0 0.3-0.4 0.5-0.5 0.5 0 0-0.7-0.7-0.8-1.3 -0.1-0.5 0.4-1.5 0.4-1.5 0.1 0 0.3 0.3 0.4 0.3 0.1 0.1 0 0.5 0.1 0.9C165.8 31.4 166.1 31.9 165.8 32.2zM167.1 39c0.3-0.7 0.3-1.9 0-1.9 -0.3-0.1-0.8 0-0.8-0.3 0-0.4 0.1-0.9 0.1-1.2 0-0.5-0.4-0.8-0.4-1.1 0-0.8 0.9-0.9 1.2-1.5 0.1 0.5 0.1 1.1 0.1 1.7 0 0.3 0.4 1.1 0 1.8 0 0.4 0.8 0.1 0.8 0.5C168.1 37.6 167.3 38.4 167.1 39zM169.1 35.8c-0.4 0-0.4-0.3-0.4-0.8 -0.1-0.8-0.4-1.5-0.7-2.2 -0.3-1.1-0.9-1.9-1.5-3.1 -0.1-0.5-0.8-0.8-1.3-1.2 0.7 0 1.3 0 1.8 0.5 0 0.3 0.1 0.4 0.5 0.8 0.9 0 0.7 1.2 1.5 1.7 -0.4 0.4-0.5 0.7-0.8 0.9 0.4 0.3 0.8 0.4 0.9 0.8C169.2 34 169.1 34.9 169.1 35.8zM171 34.5c-0.3-0.8-0.8-1.6-1.1-2.3 0-0.1-0.1-0.1 0.1-0.3 0.1 0 0.7 0 0.7 0.1 0.1 0.3 0.4 0.7 0.4 1.1C171.1 33.7 170.9 34 171 34.5zM178.1 30.6c-0.3-0.3 0-0.8-0.7-0.8 -0.3 0-0.7 0.4-0.7 0.4 -0.3 0.1-1.1-0.4-1.1 0 0 0.7-0.5 0.9-1.2 0.9 -0.3 0-0.5 0-0.8-0.1v-1.3c1.8 0 1.6-0.5 2.3-0.5 0.5 0 0.9 0.3 1.3 0.3 0.7 0 0.3-0.3 0.9-0.3 0.7 0 0.9 0.5 1.3 0.7 0 0.4 0.4 0.9 0.4 1.5C179.1 31.2 178.2 31 178.1 30.6zM178.9 34.1c-0.4-0.1-1.3-0.3-1.3-0.7 0-0.5-0.3-0.7-0.9-0.7 -0.5 0-0.9 0.1-1.7 0.4 0 0-0.4-0.5-0.5-1.1 0.3-0.1 1.3-0.4 1.8-0.4 0.9 0 1.8 0 1.8 0.4C178.1 32.7 178.9 32.9 178.9 34.1zM177.4 26.8c0.4 0 0.7-0.3 0.9-0.3 0.7 0 1.2 1.1 1.3 1.8 -1.1-0.7-2.6-1.1-3.5-1.1 -0.5 0-2.1 0.7-2.6 1.2l-0.3-1.2c0.8-0.1 0.8-0.8 1.3-0.8 0.4 0 0.9-0.1 1.3-0.1 0.4 0 0.7-0.3 0.8-0.3C177.2 26.2 177 26.8 177.4 26.8zM173.3 25.1c0.4-0.4 1.1-0.9 1.6-0.9 0.9 0 1.7 0.7 1.7 1.3 -0.8 0-0.9-0.1-1.5-0.1 -0.7 0-1.5 0.3-1.8 0.9C173 25.8 173.2 25.5 173.3 25.1zM173.7 21.7c0.5-0.3 0.8-0.1 1.1 0 0 0.8 0.9 0.4 1.5 0.7 0.3 0.4 0.4 0.7 0.5 1.2 -0.9-0.3-1.5-0.7-2.2-0.7 -0.3 0-1.5 0.4-1.6 0.7C172.6 23.1 173.2 22 173.7 21.7zM176.2 41.6c-0.7-0.4-1.1-0.5-1.8-0.5 0-0.5-0.4-1.2-0.7-1.2 -0.8 0-0.7 0.5-1.3 0.5l1.2-1.2c0.1-0.3 0.1-0.3 0.4-0.3 0.4 0.3 0.5 0.4 0.9 0.4 0 0.3 0 0.4-0.1 0.8 0.4 0.3 0.7-0.1 0.9 0.3 0.4 0.1 0.8 0.3 0.8 0.8C176.4 41.3 176.2 41.6 176.2 41.6zM177.5 39.8c-0.9-0.1-0.9-1.2-1.1-1.3 -0.7-0.8-1.6-0.1-2.2-0.1 -0.3-0.8 0.1-0.8 0.1-1.3 0.4 0 0.8-0.3 1.2 0 0.7-0.3 1.1 0.4 1.8 0.4 0.1 0.3 0.4 0.9 0.5 1.1C177.8 39 177.6 39.1 177.5 39.8zM178.2 37.1c-0.9 0-0.4-1.8-2.3-1.8 -0.4 0-0.7 0.7-1.2 0.8 0-0.1 0.1-0.9 0.1-0.9 0-0.3 0.1-0.8 0.7-1.1 1.1 0 0.8 0.4 1.6 0.7 0.4 0.1 0.7 0.4 1.2 0.4V37.1L178.2 37.1zM180 43c0-0.7-0.8-1.1-1.3-2.2l0.5-0.9c0.4 0.3 0.9 0.7 0.9 1.3 0 0-0.1 0.4 0 0.7 0 0.1 0.3 0.1 0.3 0.4C180.1 42.6 180.1 42.6 180 43zM180.9 40.5l-0.8-1.2c0.3-0.4 0.3-0.9 0.7-1.6 0.1 0 0.5 0.9 0.5 1.1C181.3 39.5 181.3 39.8 180.9 40.5zM168.1 43.2c0.5 0.3 0.5 0.9 0.5 1.1 0 0.4-0.3 0.8-0.5 1.1 -0.3-0.3-0.3-0.7-0.5-1.1 -0.3 0-0.4 0.7-0.4 0.9 0 1.2 0.5 2.1 0.9 2.9h1.2c-0.1-1.1-0.4-1.9-0.4-3.1 0-0.7 0.4-1.5 0.5-1.8L168.1 43.2zM151.3 44c-0.3 0-0.9 0.4-0.9 0.7 0 0.5-0.3 3.4-0.3 3.4h0.9c0.4-1.2 1.2-2.7 1.2-3.4C152.1 44.1 151.7 44 151.3 44zM148.1 43.4c-0.3 0-0.7 0.8-0.7 1.1 0 1.1 0.3 2.5 0.7 3.5h1.1c0-1.2 0.1-2.5 0.1-3.5C149.1 44.5 149.4 44.7 148.1 43.4zM146.7 42.4l-1.5 0.3c-0.4 0.5-0.5 0.8-0.5 1.1l0.7-0.3c0.1 0 0.3 0.3 0.4 0.5 -0.1 0.7-0.9 0.7-1.2 0.9 -0.4 1.3 0.8 2.1 0.9 3.1h1.6c-0.7-1.2-0.8-3-0.8-3.4C146.3 44 146.3 43 146.7 42.4zM152.3 8.5h0.4c0.4-0.4 0.7 0 0.9-0.4 0.3-0.7 0.3-1.8-0.3-2.5 -0.3-0.5-0.9-0.8-1.6-1.3l-0.9 0.5c-0.5 0.3-0.8 0.8-0.8 1.5C151 6.7 151.9 7.7 152.3 8.5zM147.1 7.9c0.7 0 0.4 0.9 0.9 1.1h1.2c0-0.4-0.1-0.4-0.3-0.4 -0.7 0-0.7-1.1-1.2-0.8 -0.3 0-0.5-0.3-0.9 0C146.8 7.9 146.8 7.9 147.1 7.9zM147.5 10.7h-0.3c0.3 1.1 0.3 2.2 0.3 3.4 0.5 0.1 1.1 0.4 1.1 1.2 0.5 0.3 1.1 0.4 1.6 0.8 0.3-0.1 0.4-0.5 0.5-0.9 -0.5-0.7-1.8-0.3-1.8-1.5l-0.8-0.3c0-0.8 0-1.6-0.1-2.1l0.1-0.1c0 0.1 0.1 0.3 0.4 0.5 0.5 0 1.1 0.1 1.6-0.3 0.3-0.1 0.3-0.8 0.5-0.8 0.3 0 0.5 0 0.7-0.3 0 0 0.3 0 0-0.1l-2.9-0.4C148.1 10.3 147.5 10.3 147.5 10.7zM144.7 7.7c-0.3-0.3-1.1 0.1-1.5 0.3 -0.5 0.1-0.9 0.5-0.9 0.9h1.5C144 8.5 144.4 8 144.7 7.7zM139.3 7.9c0.5-0.4 1.8-1.3 2.5-1.6 -0.1-1.3-1.6-1.5-2.2-1.9h-0.5c-1.1 0.4-1.3 1.5-1.5 2.3C138 7.9 138.8 7.1 139.3 7.9zM148.1 17.8l1.5 0.5v-0.7h-1.3L148.1 17.8zM140.7 10.7c0 0.5 0.4 0.7 0.5 0.8 0.4 0.3 0.5 0.3 0.9 0 0.4 0.3 0.5-0.3 0.7 0 0 0.8 0 1.2-0.1 1.8 -0.1 0.9-0.9 0.8-1.6 1.2 0 0.4-0.4 1.1 0 1.5 0.4-0.3 0.7-0.4 1.3-0.7 0-0.4 0.4-0.8 0.9-1.1 0-1.2 0.4-2.3 0.4-3.5 0-0.3-0.3-0.5-0.7-0.8h-3.1C139.9 10.5 140.3 10.7 140.7 10.7zM141 17.4c0 0.3 0 0.5 0.4 0.8 0.4-0.4 1.1-0.5 1.2-0.5C142.3 17.1 141.7 17.7 141 17.4z" fill="#F60"/></svg>
