<?xml version="1.0" encoding="utf-8"?>
<!-- Generator: Adobe Illustrator 15.0.2, SVG Export Plug-In . SVG Version: 6.00 Build 0)  -->
<!DOCTYPE svg PUBLIC "-//W3C//DTD SVG 1.1//EN" "http://www.w3.org/Graphics/SVG/1.1/DTD/svg11.dtd">
<svg version="1.1" id="allerhande_logo" xmlns="http://www.w3.org/2000/svg" xmlns:xlink="http://www.w3.org/1999/xlink" x="0px"
	 y="0px" width="540.624px" height="73.959px" viewBox="0 0 540.624 73.959" enable-background="new 0 0 540.624 73.959"
	 xml:space="preserve">
<g>
	<g>
		<path fill="#FFFFFF" d="M277.241,42.282c0-6.505-0.424-11.808-4.596-17.252c-3.748-4.949-9.263-7.919-15.697-7.919
			c-7.212,0-13.151,3.252-16.687,9.333V0h-19.869v11.596h7.213v49.354h-7.213v11.596h27.081V60.949h-7.212V44.475
			c0-4.03-0.071-7.495,2.687-10.889c2.263-2.828,5.798-4.384,9.546-4.384c4.03,0,7.777,1.556,10.11,4.949
			c2.192,3.465,1.909,7.424,1.909,11.384v15.344h-7.212v11.596h27.081V60.879h-7.213V42.282H277.241z"/>
		<path fill="#FFFFFF" d="M475.857,0h-20.01v11.596h7.282v14.637c-4.384-5.586-11.242-8.839-18.313-8.839
			c-15.696,0-28.212,12.869-28.212,28c0,15.061,12.798,27.93,28.283,27.93c7.424,0,14.07-2.828,18.242-8.909v8.131h19.868V60.949
			h-7.212V0H475.857z M446.584,61.939c-9.263,0-16.758-7.425-16.758-16.334c0-9.262,7.495-16.687,16.97-16.687
			c9.051,0,16.687,7.283,16.687,16.263C463.483,54.373,456.059,61.939,446.584,61.939z"/>
		<path fill="#FFFFFF" d="M330.059,26.021c-3.817-5.869-10.11-9.121-17.252-9.121c-16.263,0-29.131,13.08-29.131,28.848
			c0,15.344,12.585,28.212,28.494,28.212c7.283,0,13.858-2.757,17.889-8.768v7.283h19.869V60.879h-7V29.768h7V18.313h-19.869V26.021
			L330.059,26.021z M313.302,61.868c-8.98,0-16.546-7.282-16.546-16.121c0-9.121,7.283-16.757,16.758-16.757
			c9.191,0,16.758,7.212,16.758,16.121C330.271,54.373,322.917,61.868,313.302,61.868z"/>
		<path fill="#FFFFFF" d="M410.312,39.737c0-6.223-0.071-10.96-4.667-15.979c-4.03-4.243-9.97-6.718-16.051-6.718
			c-6.858,0-13.151,2.97-16.475,8.909v-7.636h-19.868v11.596h7.212v31.11h-7.212v11.597h27.08V61.02h-7.212V45.252
			c0-3.677,0-8.343,2.404-11.384c2.263-3.04,6.222-4.596,10.111-4.596c3.747,0,7.494,1.414,9.757,4.384
			c2.192,2.97,2.192,6.364,2.192,9.758v17.535h-7.212v11.596h27.08V60.949h-7.212V39.737H410.312z"/>
		<path fill="#FFFFFF" d="M540.624,45.747c0-7.707-2.263-14.636-7.778-20.293c-5.444-5.373-13.151-8.768-20.788-8.768
			c-16.545,0-28.919,12.869-28.919,28.919c0,15.98,13.011,28.354,29.272,28.354c11.525,0,21.849-7,26.232-17.394h-13.363
			c-3.111,4.454-7.919,6.505-13.435,6.505c-7.919,0-14.989-5.515-16.687-13.01h44.97L540.624,45.747z M495.089,40.586
			c1.555-7.142,8.768-12.798,16.262-12.798c8.202,0,15.273,4.949,17.465,12.798H495.089z"/>
	</g>
	<g>
		<path fill="#FFFFFF" d="M153.575,16.758c-16.546,0-28.919,12.868-28.919,28.919c0,15.979,13.01,28.354,29.272,28.354
			c11.525,0,21.849-7,26.232-17.395h-13.223c-3.111,4.455-7.919,6.506-13.435,6.506c-7.919,0-14.989-5.516-16.687-13.011h44.97
			l0.424-4.384c0-7.707-2.263-14.636-7.777-20.293C168.99,20.081,161.282,16.758,153.575,16.758z M136.676,40.586
			c1.556-7.142,8.768-12.798,16.263-12.798c8.202,0,15.272,4.949,17.465,12.798H136.676z"/>
		<path fill="#FFFFFF" d="M46.384,26.021c-3.818-5.869-10.111-9.121-17.253-9.121C12.868,16.899,0,29.979,0,45.747
			c0,15.344,12.586,28.212,28.495,28.212c7.282,0,13.858-2.757,17.889-8.768v7.283h19.868V60.879h-6.929V29.768h7V18.313H46.384
			V26.021z M29.626,61.868c-8.979,0-16.545-7.282-16.545-16.121c0-9.121,7.282-16.757,16.757-16.757
			c9.192,0,16.758,7.212,16.758,16.121C46.596,54.373,39.242,61.868,29.626,61.868z"/>
		<path fill="#FFFFFF" d="M219.615,17.677l-2.404,0.07c-6.717,0.566-12.515,3.677-15.626,9.758v-9.191h-18.949v11.596h7.212v31.11
			h-7.212v11.597h27.08V61.02h-7.212V47.303c0-5.091,0.637-9.475,4.809-12.868c3.11-2.758,6.858-3.748,10.959-3.96l2.334-0.07h1.908
			V17.677C222.585,17.677,219.686,17.677,219.615,17.677z"/>
		<polygon fill="#FFFFFF" points="117.232,0 97.364,0 97.364,11.596 104.505,11.596 104.505,60.949 99.98,60.949 98.566,60.949 
			88.242,60.949 88.242,0 68.373,0 68.373,11.596 75.515,11.596 75.515,60.949 75.515,72.545 98.566,72.545 99.98,72.545 
			124.444,72.545 124.444,60.949 117.232,60.949 		"/>
	</g>
</g>
</svg>
