<?xml version="1.0" encoding="utf-8"?>
<!-- Generator: Adobe Illustrator 15.0.2, SVG Export Plug-In . SVG Version: 6.00 Build 0)  -->
<!DOCTYPE svg PUBLIC "-//W3C//DTD SVG 1.1//EN" "http://www.w3.org/Graphics/SVG/1.1/DTD/svg11.dtd">
<svg version="1.1" id="Layer_1" xmlns="http://www.w3.org/2000/svg" xmlns:xlink="http://www.w3.org/1999/xlink" x="0px" y="0px"
	 width="535.309px" height="261.38px" viewBox="0 0 535.309 261.38" enable-background="new 0 0 535.309 261.38"
	 xml:space="preserve">
<g>
	<g id="hande">
		<path fill="#231F20" d="M101.269,209.051c0-10.725-0.679-19.415-7.52-28.476c-6.164-8.197-15.286-13.066-25.888-13.066
			c-11.834,0-21.634,5.362-27.428,15.408v-43.515H7.581v19.107h11.835v81.359H7.581v19.107h44.625v-19.107H40.372v-27.12
			c0-6.718-0.186-12.389,4.438-17.936c3.76-4.685,9.615-7.212,15.779-7.212c6.718,0,12.882,2.527,16.642,8.197
			c3.574,5.671,3.081,12.204,3.081,18.737v25.271H68.478v19.106h44.625v-19.106h-11.834V209.051z"/>
		<path fill="#231F20" d="M428.555,139.464h-32.913v19.107h12.019v24.1c-7.211-9.184-18.552-14.546-30.201-14.546
			c-25.888,0-46.474,21.265-46.474,46.165c0,24.777,21.079,46.042,46.658,46.042c12.204,0,23.175-4.685,30.017-14.73v13.312h32.791
			v-19.106h-11.835V139.464H428.555z M380.356,241.533c-15.285,0-27.612-12.204-27.612-26.935c0-15.225,12.327-27.429,27.982-27.429
			c14.916,0,27.428,12.081,27.428,26.75C408.154,228.96,395.949,241.533,380.356,241.533z"/>
		<path fill="#231F20" d="M188.36,182.301c-6.348-9.677-16.642-15.039-28.476-15.039c-26.75,0-48.015,21.572-48.015,47.521
			c0,25.271,20.771,46.535,47.028,46.535c12.02,0,22.806-4.499,29.524-14.423v12.019h32.79v-19.106h-11.588v-51.158h11.526v-19.107
			H188.36V182.301z M160.747,241.349c-14.731,0-27.305-12.02-27.305-26.627c0-15.039,12.019-27.613,27.612-27.613
			c15.102,0,27.613,11.896,27.613,26.627C188.668,228.96,176.526,241.349,160.747,241.349z"/>
		<path fill="#231F20" d="M320.507,204.859c0-10.231-0.185-18.059-7.704-26.257c-6.719-7.026-16.457-11.032-26.442-11.032
			c-11.341,0-21.634,4.869-27.119,14.73v-12.759h-32.79v19.107h11.834v51.22h-11.834v19.107h44.624v-19.107h-11.834V213.92
			c0-6.04,0-13.744,3.944-18.737c3.76-4.992,10.294-7.52,16.642-7.52c6.164,0,12.327,2.343,16.148,7.212
			c3.575,4.869,3.575,10.539,3.575,16.087v28.969h-11.834v19.107h44.624v-19.107h-11.834V204.859L320.507,204.859z"/>
		<path fill="#231F20" d="M535.309,214.845c0-12.697-3.76-24.1-12.882-33.469c-8.938-8.875-21.635-14.422-34.331-14.422
			c-27.305,0-47.707,21.264-47.707,47.706c0,26.257,21.449,46.72,48.199,46.72c19.046,0,36.058-11.525,43.207-28.599h-21.757
			c-5.178,7.334-13.067,10.725-22.128,10.725c-13.066,0-24.716-9.061-27.428-21.449h74.086L535.309,214.845z M460.298,206.339
			c2.588-11.711,14.423-21.079,26.75-21.079c13.56,0,25.209,8.197,28.846,21.079H460.298z"/>
	</g>
	<g id="aller">
		<path fill="#FFFFFF" d="M253.077,31.971c-27.305,0-47.706,21.265-47.706,47.707c0,26.257,21.449,46.72,48.199,46.72
			c19.046,0,36.057-11.526,43.207-28.6h-21.819c-5.177,7.335-13.066,10.725-22.127,10.725c-13.066,0-24.716-9.06-27.428-21.449
			h74.086l0.678-7.211c0-12.697-3.76-24.1-12.882-33.469C278.472,37.519,265.775,31.971,253.077,31.971z M225.28,71.356
			c2.589-11.711,14.423-21.079,26.75-21.079c13.561,0,25.209,8.197,28.846,21.079H225.28z"/>
		<path fill="#FFFFFF" d="M76.49,47.318c-6.349-9.677-16.642-15.039-28.476-15.039C21.265,32.279,0,53.852,0,79.801
			c0,25.271,20.771,46.535,47.028,46.535c12.02,0,22.806-4.5,29.523-14.361v11.957h32.791v-19.106H97.878V53.667h11.465V34.56H76.49
			V47.318z M48.878,106.365c-14.731,0-27.305-12.019-27.305-26.626c0-15.039,12.019-27.613,27.612-27.613
			c15.101,0,27.613,11.896,27.613,26.627C76.861,93.977,64.656,106.365,48.878,106.365z"/>
		<path fill="#FFFFFF" d="M361.989,33.635l-3.945,0.124c-11.094,0.924-20.647,6.04-25.764,16.087V34.56h-31.249v19.107h11.834v51.22
			h-11.834v19.106h44.624v-19.106h-11.834V82.266c0-8.382,1.048-15.594,7.89-21.264c5.178-4.5,11.341-6.164,17.998-6.534
			l3.883-0.123h3.205V33.573C366.796,33.635,362.112,33.573,361.989,33.635z"/>
		<polygon fill="#FFFFFF" points="193.23,4.481 160.439,4.481 160.439,23.527 172.273,23.527 172.273,104.887 164.753,104.887 
			162.473,104.887 145.461,104.887 145.461,4.481 112.671,4.481 112.671,23.527 124.505,23.527 124.505,104.887 124.505,123.932 
			162.473,123.932 164.753,123.932 205.064,123.932 205.064,104.887 193.23,104.887 		"/>
	</g>
	<g id="ah">
		<path fill="#00A0DD" d="M507.573,60.632L478.357,6.146c-3.081-5.732-10.17-7.828-15.778-4.685l-53.5,29.832
			c-2.404,1.356-4.623,3.76-5.671,7.212l-14.361,49.863c-1.726,5.979,1.665,12.204,7.521,13.991l84.379,23.977
			c5.855,1.726,12.02-1.665,13.745-7.644l13.93-48.938C509.545,66.919,508.99,63.344,507.573,60.632"/>
		<path fill="#FFFFFF" d="M453.949,56.009c4.746-6.841,9.061-13.621,17.073-13.621c8.875,0,13.744,7.458,13.744,13.745
			c0,0.062-0.062,40.125-0.062,40.125h-9.984l-0.062-37.968c0-5.239-4.19-5.239-4.252-5.239c-3.391,0-9.615,8.506-16.519,17.874
			v25.333H443.78V84.547c0,0-6.657,11.711-16.703,11.711c-11.342,0-15.225-7.828-15.225-26.504c0-17.812,2.527-27.366,14.67-27.366
			c9.245,0,17.196,13.498,17.196,13.498v-8.567l10.17-13.683C453.949,33.697,453.888,56.07,453.949,56.009 M441.991,71.11
			c0,0-9.245-18.121-15.285-18.121c-4.623,0-5.055,4.931-5.055,16.765s0.679,16.457,4.993,16.457
			C432.685,86.211,441.991,71.11,441.991,71.11"/>
	</g>
</g>
</svg>
