<?xml version="1.0" encoding="utf-8"?>
<!-- Generator: Adobe Illustrator 15.0.2, SVG Export Plug-In . SVG Version: 6.00 Build 0)  -->
<!DOCTYPE svg PUBLIC "-//W3C//DTD SVG 1.1//EN" "http://www.w3.org/Graphics/SVG/1.1/DTD/svg11.dtd">
<svg version="1.1" id="Layer_1" xmlns="http://www.w3.org/2000/svg" xmlns:xlink="http://www.w3.org/1999/xlink" x="0px" y="0px"
	 width="377.787px" height="70.495px" viewBox="0 0 377.787 70.495" enable-background="new 0 0 377.787 70.495"
	 xml:space="preserve">
<g>
	<g>
		<path fill="#FFFFFF" d="M5.728,24.748c0.989,0.989,2.333,1.838,3.889,2.615c1.626,0.778,3.394,1.202,5.303,1.202
			c0.495,0,0.92-0.07,1.414-0.142c0.495-0.07,0.92-0.212,1.344-0.424s0.707-0.495,0.99-0.849c0.282-0.354,0.354-0.777,0.354-1.343
			c0-0.92-0.495-1.627-1.414-2.263c-0.92-0.566-2.334-1.202-4.172-1.769l-1.98-0.636c-1.131-0.354-2.191-0.778-3.322-1.344
			C7,19.232,6.01,18.596,5.091,17.818S3.465,16.121,2.9,15.061C2.333,14,2.051,12.798,2.051,11.313c0-1.626,0.282-3.041,0.919-4.455
			c0.637-1.344,1.485-2.545,2.687-3.606c1.132-0.99,2.616-1.838,4.313-2.404C11.667,0.283,13.647,0,15.909,0
			c1.768,0,3.323,0.142,4.737,0.495c1.414,0.283,2.687,0.707,3.747,1.131s1.98,0.919,2.758,1.485
			c0.778,0.495,1.344,0.99,1.697,1.414l-4.809,5.939c-1.272-0.919-2.545-1.626-3.889-2.192c-1.344-0.566-2.758-0.849-4.172-0.849
			c-0.495,0-0.919,0.071-1.414,0.142s-0.849,0.283-1.272,0.495c-0.354,0.212-0.707,0.495-0.919,0.778
			c-0.212,0.354-0.354,0.708-0.354,1.203c0,0.494,0.142,0.989,0.424,1.343c0.283,0.354,0.637,0.707,1.132,0.99
			c0.494,0.282,1.061,0.495,1.696,0.777c0.637,0.213,1.344,0.425,2.121,0.707l1.697,0.495c1.202,0.354,2.475,0.849,3.677,1.344
			c1.272,0.495,2.404,1.202,3.394,2.051c0.99,0.848,1.839,1.908,2.476,3.182c0.636,1.272,0.989,2.828,0.989,4.666
			c0,1.627-0.354,3.041-1.131,4.384c-0.778,1.344-1.839,2.546-3.111,3.465c-1.272,0.99-2.828,1.697-4.596,2.263
			s-3.677,0.778-5.657,0.778c-3.605,0-6.575-0.425-8.979-1.344S1.698,32.949,0,31.395L5.728,24.748z"/>
		<path fill="#FFFFFF" d="M31.96,1.061h9.475v26.586h16.616v8.131H32.031V1.061H31.96z"/>
		<path fill="#FFFFFF" d="M76.647,36.484c-2.688,0-5.162-0.424-7.425-1.343s-4.242-2.192-5.868-3.818s-2.97-3.535-3.889-5.798
			c-0.92-2.263-1.414-4.667-1.414-7.283s0.494-5.091,1.414-7.282c0.919-2.263,2.191-4.172,3.889-5.798
			c1.626-1.626,3.605-2.899,5.868-3.748c2.263-0.919,4.737-1.343,7.425-1.343c2.687,0,5.161,0.424,7.424,1.343
			c2.263,0.919,4.242,2.192,5.869,3.748c1.626,1.626,2.898,3.536,3.889,5.798c0.919,2.263,1.414,4.666,1.414,7.282
			s-0.495,5.091-1.414,7.283c-0.919,2.263-2.192,4.172-3.889,5.798c-1.627,1.626-3.606,2.899-5.869,3.818
			S79.333,36.484,76.647,36.484z M76.647,27.858c1.414,0,2.616-0.282,3.747-0.777c1.061-0.495,1.979-1.202,2.758-2.051
			c0.777-0.849,1.344-1.909,1.697-3.04c0.424-1.202,0.565-2.404,0.565-3.748c0-1.343-0.212-2.545-0.565-3.747
			c-0.425-1.202-0.99-2.192-1.697-3.04c-0.707-0.849-1.697-1.556-2.758-2.051s-2.333-0.778-3.747-0.778s-2.616,0.283-3.748,0.778
			c-1.061,0.495-1.979,1.202-2.757,2.051c-0.778,0.848-1.344,1.909-1.697,3.04c-0.425,1.202-0.565,2.404-0.565,3.747
			c0,1.344,0.212,2.546,0.565,3.748c0.424,1.202,0.99,2.191,1.697,3.04s1.696,1.556,2.757,2.051
			C74.031,27.646,75.303,27.858,76.647,27.858z"/>
		<path fill="#FFFFFF" d="M115.959,36.484c-2.687,0-5.161-0.424-7.424-1.343s-4.242-2.192-5.869-3.818
			c-1.626-1.626-2.97-3.535-3.889-5.798s-1.414-4.667-1.414-7.283s0.495-5.091,1.414-7.282c0.919-2.263,2.192-4.172,3.889-5.798
			c1.627-1.626,3.606-2.899,5.869-3.748c2.263-0.919,4.737-1.343,7.424-1.343c2.688,0,5.162,0.424,7.425,1.343
			c2.263,0.919,4.242,2.192,5.868,3.748c1.626,1.626,2.899,3.536,3.889,5.798c0.92,2.263,1.414,4.666,1.414,7.282
			s-0.494,5.091-1.414,7.283c-0.919,2.263-2.191,4.172-3.889,5.798c-1.626,1.626-3.606,2.899-5.868,3.818
			C121.121,36.061,118.647,36.484,115.959,36.484z M115.959,27.858c1.414,0,2.616-0.282,3.748-0.777
			c1.061-0.495,1.979-1.202,2.757-2.051c0.778-0.849,1.344-1.909,1.697-3.04c0.424-1.202,0.565-2.404,0.565-3.748
			c0-1.343-0.212-2.545-0.565-3.747c-0.424-1.202-0.99-2.192-1.697-3.04c-0.777-0.849-1.696-1.556-2.757-2.051
			s-2.334-0.778-3.748-0.778s-2.616,0.283-3.747,0.778c-1.061,0.495-1.979,1.202-2.758,2.051c-0.777,0.848-1.344,1.909-1.697,3.04
			c-0.424,1.202-0.565,2.404-0.565,3.747c0,1.344,0.212,2.546,0.565,3.748c0.425,1.202,0.99,2.191,1.697,3.04
			c0.778,0.849,1.697,1.556,2.758,2.051C113.343,27.646,114.616,27.858,115.959,27.858z"/>
		<path fill="#FFFFFF" d="M138.161,1.061h14.565c1.909,0,3.677,0.283,5.232,0.778c1.556,0.495,2.899,1.202,3.96,2.192
			c1.131,0.919,1.979,2.122,2.545,3.606c0.637,1.414,0.919,3.111,0.919,4.949c0,1.768-0.282,3.394-0.919,4.809
			c-0.636,1.414-1.484,2.687-2.545,3.676c-1.061,0.99-2.404,1.769-3.89,2.334c-1.484,0.565-3.182,0.777-5.02,0.777h-5.586v11.525
			h-9.263V1.061z M151.949,16.899c1.272,0,2.333-0.425,3.04-1.202c0.777-0.778,1.131-1.839,1.131-3.041
			c0-1.343-0.354-2.403-1.061-3.181s-1.768-1.202-3.182-1.202h-4.454v8.626H151.949z"/>
		<path fill="#FFFFFF" d="M183.767,33.162c-0.919,1.061-2.05,1.838-3.252,2.403c-1.272,0.495-2.475,0.778-3.677,0.778
			c-1.344,0-2.616-0.213-3.748-0.566c-1.131-0.424-2.121-0.989-3.04-1.696c-1.344-1.132-2.404-2.546-3.111-4.384
			c-0.707-1.839-1.061-3.818-1.061-6.011c0-1.838,0.354-3.535,0.99-5.091c0.636-1.556,1.556-2.97,2.758-4.101
			c1.201-1.132,2.616-2.051,4.312-2.758c1.627-0.636,3.535-0.989,5.516-0.989c0.849,0,1.556,0.07,2.263,0.212
			s1.272,0.282,1.696,0.424V1.061h9.051v34.646h-8.272L183.767,33.162z M183.413,18.596c-0.919-0.282-1.909-0.494-2.97-0.494
			c-1.626,0-2.898,0.494-3.959,1.484c-0.99,0.99-1.556,2.475-1.556,4.384c0,1.485,0.354,2.616,1.131,3.535
			c0.707,0.849,1.839,1.344,3.323,1.344c1.344,0,2.334-0.354,2.97-1.132c0.637-0.777,0.99-1.838,0.99-3.252v-5.869H183.413z"/>
		<path fill="#FFFFFF" d="M218.979,33.939c-0.424,0.212-0.989,0.495-1.626,0.777c-0.637,0.283-1.414,0.566-2.333,0.849
			c-0.92,0.283-1.909,0.495-2.97,0.707c-1.132,0.212-2.263,0.283-3.536,0.283c-4.666,0-8.201-1.132-10.677-3.394
			c-2.474-2.263-3.676-5.445-3.676-9.546c0-1.626,0.282-3.253,0.777-4.808c0.565-1.556,1.344-2.97,2.404-4.243
			c1.061-1.202,2.475-2.191,4.101-2.97c1.626-0.777,3.606-1.131,5.798-1.131c1.697,0,3.323,0.283,4.879,0.849
			c1.484,0.565,2.828,1.414,3.96,2.616c1.131,1.131,1.979,2.616,2.687,4.384c0.637,1.768,0.99,3.818,0.99,6.151v1.697h-17.041
			c0,0.424,0.142,0.848,0.354,1.272c0.213,0.424,0.566,0.849,0.99,1.272c0.495,0.425,1.131,0.707,1.909,0.99
			c0.777,0.212,1.768,0.354,2.97,0.354c1.556,0,2.97-0.212,4.172-0.565c1.272-0.354,2.263-0.778,2.97-1.202L218.979,33.939z
			 M211.697,20.858c0-0.424-0.071-0.849-0.283-1.272s-0.424-0.849-0.849-1.272c-0.354-0.354-0.849-0.707-1.414-0.99
			c-0.565-0.282-1.202-0.424-1.979-0.424c-0.778,0-1.414,0.142-1.98,0.424c-0.565,0.283-1.061,0.565-1.414,0.99
			c-0.354,0.354-0.636,0.777-0.777,1.272c-0.212,0.424-0.283,0.849-0.283,1.272H211.697z"/>
		<path fill="#FFFFFF" d="M257.019,29.272c-4.03,4.879-9.333,7.354-15.908,7.354c-2.758,0-5.232-0.424-7.566-1.343
			c-2.263-0.92-4.242-2.121-5.868-3.748c-1.626-1.626-2.899-3.465-3.818-5.727c-0.919-2.192-1.344-4.667-1.344-7.354
			c0-2.616,0.425-5.092,1.344-7.283c0.919-2.263,2.192-4.172,3.818-5.798c1.626-1.626,3.605-2.899,5.868-3.818
			c2.263-0.919,4.809-1.343,7.566-1.343c3.11,0,6.01,0.495,8.626,1.485c2.616,0.99,4.879,2.757,6.717,5.232l-6.293,6.151
			c-0.989-1.344-2.191-2.404-3.605-3.182c-1.414-0.778-2.97-1.202-4.737-1.202c-1.485,0-2.829,0.212-4.03,0.707
			c-1.202,0.495-2.192,1.131-2.97,2.051c-0.778,0.848-1.414,1.908-1.839,3.04c-0.424,1.131-0.636,2.404-0.636,3.747
			c0,1.414,0.212,2.688,0.636,3.818c0.425,1.202,1.061,2.192,1.909,3.041c0.849,0.848,1.839,1.555,2.97,2.05
			s2.475,0.707,3.889,0.707c2.051,0,3.748-0.354,5.091-1.061c1.273-0.707,2.546-1.838,3.818-3.323L257.019,29.272z"/>
		<path fill="#FFFFFF" d="M258.999,1.061h14.777c1.909,0,3.677,0.212,5.232,0.707c1.556,0.495,2.899,1.202,3.96,2.192
			c1.131,0.919,1.979,2.121,2.545,3.535c0.637,1.414,0.919,3.04,0.919,4.949c0,2.263-0.494,4.242-1.556,5.939
			c-1.061,1.697-2.403,3.04-4.101,4.03l7.637,13.293h-10.182l-6.081-11.808h-3.96v11.808h-9.263V1.061H258.999z M272.858,16.687
			c1.272,0,2.263-0.354,3.04-1.131c0.778-0.777,1.202-1.768,1.202-2.97c0-1.344-0.354-2.333-1.131-3.111
			c-0.778-0.777-1.839-1.131-3.183-1.131h-4.524v8.343H272.858z"/>
		<path fill="#FFFFFF" d="M291.1,1.061h9.475v34.646H291.1V1.061z"/>
		<path fill="#FFFFFF" d="M308.281,24.748c0.99,0.989,2.333,1.838,3.889,2.615c1.627,0.778,3.395,1.202,5.304,1.202
			c0.494,0,0.919-0.07,1.414-0.142c0.494-0.07,0.919-0.212,1.343-0.424c0.425-0.212,0.707-0.495,0.99-0.849s0.354-0.777,0.354-1.343
			c0-0.92-0.495-1.627-1.414-2.263c-0.919-0.566-2.333-1.202-4.172-1.769l-1.979-0.636c-1.132-0.354-2.192-0.778-3.323-1.344
			c-1.132-0.565-2.121-1.202-3.04-1.979c-0.92-0.777-1.627-1.697-2.192-2.758s-0.849-2.263-0.849-3.747
			c0-1.626,0.283-3.041,0.919-4.455c0.637-1.344,1.485-2.545,2.688-3.606c1.131-0.99,2.616-1.838,4.312-2.404
			C314.221,0.283,316.2,0,318.463,0c1.768,0,3.323,0.142,4.737,0.495c1.414,0.283,2.688,0.707,3.748,1.131s1.979,0.919,2.757,1.485
			c0.778,0.565,1.344,0.99,1.697,1.414l-4.808,5.939c-1.273-0.919-2.546-1.626-3.889-2.192c-1.344-0.566-2.758-0.849-4.172-0.849
			c-0.495,0-0.92,0.071-1.414,0.142c-0.495,0.071-0.849,0.283-1.273,0.495c-0.354,0.212-0.707,0.495-0.919,0.778
			c-0.212,0.354-0.354,0.708-0.354,1.203c0,0.494,0.142,0.989,0.425,1.343c0.282,0.354,0.636,0.707,1.131,0.99
			c0.495,0.282,1.061,0.495,1.697,0.777c0.636,0.213,1.343,0.425,2.121,0.707l1.696,0.495c1.202,0.354,2.476,0.849,3.677,1.344
			c1.273,0.495,2.404,1.202,3.395,2.051c0.99,0.848,1.838,1.908,2.475,3.182c0.637,1.272,0.99,2.828,0.99,4.666
			c0,1.627-0.354,3.041-1.132,4.384c-0.777,1.344-1.838,2.546-3.111,3.465c-1.272,0.99-2.828,1.697-4.596,2.263
			s-3.677,0.778-5.656,0.778c-3.606,0-6.576-0.425-8.979-1.344c-2.404-0.919-4.455-2.192-6.152-3.747L308.281,24.748z"/>
		<path fill="#FFFFFF" d="M335.645,1.061h9.475v34.646h-9.475V1.061z"/>
		<path fill="#FFFFFF" d="M353.888,24.748c0.989,0.989,2.333,1.838,3.889,2.615c1.626,0.778,3.394,1.202,5.303,1.202
			c0.495,0,0.919-0.07,1.414-0.142c0.495-0.07,0.919-0.212,1.344-0.424c0.424-0.212,0.707-0.495,0.989-0.849
			c0.283-0.354,0.354-0.777,0.354-1.343c0-0.92-0.494-1.627-1.414-2.263c-0.919-0.566-2.333-1.202-4.171-1.769l-1.98-0.636
			c-1.131-0.354-2.191-0.778-3.323-1.344c-1.131-0.565-2.121-1.202-3.04-1.979s-1.626-1.697-2.192-2.758
			c-0.565-1.061-0.848-2.263-0.848-3.747c0-1.626,0.282-3.041,0.919-4.455c0.636-1.344,1.484-2.545,2.687-3.606
			c1.132-0.99,2.616-1.838,4.313-2.404C359.826,0.283,361.807,0,364.07,0c1.768,0,3.323,0.142,4.737,0.495
			c1.414,0.283,2.687,0.707,3.747,1.131s1.979,0.919,2.758,1.485c0.777,0.495,1.344,0.99,1.697,1.414l-4.809,5.939
			c-1.272-0.919-2.545-1.626-3.889-2.192c-1.344-0.566-2.758-0.849-4.172-0.849c-0.495,0-0.919,0.071-1.414,0.142
			s-0.849,0.283-1.272,0.495c-0.354,0.212-0.707,0.495-0.919,0.778c-0.213,0.354-0.354,0.708-0.354,1.203
			c0,0.494,0.141,0.989,0.424,1.343s0.637,0.707,1.131,0.99c0.495,0.282,1.061,0.495,1.697,0.777
			c0.637,0.213,1.344,0.425,2.121,0.707l1.697,0.495c1.202,0.354,2.475,0.849,3.677,1.344c1.272,0.495,2.404,1.202,3.394,2.051
			c0.99,0.848,1.839,1.908,2.475,3.182c0.637,1.272,0.99,2.828,0.99,4.666c0,1.627-0.354,3.041-1.131,4.384
			c-0.778,1.344-1.839,2.546-3.111,3.465c-1.272,0.99-2.828,1.697-4.596,2.263s-3.677,0.778-5.657,0.778
			c-3.605,0-6.575-0.425-8.979-1.344s-4.454-2.192-6.151-3.747L353.888,24.748z"/>
	</g>
	<g>
		<path fill="#FFFFFF" d="M19.516,62.293c0.212,0.212,0.424,0.495,0.707,0.707c0.282,0.212,0.565,0.424,0.919,0.637
			c0.354,0.212,0.707,0.354,1.131,0.494c0.425,0.142,0.849,0.142,1.344,0.142c0.99,0,1.768-0.212,2.333-0.636
			c0.565-0.425,0.849-1.061,0.849-1.769c0-0.777-0.283-1.414-0.919-1.838c-0.637-0.425-1.556-0.707-2.758-0.99
			c-0.637-0.142-1.202-0.282-1.768-0.565c-0.495-0.212-0.99-0.495-1.344-0.849s-0.707-0.777-0.919-1.202
			c-0.212-0.494-0.283-0.989-0.283-1.556c0-0.565,0.071-1.061,0.283-1.555c0.212-0.495,0.495-0.92,0.919-1.273
			c0.425-0.354,0.92-0.636,1.556-0.849c0.637-0.212,1.344-0.354,2.192-0.354c0.707,0,1.343,0.071,1.909,0.213
			c0.565,0.141,0.989,0.354,1.343,0.565s0.707,0.424,0.92,0.707c0.212,0.212,0.424,0.424,0.494,0.565l-1.414,1.272
			c-0.07-0.07-0.212-0.212-0.424-0.424c-0.212-0.142-0.425-0.354-0.707-0.495c-0.283-0.142-0.637-0.283-0.99-0.424
			c-0.354-0.142-0.777-0.142-1.272-0.142s-0.919,0.07-1.272,0.212s-0.637,0.283-0.849,0.495S21.071,53.808,21,54.021
			c-0.07,0.282-0.142,0.494-0.142,0.777c0,0.354,0.071,0.707,0.212,0.919c0.142,0.283,0.354,0.495,0.707,0.707
			c0.283,0.212,0.707,0.354,1.132,0.495c0.424,0.142,0.919,0.283,1.556,0.425c0.565,0.141,1.131,0.282,1.626,0.494
			c0.565,0.213,0.99,0.495,1.414,0.849c0.425,0.354,0.778,0.778,0.99,1.344c0.282,0.495,0.354,1.131,0.354,1.909
			c0,0.636-0.142,1.202-0.425,1.768c-0.282,0.495-0.636,0.99-1.131,1.344s-1.061,0.707-1.697,0.919
			c-0.636,0.212-1.343,0.354-2.121,0.354c-0.707,0-1.344-0.071-1.909-0.212C21,65.97,20.435,65.758,20.01,65.475
			c-0.424-0.283-0.919-0.495-1.272-0.849c-0.354-0.282-0.637-0.565-0.849-0.919L19.516,62.293z"/>
		<path fill="#FFFFFF" d="M37.687,64.626c-0.424,0.495-0.919,0.919-1.556,1.132c-0.636,0.282-1.272,0.354-1.979,0.354
			c-0.424,0-0.849-0.071-1.272-0.142c-0.425-0.142-0.849-0.283-1.202-0.565c-0.354-0.283-0.637-0.566-0.849-0.99
			s-0.354-0.919-0.354-1.484c0-1.132,0.425-1.98,1.202-2.616c0.777-0.637,1.909-0.99,3.394-0.99c0.213,0,0.495,0,0.778,0
			c0.282,0,0.495,0,0.777,0.07c0.212,0,0.425,0,0.637,0.071c0.212,0,0.282,0,0.354,0.07v-0.354c0-0.777-0.212-1.272-0.707-1.626
			S35.778,57.061,35,57.061c-0.778,0-1.414,0.07-1.909,0.283c-0.495,0.212-0.849,0.424-1.202,0.636l-0.919-1.343
			c0.212-0.142,0.424-0.283,0.637-0.425c0.282-0.142,0.565-0.282,0.919-0.424s0.707-0.212,1.202-0.283
			c0.424-0.07,0.919-0.142,1.484-0.142c1.344,0,2.404,0.354,3.182,0.92c0.778,0.565,1.132,1.555,1.132,2.687v5.939
			c0,0.354,0,0.636,0,0.919h-1.909L37.687,64.626z M37.687,61.021c-0.07,0-0.212,0-0.354-0.071c-0.142,0-0.354-0.07-0.565-0.07
			s-0.495,0-0.707-0.071c-0.283,0-0.495,0-0.777,0c-0.566,0-1.062,0.071-1.415,0.213c-0.354,0.141-0.636,0.282-0.848,0.494
			c-0.213,0.213-0.354,0.425-0.425,0.637c-0.07,0.212-0.142,0.495-0.142,0.707c0,0.565,0.213,0.99,0.566,1.272
			c0.424,0.283,0.919,0.425,1.626,0.425c0.424,0,0.777-0.071,1.131-0.212c0.354-0.142,0.637-0.283,0.92-0.495
			c0.282-0.212,0.494-0.495,0.636-0.778c0.142-0.282,0.283-0.565,0.283-0.919v-1.131H37.687z"/>
		<path fill="#FFFFFF" d="M41.859,65.828v-9.121c0-0.354,0-0.707,0-1.061h1.979l0.071,1.556c0.142-0.142,0.282-0.354,0.495-0.565
			c0.212-0.213,0.424-0.425,0.707-0.566c0.282-0.141,0.565-0.354,0.989-0.424c0.354-0.142,0.778-0.142,1.273-0.142
			c0.848,0,1.484,0.142,2.05,0.495c0.566,0.283,0.92,0.777,1.273,1.344c0.424-0.495,0.919-0.92,1.555-1.273
			c0.637-0.354,1.344-0.565,2.263-0.565c1.344,0,2.334,0.425,3.041,1.202c0.636,0.777,0.989,1.838,0.989,3.182v6.151h-2.05v-5.939
			c0-0.919-0.213-1.626-0.566-2.121c-0.354-0.424-0.919-0.636-1.696-0.636c-0.425,0-0.778,0.07-1.132,0.282
			c-0.354,0.142-0.636,0.425-0.919,0.637c-0.283,0.282-0.495,0.637-0.637,0.99c-0.141,0.354-0.212,0.777-0.212,1.201v5.657h-2.051
			v-5.939c0-0.919-0.212-1.626-0.565-2.121c-0.354-0.425-0.919-0.637-1.696-0.637c-0.566,0-1.061,0.142-1.415,0.354
			c-0.354,0.212-0.707,0.565-0.919,0.919s-0.424,0.778-0.495,1.273c-0.07,0.494-0.141,0.989-0.141,1.414v4.737h-2.192V65.828z"/>
		<path fill="#FFFFFF" d="M70.142,64.344c-0.142,0.141-0.283,0.282-0.566,0.494c-0.212,0.213-0.565,0.425-0.919,0.566
			c-0.354,0.212-0.849,0.354-1.344,0.494c-0.494,0.142-1.131,0.213-1.768,0.213c-0.848,0-1.556-0.142-2.263-0.425
			c-0.707-0.282-1.272-0.636-1.768-1.131c-0.494-0.495-0.849-1.061-1.131-1.768c-0.283-0.707-0.425-1.414-0.425-2.263
			c0-0.778,0.142-1.414,0.354-2.121c0.283-0.637,0.637-1.202,1.062-1.697c0.424-0.495,0.989-0.849,1.696-1.131
			c0.637-0.283,1.344-0.425,2.121-0.425c0.92,0,1.697,0.142,2.334,0.495c0.636,0.354,1.201,0.777,1.626,1.344
			c0.424,0.565,0.707,1.201,0.919,1.908s0.283,1.485,0.283,2.263h-8.272c0,0.425,0.141,0.849,0.282,1.273
			c0.212,0.354,0.425,0.707,0.778,0.989c0.282,0.283,0.707,0.495,1.061,0.637c0.424,0.142,0.849,0.212,1.272,0.212
			c0.919,0,1.626-0.142,2.191-0.424c0.566-0.283,0.99-0.565,1.273-0.849L70.142,64.344z M68.303,59.889
			c-0.07-0.777-0.354-1.484-0.849-2.051c-0.495-0.565-1.202-0.848-2.191-0.848c-0.495,0-0.92,0.07-1.273,0.212
			S63.282,57.556,63,57.838c-0.283,0.283-0.495,0.566-0.637,0.92s-0.212,0.707-0.282,1.061h6.222V59.889z"/>
		<path fill="#FFFFFF" d="M72.05,65.828v-9.121c0-0.354,0-0.707,0-1.061h1.98l0.07,1.556c0.142-0.142,0.283-0.354,0.495-0.565
			c0.212-0.213,0.424-0.425,0.707-0.566c0.283-0.141,0.637-0.354,0.99-0.424c0.354-0.142,0.849-0.142,1.272-0.142
			c1.344,0,2.404,0.354,3.04,1.132c0.637,0.777,0.99,1.838,0.99,3.182v6.151h-2.051V60.03c0-0.919-0.212-1.626-0.636-2.121
			c-0.425-0.425-0.99-0.637-1.768-0.637c-0.566,0-1.062,0.142-1.485,0.354s-0.707,0.565-0.919,0.919s-0.425,0.778-0.495,1.273
			s-0.142,0.989-0.142,1.484v4.737H72.05V65.828z"/>
		<path fill="#FFFFFF" d="M87.323,51.616h2.263v2.191h-2.263V51.616z M87.464,55.646h2.051v10.182h-2.051V55.646z"/>
		<path fill="#FFFFFF" d="M91.778,65.828v-9.121c0-0.354,0-0.707,0-1.061h1.979l0.071,1.556c0.142-0.142,0.282-0.354,0.495-0.565
			c0.212-0.213,0.424-0.425,0.707-0.566c0.282-0.141,0.636-0.354,0.989-0.424c0.354-0.142,0.849-0.142,1.273-0.142
			c1.343,0,2.403,0.354,3.04,1.132c0.637,0.777,0.99,1.838,0.99,3.182v6.151h-2.051V60.03c0-0.919-0.212-1.626-0.637-2.121
			c-0.424-0.425-0.989-0.637-1.768-0.637c-0.565,0-1.061,0.142-1.484,0.354c-0.425,0.212-0.707,0.565-0.92,0.919
			c-0.212,0.354-0.424,0.778-0.494,1.273c-0.071,0.495-0.142,0.989-0.142,1.484v4.737h-2.051V65.828z"/>
		<path fill="#FFFFFF" d="M113.626,64.626c-0.425,0.495-0.919,0.919-1.556,1.132c-0.637,0.282-1.272,0.354-1.979,0.354
			c-0.425,0-0.849-0.071-1.273-0.142c-0.424-0.142-0.848-0.283-1.201-0.565c-0.354-0.283-0.637-0.566-0.849-0.99
			c-0.213-0.424-0.354-0.919-0.354-1.484c0-1.132,0.424-1.98,1.202-2.616c0.777-0.637,1.908-0.99,3.394-0.99
			c0.212,0,0.495,0,0.777,0c0.283,0,0.495,0,0.778,0.07c0.212,0,0.424,0,0.636,0.071c0.213,0,0.283,0,0.354,0.07v-0.354
			c0-0.777-0.212-1.272-0.707-1.626c-0.494-0.354-1.131-0.495-1.908-0.495c-0.778,0-1.415,0.07-1.909,0.283
			c-0.495,0.212-0.849,0.424-1.202,0.636l-0.919-1.343c0.212-0.142,0.424-0.283,0.636-0.425c0.283-0.142,0.565-0.282,0.919-0.424
			s0.707-0.212,1.202-0.283c0.425-0.07,0.919-0.142,1.485-0.142c1.343,0,2.403,0.354,3.182,0.92
			c0.777,0.636,1.131,1.555,1.131,2.687v5.939c0,0.354,0,0.636,0,0.919h-1.909L113.626,64.626z M113.626,61.021
			c-0.071,0-0.212,0-0.354-0.071c-0.142,0-0.354-0.07-0.565-0.07c-0.213,0-0.495,0-0.707-0.071c-0.283,0-0.495,0-0.778,0
			c-0.565,0-1.061,0.071-1.414,0.213c-0.354,0.141-0.637,0.282-0.849,0.494c-0.212,0.213-0.354,0.425-0.424,0.637
			c-0.071,0.212-0.142,0.495-0.142,0.707c0,0.565,0.212,0.99,0.565,1.272c0.425,0.283,0.919,0.425,1.626,0.425
			c0.425,0,0.778-0.071,1.132-0.212c0.354-0.142,0.637-0.283,0.919-0.495c0.283-0.212,0.495-0.495,0.637-0.778
			c0.142-0.282,0.282-0.565,0.282-0.919v-1.131H113.626z"/>
		<path fill="#FFFFFF" d="M126.919,64.414c-0.495,0.495-1.061,0.919-1.697,1.272c-0.707,0.283-1.484,0.495-2.404,0.495
			c-0.848,0-1.626-0.142-2.263-0.424c-0.707-0.283-1.272-0.637-1.768-1.132c-0.494-0.495-0.849-1.061-1.131-1.696
			c-0.283-0.637-0.354-1.415-0.354-2.192c0-0.778,0.142-1.414,0.424-2.121c0.283-0.637,0.637-1.202,1.132-1.697
			s1.061-0.849,1.768-1.131c0.636-0.283,1.414-0.425,2.263-0.425c0.919,0,1.696,0.142,2.333,0.495
			c0.707,0.283,1.272,0.707,1.768,1.272l-1.343,1.273c-0.283-0.354-0.708-0.707-1.132-0.92c-0.424-0.212-0.99-0.354-1.626-0.354
			c-0.565,0-1.061,0.071-1.485,0.283c-0.424,0.212-0.777,0.495-1.061,0.777c-0.282,0.354-0.495,0.707-0.707,1.202
			c-0.142,0.425-0.212,0.92-0.212,1.414c0,0.495,0.07,0.92,0.212,1.344s0.354,0.849,0.707,1.202
			c0.283,0.354,0.637,0.637,1.061,0.849c0.425,0.212,0.92,0.282,1.485,0.282c0.636,0,1.202-0.141,1.696-0.354
			c0.495-0.212,0.92-0.494,1.202-0.919L126.919,64.414z"/>
		<path fill="#FFFFFF" d="M129.252,57.272h-1.909v-1.626h1.909v-3.323h2.051v3.323h3.111v1.626h-3.111v5.021
			c0,0.849,0.142,1.414,0.424,1.697c0.283,0.282,0.637,0.494,1.132,0.494c0.424,0,0.707-0.07,0.989-0.141
			c0.283-0.142,0.495-0.283,0.778-0.495l0.919,1.202c-0.424,0.424-0.919,0.707-1.344,0.919c-0.494,0.212-0.989,0.282-1.626,0.282
			c-1.131,0-1.909-0.282-2.475-0.848c-0.495-0.566-0.777-1.485-0.777-2.758v-5.374H129.252z"/>
		<path fill="#FFFFFF" d="M136.464,51.616h2.263v2.191h-2.263V51.616z M136.606,55.646h2.051v10.182h-2.051V55.646z"/>
		<path fill="#FFFFFF" d="M150.535,64.344c-0.142,0.141-0.283,0.282-0.566,0.494c-0.212,0.213-0.565,0.425-0.919,0.566
			c-0.354,0.212-0.849,0.354-1.344,0.494c-0.494,0.142-1.131,0.213-1.768,0.213c-0.848,0-1.555-0.142-2.263-0.425
			c-0.707-0.282-1.272-0.636-1.768-1.131c-0.494-0.495-0.848-1.061-1.131-1.768s-0.425-1.414-0.425-2.263
			c0-0.778,0.142-1.414,0.354-2.121c0.283-0.637,0.637-1.202,1.062-1.697c0.424-0.495,0.989-0.849,1.696-1.131
			c0.637-0.283,1.344-0.425,2.121-0.425c0.92,0,1.697,0.142,2.334,0.495c0.636,0.354,1.202,0.777,1.626,1.344
			c0.424,0.565,0.707,1.201,0.919,1.908s0.283,1.485,0.283,2.263h-8.272c0,0.425,0.141,0.849,0.282,1.273
			c0.212,0.354,0.425,0.707,0.778,0.989c0.282,0.283,0.707,0.495,1.061,0.637c0.424,0.142,0.849,0.212,1.272,0.212
			c0.919,0,1.626-0.142,2.191-0.424c0.566-0.283,0.99-0.565,1.273-0.849L150.535,64.344z M148.697,59.889
			c-0.07-0.777-0.354-1.484-0.849-2.051c-0.495-0.565-1.202-0.848-2.191-0.848c-0.495,0-0.919,0.07-1.272,0.212
			c-0.354,0.142-0.708,0.354-0.99,0.636c-0.283,0.283-0.495,0.566-0.637,0.92s-0.212,0.707-0.282,1.061h6.222V59.889z"/>
		<path fill="#FFFFFF" d="M154.778,55.646h2.333l3.253,7.99l3.252-7.99h2.192l-4.525,10.182h-2.051L154.778,55.646z"/>
		<path fill="#FFFFFF" d="M171.323,66.182c-0.849,0-1.556-0.142-2.263-0.424c-0.707-0.283-1.272-0.707-1.768-1.202
			s-0.849-1.061-1.131-1.697c-0.283-0.637-0.425-1.344-0.425-2.121c0-0.778,0.142-1.414,0.425-2.121
			c0.282-0.637,0.636-1.202,1.131-1.697s1.061-0.919,1.768-1.202c0.707-0.282,1.414-0.424,2.263-0.424
			c0.778,0,1.556,0.142,2.192,0.424c0.707,0.283,1.272,0.707,1.768,1.202s0.919,1.061,1.131,1.697
			c0.283,0.636,0.425,1.343,0.425,2.121c0,0.777-0.142,1.414-0.425,2.121c-0.282,0.637-0.636,1.202-1.131,1.697
			s-1.061,0.919-1.768,1.202C172.878,66.04,172.101,66.182,171.323,66.182z M171.323,64.414c0.566,0,1.061-0.07,1.485-0.283
			c0.424-0.212,0.777-0.494,1.131-0.848c0.283-0.354,0.565-0.708,0.707-1.202c0.142-0.425,0.213-0.92,0.213-1.344
			s-0.071-0.919-0.213-1.344c-0.142-0.424-0.424-0.849-0.707-1.202c-0.282-0.354-0.707-0.636-1.131-0.848
			c-0.425-0.213-0.919-0.354-1.485-0.354c-0.565,0-1.061,0.141-1.484,0.354c-0.425,0.212-0.778,0.494-1.132,0.848
			c-0.282,0.354-0.565,0.707-0.707,1.202c-0.141,0.425-0.212,0.92-0.212,1.344c0,0.495,0.071,0.919,0.212,1.344
			c0.142,0.424,0.425,0.849,0.707,1.202c0.283,0.354,0.707,0.636,1.132,0.848C170.262,64.344,170.757,64.414,171.323,64.414z"/>
		<path fill="#FFFFFF" d="M183.697,66.182c-0.849,0-1.556-0.142-2.263-0.424c-0.707-0.283-1.272-0.707-1.768-1.202
			s-0.849-1.061-1.132-1.697c-0.282-0.637-0.424-1.344-0.424-2.121c0-0.778,0.142-1.414,0.424-2.121
			c0.283-0.637,0.637-1.202,1.132-1.697s1.061-0.919,1.768-1.202c0.707-0.282,1.414-0.424,2.263-0.424
			c0.777,0,1.556,0.142,2.191,0.424c0.708,0.283,1.273,0.707,1.769,1.202c0.494,0.495,0.919,1.061,1.131,1.697
			c0.283,0.636,0.424,1.343,0.424,2.121c0,0.777-0.141,1.414-0.424,2.121c-0.283,0.637-0.637,1.202-1.131,1.697
			c-0.495,0.495-1.061,0.919-1.769,1.202C185.252,66.04,184.474,66.182,183.697,66.182z M183.697,64.414
			c0.565,0,1.061-0.07,1.484-0.283c0.425-0.212,0.778-0.494,1.132-0.848c0.283-0.354,0.565-0.708,0.707-1.202
			c0.142-0.425,0.212-0.92,0.212-1.344s-0.07-0.919-0.212-1.344c-0.142-0.424-0.424-0.849-0.707-1.202s-0.707-0.636-1.132-0.848
			c-0.424-0.213-0.919-0.354-1.484-0.354s-1.061,0.141-1.485,0.354c-0.424,0.212-0.777,0.494-1.131,0.848
			c-0.283,0.354-0.565,0.707-0.707,1.202c-0.142,0.425-0.212,0.92-0.212,1.344c0,0.495,0.07,0.919,0.212,1.344
			c0.142,0.424,0.424,0.849,0.707,1.202s0.707,0.636,1.131,0.848C182.636,64.344,183.131,64.414,183.697,64.414z"/>
		<path fill="#FFFFFF" d="M190.98,65.828v-9.191c0-0.354,0-0.637,0-0.99h1.979l0.07,1.626c0.142-0.142,0.283-0.354,0.495-0.565
			s0.425-0.424,0.707-0.565c0.283-0.142,0.637-0.354,0.99-0.425c0.354-0.141,0.777-0.212,1.272-0.212c0.212,0,0.424,0,0.637,0.071
			c0.212,0,0.354,0.07,0.565,0.141l-0.425,1.839c-0.282-0.071-0.636-0.142-1.061-0.142c-0.424,0-0.848,0.07-1.201,0.212
			s-0.708,0.354-0.99,0.637c-0.283,0.282-0.495,0.636-0.637,0.989s-0.212,0.778-0.212,1.202v5.374H190.98L190.98,65.828z"/>
		<path fill="#FFFFFF" d="M209.787,64.556c-0.071,0.07-0.212,0.212-0.354,0.424s-0.425,0.354-0.707,0.565
			c-0.283,0.142-0.637,0.354-0.99,0.495s-0.849,0.212-1.344,0.212c-0.636,0-1.272-0.141-1.838-0.354
			c-0.565-0.282-1.061-0.565-1.485-1.061c-0.424-0.424-0.777-0.989-0.989-1.626c-0.212-0.636-0.354-1.414-0.354-2.191
			c0-0.99,0.142-1.769,0.495-2.476s0.777-1.272,1.343-1.696c0.565-0.425,1.132-0.778,1.768-0.99
			c0.637-0.212,1.202-0.282,1.768-0.282c0.778,0,1.344,0.07,1.768,0.282c0.425,0.142,0.778,0.283,0.99,0.425v-4.879h2.051v13.575
			c0,0.354,0,0.637,0,1.061h-1.979L209.787,64.556z M209.787,57.909c-0.142-0.142-0.425-0.283-0.849-0.495
			c-0.425-0.212-0.99-0.283-1.768-0.283c-0.495,0-0.919,0.071-1.344,0.283c-0.424,0.142-0.777,0.424-1.061,0.777
			s-0.565,0.707-0.707,1.202s-0.283,0.99-0.283,1.556c0,0.495,0.071,0.919,0.213,1.344c0.141,0.424,0.282,0.777,0.565,1.131
			c0.282,0.354,0.565,0.566,0.919,0.778s0.849,0.282,1.344,0.282s0.989-0.07,1.343-0.282s0.707-0.425,0.92-0.707
			c0.212-0.283,0.424-0.565,0.494-0.919c0.142-0.354,0.142-0.637,0.142-0.92v-3.747H209.787z"/>
		<path fill="#FFFFFF" d="M223.646,64.344c-0.142,0.141-0.283,0.282-0.565,0.494c-0.213,0.213-0.566,0.425-0.92,0.566
			c-0.354,0.212-0.848,0.354-1.343,0.494c-0.495,0.142-1.132,0.213-1.768,0.213c-0.849,0-1.556-0.142-2.263-0.425
			c-0.707-0.282-1.273-0.636-1.768-1.131c-0.495-0.495-0.849-1.061-1.132-1.768c-0.282-0.707-0.424-1.414-0.424-2.263
			c0-0.778,0.142-1.414,0.354-2.121c0.282-0.637,0.636-1.202,1.061-1.697c0.424-0.495,0.989-0.849,1.696-1.131
			c0.637-0.283,1.344-0.425,2.122-0.425c0.919,0,1.696,0.142,2.333,0.495s1.202,0.777,1.626,1.344
			c0.425,0.565,0.707,1.201,0.919,1.908c0.213,0.707,0.283,1.485,0.283,2.263h-8.272c0,0.425,0.142,0.849,0.282,1.273
			c0.142,0.424,0.425,0.707,0.778,0.989c0.282,0.283,0.707,0.495,1.061,0.637c0.424,0.142,0.849,0.212,1.272,0.212
			c0.919,0,1.626-0.142,2.192-0.424c0.565-0.283,0.989-0.565,1.272-0.849L223.646,64.344z M221.807,59.889
			c-0.07-0.777-0.354-1.484-0.849-2.051c-0.494-0.565-1.201-0.848-2.191-0.848c-0.495,0-0.919,0.07-1.272,0.212
			s-0.707,0.354-0.99,0.636c-0.283,0.283-0.495,0.566-0.637,0.92c-0.141,0.354-0.212,0.707-0.282,1.061h6.222V59.889z"/>
		<path fill="#FFFFFF" d="M229.16,51.191h2.051v14.637h-2.051V51.191z"/>
		<path fill="#FFFFFF" d="M240.05,64.626c-0.425,0.495-0.92,0.919-1.556,1.132c-0.637,0.282-1.273,0.354-1.98,0.354
			c-0.424,0-0.849-0.071-1.272-0.142c-0.424-0.142-0.849-0.283-1.202-0.565c-0.354-0.283-0.636-0.566-0.849-0.99
			c-0.212-0.424-0.354-0.919-0.354-1.484c0-1.132,0.425-1.98,1.202-2.616c0.778-0.637,1.909-0.99,3.395-0.99
			c0.212,0,0.494,0,0.777,0s0.495,0,0.777,0.07c0.213,0,0.425,0,0.637,0.071c0.212,0,0.283,0,0.354,0.07v-0.354
			c0-0.777-0.212-1.272-0.707-1.626s-1.131-0.495-1.909-0.495c-0.777,0-1.414,0.07-1.909,0.283
			c-0.495,0.212-0.849,0.424-1.202,0.636l-0.919-1.343c0.212-0.142,0.425-0.283,0.637-0.425c0.282-0.142,0.565-0.282,0.919-0.424
			s0.707-0.212,1.202-0.283c0.424-0.07,0.919-0.142,1.484-0.142c1.344,0,2.404,0.354,3.183,0.92
			c0.777,0.636,1.131,1.555,1.131,2.687v5.939c0,0.354,0,0.636,0,0.919h-1.909L240.05,64.626z M239.979,61.021
			c-0.07,0-0.212,0-0.354-0.071c-0.142,0-0.354-0.07-0.565-0.07s-0.495,0-0.707-0.071c-0.283,0-0.495,0-0.778,0
			c-0.565,0-1.061,0.071-1.414,0.213c-0.354,0.141-0.636,0.282-0.849,0.494c-0.212,0.213-0.354,0.425-0.424,0.637
			s-0.142,0.495-0.142,0.707c0,0.565,0.212,0.99,0.565,1.272c0.425,0.283,0.92,0.425,1.627,0.425c0.424,0,0.777-0.071,1.131-0.212
			c0.354-0.142,0.637-0.283,0.919-0.495c0.283-0.212,0.495-0.495,0.637-0.778c0.142-0.282,0.283-0.565,0.283-0.919v-1.131H239.979z"
			/>
		<path fill="#FFFFFF" d="M250.726,64.626c-0.424,0.495-0.919,0.919-1.555,1.132c-0.637,0.282-1.273,0.354-1.98,0.354
			c-0.424,0-0.849-0.071-1.272-0.142c-0.424-0.142-0.849-0.283-1.202-0.565c-0.354-0.283-0.636-0.566-0.849-0.99
			c-0.212-0.424-0.354-0.919-0.354-1.484c0-1.132,0.425-1.98,1.202-2.616c0.778-0.637,1.909-0.99,3.395-0.99
			c0.212,0,0.494,0,0.777,0s0.495,0,0.777,0.07c0.213,0,0.425,0,0.637,0.071c0.212,0,0.283,0,0.354,0.07v-0.354
			c0-0.777-0.212-1.272-0.707-1.626s-1.131-0.495-1.909-0.495c-0.777,0-1.414,0.07-1.909,0.283
			c-0.495,0.212-0.849,0.424-1.202,0.636l-0.919-1.343c0.212-0.142,0.424-0.283,0.637-0.425c0.282-0.142,0.565-0.282,0.919-0.424
			s0.707-0.212,1.202-0.283c0.424-0.07,0.919-0.142,1.484-0.142c1.344,0,2.404,0.354,3.182,0.92
			c0.778,0.636,1.132,1.555,1.132,2.687v5.939c0,0.354,0,0.636,0,0.919h-1.909L250.726,64.626z M250.726,61.021
			c-0.07,0-0.212,0-0.354-0.071c-0.141,0-0.354-0.07-0.565-0.07s-0.495,0-0.707-0.071c-0.282,0-0.495,0-0.777,0
			c-0.565,0-1.061,0.071-1.414,0.213c-0.354,0.141-0.637,0.282-0.849,0.494c-0.212,0.213-0.354,0.425-0.425,0.637
			c-0.07,0.212-0.141,0.495-0.141,0.707c0,0.565,0.212,0.99,0.565,1.272c0.424,0.283,0.919,0.425,1.626,0.425
			c0.425,0,0.778-0.071,1.132-0.212c0.354-0.142,0.636-0.283,0.919-0.495c0.282-0.212,0.495-0.495,0.636-0.778
			c0.142-0.282,0.283-0.565,0.283-0.919v-1.131H250.726z"/>
		<path fill="#FFFFFF" d="M256.312,67.949c0.354,0.212,0.778,0.425,1.273,0.637c0.494,0.142,1.131,0.282,1.838,0.282
			c0.99,0,1.768-0.282,2.263-0.777c0.495-0.565,0.777-1.272,0.777-2.121v-1.272c-0.07,0.07-0.212,0.212-0.424,0.354
			c-0.212,0.141-0.424,0.282-0.637,0.424c-0.282,0.142-0.565,0.283-0.919,0.354c-0.354,0.142-0.777,0.142-1.272,0.142
			c-0.778,0-1.485-0.142-2.051-0.354c-0.565-0.283-1.131-0.637-1.484-1.061c-0.425-0.425-0.707-0.99-0.919-1.626
			c-0.213-0.637-0.283-1.273-0.283-2.051c0-0.778,0.142-1.485,0.424-2.192c0.283-0.636,0.707-1.272,1.202-1.768
			s1.132-0.849,1.839-1.131c0.707-0.283,1.555-0.425,2.403-0.425s1.627,0.071,2.404,0.213c0.707,0.141,1.344,0.282,1.768,0.494
			v9.758c0,1.484-0.424,2.616-1.343,3.465c-0.849,0.777-2.122,1.202-3.748,1.202c-1.061,0-1.909-0.142-2.545-0.354
			c-0.637-0.213-1.132-0.495-1.556-0.778L256.312,67.949z M262.463,57.414c-0.141-0.07-0.354-0.07-0.707-0.212
			c-0.354-0.071-0.777-0.142-1.484-0.142c-0.565,0-1.061,0.07-1.556,0.283c-0.495,0.212-0.849,0.424-1.202,0.777
			s-0.636,0.707-0.777,1.202c-0.212,0.424-0.283,0.919-0.283,1.484c0,0.495,0.071,0.92,0.142,1.344
			c0.142,0.425,0.283,0.778,0.565,1.061c0.283,0.283,0.565,0.565,0.919,0.707s0.849,0.283,1.414,0.283
			c0.495,0,0.92-0.071,1.344-0.212c0.354-0.142,0.707-0.354,0.919-0.566c0.213-0.212,0.425-0.494,0.566-0.777
			c0.141-0.283,0.212-0.637,0.212-0.919v-4.313H262.463z"/>
		<path fill="#FFFFFF" d="M267.342,63.283c0.354,0.354,0.849,0.636,1.344,0.848c0.495,0.213,1.131,0.354,1.839,0.354
			c0.707,0,1.272-0.07,1.696-0.354c0.425-0.212,0.707-0.565,0.707-0.989c0-0.212-0.07-0.425-0.142-0.637
			c-0.07-0.142-0.282-0.354-0.494-0.424c-0.213-0.142-0.566-0.283-0.92-0.354c-0.354-0.142-0.848-0.213-1.414-0.354
			c-0.424-0.071-0.777-0.213-1.202-0.354c-0.424-0.142-0.777-0.354-1.061-0.566c-0.282-0.212-0.565-0.565-0.777-0.848
			c-0.212-0.354-0.283-0.778-0.283-1.273s0.142-0.919,0.354-1.272c0.213-0.354,0.566-0.707,0.92-0.919
			c0.424-0.283,0.848-0.425,1.343-0.565c0.495-0.142,0.99-0.213,1.556-0.213c0.919,0,1.626,0.142,2.263,0.354
			c0.637,0.213,1.202,0.566,1.697,0.92l-1.132,1.343c-0.282-0.282-0.707-0.495-1.202-0.707c-0.494-0.212-1.061-0.282-1.696-0.282
			c-0.637,0-1.202,0.07-1.556,0.282c-0.425,0.212-0.565,0.565-0.565,0.99c0,0.424,0.282,0.777,0.777,0.99
			c0.495,0.212,1.202,0.424,2.051,0.636c0.495,0.142,0.989,0.283,1.414,0.425c0.424,0.141,0.777,0.354,1.131,0.565
			s0.566,0.565,0.778,0.919s0.282,0.778,0.282,1.272c0,0.495-0.141,0.99-0.354,1.344c-0.212,0.354-0.565,0.707-0.989,0.99
			c-0.425,0.282-0.849,0.494-1.414,0.565c-0.495,0.142-1.061,0.212-1.627,0.212c-1.979,0-3.464-0.495-4.454-1.556L267.342,63.283z"
			/>
		<path fill="#FFFFFF" d="M277.737,57.272h-1.909v-1.626h1.909v-3.323h2.05v3.323h3.111v1.626h-3.111v5.021
			c0,0.849,0.142,1.414,0.425,1.697c0.282,0.282,0.636,0.494,1.131,0.494c0.425,0,0.707-0.07,0.99-0.141
			c0.283-0.142,0.495-0.283,0.777-0.495l0.92,1.202c-0.425,0.424-0.92,0.707-1.344,0.919c-0.495,0.212-0.99,0.282-1.626,0.282
			c-1.132,0-1.909-0.282-2.475-0.848c-0.495-0.566-0.778-1.485-0.778-2.758v-5.374H277.737z"/>
		<path fill="#FFFFFF" d="M294.493,64.344c-0.141,0.141-0.282,0.282-0.565,0.494c-0.212,0.213-0.565,0.425-0.919,0.566
			c-0.354,0.212-0.849,0.354-1.344,0.494c-0.495,0.142-1.131,0.213-1.768,0.213c-0.849,0-1.556-0.142-2.263-0.425
			c-0.707-0.282-1.272-0.636-1.768-1.131s-0.849-1.061-1.131-1.768c-0.283-0.707-0.425-1.414-0.425-2.263
			c0-0.778,0.142-1.414,0.354-2.121c0.283-0.637,0.637-1.202,1.061-1.697c0.495-0.495,0.99-0.849,1.697-1.131
			c0.637-0.283,1.344-0.425,2.121-0.425c0.919,0,1.697,0.142,2.334,0.495c0.636,0.354,1.201,0.777,1.626,1.344
			c0.424,0.565,0.707,1.201,0.919,1.908s0.283,1.485,0.283,2.263h-8.273c0,0.425,0.142,0.849,0.283,1.273
			c0.142,0.424,0.424,0.707,0.777,0.989c0.283,0.283,0.707,0.495,1.061,0.637c0.425,0.142,0.849,0.212,1.273,0.212
			c0.919,0,1.626-0.142,2.191-0.424c0.565-0.283,0.99-0.565,1.273-0.849L294.493,64.344z M292.656,59.889
			c-0.071-0.777-0.354-1.484-0.849-2.051c-0.495-0.565-1.202-0.848-2.192-0.848c-0.494,0-0.919,0.07-1.272,0.212
			s-0.707,0.354-0.989,0.636c-0.283,0.283-0.495,0.566-0.637,0.92s-0.212,0.707-0.283,1.061h6.223V59.889z"/>
		<path fill="#FFFFFF" d="M300.009,51.191h2.051v14.637h-2.051V51.191z"/>
		<path fill="#FFFFFF" d="M310.827,64.626c-0.425,0.495-0.92,0.919-1.556,1.132c-0.637,0.282-1.273,0.354-1.98,0.354
			c-0.424,0-0.848-0.071-1.272-0.142c-0.424-0.142-0.849-0.283-1.202-0.565c-0.354-0.283-0.636-0.566-0.849-0.99
			c-0.212-0.424-0.354-0.919-0.354-1.484c0-1.132,0.425-1.98,1.202-2.616c0.778-0.637,1.909-0.99,3.395-0.99
			c0.212,0,0.495,0,0.777,0c0.283,0,0.495,0,0.778,0.07c0.212,0,0.424,0,0.636,0.071c0.212,0,0.283,0,0.354,0.07v-0.354
			c0-0.777-0.212-1.272-0.707-1.626s-1.131-0.495-1.909-0.495c-0.777,0-1.414,0.07-1.909,0.283
			c-0.495,0.212-0.849,0.424-1.202,0.636l-0.919-1.343c0.212-0.142,0.425-0.283,0.637-0.425c0.283-0.142,0.565-0.282,0.919-0.424
			s0.707-0.212,1.202-0.283c0.424-0.07,0.919-0.142,1.484-0.142c1.344,0,2.404,0.354,3.183,0.92
			c0.777,0.636,1.131,1.555,1.131,2.687v5.939c0,0.354,0,0.636,0,0.919h-1.909L310.827,64.626z M310.827,61.021
			c-0.071,0-0.213,0-0.354-0.071c-0.142,0-0.354-0.07-0.566-0.07c-0.212,0-0.494,0-0.707-0.071c-0.282,0-0.494,0-0.777,0
			c-0.565,0-1.061,0.071-1.414,0.213c-0.354,0.141-0.637,0.282-0.849,0.494c-0.212,0.213-0.354,0.425-0.424,0.637
			c-0.071,0.212-0.142,0.495-0.142,0.707c0,0.565,0.212,0.99,0.565,1.272c0.424,0.283,0.919,0.425,1.626,0.425
			c0.425,0,0.778-0.071,1.132-0.212c0.354-0.142,0.636-0.283,0.919-0.495s0.495-0.495,0.637-0.778
			c0.141-0.282,0.282-0.565,0.282-0.919v-1.131H310.827z"/>
		<path fill="#FFFFFF" d="M315.706,63.283c0.354,0.354,0.848,0.636,1.343,0.848c0.495,0.213,1.132,0.354,1.839,0.354
			s1.272-0.07,1.696-0.354c0.425-0.212,0.707-0.565,0.707-0.989c0-0.212-0.07-0.425-0.141-0.637
			c-0.071-0.142-0.283-0.354-0.495-0.424c-0.212-0.142-0.565-0.283-0.919-0.354c-0.354-0.142-0.849-0.213-1.415-0.354
			c-0.424-0.071-0.777-0.213-1.201-0.354c-0.425-0.142-0.778-0.354-1.061-0.566c-0.283-0.212-0.566-0.565-0.778-0.848
			c-0.212-0.354-0.283-0.778-0.283-1.273s0.142-0.919,0.354-1.272c0.212-0.354,0.565-0.707,0.919-0.919
			c0.424-0.283,0.849-0.425,1.343-0.565c0.495-0.142,0.99-0.213,1.556-0.213c0.92,0,1.627,0.142,2.263,0.354
			c0.637,0.213,1.202,0.566,1.697,0.92l-1.131,1.343c-0.283-0.282-0.708-0.495-1.202-0.707c-0.495-0.212-1.061-0.282-1.697-0.282
			s-1.202,0.07-1.556,0.282c-0.424,0.212-0.565,0.565-0.565,0.99c0,0.424,0.282,0.777,0.777,0.99
			c0.495,0.212,1.202,0.424,2.051,0.636c0.495,0.142,0.99,0.283,1.414,0.425c0.424,0.141,0.777,0.354,1.131,0.565
			c0.354,0.212,0.566,0.565,0.778,0.919s0.283,0.778,0.283,1.272c0,0.495-0.142,0.99-0.354,1.344
			c-0.213,0.354-0.566,0.707-0.99,0.99c-0.425,0.282-0.849,0.494-1.414,0.565c-0.495,0.142-1.061,0.212-1.627,0.212
			c-1.979,0-3.464-0.495-4.454-1.556L315.706,63.283z"/>
		<path fill="#FFFFFF" d="M326.029,57.272h-1.908v-1.626h1.908v-3.323h2.051v3.323h3.111v1.626h-3.111v5.021
			c0,0.849,0.142,1.414,0.425,1.697c0.282,0.282,0.636,0.494,1.131,0.494c0.424,0,0.707-0.07,0.99-0.141
			c0.282-0.142,0.495-0.283,0.777-0.495l0.919,1.202c-0.424,0.424-0.919,0.707-1.343,0.919c-0.495,0.212-0.99,0.282-1.627,0.282
			c-1.131,0-1.909-0.282-2.475-0.848c-0.495-0.566-0.777-1.485-0.777-2.758v-5.374H326.029z"/>
		<path fill="#FFFFFF" d="M342.786,64.344c-0.142,0.141-0.283,0.282-0.565,0.494c-0.212,0.213-0.565,0.425-0.919,0.566
			c-0.354,0.212-0.849,0.354-1.344,0.494c-0.495,0.142-1.131,0.213-1.768,0.213c-0.849,0-1.556-0.142-2.263-0.425
			c-0.707-0.282-1.272-0.636-1.768-1.131s-0.849-1.061-1.132-1.768c-0.282-0.707-0.424-1.414-0.424-2.263
			c0-0.778,0.142-1.414,0.354-2.121c0.283-0.637,0.637-1.202,1.061-1.697c0.495-0.495,0.99-0.849,1.697-1.131
			c0.636-0.283,1.344-0.425,2.121-0.425c0.919,0,1.697,0.142,2.333,0.495c0.637,0.354,1.202,0.777,1.626,1.344
			c0.425,0.565,0.708,1.201,0.92,1.908s0.282,1.485,0.282,2.263h-8.272c0,0.425,0.142,0.849,0.283,1.273
			c0.212,0.354,0.424,0.707,0.777,0.989c0.283,0.283,0.707,0.495,1.061,0.637c0.425,0.142,0.849,0.212,1.273,0.212
			c0.919,0,1.626-0.142,2.191-0.424c0.565-0.283,0.99-0.565,1.272-0.849L342.786,64.344z M341.019,59.889
			c-0.07-0.777-0.354-1.484-0.849-2.051c-0.495-0.565-1.202-0.848-2.191-0.848c-0.495,0-0.92,0.07-1.273,0.212
			s-0.707,0.354-0.989,0.636c-0.283,0.283-0.495,0.566-0.637,0.92s-0.212,0.707-0.283,1.061h6.223V59.889z"/>
		<path fill="#FFFFFF" d="M344.766,65.828v-9.121c0-0.354,0-0.707,0-1.061h1.98l0.07,1.556c0.142-0.142,0.283-0.354,0.495-0.565
			c0.212-0.213,0.424-0.425,0.707-0.566c0.283-0.141,0.637-0.354,0.99-0.424s0.848-0.142,1.272-0.142
			c1.344,0,2.404,0.354,3.04,1.132c0.637,0.777,0.99,1.838,0.99,3.182v6.151h-2.051V60.03c0-0.919-0.212-1.626-0.636-2.121
			c-0.425-0.425-0.99-0.637-1.769-0.637c-0.565,0-1.061,0.142-1.484,0.354s-0.707,0.565-0.919,0.919s-0.425,0.778-0.495,1.273
			s-0.142,0.989-0.142,1.484v4.737h-2.051V65.828z"/>
		<path fill="#FFFFFF" d="M356.786,63.424h2.546v2.404h-2.546V63.424z M356.857,51.191h2.263l-0.07,10.395h-2.121L356.857,51.191z"
			/>
	</g>
</g>
</svg>
