<?xml version="1.0" encoding="utf-8"?>
<!-- Generator: Adobe Illustrator 15.0.2, SVG Export Plug-In . SVG Version: 6.00 Build 0)  -->
<!DOCTYPE svg PUBLIC "-//W3C//DTD SVG 1.1//EN" "http://www.w3.org/Graphics/SVG/1.1/DTD/svg11.dtd">
<svg version="1.1" id="Layer_1" xmlns="http://www.w3.org/2000/svg" xmlns:xlink="http://www.w3.org/1999/xlink" x="0px" y="0px"
	 width="75px" height="27.014px" viewBox="12.5 36.493 75 27.014" enable-background="new 12.5 36.493 75 27.014"
	 xml:space="preserve">
<g>
	<path fill="#FFFFFF" d="M38.047,43.656c2.242-4.229,6.73-7.076,11.908-7.076c5.18,0,9.668,2.934,11.998,7.162
		c2.244-4.229,6.73-7.162,11.996-7.162c7.508,0,13.551,6.042,13.551,13.463c0,7.423-6.043,13.464-13.551,13.464
		c-5.18,0-9.666-2.937-11.996-7.163c-2.244,4.229-6.732,7.163-11.998,7.163c-5.178,0-9.666-2.937-11.996-7.163
		c-2.244,4.229-6.73,7.077-11.91,7.077c-7.508,0-13.549-6.042-13.549-13.464s6.041-13.464,13.549-13.464
		C31.228,36.492,35.803,39.428,38.047,43.656 M73.863,39.687c-5.697,0-10.357,4.661-10.357,10.356
		c0,5.695,4.66,10.355,10.357,10.355c5.695,0,10.354-4.66,10.354-10.355C84.219,44.347,79.559,39.687,73.863,39.687z M49.955,39.687
		c-5.695,0-10.355,4.661-10.355,10.356c0,5.695,4.66,10.355,10.355,10.355s10.357-4.66,10.357-10.355
		C60.312,44.347,55.65,39.687,49.955,39.687z M26.049,39.687c-5.695,0-10.355,4.661-10.355,10.356
		c0,5.695,4.66,10.355,10.355,10.355c5.697,0,10.356-4.66,10.356-10.355C36.405,44.261,31.832,39.687,26.049,39.687z"/>
	<polyline fill="#FFFFFF" points="67.82,43.829 79.904,43.829 79.904,47.195 76.625,47.195 75.934,47.195 75.934,56.171 
		71.877,56.171 71.877,47.195 71.1,47.195 67.82,47.195 67.82,43.829 	"/>
	<polyline fill="#FFFFFF" points="20.008,43.829 32.178,43.829 32.178,47.195 28.897,47.195 28.121,47.195 28.121,56.171 
		24.063,56.171 24.063,47.195 23.287,47.195 20.008,47.195 20.008,43.829 	"/>
	<polyline fill="#FFFFFF" points="47.713,56.171 47.713,49.871 47.885,50.13 52.199,56.171 55.998,56.171 55.998,43.829 
		52.199,43.829 52.199,50.13 52.025,49.871 47.713,43.829 43.914,43.829 43.914,56.171 47.713,56.171 	"/>
</g>
</svg>
