<svg xmlns="http://www.w3.org/2000/svg" width="378" height="70" viewBox="0 0 377.8 70.5"><style>.a{fill:#FFF;}</style><path d="M5.7 24.7c1 1 2.3 1.8 3.9 2.6 1.6 0.8 3.4 1.2 5.3 1.2 0.5 0 0.9-0.1 1.4-0.1 0.5-0.1 0.9-0.2 1.3-0.4s0.7-0.5 1-0.8c0.3-0.4 0.4-0.8 0.4-1.3 0-0.9-0.5-1.6-1.4-2.3 -0.9-0.6-2.3-1.2-4.2-1.8l-2-0.6c-1.1-0.4-2.2-0.8-3.3-1.3C7 19.2 6 18.6 5.1 17.8S3.5 16.1 2.9 15.1C2.3 14 2.1 12.8 2.1 11.3c0-1.6 0.3-3 0.9-4.5 0.6-1.3 1.5-2.5 2.7-3.6 1.1-1 2.6-1.8 4.3-2.4C11.7 0.3 13.6 0 15.9 0c1.8 0 3.3 0.1 4.7 0.5 1.4 0.3 2.7 0.7 3.7 1.1s2 0.9 2.8 1.5c0.8 0.5 1.3 1 1.7 1.4l-4.8 5.9c-1.3-0.9-2.5-1.6-3.9-2.2 -1.3-0.6-2.8-0.8-4.2-0.8 -0.5 0-0.9 0.1-1.4 0.1s-0.8 0.3-1.3 0.5c-0.4 0.2-0.7 0.5-0.9 0.8 -0.2 0.4-0.4 0.7-0.4 1.2 0 0.5 0.1 1 0.4 1.3 0.3 0.4 0.6 0.7 1.1 1 0.5 0.3 1.1 0.5 1.7 0.8 0.6 0.2 1.3 0.4 2.1 0.7l1.7 0.5c1.2 0.4 2.5 0.8 3.7 1.3 1.3 0.5 2.4 1.2 3.4 2.1 1 0.8 1.8 1.9 2.5 3.2 0.6 1.3 1 2.8 1 4.7 0 1.6-0.4 3-1.1 4.4 -0.8 1.3-1.8 2.5-3.1 3.5 -1.3 1-2.8 1.7-4.6 2.3s-3.7 0.8-5.7 0.8c-3.6 0-6.6-0.4-9-1.3S1.7 32.9 0 31.4L5.7 24.7z" class="a"/><path d="M32 1.1h9.5v26.6h16.6v8.1H32V1.1H32z" class="a"/><path d="M76.6 36.5c-2.7 0-5.2-0.4-7.4-1.3s-4.2-2.2-5.9-3.8 -3-3.5-3.9-5.8c-0.9-2.3-1.4-4.7-1.4-7.3s0.5-5.1 1.4-7.3c0.9-2.3 2.2-4.2 3.9-5.8 1.6-1.6 3.6-2.9 5.9-3.7 2.3-0.9 4.7-1.3 7.4-1.3 2.7 0 5.2 0.4 7.4 1.3 2.3 0.9 4.2 2.2 5.9 3.7 1.6 1.6 2.9 3.5 3.9 5.8 0.9 2.3 1.4 4.7 1.4 7.3s-0.5 5.1-1.4 7.3c-0.9 2.3-2.2 4.2-3.9 5.8 -1.6 1.6-3.6 2.9-5.9 3.8S79.3 36.5 76.6 36.5zM76.6 27.9c1.4 0 2.6-0.3 3.7-0.8 1.1-0.5 2-1.2 2.8-2.1 0.8-0.8 1.3-1.9 1.7-3 0.4-1.2 0.6-2.4 0.6-3.7 0-1.3-0.2-2.5-0.6-3.7 -0.4-1.2-1-2.2-1.7-3 -0.7-0.8-1.7-1.6-2.8-2.1s-2.3-0.8-3.7-0.8 -2.6 0.3-3.7 0.8c-1.1 0.5-2 1.2-2.8 2.1 -0.8 0.8-1.3 1.9-1.7 3 -0.4 1.2-0.6 2.4-0.6 3.7 0 1.3 0.2 2.5 0.6 3.7 0.4 1.2 1 2.2 1.7 3s1.7 1.6 2.8 2.1C74 27.6 75.3 27.9 76.6 27.9z" class="a"/><path d="M116 36.5c-2.7 0-5.2-0.4-7.4-1.3s-4.2-2.2-5.9-3.8c-1.6-1.6-3-3.5-3.9-5.8s-1.4-4.7-1.4-7.3 0.5-5.1 1.4-7.3c0.9-2.3 2.2-4.2 3.9-5.8 1.6-1.6 3.6-2.9 5.9-3.7 2.3-0.9 4.7-1.3 7.4-1.3 2.7 0 5.2 0.4 7.4 1.3 2.3 0.9 4.2 2.2 5.9 3.7 1.6 1.6 2.9 3.5 3.9 5.8 0.9 2.3 1.4 4.7 1.4 7.3s-0.5 5.1-1.4 7.3c-0.9 2.3-2.2 4.2-3.9 5.8 -1.6 1.6-3.6 2.9-5.9 3.8C121.1 36.1 118.6 36.5 116 36.5zM116 27.9c1.4 0 2.6-0.3 3.7-0.8 1.1-0.5 2-1.2 2.8-2.1 0.8-0.8 1.3-1.9 1.7-3 0.4-1.2 0.6-2.4 0.6-3.7 0-1.3-0.2-2.5-0.6-3.7 -0.4-1.2-1-2.2-1.7-3 -0.8-0.8-1.7-1.6-2.8-2.1s-2.3-0.8-3.7-0.8 -2.6 0.3-3.7 0.8c-1.1 0.5-2 1.2-2.8 2.1 -0.8 0.8-1.3 1.9-1.7 3 -0.4 1.2-0.6 2.4-0.6 3.7 0 1.3 0.2 2.5 0.6 3.7 0.4 1.2 1 2.2 1.7 3 0.8 0.8 1.7 1.6 2.8 2.1C113.3 27.6 114.6 27.9 116 27.9z" class="a"/><path d="M138.2 1.1h14.6c1.9 0 3.7 0.3 5.2 0.8 1.6 0.5 2.9 1.2 4 2.2 1.1 0.9 2 2.1 2.5 3.6 0.6 1.4 0.9 3.1 0.9 4.9 0 1.8-0.3 3.4-0.9 4.8 -0.6 1.4-1.5 2.7-2.5 3.7 -1.1 1-2.4 1.8-3.9 2.3 -1.5 0.6-3.2 0.8-5 0.8h-5.6v11.5h-9.3V1.1zM151.9 16.9c1.3 0 2.3-0.4 3-1.2 0.8-0.8 1.1-1.8 1.1-3 0-1.3-0.4-2.4-1.1-3.2s-1.8-1.2-3.2-1.2h-4.5v8.6H151.9z" class="a"/><path d="M183.8 33.2c-0.9 1.1-2 1.8-3.3 2.4 -1.3 0.5-2.5 0.8-3.7 0.8 -1.3 0-2.6-0.2-3.7-0.6 -1.1-0.4-2.1-1-3-1.7 -1.3-1.1-2.4-2.5-3.1-4.4 -0.7-1.8-1.1-3.8-1.1-6 0-1.8 0.4-3.5 1-5.1 0.6-1.6 1.6-3 2.8-4.1 1.2-1.1 2.6-2.1 4.3-2.8 1.6-0.6 3.5-1 5.5-1 0.8 0 1.6 0.1 2.3 0.2s1.3 0.3 1.7 0.4V1.1h9.1v34.6h-8.3L183.8 33.2zM183.4 18.6c-0.9-0.3-1.9-0.5-3-0.5 -1.6 0-2.9 0.5-4 1.5 -1 1-1.6 2.5-1.6 4.4 0 1.5 0.4 2.6 1.1 3.5 0.7 0.8 1.8 1.3 3.3 1.3 1.3 0 2.3-0.4 3-1.1 0.6-0.8 1-1.8 1-3.3v-5.9H183.4z" class="a"/><path d="M219 33.9c-0.4 0.2-1 0.5-1.6 0.8 -0.6 0.3-1.4 0.6-2.3 0.8 -0.9 0.3-1.9 0.5-3 0.7 -1.1 0.2-2.3 0.3-3.5 0.3 -4.7 0-8.2-1.1-10.7-3.4 -2.5-2.3-3.7-5.4-3.7-9.5 0-1.6 0.3-3.3 0.8-4.8 0.6-1.6 1.3-3 2.4-4.2 1.1-1.2 2.5-2.2 4.1-3 1.6-0.8 3.6-1.1 5.8-1.1 1.7 0 3.3 0.3 4.9 0.8 1.5 0.6 2.8 1.4 4 2.6 1.1 1.1 2 2.6 2.7 4.4 0.6 1.8 1 3.8 1 6.2v1.7h-17c0 0.4 0.1 0.8 0.4 1.3 0.2 0.4 0.6 0.8 1 1.3 0.5 0.4 1.1 0.7 1.9 1 0.8 0.2 1.8 0.4 3 0.4 1.6 0 3-0.2 4.2-0.6 1.3-0.4 2.3-0.8 3-1.2L219 33.9zM211.7 20.9c0-0.4-0.1-0.8-0.3-1.3s-0.4-0.8-0.8-1.3c-0.4-0.4-0.8-0.7-1.4-1 -0.6-0.3-1.2-0.4-2-0.4 -0.8 0-1.4 0.1-2 0.4 -0.6 0.3-1.1 0.6-1.4 1 -0.4 0.4-0.6 0.8-0.8 1.3 -0.2 0.4-0.3 0.8-0.3 1.3H211.7z" class="a"/><path d="M257 29.3c-4 4.9-9.3 7.4-15.9 7.4 -2.8 0-5.2-0.4-7.6-1.3 -2.3-0.9-4.2-2.1-5.9-3.7 -1.6-1.6-2.9-3.5-3.8-5.7 -0.9-2.2-1.3-4.7-1.3-7.4 0-2.6 0.4-5.1 1.3-7.3 0.9-2.3 2.2-4.2 3.8-5.8 1.6-1.6 3.6-2.9 5.9-3.8 2.3-0.9 4.8-1.3 7.6-1.3 3.1 0 6 0.5 8.6 1.5 2.6 1 4.9 2.8 6.7 5.2l-6.3 6.2c-1-1.3-2.2-2.4-3.6-3.2 -1.4-0.8-3-1.2-4.7-1.2 -1.5 0-2.8 0.2-4 0.7 -1.2 0.5-2.2 1.1-3 2.1 -0.8 0.8-1.4 1.9-1.8 3 -0.4 1.1-0.6 2.4-0.6 3.7 0 1.4 0.2 2.7 0.6 3.8 0.4 1.2 1.1 2.2 1.9 3 0.8 0.8 1.8 1.6 3 2.1s2.5 0.7 3.9 0.7c2.1 0 3.7-0.4 5.1-1.1 1.3-0.7 2.5-1.8 3.8-3.3L257 29.3z" class="a"/><path d="M259 1.1h14.8c1.9 0 3.7 0.2 5.2 0.7 1.6 0.5 2.9 1.2 4 2.2 1.1 0.9 2 2.1 2.5 3.5 0.6 1.4 0.9 3 0.9 4.9 0 2.3-0.5 4.2-1.6 5.9 -1.1 1.7-2.4 3-4.1 4l7.6 13.3h-10.2l-6.1-11.8h-4v11.8h-9.3V1.1H259zM272.9 16.7c1.3 0 2.3-0.4 3-1.1 0.8-0.8 1.2-1.8 1.2-3 0-1.3-0.4-2.3-1.1-3.1 -0.8-0.8-1.8-1.1-3.2-1.1h-4.5v8.3H272.9z" class="a"/><path d="M291.1 1.1h9.5v34.6H291.1V1.1z" class="a"/><path d="M308.3 24.7c1 1 2.3 1.8 3.9 2.6 1.6 0.8 3.4 1.2 5.3 1.2 0.5 0 0.9-0.1 1.4-0.1 0.5-0.1 0.9-0.2 1.3-0.4 0.4-0.2 0.7-0.5 1-0.8s0.4-0.8 0.4-1.3c0-0.9-0.5-1.6-1.4-2.3 -0.9-0.6-2.3-1.2-4.2-1.8l-2-0.6c-1.1-0.4-2.2-0.8-3.3-1.3 -1.1-0.6-2.1-1.2-3-2 -0.9-0.8-1.6-1.7-2.2-2.8s-0.8-2.3-0.8-3.7c0-1.6 0.3-3 0.9-4.5 0.6-1.3 1.5-2.5 2.7-3.6 1.1-1 2.6-1.8 4.3-2.4C314.2 0.3 316.2 0 318.5 0c1.8 0 3.3 0.1 4.7 0.5 1.4 0.3 2.7 0.7 3.7 1.1s2 0.9 2.8 1.5c0.8 0.6 1.3 1 1.7 1.4l-4.8 5.9c-1.3-0.9-2.5-1.6-3.9-2.2 -1.3-0.6-2.8-0.8-4.2-0.8 -0.5 0-0.9 0.1-1.4 0.1 -0.5 0.1-0.8 0.3-1.3 0.5 -0.4 0.2-0.7 0.5-0.9 0.8 -0.2 0.4-0.4 0.7-0.4 1.2 0 0.5 0.1 1 0.4 1.3 0.3 0.4 0.6 0.7 1.1 1 0.5 0.3 1.1 0.5 1.7 0.8 0.6 0.2 1.3 0.4 2.1 0.7l1.7 0.5c1.2 0.4 2.5 0.8 3.7 1.3 1.3 0.5 2.4 1.2 3.4 2.1 1 0.8 1.8 1.9 2.5 3.2 0.6 1.3 1 2.8 1 4.7 0 1.6-0.4 3-1.1 4.4 -0.8 1.3-1.8 2.5-3.1 3.5 -1.3 1-2.8 1.7-4.6 2.3s-3.7 0.8-5.7 0.8c-3.6 0-6.6-0.4-9-1.3 -2.4-0.9-4.5-2.2-6.2-3.7L308.3 24.7z" class="a"/><path d="M335.6 1.1h9.5v34.6h-9.5V1.1z" class="a"/><path d="M353.9 24.7c1 1 2.3 1.8 3.9 2.6 1.6 0.8 3.4 1.2 5.3 1.2 0.5 0 0.9-0.1 1.4-0.1 0.5-0.1 0.9-0.2 1.3-0.4 0.4-0.2 0.7-0.5 1-0.8 0.3-0.4 0.4-0.8 0.4-1.3 0-0.9-0.5-1.6-1.4-2.3 -0.9-0.6-2.3-1.2-4.2-1.8l-2-0.6c-1.1-0.4-2.2-0.8-3.3-1.3 -1.1-0.6-2.1-1.2-3-2s-1.6-1.7-2.2-2.8c-0.6-1.1-0.8-2.3-0.8-3.7 0-1.6 0.3-3 0.9-4.5 0.6-1.3 1.5-2.5 2.7-3.6 1.1-1 2.6-1.8 4.3-2.4C359.8 0.3 361.8 0 364.1 0c1.8 0 3.3 0.1 4.7 0.5 1.4 0.3 2.7 0.7 3.7 1.1s2 0.9 2.8 1.5c0.8 0.5 1.3 1 1.7 1.4l-4.8 5.9c-1.3-0.9-2.5-1.6-3.9-2.2 -1.3-0.6-2.8-0.8-4.2-0.8 -0.5 0-0.9 0.1-1.4 0.1s-0.8 0.3-1.3 0.5c-0.4 0.2-0.7 0.5-0.9 0.8 -0.2 0.4-0.4 0.7-0.4 1.2 0 0.5 0.1 1 0.4 1.3s0.6 0.7 1.1 1c0.5 0.3 1.1 0.5 1.7 0.8 0.6 0.2 1.3 0.4 2.1 0.7l1.7 0.5c1.2 0.4 2.5 0.8 3.7 1.3 1.3 0.5 2.4 1.2 3.4 2.1 1 0.8 1.8 1.9 2.5 3.2 0.6 1.3 1 2.8 1 4.7 0 1.6-0.4 3-1.1 4.4 -0.8 1.3-1.8 2.5-3.1 3.5 -1.3 1-2.8 1.7-4.6 2.3s-3.7 0.8-5.7 0.8c-3.6 0-6.6-0.4-9-1.3s-4.5-2.2-6.2-3.7L353.9 24.7z" class="a"/><path d="M19.5 62.3c0.2 0.2 0.4 0.5 0.7 0.7 0.3 0.2 0.6 0.4 0.9 0.6 0.4 0.2 0.7 0.4 1.1 0.5 0.4 0.1 0.8 0.1 1.3 0.1 1 0 1.8-0.2 2.3-0.6 0.6-0.4 0.8-1.1 0.8-1.8 0-0.8-0.3-1.4-0.9-1.8 -0.6-0.4-1.6-0.7-2.8-1 -0.6-0.1-1.2-0.3-1.8-0.6 -0.5-0.2-1-0.5-1.3-0.8s-0.7-0.8-0.9-1.2c-0.2-0.5-0.3-1-0.3-1.6 0-0.6 0.1-1.1 0.3-1.6 0.2-0.5 0.5-0.9 0.9-1.3 0.4-0.4 0.9-0.6 1.6-0.8 0.6-0.2 1.3-0.4 2.2-0.4 0.7 0 1.3 0.1 1.9 0.2 0.6 0.1 1 0.4 1.3 0.6s0.7 0.4 0.9 0.7c0.2 0.2 0.4 0.4 0.5 0.6l-1.4 1.3c-0.1-0.1-0.2-0.2-0.4-0.4 -0.2-0.1-0.4-0.4-0.7-0.5 -0.3-0.1-0.6-0.3-1-0.4 -0.4-0.1-0.8-0.1-1.3-0.1s-0.9 0.1-1.3 0.2 -0.6 0.3-0.8 0.5S21.1 53.8 21 54c-0.1 0.3-0.1 0.5-0.1 0.8 0 0.4 0.1 0.7 0.2 0.9 0.1 0.3 0.4 0.5 0.7 0.7 0.3 0.2 0.7 0.4 1.1 0.5 0.4 0.1 0.9 0.3 1.6 0.4 0.6 0.1 1.1 0.3 1.6 0.5 0.6 0.2 1 0.5 1.4 0.8 0.4 0.4 0.8 0.8 1 1.3 0.3 0.5 0.4 1.1 0.4 1.9 0 0.6-0.1 1.2-0.4 1.8 -0.3 0.5-0.6 1-1.1 1.3s-1.1 0.7-1.7 0.9c-0.6 0.2-1.3 0.4-2.1 0.4 -0.7 0-1.3-0.1-1.9-0.2C21 66 20.4 65.8 20 65.5c-0.4-0.3-0.9-0.5-1.3-0.8 -0.4-0.3-0.6-0.6-0.8-0.9L19.5 62.3z" class="a"/><path d="M37.7 64.6c-0.4 0.5-0.9 0.9-1.6 1.1 -0.6 0.3-1.3 0.4-2 0.4 -0.4 0-0.8-0.1-1.3-0.1 -0.4-0.1-0.8-0.3-1.2-0.6 -0.4-0.3-0.6-0.6-0.8-1s-0.4-0.9-0.4-1.5c0-1.1 0.4-2 1.2-2.6 0.8-0.6 1.9-1 3.4-1 0.2 0 0.5 0 0.8 0 0.3 0 0.5 0 0.8 0.1 0.2 0 0.4 0 0.6 0.1 0.2 0 0.3 0 0.4 0.1v-0.4c0-0.8-0.2-1.3-0.7-1.6S35.8 57.1 35 57.1c-0.8 0-1.4 0.1-1.9 0.3 -0.5 0.2-0.8 0.4-1.2 0.6l-0.9-1.3c0.2-0.1 0.4-0.3 0.6-0.4 0.3-0.1 0.6-0.3 0.9-0.4s0.7-0.2 1.2-0.3c0.4-0.1 0.9-0.1 1.5-0.1 1.3 0 2.4 0.4 3.2 0.9 0.8 0.6 1.1 1.6 1.1 2.7v5.9c0 0.4 0 0.6 0 0.9h-1.9L37.7 64.6zM37.7 61c-0.1 0-0.2 0-0.4-0.1 -0.1 0-0.4-0.1-0.6-0.1s-0.5 0-0.7-0.1c-0.3 0-0.5 0-0.8 0 -0.6 0-1.1 0.1-1.4 0.2 -0.4 0.1-0.6 0.3-0.8 0.5 -0.2 0.2-0.4 0.4-0.4 0.6 -0.1 0.2-0.1 0.5-0.1 0.7 0 0.6 0.2 1 0.6 1.3 0.4 0.3 0.9 0.4 1.6 0.4 0.4 0 0.8-0.1 1.1-0.2 0.4-0.1 0.6-0.3 0.9-0.5 0.3-0.2 0.5-0.5 0.6-0.8 0.1-0.3 0.3-0.6 0.3-0.9v-1.1H37.7z" class="a"/><path d="M41.9 65.8v-9.1c0-0.4 0-0.7 0-1.1h2l0.1 1.6c0.1-0.1 0.3-0.4 0.5-0.6 0.2-0.2 0.4-0.4 0.7-0.6 0.3-0.1 0.6-0.4 1-0.4 0.4-0.1 0.8-0.1 1.3-0.1 0.8 0 1.5 0.1 2.1 0.5 0.6 0.3 0.9 0.8 1.3 1.3 0.4-0.5 0.9-0.9 1.6-1.3 0.6-0.4 1.3-0.6 2.3-0.6 1.3 0 2.3 0.4 3 1.2 0.6 0.8 1 1.8 1 3.2v6.2h-2v-5.9c0-0.9-0.2-1.6-0.6-2.1 -0.4-0.4-0.9-0.6-1.7-0.6 -0.4 0-0.8 0.1-1.1 0.3 -0.4 0.1-0.6 0.4-0.9 0.6 -0.3 0.3-0.5 0.6-0.6 1 -0.1 0.4-0.2 0.8-0.2 1.2v5.7h-2.1v-5.9c0-0.9-0.2-1.6-0.6-2.1 -0.4-0.4-0.9-0.6-1.7-0.6 -0.6 0-1.1 0.1-1.4 0.4 -0.4 0.2-0.7 0.6-0.9 0.9s-0.4 0.8-0.5 1.3c-0.1 0.5-0.1 1-0.1 1.4v4.7h-2.2V65.8z" class="a"/><path d="M70.1 64.3c-0.1 0.1-0.3 0.3-0.6 0.5 -0.2 0.2-0.6 0.4-0.9 0.6 -0.4 0.2-0.8 0.4-1.3 0.5 -0.5 0.1-1.1 0.2-1.8 0.2 -0.8 0-1.6-0.1-2.3-0.4 -0.7-0.3-1.3-0.6-1.8-1.1 -0.5-0.5-0.8-1.1-1.1-1.8 -0.3-0.7-0.4-1.4-0.4-2.3 0-0.8 0.1-1.4 0.4-2.1 0.3-0.6 0.6-1.2 1.1-1.7 0.4-0.5 1-0.8 1.7-1.1 0.6-0.3 1.3-0.4 2.1-0.4 0.9 0 1.7 0.1 2.3 0.5 0.6 0.4 1.2 0.8 1.6 1.3 0.4 0.6 0.7 1.2 0.9 1.9s0.3 1.5 0.3 2.3h-8.3c0 0.4 0.1 0.8 0.3 1.3 0.2 0.4 0.4 0.7 0.8 1 0.3 0.3 0.7 0.5 1.1 0.6 0.4 0.1 0.8 0.2 1.3 0.2 0.9 0 1.6-0.1 2.2-0.4 0.6-0.3 1-0.6 1.3-0.8L70.1 64.3zM68.3 59.9c-0.1-0.8-0.4-1.5-0.8-2.1 -0.5-0.6-1.2-0.8-2.2-0.8 -0.5 0-0.9 0.1-1.3 0.2S63.3 57.6 63 57.8c-0.3 0.3-0.5 0.6-0.6 0.9s-0.2 0.7-0.3 1.1h6.2V59.9z" class="a"/><path d="M72.1 65.8v-9.1c0-0.4 0-0.7 0-1.1h2l0.1 1.6c0.1-0.1 0.3-0.4 0.5-0.6 0.2-0.2 0.4-0.4 0.7-0.6 0.3-0.1 0.6-0.4 1-0.4 0.4-0.1 0.8-0.1 1.3-0.1 1.3 0 2.4 0.4 3 1.1 0.6 0.8 1 1.8 1 3.2v6.2h-2.1V60c0-0.9-0.2-1.6-0.6-2.1 -0.4-0.4-1-0.6-1.8-0.6 -0.6 0-1.1 0.1-1.5 0.4s-0.7 0.6-0.9 0.9 -0.4 0.8-0.5 1.3 -0.1 1-0.1 1.5v4.7H72.1V65.8z" class="a"/><path d="M87.3 51.6h2.3v2.2h-2.3V51.6zM87.5 55.6h2.1v10.2h-2.1V55.6z" class="a"/><path d="M91.8 65.8v-9.1c0-0.4 0-0.7 0-1.1h2l0.1 1.6c0.1-0.1 0.3-0.4 0.5-0.6 0.2-0.2 0.4-0.4 0.7-0.6 0.3-0.1 0.6-0.4 1-0.4 0.4-0.1 0.8-0.1 1.3-0.1 1.3 0 2.4 0.4 3 1.1 0.6 0.8 1 1.8 1 3.2v6.2h-2.1V60c0-0.9-0.2-1.6-0.6-2.1 -0.4-0.4-1-0.6-1.8-0.6 -0.6 0-1.1 0.1-1.5 0.4 -0.4 0.2-0.7 0.6-0.9 0.9 -0.2 0.4-0.4 0.8-0.5 1.3 -0.1 0.5-0.1 1-0.1 1.5v4.7h-2.1V65.8z" class="a"/><path d="M113.6 64.6c-0.4 0.5-0.9 0.9-1.6 1.1 -0.6 0.3-1.3 0.4-2 0.4 -0.4 0-0.8-0.1-1.3-0.1 -0.4-0.1-0.8-0.3-1.2-0.6 -0.4-0.3-0.6-0.6-0.8-1 -0.2-0.4-0.4-0.9-0.4-1.5 0-1.1 0.4-2 1.2-2.6 0.8-0.6 1.9-1 3.4-1 0.2 0 0.5 0 0.8 0 0.3 0 0.5 0 0.8 0.1 0.2 0 0.4 0 0.6 0.1 0.2 0 0.3 0 0.4 0.1v-0.4c0-0.8-0.2-1.3-0.7-1.6 -0.5-0.4-1.1-0.5-1.9-0.5 -0.8 0-1.4 0.1-1.9 0.3 -0.5 0.2-0.8 0.4-1.2 0.6l-0.9-1.3c0.2-0.1 0.4-0.3 0.6-0.4 0.3-0.1 0.6-0.3 0.9-0.4s0.7-0.2 1.2-0.3c0.4-0.1 0.9-0.1 1.5-0.1 1.3 0 2.4 0.4 3.2 0.9 0.8 0.6 1.1 1.6 1.1 2.7v5.9c0 0.4 0 0.6 0 0.9h-1.9L113.6 64.6zM113.6 61c-0.1 0-0.2 0-0.4-0.1 -0.1 0-0.4-0.1-0.6-0.1 -0.2 0-0.5 0-0.7-0.1 -0.3 0-0.5 0-0.8 0 -0.6 0-1.1 0.1-1.4 0.2 -0.4 0.1-0.6 0.3-0.8 0.5 -0.2 0.2-0.4 0.4-0.4 0.6 -0.1 0.2-0.1 0.5-0.1 0.7 0 0.6 0.2 1 0.6 1.3 0.4 0.3 0.9 0.4 1.6 0.4 0.4 0 0.8-0.1 1.1-0.2 0.4-0.1 0.6-0.3 0.9-0.5 0.3-0.2 0.5-0.5 0.6-0.8 0.1-0.3 0.3-0.6 0.3-0.9v-1.1H113.6z" class="a"/><path d="M126.9 64.4c-0.5 0.5-1.1 0.9-1.7 1.3 -0.7 0.3-1.5 0.5-2.4 0.5 -0.8 0-1.6-0.1-2.3-0.4 -0.7-0.3-1.3-0.6-1.8-1.1 -0.5-0.5-0.8-1.1-1.1-1.7 -0.3-0.6-0.4-1.4-0.4-2.2 0-0.8 0.1-1.4 0.4-2.1 0.3-0.6 0.6-1.2 1.1-1.7s1.1-0.8 1.8-1.1c0.6-0.3 1.4-0.4 2.3-0.4 0.9 0 1.7 0.1 2.3 0.5 0.7 0.3 1.3 0.7 1.8 1.3l-1.3 1.3c-0.3-0.4-0.7-0.7-1.1-0.9 -0.4-0.2-1-0.4-1.6-0.4 -0.6 0-1.1 0.1-1.5 0.3 -0.4 0.2-0.8 0.5-1.1 0.8 -0.3 0.4-0.5 0.7-0.7 1.2 -0.1 0.4-0.2 0.9-0.2 1.4 0 0.5 0.1 0.9 0.2 1.3s0.4 0.8 0.7 1.2c0.3 0.4 0.6 0.6 1.1 0.8 0.4 0.2 0.9 0.3 1.5 0.3 0.6 0 1.2-0.1 1.7-0.4 0.5-0.2 0.9-0.5 1.2-0.9L126.9 64.4z" class="a"/><path d="M129.3 57.3h-1.9v-1.6h1.9v-3.3h2.1v3.3h3.1v1.6h-3.1v5c0 0.8 0.1 1.4 0.4 1.7 0.3 0.3 0.6 0.5 1.1 0.5 0.4 0 0.7-0.1 1-0.1 0.3-0.1 0.5-0.3 0.8-0.5l0.9 1.2c-0.4 0.4-0.9 0.7-1.3 0.9 -0.5 0.2-1 0.3-1.6 0.3 -1.1 0-1.9-0.3-2.5-0.8 -0.5-0.6-0.8-1.5-0.8-2.8v-5.4H129.3z" class="a"/><path d="M136.5 51.6h2.3v2.2h-2.3V51.6zM136.6 55.6h2.1v10.2h-2.1V55.6z" class="a"/><path d="M150.5 64.3c-0.1 0.1-0.3 0.3-0.6 0.5 -0.2 0.2-0.6 0.4-0.9 0.6 -0.4 0.2-0.8 0.4-1.3 0.5 -0.5 0.1-1.1 0.2-1.8 0.2 -0.8 0-1.6-0.1-2.3-0.4 -0.7-0.3-1.3-0.6-1.8-1.1 -0.5-0.5-0.8-1.1-1.1-1.8s-0.4-1.4-0.4-2.3c0-0.8 0.1-1.4 0.4-2.1 0.3-0.6 0.6-1.2 1.1-1.7 0.4-0.5 1-0.8 1.7-1.1 0.6-0.3 1.3-0.4 2.1-0.4 0.9 0 1.7 0.1 2.3 0.5 0.6 0.4 1.2 0.8 1.6 1.3 0.4 0.6 0.7 1.2 0.9 1.9s0.3 1.5 0.3 2.3h-8.3c0 0.4 0.1 0.8 0.3 1.3 0.2 0.4 0.4 0.7 0.8 1 0.3 0.3 0.7 0.5 1.1 0.6 0.4 0.1 0.8 0.2 1.3 0.2 0.9 0 1.6-0.1 2.2-0.4 0.6-0.3 1-0.6 1.3-0.8L150.5 64.3zM148.7 59.9c-0.1-0.8-0.4-1.5-0.8-2.1 -0.5-0.6-1.2-0.8-2.2-0.8 -0.5 0-0.9 0.1-1.3 0.2 -0.4 0.1-0.7 0.4-1 0.6 -0.3 0.3-0.5 0.6-0.6 0.9s-0.2 0.7-0.3 1.1h6.2V59.9z" class="a"/><path d="M154.8 55.6h2.3l3.3 8 3.3-8h2.2l-4.5 10.2h-2.1L154.8 55.6z" class="a"/><path d="M171.3 66.2c-0.8 0-1.6-0.1-2.3-0.4 -0.7-0.3-1.3-0.7-1.8-1.2s-0.8-1.1-1.1-1.7c-0.3-0.6-0.4-1.3-0.4-2.1 0-0.8 0.1-1.4 0.4-2.1 0.3-0.6 0.6-1.2 1.1-1.7s1.1-0.9 1.8-1.2c0.7-0.3 1.4-0.4 2.3-0.4 0.8 0 1.6 0.1 2.2 0.4 0.7 0.3 1.3 0.7 1.8 1.2s0.9 1.1 1.1 1.7c0.3 0.6 0.4 1.3 0.4 2.1 0 0.8-0.1 1.4-0.4 2.1 -0.3 0.6-0.6 1.2-1.1 1.7s-1.1 0.9-1.8 1.2C172.9 66 172.1 66.2 171.3 66.2zM171.3 64.4c0.6 0 1.1-0.1 1.5-0.3 0.4-0.2 0.8-0.5 1.1-0.8 0.3-0.4 0.6-0.7 0.7-1.2 0.1-0.4 0.2-0.9 0.2-1.3s-0.1-0.9-0.2-1.3c-0.1-0.4-0.4-0.8-0.7-1.2 -0.3-0.4-0.7-0.6-1.1-0.8 -0.4-0.2-0.9-0.4-1.5-0.4 -0.6 0-1.1 0.1-1.5 0.4 -0.4 0.2-0.8 0.5-1.1 0.8 -0.3 0.4-0.6 0.7-0.7 1.2 -0.1 0.4-0.2 0.9-0.2 1.3 0 0.5 0.1 0.9 0.2 1.3 0.1 0.4 0.4 0.8 0.7 1.2 0.3 0.4 0.7 0.6 1.1 0.8C170.3 64.3 170.8 64.4 171.3 64.4z" class="a"/><path d="M183.7 66.2c-0.8 0-1.6-0.1-2.3-0.4 -0.7-0.3-1.3-0.7-1.8-1.2s-0.8-1.1-1.1-1.7c-0.3-0.6-0.4-1.3-0.4-2.1 0-0.8 0.1-1.4 0.4-2.1 0.3-0.6 0.6-1.2 1.1-1.7s1.1-0.9 1.8-1.2c0.7-0.3 1.4-0.4 2.3-0.4 0.8 0 1.6 0.1 2.2 0.4 0.7 0.3 1.3 0.7 1.8 1.2 0.5 0.5 0.9 1.1 1.1 1.7 0.3 0.6 0.4 1.3 0.4 2.1 0 0.8-0.1 1.4-0.4 2.1 -0.3 0.6-0.6 1.2-1.1 1.7 -0.5 0.5-1.1 0.9-1.8 1.2C185.3 66 184.5 66.2 183.7 66.2zM183.7 64.4c0.6 0 1.1-0.1 1.5-0.3 0.4-0.2 0.8-0.5 1.1-0.8 0.3-0.4 0.6-0.7 0.7-1.2 0.1-0.4 0.2-0.9 0.2-1.3s-0.1-0.9-0.2-1.3c-0.1-0.4-0.4-0.8-0.7-1.2s-0.7-0.6-1.1-0.8c-0.4-0.2-0.9-0.4-1.5-0.4s-1.1 0.1-1.5 0.4c-0.4 0.2-0.8 0.5-1.1 0.8 -0.3 0.4-0.6 0.7-0.7 1.2 -0.1 0.4-0.2 0.9-0.2 1.3 0 0.5 0.1 0.9 0.2 1.3 0.1 0.4 0.4 0.8 0.7 1.2s0.7 0.6 1.1 0.8C182.6 64.3 183.1 64.4 183.7 64.4z" class="a"/><path d="M191 65.8v-9.2c0-0.4 0-0.6 0-1h2l0.1 1.6c0.1-0.1 0.3-0.4 0.5-0.6s0.4-0.4 0.7-0.6c0.3-0.1 0.6-0.4 1-0.4 0.4-0.1 0.8-0.2 1.3-0.2 0.2 0 0.4 0 0.6 0.1 0.2 0 0.4 0.1 0.6 0.1l-0.4 1.8c-0.3-0.1-0.6-0.1-1.1-0.1 -0.4 0-0.8 0.1-1.2 0.2s-0.7 0.4-1 0.6c-0.3 0.3-0.5 0.6-0.6 1s-0.2 0.8-0.2 1.2v5.4H191L191 65.8z" class="a"/><path d="M209.8 64.6c-0.1 0.1-0.2 0.2-0.4 0.4s-0.4 0.4-0.7 0.6c-0.3 0.1-0.6 0.4-1 0.5s-0.8 0.2-1.3 0.2c-0.6 0-1.3-0.1-1.8-0.4 -0.6-0.3-1.1-0.6-1.5-1.1 -0.4-0.4-0.8-1-1-1.6 -0.2-0.6-0.4-1.4-0.4-2.2 0-1 0.1-1.8 0.5-2.5s0.8-1.3 1.3-1.7c0.6-0.4 1.1-0.8 1.8-1 0.6-0.2 1.2-0.3 1.8-0.3 0.8 0 1.3 0.1 1.8 0.3 0.4 0.1 0.8 0.3 1 0.4v-4.9h2.1v13.6c0 0.4 0 0.6 0 1.1h-2L209.8 64.6zM209.8 57.9c-0.1-0.1-0.4-0.3-0.8-0.5 -0.4-0.2-1-0.3-1.8-0.3 -0.5 0-0.9 0.1-1.3 0.3 -0.4 0.1-0.8 0.4-1.1 0.8s-0.6 0.7-0.7 1.2 -0.3 1-0.3 1.6c0 0.5 0.1 0.9 0.2 1.3 0.1 0.4 0.3 0.8 0.6 1.1 0.3 0.4 0.6 0.6 0.9 0.8s0.8 0.3 1.3 0.3 1-0.1 1.3-0.3 0.7-0.4 0.9-0.7c0.2-0.3 0.4-0.6 0.5-0.9 0.1-0.4 0.1-0.6 0.1-0.9v-3.7H209.8z" class="a"/><path d="M223.6 64.3c-0.1 0.1-0.3 0.3-0.6 0.5 -0.2 0.2-0.6 0.4-0.9 0.6 -0.4 0.2-0.8 0.4-1.3 0.5 -0.5 0.1-1.1 0.2-1.8 0.2 -0.8 0-1.6-0.1-2.3-0.4 -0.7-0.3-1.3-0.6-1.8-1.1 -0.5-0.5-0.8-1.1-1.1-1.8 -0.3-0.7-0.4-1.4-0.4-2.3 0-0.8 0.1-1.4 0.4-2.1 0.3-0.6 0.6-1.2 1.1-1.7 0.4-0.5 1-0.8 1.7-1.1 0.6-0.3 1.3-0.4 2.1-0.4 0.9 0 1.7 0.1 2.3 0.5s1.2 0.8 1.6 1.3c0.4 0.6 0.7 1.2 0.9 1.9 0.2 0.7 0.3 1.5 0.3 2.3h-8.3c0 0.4 0.1 0.8 0.3 1.3 0.1 0.4 0.4 0.7 0.8 1 0.3 0.3 0.7 0.5 1.1 0.6 0.4 0.1 0.8 0.2 1.3 0.2 0.9 0 1.6-0.1 2.2-0.4 0.6-0.3 1-0.6 1.3-0.8L223.6 64.3zM221.8 59.9c-0.1-0.8-0.4-1.5-0.8-2.1 -0.5-0.6-1.2-0.8-2.2-0.8 -0.5 0-0.9 0.1-1.3 0.2s-0.7 0.4-1 0.6c-0.3 0.3-0.5 0.6-0.6 0.9 -0.1 0.4-0.2 0.7-0.3 1.1h6.2V59.9z" class="a"/><path d="M229.2 51.2h2.1v14.6h-2.1V51.2z" class="a"/><path d="M240.1 64.6c-0.4 0.5-0.9 0.9-1.6 1.1 -0.6 0.3-1.3 0.4-2 0.4 -0.4 0-0.8-0.1-1.3-0.1 -0.4-0.1-0.8-0.3-1.2-0.6 -0.4-0.3-0.6-0.6-0.8-1 -0.2-0.4-0.4-0.9-0.4-1.5 0-1.1 0.4-2 1.2-2.6 0.8-0.6 1.9-1 3.4-1 0.2 0 0.5 0 0.8 0s0.5 0 0.8 0.1c0.2 0 0.4 0 0.6 0.1 0.2 0 0.3 0 0.4 0.1v-0.4c0-0.8-0.2-1.3-0.7-1.6s-1.1-0.5-1.9-0.5c-0.8 0-1.4 0.1-1.9 0.3 -0.5 0.2-0.8 0.4-1.2 0.6l-0.9-1.3c0.2-0.1 0.4-0.3 0.6-0.4 0.3-0.1 0.6-0.3 0.9-0.4s0.7-0.2 1.2-0.3c0.4-0.1 0.9-0.1 1.5-0.1 1.3 0 2.4 0.4 3.2 0.9 0.8 0.6 1.1 1.6 1.1 2.7v5.9c0 0.4 0 0.6 0 0.9h-1.9L240.1 64.6zM240 61c-0.1 0-0.2 0-0.4-0.1 -0.1 0-0.4-0.1-0.6-0.1s-0.5 0-0.7-0.1c-0.3 0-0.5 0-0.8 0 -0.6 0-1.1 0.1-1.4 0.2 -0.4 0.1-0.6 0.3-0.8 0.5 -0.2 0.2-0.4 0.4-0.4 0.6s-0.1 0.5-0.1 0.7c0 0.6 0.2 1 0.6 1.3 0.4 0.3 0.9 0.4 1.6 0.4 0.4 0 0.8-0.1 1.1-0.2 0.4-0.1 0.6-0.3 0.9-0.5 0.3-0.2 0.5-0.5 0.6-0.8 0.1-0.3 0.3-0.6 0.3-0.9v-1.1H240z" class="a"/><path d="M250.7 64.6c-0.4 0.5-0.9 0.9-1.6 1.1 -0.6 0.3-1.3 0.4-2 0.4 -0.4 0-0.8-0.1-1.3-0.1 -0.4-0.1-0.8-0.3-1.2-0.6 -0.4-0.3-0.6-0.6-0.8-1 -0.2-0.4-0.4-0.9-0.4-1.5 0-1.1 0.4-2 1.2-2.6 0.8-0.6 1.9-1 3.4-1 0.2 0 0.5 0 0.8 0s0.5 0 0.8 0.1c0.2 0 0.4 0 0.6 0.1 0.2 0 0.3 0 0.4 0.1v-0.4c0-0.8-0.2-1.3-0.7-1.6s-1.1-0.5-1.9-0.5c-0.8 0-1.4 0.1-1.9 0.3 -0.5 0.2-0.8 0.4-1.2 0.6l-0.9-1.3c0.2-0.1 0.4-0.3 0.6-0.4 0.3-0.1 0.6-0.3 0.9-0.4s0.7-0.2 1.2-0.3c0.4-0.1 0.9-0.1 1.5-0.1 1.3 0 2.4 0.4 3.2 0.9 0.8 0.6 1.1 1.6 1.1 2.7v5.9c0 0.4 0 0.6 0 0.9h-1.9L250.7 64.6zM250.7 61c-0.1 0-0.2 0-0.4-0.1 -0.1 0-0.4-0.1-0.6-0.1s-0.5 0-0.7-0.1c-0.3 0-0.5 0-0.8 0 -0.6 0-1.1 0.1-1.4 0.2 -0.4 0.1-0.6 0.3-0.8 0.5 -0.2 0.2-0.4 0.4-0.4 0.6 -0.1 0.2-0.1 0.5-0.1 0.7 0 0.6 0.2 1 0.6 1.3 0.4 0.3 0.9 0.4 1.6 0.4 0.4 0 0.8-0.1 1.1-0.2 0.4-0.1 0.6-0.3 0.9-0.5 0.3-0.2 0.5-0.5 0.6-0.8 0.1-0.3 0.3-0.6 0.3-0.9v-1.1H250.7z" class="a"/><path d="M256.3 67.9c0.4 0.2 0.8 0.4 1.3 0.6 0.5 0.1 1.1 0.3 1.8 0.3 1 0 1.8-0.3 2.3-0.8 0.5-0.6 0.8-1.3 0.8-2.1v-1.3c-0.1 0.1-0.2 0.2-0.4 0.4 -0.2 0.1-0.4 0.3-0.6 0.4 -0.3 0.1-0.6 0.3-0.9 0.4 -0.4 0.1-0.8 0.1-1.3 0.1 -0.8 0-1.5-0.1-2.1-0.4 -0.6-0.3-1.1-0.6-1.5-1.1 -0.4-0.4-0.7-1-0.9-1.6 -0.2-0.6-0.3-1.3-0.3-2.1 0-0.8 0.1-1.5 0.4-2.2 0.3-0.6 0.7-1.3 1.2-1.8s1.1-0.8 1.8-1.1c0.7-0.3 1.6-0.4 2.4-0.4s1.6 0.1 2.4 0.2c0.7 0.1 1.3 0.3 1.8 0.5v9.8c0 1.5-0.4 2.6-1.3 3.5 -0.8 0.8-2.1 1.2-3.7 1.2 -1.1 0-1.9-0.1-2.5-0.4 -0.6-0.2-1.1-0.5-1.6-0.8L256.3 67.9zM262.5 57.4c-0.1-0.1-0.4-0.1-0.7-0.2 -0.4-0.1-0.8-0.1-1.5-0.1 -0.6 0-1.1 0.1-1.6 0.3 -0.5 0.2-0.8 0.4-1.2 0.8s-0.6 0.7-0.8 1.2c-0.2 0.4-0.3 0.9-0.3 1.5 0 0.5 0.1 0.9 0.1 1.3 0.1 0.4 0.3 0.8 0.6 1.1 0.3 0.3 0.6 0.6 0.9 0.7s0.8 0.3 1.4 0.3c0.5 0 0.9-0.1 1.3-0.2 0.4-0.1 0.7-0.4 0.9-0.6 0.2-0.2 0.4-0.5 0.6-0.8 0.1-0.3 0.2-0.6 0.2-0.9v-4.3H262.5z" class="a"/><path d="M267.3 63.3c0.4 0.4 0.8 0.6 1.3 0.8 0.5 0.2 1.1 0.4 1.8 0.4 0.7 0 1.3-0.1 1.7-0.4 0.4-0.2 0.7-0.6 0.7-1 0-0.2-0.1-0.4-0.1-0.6 -0.1-0.1-0.3-0.4-0.5-0.4 -0.2-0.1-0.6-0.3-0.9-0.4 -0.4-0.1-0.8-0.2-1.4-0.4 -0.4-0.1-0.8-0.2-1.2-0.4 -0.4-0.1-0.8-0.4-1.1-0.6 -0.3-0.2-0.6-0.6-0.8-0.8 -0.2-0.4-0.3-0.8-0.3-1.3s0.1-0.9 0.4-1.3c0.2-0.4 0.6-0.7 0.9-0.9 0.4-0.3 0.8-0.4 1.3-0.6 0.5-0.1 1-0.2 1.6-0.2 0.9 0 1.6 0.1 2.3 0.4 0.6 0.2 1.2 0.6 1.7 0.9l-1.1 1.3c-0.3-0.3-0.7-0.5-1.2-0.7 -0.5-0.2-1.1-0.3-1.7-0.3 -0.6 0-1.2 0.1-1.6 0.3 -0.4 0.2-0.6 0.6-0.6 1 0 0.4 0.3 0.8 0.8 1 0.5 0.2 1.2 0.4 2.1 0.6 0.5 0.1 1 0.3 1.4 0.4 0.4 0.1 0.8 0.4 1.1 0.6s0.6 0.6 0.8 0.9 0.3 0.8 0.3 1.3c0 0.5-0.1 1-0.4 1.3 -0.2 0.4-0.6 0.7-1 1 -0.4 0.3-0.8 0.5-1.4 0.6 -0.5 0.1-1.1 0.2-1.6 0.2 -2 0-3.5-0.5-4.5-1.6L267.3 63.3z" class="a"/><path d="M277.7 57.3h-1.9v-1.6h1.9v-3.3h2.1v3.3h3.1v1.6h-3.1v5c0 0.8 0.1 1.4 0.4 1.7 0.3 0.3 0.6 0.5 1.1 0.5 0.4 0 0.7-0.1 1-0.1 0.3-0.1 0.5-0.3 0.8-0.5l0.9 1.2c-0.4 0.4-0.9 0.7-1.3 0.9 -0.5 0.2-1 0.3-1.6 0.3 -1.1 0-1.9-0.3-2.5-0.8 -0.5-0.6-0.8-1.5-0.8-2.8v-5.4H277.7z" class="a"/><path d="M294.5 64.3c-0.1 0.1-0.3 0.3-0.6 0.5 -0.2 0.2-0.6 0.4-0.9 0.6 -0.4 0.2-0.8 0.4-1.3 0.5 -0.5 0.1-1.1 0.2-1.8 0.2 -0.8 0-1.6-0.1-2.3-0.4 -0.7-0.3-1.3-0.6-1.8-1.1s-0.8-1.1-1.1-1.8c-0.3-0.7-0.4-1.4-0.4-2.3 0-0.8 0.1-1.4 0.4-2.1 0.3-0.6 0.6-1.2 1.1-1.7 0.5-0.5 1-0.8 1.7-1.1 0.6-0.3 1.3-0.4 2.1-0.4 0.9 0 1.7 0.1 2.3 0.5 0.6 0.4 1.2 0.8 1.6 1.3 0.4 0.6 0.7 1.2 0.9 1.9s0.3 1.5 0.3 2.3h-8.3c0 0.4 0.1 0.8 0.3 1.3 0.1 0.4 0.4 0.7 0.8 1 0.3 0.3 0.7 0.5 1.1 0.6 0.4 0.1 0.8 0.2 1.3 0.2 0.9 0 1.6-0.1 2.2-0.4 0.6-0.3 1-0.6 1.3-0.8L294.5 64.3zM292.7 59.9c-0.1-0.8-0.4-1.5-0.8-2.1 -0.5-0.6-1.2-0.8-2.2-0.8 -0.5 0-0.9 0.1-1.3 0.2s-0.7 0.4-1 0.6c-0.3 0.3-0.5 0.6-0.6 0.9s-0.2 0.7-0.3 1.1h6.2V59.9z" class="a"/><path d="M300 51.2h2.1v14.6h-2.1V51.2z" class="a"/><path d="M310.8 64.6c-0.4 0.5-0.9 0.9-1.6 1.1 -0.6 0.3-1.3 0.4-2 0.4 -0.4 0-0.8-0.1-1.3-0.1 -0.4-0.1-0.8-0.3-1.2-0.6 -0.4-0.3-0.6-0.6-0.8-1 -0.2-0.4-0.4-0.9-0.4-1.5 0-1.1 0.4-2 1.2-2.6 0.8-0.6 1.9-1 3.4-1 0.2 0 0.5 0 0.8 0 0.3 0 0.5 0 0.8 0.1 0.2 0 0.4 0 0.6 0.1 0.2 0 0.3 0 0.4 0.1v-0.4c0-0.8-0.2-1.3-0.7-1.6s-1.1-0.5-1.9-0.5c-0.8 0-1.4 0.1-1.9 0.3 -0.5 0.2-0.8 0.4-1.2 0.6l-0.9-1.3c0.2-0.1 0.4-0.3 0.6-0.4 0.3-0.1 0.6-0.3 0.9-0.4s0.7-0.2 1.2-0.3c0.4-0.1 0.9-0.1 1.5-0.1 1.3 0 2.4 0.4 3.2 0.9 0.8 0.6 1.1 1.6 1.1 2.7v5.9c0 0.4 0 0.6 0 0.9h-1.9L310.8 64.6zM310.8 61c-0.1 0-0.2 0-0.4-0.1 -0.1 0-0.4-0.1-0.6-0.1 -0.2 0-0.5 0-0.7-0.1 -0.3 0-0.5 0-0.8 0 -0.6 0-1.1 0.1-1.4 0.2 -0.4 0.1-0.6 0.3-0.8 0.5 -0.2 0.2-0.4 0.4-0.4 0.6 -0.1 0.2-0.1 0.5-0.1 0.7 0 0.6 0.2 1 0.6 1.3 0.4 0.3 0.9 0.4 1.6 0.4 0.4 0 0.8-0.1 1.1-0.2 0.4-0.1 0.6-0.3 0.9-0.5s0.5-0.5 0.6-0.8c0.1-0.3 0.3-0.6 0.3-0.9v-1.1H310.8z" class="a"/><path d="M315.7 63.3c0.4 0.4 0.8 0.6 1.3 0.8 0.5 0.2 1.1 0.4 1.8 0.4s1.3-0.1 1.7-0.4c0.4-0.2 0.7-0.6 0.7-1 0-0.2-0.1-0.4-0.1-0.6 -0.1-0.1-0.3-0.4-0.5-0.4 -0.2-0.1-0.6-0.3-0.9-0.4 -0.4-0.1-0.8-0.2-1.4-0.4 -0.4-0.1-0.8-0.2-1.2-0.4 -0.4-0.1-0.8-0.4-1.1-0.6 -0.3-0.2-0.6-0.6-0.8-0.8 -0.2-0.4-0.3-0.8-0.3-1.3s0.1-0.9 0.4-1.3c0.2-0.4 0.6-0.7 0.9-0.9 0.4-0.3 0.8-0.4 1.3-0.6 0.5-0.1 1-0.2 1.6-0.2 0.9 0 1.6 0.1 2.3 0.4 0.6 0.2 1.2 0.6 1.7 0.9l-1.1 1.3c-0.3-0.3-0.7-0.5-1.2-0.7 -0.5-0.2-1.1-0.3-1.7-0.3s-1.2 0.1-1.6 0.3c-0.4 0.2-0.6 0.6-0.6 1 0 0.4 0.3 0.8 0.8 1 0.5 0.2 1.2 0.4 2.1 0.6 0.5 0.1 1 0.3 1.4 0.4 0.4 0.1 0.8 0.4 1.1 0.6 0.4 0.2 0.6 0.6 0.8 0.9s0.3 0.8 0.3 1.3c0 0.5-0.1 1-0.4 1.3 -0.2 0.4-0.6 0.7-1 1 -0.4 0.3-0.8 0.5-1.4 0.6 -0.5 0.1-1.1 0.2-1.6 0.2 -2 0-3.5-0.5-4.5-1.6L315.7 63.3z" class="a"/><path d="M326 57.3h-1.9v-1.6h1.9v-3.3h2.1v3.3h3.1v1.6h-3.1v5c0 0.8 0.1 1.4 0.4 1.7 0.3 0.3 0.6 0.5 1.1 0.5 0.4 0 0.7-0.1 1-0.1 0.3-0.1 0.5-0.3 0.8-0.5l0.9 1.2c-0.4 0.4-0.9 0.7-1.3 0.9 -0.5 0.2-1 0.3-1.6 0.3 -1.1 0-1.9-0.3-2.5-0.8 -0.5-0.6-0.8-1.5-0.8-2.8v-5.4H326z" class="a"/><path d="M342.8 64.3c-0.1 0.1-0.3 0.3-0.6 0.5 -0.2 0.2-0.6 0.4-0.9 0.6 -0.4 0.2-0.8 0.4-1.3 0.5 -0.5 0.1-1.1 0.2-1.8 0.2 -0.8 0-1.6-0.1-2.3-0.4 -0.7-0.3-1.3-0.6-1.8-1.1s-0.8-1.1-1.1-1.8c-0.3-0.7-0.4-1.4-0.4-2.3 0-0.8 0.1-1.4 0.4-2.1 0.3-0.6 0.6-1.2 1.1-1.7 0.5-0.5 1-0.8 1.7-1.1 0.6-0.3 1.3-0.4 2.1-0.4 0.9 0 1.7 0.1 2.3 0.5 0.6 0.4 1.2 0.8 1.6 1.3 0.4 0.6 0.7 1.2 0.9 1.9s0.3 1.5 0.3 2.3h-8.3c0 0.4 0.1 0.8 0.3 1.3 0.2 0.4 0.4 0.7 0.8 1 0.3 0.3 0.7 0.5 1.1 0.6 0.4 0.1 0.8 0.2 1.3 0.2 0.9 0 1.6-0.1 2.2-0.4 0.6-0.3 1-0.6 1.3-0.8L342.8 64.3zM341 59.9c-0.1-0.8-0.4-1.5-0.8-2.1 -0.5-0.6-1.2-0.8-2.2-0.8 -0.5 0-0.9 0.1-1.3 0.2s-0.7 0.4-1 0.6c-0.3 0.3-0.5 0.6-0.6 0.9s-0.2 0.7-0.3 1.1h6.2V59.9z" class="a"/><path d="M344.8 65.8v-9.1c0-0.4 0-0.7 0-1.1h2l0.1 1.6c0.1-0.1 0.3-0.4 0.5-0.6 0.2-0.2 0.4-0.4 0.7-0.6 0.3-0.1 0.6-0.4 1-0.4s0.8-0.1 1.3-0.1c1.3 0 2.4 0.4 3 1.1 0.6 0.8 1 1.8 1 3.2v6.2h-2.1V60c0-0.9-0.2-1.6-0.6-2.1 -0.4-0.4-1-0.6-1.8-0.6 -0.6 0-1.1 0.1-1.5 0.4s-0.7 0.6-0.9 0.9 -0.4 0.8-0.5 1.3 -0.1 1-0.1 1.5v4.7h-2.1V65.8z" class="a"/><path d="M356.8 63.4h2.5v2.4h-2.5V63.4zM356.9 51.2h2.3l-0.1 10.4h-2.1L356.9 51.2z" class="a"/></svg>
