<svg xmlns="http://www.w3.org/2000/svg" width="75" height="27" viewBox="12.5 36.5 75 27"><style>.a{fill:#FFF;}</style><path d="M38 43.7c2.2-4.2 6.7-7.1 11.9-7.1 5.2 0 9.7 2.9 12 7.2 2.2-4.2 6.7-7.2 12-7.2 7.5 0 13.6 6 13.6 13.5 0 7.4-6 13.5-13.6 13.5 -5.2 0-9.7-2.9-12-7.2 -2.2 4.2-6.7 7.2-12 7.2 -5.2 0-9.7-2.9-12-7.2 -2.2 4.2-6.7 7.1-11.9 7.1 -7.5 0-13.5-6-13.5-13.5s6-13.5 13.5-13.5C31.2 36.5 35.8 39.4 38 43.7M73.9 39.7c-5.7 0-10.4 4.7-10.4 10.4 0 5.7 4.7 10.4 10.4 10.4 5.7 0 10.4-4.7 10.4-10.4C84.2 44.3 79.6 39.7 73.9 39.7zM50 39.7c-5.7 0-10.4 4.7-10.4 10.4 0 5.7 4.7 10.4 10.4 10.4s10.4-4.7 10.4-10.4C60.3 44.3 55.7 39.7 50 39.7zM26 39.7c-5.7 0-10.4 4.7-10.4 10.4 0 5.7 4.7 10.4 10.4 10.4 5.7 0 10.4-4.7 10.4-10.4C36.4 44.3 31.8 39.7 26 39.7z" class="a"/><polyline points="67.8 43.8 79.9 43.8 79.9 47.2 76.6 47.2 75.9 47.2 75.9 56.2 71.9 56.2 71.9 47.2 71.1 47.2 67.8 47.2 67.8 43.8 " class="a"/><polyline points="20 43.8 32.2 43.8 32.2 47.2 28.9 47.2 28.1 47.2 28.1 56.2 24.1 56.2 24.1 47.2 23.3 47.2 20 47.2 20 43.8 " class="a"/><polyline points="47.7 56.2 47.7 49.9 47.9 50.1 52.2 56.2 56 56.2 56 43.8 52.2 43.8 52.2 50.1 52 49.9 47.7 43.8 43.9 43.8 43.9 56.2 47.7 56.2 " class="a"/></svg>
