<svg xmlns="http://www.w3.org/2000/svg" width="444" height="38" viewBox="0 0 444 38.1"><style>.a{fill:#97C685;}.b{fill:#F1A7BA;}.c{fill:#9B717B;}</style><path d="M19.8 29.8H8.3V0.7L19.8 29.8z" fill="#E7E465"/><polygon points="42.4 15.8 31.3 15.8 31.3 7.7 44.3 7.7 " class="a"/><polygon points="42.4 22.5 31.3 22.5 31.3 29.8 44.3 29.8 " class="b"/><path d="M67.9 0.7v25.3c0 2.8-2.2 4.5-4.7 4.5 -2.5 0-4.7-1.7-4.7-4.5V0.7H67.9z" fill="#81C3BD"/><polygon points="107.5 0 90.5 17 90.5 0.7 " fill="#A3D58C"/><polygon points="90.5 36.7 90.5 21 107.5 38.1 " fill="#AEA5C4"/><polygon points="107.5 9.8 98.3 19 107.5 28.2 " fill="#F1A164"/><polygon points="131.7 15.8 120.7 15.8 120.7 7.7 133.7 7.7 " class="c"/><polygon points="131.7 22.5 120.7 22.5 120.7 29.8 133.7 29.8 " fill="#E8E667"/><path d="M147.9 7.9h1c6 0 9.6 4.8 9.6 10.8 0 6-3.6 10.8-9.6 10.8h-1V7.9z" class="b"/><polygon points="205.6 0.7 205.6 19.8 186.2 0 " class="c"/><polygon points="193.6 36.7 193.6 17.7 213 37.4 " class="a"/><path d="M242.4 28.8c-1.2 0.9-2.9 1.5-5.3 1.5 -6.6 0-11.1-4.9-11.1-11.5 0-6.6 4.5-11.5 11.1-11.5s11.2 4.8 11.2 11.5c0 1.7-0.3 3.3-0.9 4.8l-7.5-7.6 -5.2 5.2L242.4 28.8z" fill="#EEA062"/><polygon points="275.7 15.8 264.7 15.8 264.7 7.7 277.7 7.7 " fill="#83C3BD"/><polygon points="275.7 22.5 264.7 22.5 264.7 29.8 277.7 29.8 " fill="#F0A6B9"/><polygon points="303.8 0.7 303.8 19.8 284.4 0 " fill="#9E94BB"/><polygon points="291.9 36.7 291.9 17.7 311.2 37.4 " fill="#E7E469"/><path d="M326.3 7.9h1c6 0 9.6 4.8 9.6 10.8 0 6-3.6 10.8-9.6 10.8h-1V7.9z" fill="#EFA067"/><path d="M366 7.2c6.6 0 11.1 4.9 11.1 11.5 0 6.6-4.5 11.5-11.1 11.5s-11.1-4.9-11.1-11.5C354.8 12.1 359.3 7.2 366 7.2z" fill="#9E94B9"/><polygon points="408.5 15.8 397.5 15.8 397.5 7.7 410.5 7.7 " fill="#E5E468"/><polygon points="408.5 22.5 397.5 22.5 397.5 29.8 410.5 29.8 " fill="#9AC988"/><polygon points="436.6 0.7 436.6 19.8 417.2 0 " fill="#F0A8BA"/><polygon points="424.7 36.7 424.7 17.7 444 37.4 " fill="#83C5BF"/><path d="M19.8 36.7H0.8V0.7h7.4v29h11.5V36.7z"/><path d="M44.3 36.7h-20.4V0.7h20.5v7H31.3v8.1h11v6.7H31.3v7.2h13V36.7z"/><path d="M51 26V0.7h7.4v25.3c0 2.8 2.2 4.5 4.7 4.5 2.5 0 4.7-1.7 4.7-4.5V0.7h7.4v25.3c0 6.7-5.3 11.5-12.1 11.5S51 32.6 51 26z"/><path d="M90.5 36.7h-7.4V0.7h7.4v16.3L107.5 0v9.8l-9.2 9.2 9.2 9.2v9.9L90.5 21V36.7z"/><path d="M133.7 36.7h-20.4V0.7h20.5v7H120.7v8.1h11v6.7H120.7v7.2H133.7V36.7z"/><path d="M147.9 36.7h-7.4V0.7h7.4c10.4 0 18 7.7 18 18S158.2 36.7 147.9 36.7zM148.8 29.5c6 0 9.6-4.8 9.6-10.8S154.8 7.9 148.8 7.9h-1v21.6H148.8z"/><path d="M178.5 36.7h-7.4V0.7h7.4V36.7z"/><path d="M213 0.7v36.7l-19.3-19.8v19.1h-7.4V0l19.3 19.8V0.7H213z"/><path d="M218.3 18.7C218.3 8.4 226 0 237.1 0c6 0 10 2.2 13.3 5.4l-5.1 5.1c-2-2.1-5-3.3-8.2-3.3 -6.6 0-11.1 4.9-11.1 11.5s4.5 11.5 11.1 11.5c2.4 0 4.2-0.6 5.3-1.5l-7.7-7.7 5.2-5.2 13 13c-2.9 4.8-9 8.5-15.8 8.5C226 37.4 218.3 29.1 218.3 18.7z"/><path d="M277.7 36.7h-20.4V0.7h20.5v7h-13v8.1h11v6.7h-11v7.2h13V36.7z"/><path d="M311.2 0.7v36.7l-19.3-19.8v19.1h-7.4V0l19.3 19.8V0.7H311.2z"/><path d="M326.3 36.7h-7.4V0.7h7.4c10.4 0 18 7.7 18 18S336.7 36.7 326.3 36.7zM327.3 29.5c6 0 9.6-4.8 9.6-10.8S333.3 7.9 327.3 7.9h-1v21.6H327.3z"/><path d="M366 0c11.1 0 18.8 8.4 18.8 18.7 0 10.4-7.7 18.7-18.8 18.7s-18.8-8.4-18.8-18.7C347.2 8.4 354.9 0 366 0zM366 30.2c6.6 0 11.1-4.9 11.1-11.5s-4.5-11.5-11.1-11.5 -11.1 4.9-11.1 11.5S359.3 30.2 366 30.2z"/><path d="M410.5 36.7h-20.4V0.7h20.5v7h-13v8.1h11v6.7h-11v7.2h13V36.7z"/><path d="M444 0.7v36.7l-19.3-19.8v19.1h-7.4V0l19.3 19.8V0.7H444z"/></svg>
