<svg xmlns="http://www.w3.org/2000/svg" viewBox="0 0 2030.7 304"><path d="M634.6 109.3c0-19.2 11.6-29.2 29.2-29.2 17.6 0 29.2 10 29.2 29.2v163c0 19.2-11.6 29.2-29.2 29.2 -17.6 0-29.2-10-29.2-29.2V109.3z"/><path d="M663.7 0c16.3 0 29.5 13.2 29.5 29.5 0 16.3-13.2 29.5-29.5 29.5 -16.3 0-29.5-13.2-29.5-29.5C634.3 13.2 647.5 0 663.7 0"/><path d="M371.9 30.2C371.9 11 383.5 1 401.2 1c17.6 0 29.2 10 29.2 29.2v242.2c0 19.2-11.6 29.2-29.2 29.2 -17.6 0-29.2-10-29.2-29.2V30.2z"/><path d="M348.8 0.9c-9 0-16.4 7.3-16.4 16.4 0 9 7.3 16.4 16.4 16.4h34.3 18V0.9h-18H348.8"/><path d="M1055 300.6c-11.8 0-23-7.4-27.2-19.2l-50.3-140.7c-9.2-4.8-15.5-14.5-15.5-25.6 0-16 12.9-28.9 28.9-28.9 17.1 0 32.3 10.6 37.9 26.3l53.4 149.4c5.3 15-2.5 31.6-17.5 36.9C1061.5 300.1 1058.2 300.6 1055 300.6"/><path d="M917.7 299.7c-3.7 0-7.5-0.7-11.2-2.3 -14.7-6.2-21.6-23.1-15.4-37.8l62.2-148c5.9-15.2 20.9-25.4 37.6-25.4 15.9 0 28.9 12.9 28.9 28.9 0 11.4-6.6 21.3-16.2 26L944.4 282C939.7 293.1 929 299.7 917.7 299.7"/><path d="M780.5 300.7c-3.2 0-6.5-0.6-9.7-1.7 -15-5.4-22.9-21.9-17.5-36.9l53.4-149.4c5.7-15.8 20.9-26.3 37.9-26.3 16 0 28.9 13 28.9 28.9 0 11.2-6.3 20.8-15.5 25.6l-50.3 140.7C803.4 293.3 792.3 300.7 780.5 300.7"/><path d="M917.8 299.7c-11.3 0-22-6.6-26.6-17.7l-59.2-140.9c-9.6-4.7-16.2-14.6-16.2-26 0-15.9 12.9-28.9 28.9-28.9 16.7 0 31.7 10.1 37.6 25.4l62.2 148c6.2 14.7-0.7 31.6-15.4 37.8C925.3 299 921.5 299.7 917.8 299.7"/><path d="M792.3 86.3c-9 0-16.4 7.3-16.4 16.4 0 9 7.3 16.4 16.4 16.4h34.3 18V86.3h-18H792.3"/><path d="M1441.4 227.3v44.5c0 19.2-11.6 29.2-29.2 29.2 -17.6 0-29.2-10-29.2-29.2V31.5c0-19.2 11.6-29.2 29.2-29.2 17.6 0 29.2 10 29.2 29.2v132.9V227.3zM1457.3 174.5c0-17 9.3-25.6 9.3-25.6l50.8-56.4c6-6.4 13.6-11.2 22.4-11.2 13.2 0 27.6 11.6 27.6 26.4 0 10.4-3.6 13.6-8.8 19.2l-43.2 45.2 60.8 81.6c2 2.8 6 9.2 6 18.8 0 14.8-12 28.4-27.6 28.4 -14.4 0-22-7.2-26.4-13.6l-55.3-78.1C1473 209.3 1457.3 192.2 1457.3 174.5"/><path d="M1359.8 2.3c-9 0-16.4 7.3-16.4 16.4 0 9 7.3 16.4 16.4 16.4h34.3 18V2.3h-18H1359.8"/><path d="M37 33.7C37 14.1 49.9 0.9 69.9 0.9c20 0 32.8 13.2 32.8 32.8v158.1c0 39.2 22 56.8 59.6 56.8 37.6 0 59.6-17.6 59.6-56.8v-158C222 14.2 234.8 1 254.8 1c20 0 32.8 13.2 32.8 32.8v152.8c0 79.2-48.8 114.9-125.3 114.9C85.9 301.5 37 265.8 37 186.6V33.7z"/><path d="M17.5 0.9c-9 0-16.4 7.3-16.4 16.4 0 9 7.3 16.4 16.4 16.4h34.3 18V0.9h-18H17.5"/><path d="M504.7 80.2h68.8c9.1 0 16.4 7.3 16.4 16.4 0 9-7.3 16.4-16.4 16.4h-68.8c-9 0-16.4-7.3-16.4-16.4C488.3 87.5 495.7 80.2 504.7 80.2"/><path d="M563.1 241v7.5 23.7c0 19.2-11.6 29.2-29.2 29.2 -17.6 0-29.2-10-29.2-29.2v-23.7 -0.3V50.1c0-19.2 11.6-29.2 29.2-29.2 17.6 0 29.2 10 29.2 29.2V241z"/><path d="M1318.1 238.2v-98.1c0-42-42.6-62.2-119.5-56 -12.9 1-51 8.4-51 8.4 -12.2 2.5-23.3 9.1-23.3 23.3 0 10.9 7.7 23.4 23.3 21.1 0 0 41.4-7.7 55.3-8.9 4.7-0.4 12-0.8 22.5-0.4 19.6 0.6 34.3 3 34.3 19.7v48.8V219c0 21.6-19.6 42.4-51.7 42.4 -20 0-32.4-10.8-32.4-24 0-17.6 13.2-25.2 37.6-28.8 0 0 16.8-3.4 12.2-20.9 -4.7-17.5-26.6-14.8-26.6-14.8 -44.8 5.2-81.7 18.8-81.7 67.2 0 36.8 32.8 59.6 66 59.6 30.8 0 57.2-8.8 80.1-34 0.8 18 9.2 34 34.4 34 14 0 26.4-9.2 26.4-22.4C1324.1 268.3 1318.1 262.6 1318.1 238.2"/><path d="M232.9 267.3c0.8 18 9.2 34 34.4 34 14 0 26.4-9.2 26.4-22.4 0-9.2-6-14.8-6-39.2v-80.5"/><path d="M1707.3 168.3h68.8c9.1 0 16.4 7.3 16.4 16.4 0 9-7.3 16.4-16.4 16.4h-68.8c-9 0-16.4-7.3-16.4-16.4C1690.9 175.6 1698.2 168.3 1707.3 168.3"/><path d="M1707.1 201h91.1c19.6 0 25.6-5.2 25.6-25.2 0-48.1-38.4-95.7-105.7-95.7 -69.3 0-110.5 45.6-110.5 113.7 0 50.9 30.2 106.1 112.5 106.1 16.2 0 69.5-12.3 69.5-12.3 13.7-2.5 24.1-9.3 20.5-27.5 -2.5-12.9-13-18.4-27.8-15.8 0 0-46 8.7-62.2 10 -33.9 2.6-54-22.4-54-53.2 0 0-9.5-80.1 53.2-80.1 26 0 46 20.7 49.2 47.5h-52.1L1707.1 201z"/><path d="M1998.8 80.2l-29.9 0.1c-0.2 0-0.3 0-0.5 0 -16.1 0-27.2 8.4-28.9 24.4l0 0c-1.9-15.9-12.9-24.1-28.9-24.1v0h-18 -34.3c-9 0-16.4 7.3-16.4 16.4 0 9 7.3 16.4 16.4 16.4h23.2v158.9c0 19.2 11.6 29.2 29.2 29.2 17.6 0 29.2-10 29.2-29.2l-0.1-117.1c0-9.1 7.3-16.4 16.4-16.4 0 0 42.7-0.1 42.7-0.1 19.2 0 29.2-11.6 29.2-29.2C2028 91.8 2018 80.2 1998.8 80.2z"/></svg>
