<svg xmlns="http://www.w3.org/2000/svg" width="542" height="152" viewBox="0 0 542.1 151.6"><style>.a{fill:#171717;}</style><polygon points="51.2 20.2 51.2 15.3 15 15.3 15 43.2 48.2 43.2 48.2 38.3 19.8 38.3 19.8 20.2 " class="a"/><polygon points="5 5 51.2 5 51.2 0.1 0.2 0.1 0.2 90.2 5 90.2 " class="a"/><polygon points="48.2 58.4 48.2 53.6 15 53.6 15 90.2 19.8 90.2 19.8 58.4 " class="a"/><path d="M147.8 0v4.8h22c13.5 0 24.5 9.2 24.5 22.7 0 6.1-3.4 11.9-7.8 16.5l-1 1 1 1.1c4.5 4.6 7.8 10.5 7.8 16.5 0 13.5-11 22.7-24.5 22.7h-22v4.8h23.8c15.2 0 27.5-12.4 27.5-27.6 0-6.4-2.5-12.5-6.9-17.6 4.4-5 6.9-11.1 6.9-17.5C199.1 12.4 186.8 0 171.6 0H147.8z" class="a"/><rect x="131" y="0.1" width="4.9" height="90.1" class="a"/><path d="M147.8 50.3l0 4.8 22.6 0c4.3 0 7.6 3.3 7.6 7.5 0 4.2-3.4 7.7-7.6 7.7h-22.6v4.8h24.5c5.9 0 10.7-6.6 10.7-12.5 0-5.9-4.7-12.3-10.7-12.3 0 0-22.6 0-22.6 0" class="a"/><path d="M147.8 15.2v4.8h22.6c4.3 0 7.6 3.3 7.6 7.5 0 3.8-2.9 7.1-6.7 7.6l-23.6 0v4.8h25.6c5.5-0.7 9.5-7.1 9.5-12.4 0-5.9-4.7-12.3-10.7-12.3H147.8z" class="a"/><rect x="211.9" y="0.1" width="4.8" height="90.1" class="a"/><path d="M249.3 46.5c7.5 0 13.6-8 13.6-15.6 0-7.6-6.1-15.6-13.6-15.6h-22.1v4.8h20.2c5.8 0 10.6 4.8 10.6 10.7 0 5.9-4.8 10.7-10.6 10.7h-20.2v48.5h4.8V46.5H249.3z" class="a"/><polygon points="78.7 57.2 96.9 57.2 87.4 21.8 82.3 21.8 90.3 52.3 74.6 52.3 64.8 90.2 69.7 90.2 " class="a"/><polygon points="47 90.2 51.9 90.2 77.7 0.1 72.7 0.1 " class="a"/><polygon points="92.3 0.1 118.1 90.2 123.1 90.2 97.3 0.1 " class="a"/><polygon points="94.9 68.6 101 90.2 105.9 90.2 99.9 68.6 " class="a"/><path d="M323.7 35.8V54.5c0 19.6 16 35.7 35.6 35.7v-4.8c-16.7 0-30.7-13.9-30.7-30.8V35.8c0-15.6 12.8-30.8 30.8-30.8 18 0 30.7 13.7 30.7 31.7v24c-4.2-3.2-32.3-24.7-32.3-24.7v5.5l37.1 29 0-34.7c0-19.7-16-35.7-35.6-35.7C339.7 0.1 323.7 16.1 323.7 35.8" class="a"/><path d="M355.9 69.8c-7.8-0.8-12.2-9.1-12.2-17.1l0-16.9c0-8.6 7-15.6 15.5-15.6 8.6 0 15.5 7 15.5 15.6l0 5.2 4.8 0 0-6.1c0-10.3-10.1-19.5-20.4-19.5 -10.2 0-20.4 9.3-20.4 19.5l0 19.6c0 10.3 8.3 20.4 18.5 20.4h3.3V62.2l34.1 28v-6l-39-31.7L355.9 69.8 355.9 69.8z" class="a"/><rect x="291.6" y="0.1" width="4.8" height="90.1" class="a"/><rect x="306.9" y="0.1" width="4.8" height="90.1" class="a"/><path d="M263 58c10-5.3 16.4-15.7 16.4-27 0-17-13.8-30.8-30.7-30.8h-21.4v4.8h19.6c15.3 0 27.7 10.6 27.7 26 0 10.7-7.2 19.7-16.9 24.3l-1.4 0.7 17.3 34.4h5.2L263 58z" class="a"/><polygon points="241 60.9 255.4 90.2 260.6 90.2 246.2 60.9 " class="a"/><polygon points="541.3 20.2 541.3 15.3 505.2 15.3 505.2 40 541.3 40 541.3 35.1 510 35.1 510 20.2 " class="a"/><polygon points="510 70.1 510 55.2 541.3 55.2 541.3 50.3 505.2 50.3 505.2 74.9 541.3 74.9 541.3 70.1 " class="a"/><polygon points="541.3 5 541.3 0.1 490.4 0.1 490.4 90.2 541.3 90.2 541.3 85.4 495.2 85.4 495.2 5 " class="a"/><path d="M472.1 0.1v52.6c0 18-12.8 32.6-30.8 32.6 -18 0-30.7-14.6-30.7-32.6V0.1h-4.8v54.4c0 19.6 16 35.6 35.6 35.6 19.6 0 35.6-16 35.6-35.6V0.1H472.1z" class="a"/><path d="M456.9 0.1v54.4c0 8.6-7 15.6-15.5 15.6s-15.5-7-15.5-15.6V0.1h-4.8v56.2c0 10.2 10.1 18.6 20.4 18.6 10.2 0 20.4-8.3 20.4-18.6v-56.2H456.9z" class="a"/><path d="M25.7 141.3v-13.6c0-1.3-0.2-2.4-0.7-3.1 -0.5-0.7-1.4-1.1-2.7-1.1 -0.8 0-1.4 0.2-1.9 0.5s-1 0.8-1.3 1.4c-0.4 0.6-0.6 1.2-0.8 1.9 -0.2 0.7-0.3 1.4-0.3 2.1v11.9h-5.2v-13.6c0-1.3-0.2-2.4-0.7-3.1 -0.5-0.7-1.4-1.1-2.7-1.1 -0.8 0-1.4 0.2-1.9 0.5 -0.5 0.4-1 0.8-1.3 1.4 -0.4 0.6-0.6 1.2-0.8 1.9 -0.2 0.7-0.3 1.4-0.3 2.1v11.9H0v-21.8h4.4l0.4 2.9c0.6-1 1.4-1.8 2.5-2.5 1-0.6 2.3-1 3.7-1 1.5 0 2.8 0.3 3.9 0.9 1 0.6 1.8 1.5 2.4 2.6 0.6-1.1 1.5-2 2.7-2.6 1.1-0.6 2.4-0.9 3.9-0.9 2.4 0 4.1 0.7 5.3 2.1 1.2 1.4 1.8 3.3 1.8 5.5v14.7L25.7 141.3 25.7 141.3z" class="a"/><path d="M55.9 130.6c0 0.2 0 0.4 0 0.5v0.9H41.2c0 0.8 0.1 1.6 0.4 2.4 0.3 0.8 0.7 1.4 1.2 1.9 0.4 0.4 0.8 0.7 1.4 0.9 0.5 0.3 1.1 0.4 1.9 0.4 0.8 0 1.4-0.1 1.9-0.2 0.5-0.2 0.9-0.4 1.3-0.8 0.5-0.5 0.9-1.1 1.1-1.8h5c-0.1 0.6-0.3 1.4-0.6 2.1 -0.4 0.8-0.8 1.4-1.2 1.9 -0.9 1.1-2 1.9-3.3 2.4 -1.3 0.5-2.6 0.7-4 0.7 -1.5 0-2.8-0.2-3.9-0.7s-2.1-1.1-3-2c-1.1-1.1-1.9-2.3-2.5-3.8 -0.6-1.5-0.9-3.1-0.9-4.9 0-1.8 0.3-3.4 0.8-4.9 0.5-1.5 1.3-2.8 2.4-3.8 0.8-0.8 1.8-1.5 3-2 1.2-0.5 2.5-0.8 4-0.8 1.6 0 3.1 0.3 4.5 1s2.5 1.7 3.4 3c0.8 1.2 1.3 2.4 1.6 3.7C55.7 127.9 55.9 129.2 55.9 130.6zM50.6 128.2c0-1.6-0.5-2.9-1.3-3.8 -0.4-0.4-0.8-0.7-1.4-0.9 -0.5-0.2-1.2-0.3-2-0.3 -0.8 0-1.5 0.2-2.1 0.5 -0.6 0.3-1.1 0.7-1.5 1.2 -0.4 0.5-0.7 1-0.8 1.5 -0.2 0.5-0.3 1.2-0.3 1.9H50.6z" class="a"/><path d="M73.7 124.4c-0.6-0.1-1.2-0.2-1.8-0.2 -1.8 0-3.2 0.6-4.2 1.8 -1 1.2-1.4 2.6-1.4 4.4v11h-5.3v-21.8h4.5l0.5 3.3c0.5-1.3 1.3-2.2 2.5-2.7 1.2-0.6 2.4-0.8 3.7-0.8 0.5 0 1.1 0 1.6 0.1V124.4z" class="a"/><path d="M92.7 141.3l-6.1-9.5 -3.5 3.8v5.8h-5.2v-30.3h5.3v17.3l8.3-8.9h6.6l-7.8 8.4 8.7 13.4H92.7L92.7 141.3z" class="a"/><path d="M120.7 130.6c0 0.2 0 0.4 0 0.5v0.9H106.1c0 0.8 0.1 1.6 0.4 2.4 0.3 0.8 0.7 1.4 1.2 1.9 0.4 0.4 0.8 0.7 1.4 0.9 0.5 0.3 1.1 0.4 1.9 0.4 0.8 0 1.4-0.1 1.9-0.2 0.5-0.2 0.9-0.4 1.3-0.8 0.5-0.5 0.9-1.1 1.1-1.8h5c-0.1 0.6-0.3 1.4-0.6 2.1 -0.4 0.8-0.8 1.4-1.2 1.9 -0.9 1.1-2 1.9-3.3 2.4 -1.3 0.5-2.6 0.7-4 0.7 -1.5 0-2.8-0.2-3.9-0.7s-2.1-1.1-3-2c-1.1-1.1-1.9-2.3-2.5-3.8 -0.6-1.5-0.9-3.1-0.9-4.9 0-1.8 0.3-3.4 0.8-4.9 0.5-1.5 1.3-2.8 2.4-3.8 0.8-0.8 1.8-1.5 3-2 1.2-0.5 2.5-0.8 4-0.8 1.6 0 3.1 0.3 4.5 1s2.5 1.7 3.4 3c0.8 1.2 1.3 2.4 1.6 3.7C120.6 127.9 120.7 129.2 120.7 130.6zM115.5 128.2c0-1.6-0.5-2.9-1.3-3.8 -0.4-0.4-0.8-0.7-1.4-0.9 -0.5-0.2-1.2-0.3-2-0.3 -0.8 0-1.5 0.2-2.1 0.5 -0.6 0.3-1.1 0.7-1.5 1.2 -0.4 0.5-0.7 1-0.8 1.5s-0.3 1.2-0.3 1.9H115.5z" class="a"/><path d="M139.2 141.3v-13.4c0-1.3-0.3-2.3-0.8-3s-1.5-1.1-2.9-1.1c-0.9 0-1.7 0.3-2.3 0.8 -0.6 0.5-1.1 1.2-1.5 2 -0.4 0.8-0.6 1.8-0.6 2.8 -0.1 1.1-0.1 2.1-0.1 3v8.9h-5.2v-21.8h4.4l0.4 2.8c0.6-1.1 1.6-2 2.8-2.5 1.2-0.5 2.4-0.8 3.7-0.8 1.2 0 2.2 0.2 3.1 0.6 0.9 0.4 1.7 0.9 2.3 1.6s1.1 1.5 1.4 2.5 0.5 2 0.5 3.1v14.6L139.2 141.3 139.2 141.3z" class="a"/><path d="M156.9 140.8c0 1.8-0.3 3.4-0.9 4.6 -0.6 1.2-1.9 2.3-3.7 3l-1.5-2.4c0.6-0.3 1.1-0.6 1.5-0.9 0.4-0.3 0.7-0.6 0.9-1 0.2-0.4 0.4-0.8 0.4-1.3 0.1-0.5 0.1-1 0.1-1.5h-3.1v-6.6h6.4V140.8z" class="a"/><path d="M186.5 141.3l-0.3-2.4c-0.6 1-1.5 1.7-2.6 2.2 -1.1 0.5-2.3 0.7-3.5 0.7 -1.1 0-2.1-0.2-3-0.5 -0.9-0.3-1.7-0.8-2.4-1.3 -1.3-1.1-2.3-2.4-2.9-4 -0.6-1.6-0.9-3.4-0.9-5.5 0-4.3 1.3-7.6 3.9-9.7 0.7-0.6 1.4-1 2.3-1.3 0.9-0.3 1.9-0.5 3-0.5 1.4 0 2.6 0.2 3.6 0.6 1 0.4 1.7 0.9 2.2 1.4v-10h5.3v30.3L186.5 141.3 186.5 141.3zM186 130.4c0-0.8-0.1-1.6-0.2-2.4 -0.1-0.8-0.4-1.6-0.7-2.3 -0.4-0.7-0.9-1.2-1.5-1.7 -0.6-0.4-1.5-0.7-2.5-0.7 -0.8 0-1.5 0.2-2.1 0.5s-1.1 0.7-1.4 1.2c-0.6 0.7-0.9 1.6-1.1 2.5 -0.2 0.9-0.3 1.9-0.3 2.8 0 1 0.1 1.9 0.3 2.8 0.2 0.9 0.6 1.8 1.1 2.5 0.4 0.5 0.9 0.9 1.4 1.2 0.6 0.3 1.3 0.5 2.1 0.5 1 0 1.9-0.2 2.5-0.7 0.6-0.4 1.1-1 1.5-1.7 0.4-0.7 0.6-1.4 0.7-2.3S186 131.2 186 130.4z" class="a"/><path d="M216.3 130.6c0 0.2 0 0.4 0 0.5v0.9H201.6c0 0.8 0.1 1.6 0.4 2.4 0.3 0.8 0.7 1.4 1.2 1.9 0.4 0.4 0.8 0.7 1.4 0.9 0.5 0.3 1.1 0.4 1.9 0.4 0.8 0 1.4-0.1 1.9-0.2 0.5-0.2 0.9-0.4 1.3-0.8 0.5-0.5 0.9-1.1 1.1-1.8h5c-0.1 0.6-0.3 1.4-0.7 2.1 -0.4 0.8-0.8 1.4-1.2 1.9 -0.9 1.1-2 1.9-3.3 2.4 -1.3 0.5-2.6 0.7-4 0.7 -1.5 0-2.8-0.2-3.9-0.7s-2.1-1.1-3-2c-1.1-1.1-1.9-2.3-2.5-3.8 -0.6-1.5-0.9-3.1-0.9-4.9 0-1.8 0.3-3.4 0.8-4.9 0.5-1.5 1.3-2.8 2.4-3.8 0.8-0.8 1.8-1.5 3-2 1.2-0.5 2.5-0.8 4-0.8 1.6 0 3.1 0.3 4.5 1 1.4 0.7 2.5 1.7 3.4 3 0.8 1.2 1.3 2.4 1.6 3.7C216.1 127.9 216.3 129.2 216.3 130.6zM211 128.2c0-1.6-0.5-2.9-1.3-3.8 -0.4-0.4-0.8-0.7-1.4-0.9 -0.5-0.2-1.2-0.3-2-0.3 -0.8 0-1.5 0.2-2.1 0.5 -0.6 0.3-1.1 0.7-1.5 1.2 -0.4 0.5-0.7 1-0.8 1.5s-0.3 1.2-0.3 1.9H211z" class="a"/><path d="M238.3 134.6c0 1.1-0.2 2-0.5 2.8 -0.4 0.8-0.8 1.5-1.4 2 -0.9 0.9-2 1.5-3.3 1.9 -1.3 0.4-2.7 0.6-4.2 0.6 -1.4 0-2.7-0.2-3.9-0.6s-2.3-1-3.1-1.9c-0.6-0.6-1.2-1.4-1.6-2.2 -0.4-0.9-0.7-1.8-0.7-2.9h4.9c0 0.5 0.1 1 0.3 1.4 0.2 0.5 0.5 0.9 0.8 1.1 0.4 0.3 0.9 0.6 1.4 0.7 0.5 0.2 1.2 0.2 1.9 0.2 0.4 0 0.9 0 1.4-0.1 0.5-0.1 1-0.2 1.4-0.4 0.4-0.2 0.8-0.5 1.1-0.8 0.3-0.4 0.4-0.8 0.4-1.4 0-0.6-0.2-1.2-0.6-1.6 -0.4-0.4-0.9-0.6-1.6-0.8 -1-0.1-2-0.3-3-0.4 -1-0.1-2-0.3-3-0.5 -0.8-0.2-1.4-0.4-2-0.8 -0.6-0.4-1.1-0.8-1.6-1.3 -0.4-0.5-0.8-1.1-1-1.7 -0.2-0.6-0.4-1.3-0.4-2 0-1.1 0.2-2.1 0.6-2.9 0.4-0.8 1-1.5 1.6-2 0.8-0.7 1.8-1.2 2.9-1.6 1.1-0.4 2.4-0.6 3.7-0.6 1.3 0 2.6 0.2 3.8 0.6 1.2 0.4 2.2 1.1 3 1.9 0.6 0.6 1.1 1.4 1.4 2.1 0.4 0.8 0.5 1.6 0.5 2.4h-5c0-0.4-0.1-0.8-0.3-1.1s-0.4-0.6-0.6-0.9c-0.3-0.3-0.7-0.6-1.2-0.7 -0.5-0.2-1.1-0.3-1.6-0.3 -0.4 0-0.8 0-1.1 0 -0.4 0-0.7 0.1-1.1 0.3 -0.5 0.2-0.9 0.5-1.2 0.9 -0.3 0.4-0.5 0.9-0.5 1.4 0 0.8 0.3 1.3 0.8 1.6 0.5 0.3 1.1 0.5 1.7 0.6 0.5 0.1 0.9 0.1 1.3 0.1 0.3 0 0.7 0.1 1 0.1 0.3 0 0.7 0.1 1.1 0.1 0.4 0.1 0.8 0.1 1.3 0.2 1.7 0.3 3.2 0.9 4.3 2C237.8 131.5 238.3 132.9 238.3 134.6z" class="a"/><path d="M243.4 116.5v-5.4h5.6v5.4H243.4zM243.6 141.3v-21.8h5.3v21.8H243.6z" class="a"/><path d="M274.9 144.2c0 1.4-0.3 2.6-1 3.6 -0.6 1-1.5 1.7-2.5 2.2 -1 0.5-2.1 0.9-3.4 1.2 -1.3 0.2-2.5 0.3-3.7 0.3 -1.3 0-2.7-0.1-4-0.3 -1.3-0.2-2.6-0.7-3.7-1.5 -0.8-0.6-1.5-1.3-2-2.1 -0.5-0.8-0.7-1.7-0.7-2.7 0-1 0.2-1.8 0.7-2.6 0.4-0.8 1.1-1.4 1.9-1.8 -0.7-0.4-1.2-0.9-1.6-1.6s-0.6-1.4-0.6-2.1c0-1.9 0.9-3.3 2.6-4.4 -0.7-0.7-1.2-1.5-1.6-2.4s-0.6-1.9-0.6-3c0-1.3 0.2-2.4 0.7-3.4 0.5-1 1.1-1.8 1.9-2.5 0.8-0.7 1.8-1.2 2.8-1.5 1.1-0.3 2.2-0.5 3.5-0.5 0.9 0 1.8 0.1 2.6 0.4s1.6 0.6 2.4 1c0.5-1 1.1-1.6 1.9-2.1s1.6-0.6 2.6-0.6c0.2 0 0.4 0 0.7 0 0.3 0 0.5 0 0.7 0.1v4.1l-0.4 0c-0.6 0-1.2 0.1-1.7 0.3s-0.8 0.6-1 1.1c0.8 1.2 1.1 2.5 1.1 3.9 0 1.3-0.2 2.4-0.7 3.4s-1.1 1.8-2 2.5c-0.8 0.7-1.8 1.2-2.8 1.6s-2.2 0.5-3.4 0.5c-1.2 0-2.4-0.2-3.5-0.6 -0.3 0.1-0.5 0.3-0.7 0.6 -0.2 0.3-0.4 0.6-0.4 0.9 0 0.6 0.3 1.1 0.8 1.3 0.5 0.2 1.1 0.3 1.6 0.3h3.6c0.5 0 1.1 0 1.7 0 0.6 0 1.2 0.1 1.9 0.2s1.2 0.2 1.8 0.4c0.6 0.2 1.2 0.5 1.7 0.8 1 0.6 1.6 1.4 2 2.3C274.7 142.2 274.9 143.2 274.9 144.2zM270 144.4c0-0.7-0.2-1.2-0.5-1.6 -0.4-0.4-0.8-0.6-1.3-0.8 -0.5-0.2-1.1-0.3-1.7-0.3 -0.6 0-1.2 0-1.7 0h-4.1c-0.6 0.2-1 0.5-1.4 0.9s-0.6 1-0.6 1.7 0.2 1.2 0.6 1.6c0.4 0.4 0.8 0.7 1.4 0.9 0.6 0.2 1.2 0.3 1.8 0.4 0.6 0.1 1.2 0.1 1.7 0.1 0.5 0 1.1 0 1.8-0.1 0.7 0 1.3-0.2 1.9-0.4 0.6-0.2 1.1-0.5 1.5-0.9C269.8 145.7 270 145.1 270 144.4zM267.7 127c0-1.2-0.3-2.1-1-2.9 -0.7-0.8-1.6-1.2-2.8-1.2s-2.1 0.4-2.8 1.2c-0.7 0.8-1 1.7-1 2.9s0.3 2.1 1 2.9c0.7 0.8 1.6 1.1 2.8 1.1s2.1-0.4 2.8-1.1C267.3 129.1 267.7 128.2 267.7 127z" class="a"/><path d="M292.4 141.3v-13.4c0-1.3-0.3-2.3-0.8-3 -0.5-0.7-1.5-1.1-2.9-1.1 -0.9 0-1.7 0.3-2.3 0.8 -0.6 0.5-1.1 1.2-1.5 2 -0.4 0.8-0.6 1.8-0.6 2.8 -0.1 1.1-0.1 2.1-0.1 3v8.9h-5.2v-21.8h4.4l0.4 2.8c0.6-1.1 1.6-2 2.8-2.5 1.2-0.5 2.4-0.8 3.7-0.8 1.2 0 2.2 0.2 3.1 0.6 0.9 0.4 1.7 0.9 2.3 1.6 0.6 0.7 1.1 1.5 1.4 2.5 0.3 1 0.5 2 0.5 3.1v14.6L292.4 141.3 292.4 141.3z" class="a"/><path d="M333 141.4l-2.1-2.4c-1.2 1.1-2.5 1.8-4 2.4 -1.4 0.5-2.9 0.8-4.5 0.8 -1.3 0-2.6-0.2-3.8-0.6s-2.3-1-3.1-1.8c-0.9-0.8-1.6-1.7-2.1-2.8 -0.5-1.1-0.8-2.4-0.8-3.8 0-1.8 0.5-3.4 1.4-4.7 1-1.3 2.2-2.5 3.8-3.4 -0.5-0.5-0.9-1-1.3-1.5 -0.4-0.5-0.7-1-1-1.5 -0.3-0.5-0.5-1-0.6-1.6 -0.2-0.6-0.2-1.2-0.2-1.9 0-1.2 0.2-2.2 0.7-3.1 0.4-0.9 1-1.7 1.7-2.4 0.7-0.7 1.6-1.2 2.6-1.5 1-0.3 2.1-0.5 3.2-0.5 1.1 0 2.1 0.2 3.1 0.5 1 0.3 1.9 0.8 2.6 1.4 0.8 0.6 1.4 1.4 1.8 2.3 0.4 0.9 0.7 2 0.7 3.1 0 1-0.1 1.9-0.4 2.6 -0.3 0.8-0.7 1.5-1.2 2.1 -0.5 0.6-1.1 1.2-1.8 1.7 -0.7 0.5-1.4 1-2.2 1.5l5.2 5.6c0.3-0.5 0.4-1 0.5-1.7 0.1-0.6 0.2-1.3 0.2-2 0.1-0.7 0.1-1.3 0.1-2 0-0.6 0-1.2 0-1.7h7.7v4.2h-3.4c-0.1 1.2-0.2 2.3-0.5 3.5 -0.3 1.1-0.7 2.2-1.3 3.2l5.5 6h-6.4V141.4zM320.9 128.2c-0.5 0.3-1 0.6-1.4 0.9 -0.4 0.3-0.8 0.6-1.1 1s-0.6 0.8-0.8 1.2c-0.2 0.5-0.3 1-0.3 1.6 0 0.8 0.1 1.4 0.4 2 0.3 0.6 0.7 1.1 1.2 1.5 0.5 0.4 1.1 0.7 1.7 0.9 0.6 0.2 1.3 0.3 2 0.3 0.9 0 1.8-0.1 2.7-0.4 0.9-0.3 1.7-0.7 2.3-1.5L320.9 128.2zM326.1 118.5c0-1-0.3-1.8-0.9-2.4 -0.6-0.6-1.4-0.8-2.4-0.8 -0.9 0-1.6 0.3-2.3 0.8 -0.7 0.5-1 1.3-1 2.3 0 0.5 0.1 0.9 0.3 1.3s0.4 0.8 0.7 1.2c0.3 0.4 0.6 0.7 0.9 1.1s0.7 0.7 1 1c0.4-0.3 0.9-0.5 1.4-0.8 0.5-0.3 0.9-0.6 1.2-0.9 0.4-0.3 0.7-0.7 0.9-1.2C326 119.6 326.1 119.1 326.1 118.5z" class="a"/><path d="M353.3 116.5v-5.4h5.6v5.4H353.3zM353.5 141.3v-21.8h5.3v21.8H353.5z" class="a"/><path d="M379 141.3v-13.4c0-1.3-0.3-2.3-0.8-3 -0.5-0.7-1.5-1.1-2.9-1.1 -0.9 0-1.7 0.3-2.3 0.8 -0.6 0.5-1.1 1.2-1.5 2 -0.4 0.8-0.6 1.8-0.6 2.8 -0.1 1.1-0.1 2.1-0.1 3v8.9h-5.2v-21.8h4.4l0.4 2.8c0.6-1.1 1.6-2 2.8-2.5 1.2-0.5 2.4-0.8 3.7-0.8 1.2 0 2.2 0.2 3.1 0.6 0.9 0.4 1.7 0.9 2.3 1.6 0.6 0.7 1.1 1.5 1.4 2.5s0.5 2 0.5 3.1v14.6L379 141.3 379 141.3z" class="a"/><path d="M403 141.1c-1.5 0.4-3 0.6-4.5 0.6 -2.2 0-3.9-0.6-5-1.8 -1.1-1.2-1.6-2.8-1.6-4.9v-11.1h-4v-4.3h4v-5.5l5.3-1.3v6.8h5.5v4.3h-5.5v10.6c0 0.8 0.2 1.4 0.6 1.8 0.4 0.4 1 0.6 1.8 0.6 0.6 0 1.1 0 1.6 0 0.5 0 1.1-0.1 1.8-0.2V141.1L403 141.1z" class="a"/><path d="M426.2 130.6c0 0.2 0 0.4 0 0.5v0.9h-14.6c0 0.8 0.1 1.6 0.4 2.4s0.7 1.4 1.2 1.9c0.4 0.4 0.8 0.7 1.4 0.9 0.5 0.3 1.1 0.4 1.9 0.4 0.8 0 1.4-0.1 1.9-0.2 0.5-0.2 0.9-0.4 1.3-0.8 0.5-0.5 0.9-1.1 1.1-1.8h5c-0.1 0.6-0.3 1.4-0.7 2.1 -0.4 0.8-0.8 1.4-1.2 1.9 -0.9 1.1-2 1.9-3.3 2.4 -1.3 0.5-2.6 0.7-4 0.7 -1.5 0-2.8-0.2-3.9-0.7 -1.1-0.5-2.1-1.1-3-2 -1.1-1.1-1.9-2.3-2.5-3.8 -0.6-1.5-0.9-3.1-0.9-4.9 0-1.8 0.3-3.4 0.8-4.9 0.5-1.5 1.3-2.8 2.4-3.8 0.8-0.8 1.8-1.5 3-2 1.2-0.5 2.5-0.8 4-0.8 1.6 0 3.1 0.3 4.5 1s2.5 1.7 3.4 3c0.8 1.2 1.3 2.4 1.6 3.7C426.1 127.9 426.2 129.2 426.2 130.6zM420.9 128.2c0-1.6-0.5-2.9-1.3-3.8 -0.4-0.4-0.8-0.7-1.4-0.9 -0.5-0.2-1.2-0.3-2-0.3 -0.8 0-1.5 0.2-2.1 0.5 -0.6 0.3-1.1 0.7-1.5 1.2 -0.4 0.5-0.7 1-0.8 1.5 -0.2 0.5-0.3 1.2-0.3 1.9H420.9z" class="a"/><path d="M444 124.4c-0.6-0.1-1.2-0.2-1.8-0.2 -1.8 0-3.2 0.6-4.2 1.8 -1 1.2-1.4 2.6-1.4 4.4v11h-5.3v-21.8h4.5l0.5 3.3c0.5-1.3 1.3-2.2 2.5-2.7 1.2-0.6 2.4-0.8 3.7-0.8 0.5 0 1.1 0 1.6 0.1L444 124.4 444 124.4z" class="a"/><path d="M467.1 141.1c-0.4 0.2-0.8 0.3-1.2 0.4 -0.3 0.1-0.8 0.1-1.4 0.1 -1.1 0-2-0.3-2.6-0.9s-1-1.3-1-2.1c-0.5 0.9-1.3 1.7-2.5 2.3 -1.2 0.6-2.5 1-4.1 1 -1.3 0-2.5-0.2-3.4-0.6 -1-0.4-1.8-0.9-2.5-1.5 -0.7-0.6-1.2-1.4-1.5-2.2 -0.3-0.8-0.5-1.7-0.5-2.6 0-1 0.2-2 0.6-2.8 0.4-0.8 0.9-1.5 1.6-2.1 0.7-0.6 1.5-1 2.4-1.4 0.9-0.3 1.9-0.5 2.9-0.6l6.4-0.5v-1.3c0-1-0.2-1.9-0.7-2.5 -0.5-0.6-1.5-0.9-3-0.9 -1.2 0-2.2 0.3-2.9 0.8 -0.7 0.5-1.1 1.3-1.1 2.3h-5.1c0.1-1.2 0.4-2.3 0.9-3.2 0.5-0.9 1.1-1.6 2-2.2 0.8-0.6 1.8-1 2.8-1.3 1.1-0.3 2.2-0.4 3.4-0.4 1.9 0 3.6 0.3 5 1 1.5 0.7 2.5 1.8 3.2 3.5 0.3 0.7 0.5 1.4 0.5 2.2 0.1 0.8 0.1 1.5 0.1 2.2v8.1c0 0.5 0.1 0.9 0.3 1.1 0.2 0.2 0.5 0.3 0.9 0.3 0.2 0 0.4 0 0.5 0 0.1 0 0.2 0 0.2 0V141.1zM460.1 131.6l-5.5 0.4c-0.8 0.1-1.5 0.3-2.2 0.8s-1 1.2-1 2.1c0 0.8 0.3 1.5 0.9 2 0.6 0.5 1.4 0.7 2.2 0.7 1.7 0 3-0.4 4-1.3 1-0.9 1.6-2.1 1.6-3.7L460.1 131.6 460.1 131.6z" class="a"/><path d="M489.6 133.6c-0.1 0.9-0.2 1.7-0.5 2.5 -0.3 0.8-0.7 1.6-1.2 2.2 -0.8 1-1.8 1.8-3 2.4 -1.3 0.7-2.8 1-4.4 1 -1.7 0-3.2-0.3-4.5-1 -1.3-0.7-2.4-1.5-3.1-2.4 -0.8-1-1.4-2.2-1.8-3.6 -0.4-1.3-0.6-2.8-0.6-4.4 0-1.6 0.2-3.1 0.6-4.4 0.4-1.3 1-2.5 1.8-3.6 0.8-0.9 1.8-1.7 3.1-2.4 1.3-0.7 2.8-1 4.5-1 1.7 0 3.2 0.3 4.4 1 1.3 0.7 2.3 1.5 3 2.4 0.5 0.6 0.9 1.4 1.2 2.2 0.3 0.8 0.4 1.7 0.5 2.5h-5.2c0-0.4-0.1-0.8-0.2-1.1 -0.1-0.3-0.3-0.6-0.4-0.9 -0.3-0.5-0.7-0.9-1.3-1.2 -0.6-0.3-1.2-0.5-2.1-0.5 -0.7 0-1.4 0.1-1.9 0.4 -0.5 0.3-1 0.6-1.3 1 -0.6 0.7-1 1.5-1.2 2.5 -0.2 1-0.3 2-0.3 3 0 1 0.1 2 0.3 3 0.2 1 0.6 1.8 1.2 2.5 0.4 0.4 0.8 0.7 1.3 1 0.5 0.3 1.1 0.4 1.9 0.4 0.8 0 1.5-0.2 2.1-0.5 0.6-0.3 1-0.7 1.3-1.2 0.2-0.3 0.3-0.6 0.4-0.9 0.1-0.3 0.2-0.7 0.2-1.1H489.6L489.6 133.6z" class="a"/><path d="M506.8 141.1c-1.5 0.4-3 0.6-4.5 0.6 -2.2 0-3.9-0.6-5-1.8 -1.1-1.2-1.6-2.8-1.6-4.9v-11.1h-4v-4.3h4v-5.5l5.3-1.3v6.8h5.5v4.3h-5.5v10.6c0 0.8 0.2 1.4 0.6 1.8s1 0.6 1.8 0.6c0.6 0 1.1 0 1.6 0 0.5 0 1.1-0.1 1.8-0.2V141.1z" class="a"/><path d="M511.3 116.5v-5.4h5.6v5.4H511.3zM511.5 141.3v-21.8h5.3v21.8H511.5z" class="a"/><path d="M542.1 130.6c0 0.2 0 0.4 0 0.5v0.9h-14.6c0 0.8 0.1 1.6 0.4 2.4 0.3 0.8 0.7 1.4 1.2 1.9 0.4 0.4 0.8 0.7 1.4 0.9 0.5 0.3 1.1 0.4 1.9 0.4 0.8 0 1.4-0.1 1.9-0.2 0.5-0.2 0.9-0.4 1.3-0.8 0.5-0.5 0.9-1.1 1.1-1.8h5c-0.1 0.6-0.3 1.4-0.7 2.1 -0.4 0.8-0.8 1.4-1.2 1.9 -0.9 1.1-2 1.9-3.3 2.4 -1.3 0.5-2.6 0.7-4 0.7 -1.5 0-2.8-0.2-3.9-0.7s-2.1-1.1-3-2c-1.1-1.1-1.9-2.3-2.5-3.8 -0.6-1.5-0.9-3.1-0.9-4.9 0-1.8 0.3-3.4 0.8-4.9 0.5-1.5 1.3-2.8 2.4-3.8 0.8-0.8 1.8-1.5 3-2 1.2-0.5 2.5-0.8 4-0.8 1.6 0 3.1 0.3 4.5 1s2.5 1.7 3.4 3c0.8 1.2 1.3 2.4 1.6 3.7C542 127.9 542.1 129.2 542.1 130.6zM536.9 128.2c0-1.6-0.5-2.9-1.3-3.8 -0.4-0.4-0.8-0.7-1.4-0.9 -0.5-0.2-1.2-0.3-2-0.3 -0.8 0-1.5 0.2-2.1 0.5 -0.6 0.3-1.1 0.7-1.5 1.2 -0.4 0.5-0.7 1-0.8 1.5 -0.2 0.5-0.3 1.2-0.3 1.9H536.9z" class="a"/></svg>
