<svg xmlns="http://www.w3.org/2000/svg" width="492" height="26" viewBox="0 0 492.2 26.1"><path d="M0 0.4h2.9l6.6 21L15.8 0.4h2.2l6.4 21.1 6.6-21h2.8l-8.3 25.4h-2.2L16.9 5.4l-6.4 20.5H8.3L0 0.4z"/><path d="M37.8 0.4H54.6v2.6H40.4v8.6h12.7v2.6H40.4v8.8h14.3v2.6H37.8V0.4z"/><path d="M67.9 0.3h2.5l10.6 25.4h-2.8l-2.7-6.7h-12.6l-2.8 6.7H57.4L67.9 0.3zM74.4 16.4L69.1 3.6l-5.3 12.8H74.4z"/><path d="M84.9 0.4h10c2.9 0 5.1 0.9 6.6 2.5 1.1 1.2 1.8 3 1.8 5v0.1c0 4.2-2.7 6.6-6.3 7.3l7.1 10.3h-3.2l-6.7-9.8h-6.6v9.8h-2.6V0.4L84.9 0.4zM94.6 13.3c3.5 0 6-1.9 6-5.2V8c0-3.1-2.2-5-5.9-5h-7.2v10.2H94.6z"/><path d="M108.2 0.4h16.8v2.6h-14.2v8.6h12.7v2.6h-12.7v8.8h14.3v2.6h-16.9V0.4H108.2z"/><path d="M129.7 0.4h10c2.9 0 5.1 0.9 6.6 2.5 1.1 1.2 1.8 3 1.8 5v0.1c0 4.2-2.7 6.6-6.3 7.3l7.1 10.3h-3.2l-6.7-9.8h-6.6v9.8h-2.6V0.4H129.7zM139.5 13.3c3.5 0 6-1.9 6-5.2V8c0-3.1-2.2-5-5.9-5h-7.2v10.2H139.5z"/><path d="M153 0.4h16.8v2.6h-14.2v8.6h12.7v2.6h-12.7v8.8h14.3v2.6h-16.9V0.4H153z"/><path d="M183.1 0.3h2.5l10.6 25.4h-2.8l-2.7-6.7h-12.6l-2.8 6.7h-2.7L183.1 0.3zM189.6 16.4l-5.3-12.8 -5.3 12.8H189.6z"/><path d="M198.1 22l1.6-2.1c2.4 2.4 4.7 3.6 8 3.6 3.1 0 5.2-1.8 5.2-4.3v-0.1c0-2.3-1.2-3.7-6-4.8 -5.3-1.3-7.8-3.1-7.8-7.3V7c0-4 3.2-6.9 7.6-6.9 3.4 0 5.8 1 8.2 3.1l-1.5 2.2c-2.2-1.9-4.3-2.7-6.7-2.7 -3 0-4.9 1.8-4.9 4.1v0.1c0 2.4 1.2 3.7 6.3 4.9 5.2 1.2 7.6 3.3 7.6 7.1v0.1c0 4.3-3.3 7.1-7.9 7.1C203.9 26 200.9 24.7 198.1 22z"/><path d="M219.1 13.1v-0.1C219.1 6.1 223.9 0 231 0c7.1 0 11.8 6 11.8 13v0.1c0 7-4.8 13-11.9 13S219.1 20.1 219.1 13.1zM240.1 13.1v-0.1c0-5.7-3.8-10.4-9.1-10.4s-9.1 4.6-9.1 10.3v0.1c0 5.7 3.8 10.4 9.1 10.4S240.1 18.8 240.1 13.1z"/><path d="M247.7 0.4h2.5l14.6 20.2V0.4h2.6v25.2h-2.1L250.2 5v20.7h-2.6V0.4L247.7 0.4z"/><path d="M281.8 0.3h2.5l10.6 25.4h-2.8l-2.7-6.7h-12.6l-2.8 6.7h-2.7L281.8 0.3zM288.2 16.4l-5.3-12.8 -5.3 12.8H288.2z"/><path d="M298.7 0.4h9.9c2.7 0 4.7 0.8 6.1 2.2 1 1.1 1.5 2.4 1.5 4v0.1c0 3.3-1.9 5-3.7 5.8 2.8 0.9 5 2.6 5 6.1v0.1c0 4.3-3.3 6.9-8.4 6.9h-10.3L298.7 0.4 298.7 0.4zM313.5 7.1c0-2.5-1.8-4.1-5.1-4.1h-7.1v8.7h6.9c3.2 0 5.3-1.5 5.3-4.5V7.1zM308.6 14.2h-7.3v8.9h7.8c3.5 0 5.7-1.7 5.7-4.5v-0.1C314.8 15.8 312.7 14.2 308.6 14.2z"/><path d="M322 0.4h2.6v22.6h13.1v2.6h-15.7V0.4H322z"/><path d="M341.8 0.4h16.8v2.6h-14.2v8.6h12.7v2.6h-12.7v8.8h14.3v2.6h-16.9L341.8 0.4 341.8 0.4z"/><path d="M363.4 0.4h8.7c5.2 0 8.7 3 8.7 8v0.1c0 5.4-4.2 8.2-9.1 8.2h-5.6v8.9h-2.6V0.4L363.4 0.4zM371.7 14.2c3.8 0 6.4-2.2 6.4-5.5V8.5c0-3.6-2.5-5.5-6.2-5.5h-5.9v11.1H371.7L371.7 14.2z"/><path d="M384.8 0.4h16.8v2.6H387.5v8.6h12.7v2.6H387.5v8.8h14.3v2.6h-16.9L384.8 0.4 384.8 0.4z"/><path d="M405.4 13.1v-0.1c0-6.9 4.8-13 11.9-13 7.1 0 11.8 6 11.8 13v0.1c0 7-4.8 13-11.9 13C410.1 26.1 405.4 20.1 405.4 13.1zM426.3 13.1v-0.1c0-5.7-3.8-10.4-9.1-10.4 -5.3 0-9.1 4.6-9.1 10.3v0.1c0 5.7 3.8 10.4 9.2 10.4C422.5 23.4 426.3 18.8 426.3 13.1z"/><path d="M433.9 0.4h8.7c5.2 0 8.7 3 8.7 8v0.1c0 5.4-4.2 8.2-9.1 8.2h-5.6v8.9h-2.6V0.4L433.9 0.4zM442.2 14.2c3.8 0 6.4-2.2 6.4-5.5V8.5c0-3.6-2.5-5.5-6.2-5.5h-5.9v11.1H442.2L442.2 14.2z"/><path d="M455.4 0.4h2.6v22.6h13.1v2.6h-15.7V0.4H455.4z"/><path d="M475.2 0.4h16.8v2.6h-14.2v8.6H490.5v2.6h-12.7v8.8h14.3v2.6h-16.9V0.4z"/></svg>
