<svg xmlns="http://www.w3.org/2000/svg" width="542.136" height="151.554" viewBox="0 0 542.136 151.554"><g fill="#171717"><path d="M51.18 20.195v-4.85H14.953V43.19H48.2v-4.85H19.794V20.196"/><path d="M4.995 4.954H51.18V.12H.152V90.18h4.842"/><path d="M48.207 58.423v-4.835H14.954v36.594h4.84v-31.76M147.773 0v4.844h21.994c13.5 0 24.476 9.17 24.476 22.686 0 6.052-3.372 11.916-7.83 16.503l-1.027 1.04 1.028 1.056c4.457 4.59 7.83 10.45 7.83 16.496 0 13.528-10.978 22.712-24.477 22.712h-21.994v4.847h23.82c15.168 0 27.49-12.365 27.49-27.56 0-6.402-2.495-12.55-6.92-17.552 4.425-4.986 6.92-11.137 6.92-17.543 0-15.18-12.322-27.53-27.49-27.53h-23.82zM131.005.114h4.852v90.07h-4.852z"/><path d="M147.768 50.323l.005 4.837 22.64-.04c4.29 0 7.645 3.3 7.645 7.505 0 4.23-3.428 7.68-7.645 7.68h-22.64v4.833h24.466c5.886 0 10.66-6.614 10.66-12.513 0-5.9-4.67-12.345-10.66-12.345l-22.646.043M147.773 15.19v4.846h22.64c4.29 0 7.645 3.292 7.645 7.502 0 3.838-2.88 7.098-6.713 7.592l-23.57-.016v4.84h25.6c5.516-.686 9.526-7.063 9.526-12.418 0-5.892-4.675-12.35-10.66-12.35h-24.467zM211.906.114h4.843v90.07h-4.844zM249.266 46.475c7.51 0 13.607-7.984 13.607-15.56 0-7.573-6.1-15.566-13.607-15.566h-22.06v4.843h20.233c5.838 0 10.595 4.81 10.595 10.722 0 5.917-4.757 10.732-10.596 10.732h-20.233v48.536h4.848V46.475h17.21zM78.716 57.174H96.94L87.4 21.768h-5.054l7.944 30.557H74.58l-9.75 37.857h4.893M46.97 90.182h4.94L77.68.114h-4.94M92.268.12l25.82 90.062h4.992L97.305.12M94.88 68.622l6.13 21.56h4.88l-5.965-21.56M323.707 35.767V54.53c0 19.65 15.957 35.653 35.582 35.653v-4.847c-16.672 0-30.73-13.877-30.73-30.807V35.766c0-15.566 12.773-30.813 30.75-30.813 17.954 0 30.733 13.726 30.733 31.727v24.025C385.8 57.467 357.75 36.04 357.75 36.04v5.452l37.13 28.972.01-34.696c0-19.66-15.957-35.653-35.58-35.653-19.635 0-35.603 15.99-35.603 35.652"/><path d="M355.922 69.78c-7.804-.793-12.176-9.05-12.176-17.117l.02-16.87c0-8.585 6.974-15.575 15.548-15.575 8.553 0 15.536 6.99 15.536 15.576l-.02 5.19 4.84.013.01-6.105c0-10.258-10.144-19.515-20.366-19.515-10.24 0-20.383 9.256-20.383 19.504l-.02 19.608c0 10.26 8.305 20.442 18.51 20.442h3.34v-12.7l34.118 27.96v-6.024l-38.956-31.694v17.31zM291.584.114h4.847v90.07h-4.846zM306.896.114h4.842v90.07h-4.842zM262.954 57.957c9.954-5.314 16.416-15.668 16.416-27.042C279.37 13.94 265.57.12 248.62.12h-21.408v4.834h19.583c15.296 0 27.734 10.643 27.734 25.96 0 10.738-7.18 19.7-16.894 24.252l-1.388.65 17.35 34.366h5.18l-15.824-32.225zM241.015 60.87l14.387 29.312h5.18L246.2 60.87M541.283 20.195v-4.85h-36.11v24.607h36.11V35.1h-31.26V20.195M510.03 70.083V55.17h31.253v-4.837h-36.11v24.59h36.11v-4.84"/><path d="M541.283 4.954V.12h-50.92V90.2h50.92v-4.848h-46.07V4.954M472.137.12v52.59c0 17.98-12.795 32.627-30.76 32.627-17.953 0-30.74-14.647-30.74-32.627V.12h-4.84v54.416c0 19.65 15.958 35.647 35.58 35.647 19.642 0 35.602-15.998 35.602-35.647V.12h-4.843z"/><path d="M456.92.12v54.373c0 8.59-6.982 15.58-15.546 15.58s-15.526-6.99-15.526-15.58V.12h-4.843v56.2c0 10.248 10.146 18.597 20.37 18.597 10.236 0 20.382-8.35 20.382-18.598V.12h-4.837zM25.746 141.35v-13.567c0-1.344-.23-2.386-.692-3.13-.462-.74-1.352-1.112-2.667-1.112-.756 0-1.4.176-1.933.526s-.973.812-1.322 1.386c-.35.574-.61 1.212-.777 1.91-.168.702-.252 1.388-.252 2.06v11.928h-5.208v-13.566c0-1.344-.23-2.386-.693-3.13-.462-.74-1.35-1.112-2.667-1.112-.756 0-1.4.175-1.932.525-.532.35-.98.812-1.344 1.386-.365.574-.632 1.212-.8 1.91-.168.702-.252 1.388-.252 2.06v11.928H0v-21.84h4.368l.42 2.898c.615-1.008 1.442-1.834 2.48-2.48 1.034-.643 2.28-.965 3.737-.965 1.54 0 2.827.315 3.863.944 1.036.63 1.834 1.506 2.395 2.625.644-1.147 1.533-2.03 2.667-2.646 1.134-.616 2.442-.924 3.927-.924 2.353 0 4.122.707 5.313 2.12 1.19 1.414 1.784 3.255 1.784 5.523v14.742l-5.208.002zM55.86 130.595c-.027.197-.04.38-.04.547v.925H41.2c0 .84.132 1.638.398 2.394.266.757.665 1.387 1.197 1.892.392.363.847.678 1.365.943.518.267 1.14.4 1.87.4.755 0 1.377-.077 1.867-.23.49-.154.93-.428 1.322-.82.504-.504.854-1.12 1.05-1.847h5.04c-.057.645-.272 1.352-.65 2.12-.378.772-.777 1.408-1.197 1.912-.924 1.09-2.03 1.876-3.318 2.352-1.288.477-2.632.714-4.03.714-1.514 0-2.822-.246-3.93-.735s-2.093-1.14-2.96-1.952c-1.092-1.063-1.925-2.338-2.5-3.823-.573-1.483-.86-3.12-.86-4.914 0-1.763.26-3.394.777-4.892.518-1.497 1.31-2.778 2.373-3.843.812-.84 1.8-1.512 2.96-2.017 1.163-.504 2.5-.755 4.013-.755 1.623 0 3.135.33 4.535.987s2.548 1.673 3.444 3.045c.81 1.203 1.328 2.43 1.553 3.674.225 1.246.338 2.554.338 3.925zm-5.25-2.35c-.027-1.596-.476-2.87-1.343-3.822-.364-.392-.82-.7-1.365-.924-.546-.225-1.196-.337-1.953-.337-.813 0-1.527.154-2.143.462-.616.31-1.12.714-1.512 1.218-.393.476-.672.98-.84 1.513-.17.532-.267 1.162-.295 1.89h9.45zM73.71 124.38c-.645-.14-1.246-.21-1.806-.21-1.85 0-3.25.588-4.2 1.765-.952 1.177-1.428 2.646-1.428 4.41v11.004h-5.292v-21.84h4.45l.464 3.275c.504-1.26 1.336-2.17 2.5-2.73 1.16-.56 2.386-.84 3.674-.84.53 0 1.077.042 1.638.127v5.038zM92.653 141.35l-6.132-9.535-3.485 3.78v5.754h-5.25v-30.325h5.25v17.347l8.274-8.862h6.593l-7.812 8.442 8.653 13.397h-6.09zM120.708 130.595c-.028.197-.042.38-.042.547v.925H106.05c0 .84.132 1.638.398 2.394.266.757.665 1.387 1.197 1.892.392.363.847.678 1.365.943.518.267 1.14.4 1.87.4.755 0 1.377-.077 1.867-.23.49-.154.932-.428 1.323-.82.504-.504.854-1.12 1.05-1.847h5.04c-.057.645-.272 1.352-.65 2.12-.378.772-.777 1.408-1.197 1.912-.924 1.09-2.03 1.876-3.318 2.352-1.288.477-2.632.714-4.03.714-1.514 0-2.822-.246-3.93-.735s-2.093-1.14-2.96-1.952c-1.092-1.063-1.925-2.338-2.5-3.823-.573-1.483-.86-3.12-.86-4.914 0-1.763.26-3.394.777-4.892.518-1.497 1.31-2.778 2.373-3.843.812-.84 1.8-1.512 2.96-2.017 1.163-.504 2.5-.755 4.013-.755 1.623 0 3.135.33 4.535.987s2.55 1.673 3.444 3.045c.812 1.203 1.33 2.43 1.554 3.674.226 1.246.338 2.554.338 3.925zm-5.25-2.35c-.028-1.596-.477-2.87-1.344-3.822-.364-.392-.82-.7-1.365-.924-.547-.225-1.197-.337-1.954-.337-.812 0-1.526.154-2.142.462-.616.31-1.12.714-1.512 1.218-.393.476-.672.98-.84 1.513s-.266 1.162-.294 1.89h9.45zM139.188 141.35v-13.4c0-1.286-.252-2.296-.756-3.023s-1.456-1.09-2.856-1.09c-.924 0-1.693.258-2.31.776-.616.518-1.106 1.183-1.47 1.995-.364.813-.574 1.758-.63 2.835-.057 1.078-.084 2.078-.084 3.003v8.903h-5.25v-21.84h4.41l.377 2.813c.644-1.148 1.56-1.996 2.75-2.54 1.19-.547 2.416-.82 3.676-.82 1.176 0 2.22.197 3.13.59.908.392 1.68.93 2.31 1.616s1.112 1.51 1.448 2.477.504 2.01.504 3.13v14.573h-5.25zM156.912 140.844c0 1.82-.315 3.354-.945 4.6-.63 1.245-1.87 2.26-3.717 3.045l-1.47-2.438c.615-.28 1.112-.574 1.49-.883.378-.31.672-.65.882-1.03.21-.377.35-.797.42-1.26.07-.462.105-.973.105-1.532h-3.15v-6.553h6.385v6.05zM186.48 141.35l-.336-2.396c-.645 1.008-1.527 1.743-2.646 2.205-1.12.46-2.282.692-3.486.692-1.092 0-2.086-.168-2.98-.504-.897-.336-1.682-.784-2.354-1.345-1.316-1.063-2.29-2.4-2.92-4.012-.63-1.608-.943-3.45-.943-5.522 0-4.34 1.302-7.588 3.905-9.743.672-.56 1.45-.994 2.33-1.303.883-.308 1.884-.462 3.004-.462 1.4 0 2.583.204 3.55.61.966.404 1.686.888 2.163 1.448v-9.996h5.25v30.324l-4.537.003zm-.462-10.964c0-.783-.063-1.588-.19-2.416-.125-.825-.37-1.58-.734-2.267-.364-.686-.868-1.245-1.512-1.68-.645-.435-1.484-.652-2.52-.652-.812 0-1.505.17-2.08.506s-1.057.74-1.448 1.218c-.56.73-.932 1.555-1.113 2.48-.182.923-.27 1.86-.27 2.812 0 .953.09 1.897.27 2.834.183.94.554 1.77 1.114 2.5.392.476.875.882 1.45 1.218.572.336 1.266.504 2.078.504 1.035 0 1.875-.217 2.52-.65.644-.435 1.147-.994 1.512-1.68.364-.687.61-1.45.735-2.29s.188-1.652.188-2.436zM216.258 130.595c-.028.197-.042.38-.042.547v.925H201.6c0 .84.132 1.638.398 2.394.266.757.665 1.387 1.197 1.892.392.363.847.678 1.365.943.518.267 1.14.4 1.87.4.755 0 1.377-.077 1.868-.23.49-.154.93-.428 1.322-.82.504-.504.854-1.12 1.05-1.847h5.04c-.056.645-.272 1.352-.65 2.12-.378.772-.777 1.408-1.197 1.912-.924 1.09-2.03 1.876-3.318 2.352-1.288.477-2.632.714-4.03.714-1.514 0-2.822-.246-3.93-.735s-2.092-1.14-2.96-1.952c-1.092-1.063-1.925-2.338-2.5-3.823-.573-1.483-.86-3.12-.86-4.914 0-1.763.26-3.394.777-4.892.518-1.497 1.31-2.778 2.373-3.843.812-.84 1.8-1.512 2.96-2.017 1.163-.504 2.5-.755 4.013-.755 1.623 0 3.135.33 4.536.987 1.4.658 2.547 1.673 3.443 3.045.812 1.203 1.33 2.43 1.555 3.674.224 1.246.336 2.554.336 3.925zm-5.25-2.35c-.028-1.596-.477-2.87-1.345-3.822-.364-.392-.818-.7-1.364-.924-.548-.225-1.198-.337-1.954-.337-.812 0-1.527.154-2.143.462-.616.31-1.12.714-1.512 1.218-.392.476-.67.98-.84 1.513s-.266 1.162-.293 1.89h9.45zM238.35 134.585c0 1.064-.176 1.99-.526 2.772-.35.784-.805 1.456-1.364 2.016-.896.896-1.99 1.54-3.276 1.933-1.288.392-2.688.588-4.2.588-1.4 0-2.702-.204-3.906-.61s-2.254-1.042-3.15-1.91c-.644-.615-1.19-1.357-1.638-2.226-.448-.867-.672-1.82-.672-2.856h4.914c0 .476.11.95.336 1.427.224.476.504.854.84 1.134.42.336.89.58 1.407.734.518.154 1.155.23 1.91.23.448 0 .932-.034 1.45-.103.518-.07 1-.203 1.45-.4.446-.194.817-.475 1.11-.84.296-.362.442-.84.442-1.428 0-.644-.196-1.16-.588-1.553-.394-.393-.925-.644-1.597-.756-.98-.14-1.99-.26-3.024-.358-1.037-.098-2.045-.258-3.025-.48-.756-.17-1.435-.436-2.036-.8-.605-.363-1.13-.805-1.576-1.322-.448-.518-.792-1.092-1.03-1.723-.237-.63-.356-1.295-.356-1.995 0-1.12.21-2.08.63-2.877.42-.798.952-1.476 1.597-2.036.812-.7 1.777-1.24 2.897-1.617 1.12-.377 2.366-.566 3.738-.566 1.315 0 2.583.21 3.8.63 1.22.42 2.233 1.063 3.047 1.932.588.645 1.056 1.35 1.406 2.12.35.772.525 1.562.525 2.373h-4.998c0-.42-.084-.8-.252-1.135s-.378-.644-.63-.924c-.31-.307-.722-.552-1.24-.734-.518-.182-1.057-.273-1.616-.273-.393 0-.77.016-1.134.043-.364.027-.742.126-1.134.293-.477.195-.875.49-1.197.88-.322.395-.483.87-.483 1.43 0 .784.273 1.322.82 1.616.545.293 1.112.482 1.7.566.504.057.924.104 1.26.147.336.04.672.083 1.008.126.336.04.687.09 1.05.146l1.345.21c1.735.28 3.163.946 4.284 1.996 1.12 1.05 1.68 2.443 1.68 4.177zM243.39 116.484v-5.418h5.627v5.418h-5.628zm.168 24.865v-21.842h5.334v21.84h-5.334zM274.93 144.246c0 1.428-.32 2.618-.965 3.57-.645.95-1.47 1.7-2.478 2.247-1.01.546-2.143.93-3.402 1.155-1.26.224-2.492.336-3.696.336-1.345 0-2.683-.098-4.012-.293-1.33-.196-2.568-.7-3.717-1.512-.84-.59-1.49-1.274-1.952-2.058-.462-.784-.693-1.695-.693-2.73 0-.952.224-1.827.672-2.625.447-.798 1.093-1.407 1.933-1.827-.7-.392-1.24-.93-1.617-1.616s-.567-1.393-.567-2.12c0-1.877.867-3.346 2.604-4.41-.672-.672-1.204-1.457-1.597-2.353s-.588-1.904-.588-3.024c0-1.288.237-2.437.714-3.443.476-1.01 1.12-1.85 1.932-2.52.812-.673 1.757-1.184 2.835-1.534 1.077-.35 2.232-.525 3.465-.525.896 0 1.765.12 2.604.357s1.623.566 2.352.986c.476-.95 1.105-1.646 1.89-2.08s1.64-.65 2.562-.65h.713c.31 0 .547.03.715.085v4.073l-.42-.04c-.616 0-1.17.097-1.66.293s-.817.56-.985 1.09c.756 1.233 1.133 2.55 1.133 3.95 0 1.26-.245 2.38-.735 3.358s-1.14 1.806-1.952 2.48c-.812.67-1.757 1.19-2.835 1.553s-2.205.547-3.38.547c-1.233 0-2.41-.195-3.53-.588-.25.14-.496.343-.733.608-.238.267-.357.58-.357.944 0 .644.26 1.07.777 1.28.518.21 1.057.316 1.617.316h3.61c.533 0 1.107.007 1.724.02.616.016 1.24.07 1.87.17s1.245.245 1.848.44c.602.195 1.155.475 1.66.84.95.644 1.63 1.413 2.035 2.31.405.895.608 1.873.608 2.938zm-4.955.126c0-.67-.183-1.19-.546-1.553-.365-.365-.806-.63-1.323-.8-.52-.168-1.08-.266-1.68-.293-.604-.028-1.156-.042-1.66-.042h-4.115c-.562.168-1.03.482-1.407.944s-.567 1.042-.567 1.74.19 1.246.567 1.64c.378.393.847.693 1.407.902.56.21 1.16.343 1.806.4.644.056 1.218.084 1.722.084.53 0 1.134-.02 1.807-.063.672-.042 1.302-.16 1.89-.356.587-.196 1.085-.498 1.49-.903.405-.407.608-.974.608-1.702zm-2.31-17.388c0-1.176-.344-2.147-1.03-2.918-.686-.77-1.63-1.156-2.835-1.156s-2.15.385-2.835 1.156c-.686.77-1.03 1.742-1.03 2.918s.344 2.143 1.03 2.898c.686.755 1.63 1.134 2.835 1.134s2.15-.38 2.835-1.134c.687-.756 1.03-1.722 1.03-2.898zM292.404 141.35v-13.4c0-1.286-.25-2.296-.757-3.023-.504-.728-1.456-1.09-2.855-1.09-.924 0-1.693.258-2.31.776s-1.106 1.183-1.47 1.995c-.364.813-.574 1.758-.63 2.835-.056 1.078-.084 2.078-.084 3.003v8.903h-5.25v-21.84h4.41l.378 2.813c.644-1.148 1.56-1.996 2.75-2.54 1.19-.547 2.417-.82 3.676-.82 1.176 0 2.22.197 3.13.59.908.392 1.68.93 2.31 1.616.63.685 1.112 1.51 1.448 2.477.337.967.505 2.01.505 3.13v14.573h-5.25zM332.975 141.39l-2.1-2.353c-1.204 1.064-2.528 1.85-3.97 2.353-1.442.504-2.934.756-4.473.756-1.316 0-2.576-.21-3.78-.63s-2.254-1.014-3.15-1.785c-.896-.77-1.61-1.714-2.142-2.834-.532-1.12-.798-2.38-.798-3.78 0-1.848.482-3.43 1.448-4.746.967-1.315 2.247-2.464 3.844-3.444-.476-.504-.91-1-1.302-1.49-.394-.49-.73-.987-1.01-1.49-.28-.505-.496-1.037-.65-1.598-.153-.56-.23-1.19-.23-1.89 0-1.176.217-2.226.65-3.15.436-.924 1.016-1.714 1.744-2.373.728-.657 1.588-1.154 2.583-1.49.992-.336 2.05-.504 3.17-.504 1.092 0 2.135.162 3.13.482.993.323 1.87.798 2.624 1.428.756.63 1.357 1.4 1.807 2.31.448.91.673 1.954.673 3.13 0 .98-.14 1.855-.42 2.625-.28.77-.672 1.47-1.176 2.1-.505.63-1.1 1.212-1.785 1.743-.687.532-1.436 1.037-2.247 1.513l5.165 5.63c.252-.477.428-1.03.525-1.66.098-.63.175-1.295.23-1.995.058-.672.085-1.33.085-1.974v-1.68h7.687v4.158h-3.444c-.056 1.176-.21 2.34-.462 3.485-.25 1.148-.7 2.212-1.343 3.192l5.5 5.964h-6.383zm-12.054-13.188c-.504.31-.966.603-1.385.883-.42.28-.79.602-1.113.966s-.574.778-.756 1.24c-.183.462-.272 1.002-.272 1.616 0 .756.146 1.428.44 2.016.293.59.686 1.078 1.175 1.47.49.394 1.056.688 1.7.883.644.196 1.316.294 2.017.294.896 0 1.79-.128 2.688-.38.896-.25 1.666-.74 2.31-1.47l-6.804-7.518zm5.208-9.702c0-1.035-.314-1.833-.943-2.394-.63-.56-1.423-.84-2.374-.84-.866 0-1.638.26-2.31.777-.67.518-1.007 1.296-1.007 2.33 0 .477.092.925.273 1.345s.405.82.672 1.198c.266.378.566.735.902 1.07l.967.967c.447-.25.902-.51 1.364-.777.463-.266.876-.566 1.24-.903.363-.336.658-.728.883-1.176.224-.45.335-.98.335-1.597zM353.346 116.484v-5.418h5.628v5.418h-5.628zm.167 24.865v-21.842h5.335v21.84h-5.335zM379.007 141.35v-13.4c0-1.286-.25-2.296-.756-3.023-.503-.728-1.455-1.09-2.855-1.09-.924 0-1.693.258-2.31.776-.616.518-1.105 1.183-1.47 1.995-.364.813-.574 1.758-.63 2.835-.057 1.078-.084 2.078-.084 3.003v8.903h-5.25v-21.84h4.41l.38 2.813c.643-1.148 1.56-1.996 2.75-2.54 1.19-.547 2.416-.82 3.675-.82 1.177 0 2.22.197 3.13.59.91.392 1.68.93 2.31 1.616.63.685 1.113 1.51 1.45 2.477s.503 2.01.503 3.13v14.573h-5.25zM403.032 141.054c-1.513.393-3.01.59-4.494.59-2.213 0-3.864-.596-4.957-1.786-1.09-1.19-1.637-2.835-1.637-4.936v-11.088h-3.99v-4.326h3.99v-5.544l5.25-1.302v6.846h5.502v4.326h-5.502v10.626c0 .84.196 1.45.59 1.827.39.378 1.006.567 1.846.567.56 0 1.085-.015 1.575-.042.49-.027 1.1-.084 1.827-.17v4.412zM426.172 130.595c-.028.197-.042.38-.042.547v.925h-14.615c0 .84.132 1.638.397 2.394s.666 1.387 1.198 1.892c.392.363.847.678 1.364.943.518.267 1.14.4 1.87.4.755 0 1.378-.077 1.868-.23.49-.154.93-.428 1.322-.82.505-.504.854-1.12 1.05-1.847h5.04c-.056.645-.272 1.352-.65 2.12-.378.772-.777 1.408-1.196 1.912-.924 1.09-2.03 1.876-3.318 2.352-1.288.477-2.632.714-4.03.714-1.514 0-2.823-.246-3.93-.735-1.105-.488-2.093-1.14-2.96-1.952-1.092-1.063-1.926-2.338-2.5-3.823-.573-1.483-.86-3.12-.86-4.914 0-1.763.26-3.394.778-4.892.517-1.497 1.31-2.778 2.373-3.843.813-.84 1.8-1.512 2.962-2.017 1.16-.504 2.5-.755 4.01-.755 1.625 0 3.138.33 4.538.987s2.548 1.673 3.443 3.045c.812 1.203 1.33 2.43 1.554 3.674.223 1.246.335 2.554.335 3.925zm-5.25-2.35c-.028-1.596-.477-2.87-1.344-3.822-.364-.392-.82-.7-1.365-.924-.547-.225-1.197-.337-1.954-.337-.813 0-1.527.154-2.143.462-.616.31-1.12.714-1.512 1.218-.393.476-.67.98-.84 1.513-.168.532-.267 1.162-.294 1.89h9.452zM444.024 124.38c-.645-.14-1.246-.21-1.807-.21-1.848 0-3.25.588-4.2 1.765-.952 1.177-1.428 2.646-1.428 4.41v11.004h-5.294v-21.84h4.452l.462 3.275c.506-1.26 1.338-2.17 2.5-2.73 1.16-.56 2.386-.84 3.675-.84.53 0 1.077.042 1.638.127v5.038zM467.123 141.096c-.448.196-.833.343-1.155.44-.323.098-.806.147-1.45.147-1.147 0-2.03-.31-2.645-.925s-.966-1.33-1.05-2.143c-.504.896-1.344 1.666-2.52 2.31-1.176.645-2.55.967-4.116.967-1.315 0-2.464-.19-3.443-.567-.98-.377-1.8-.882-2.457-1.51-.658-.63-1.154-1.36-1.49-2.187-.337-.825-.505-1.686-.505-2.583 0-1.035.19-1.96.567-2.77.376-.813.9-1.514 1.574-2.103.672-.588 1.455-1.042 2.352-1.364.896-.32 1.862-.524 2.898-.61l6.426-.46v-1.345c0-1.036-.245-1.87-.735-2.5-.49-.628-1.477-.944-2.96-.944-1.234 0-2.192.266-2.878.797-.687.532-1.057 1.303-1.112 2.31h-5.082c.084-1.23.37-2.295.86-3.19.49-.896 1.14-1.632 1.953-2.206.812-.572 1.75-1 2.814-1.28 1.063-.28 2.21-.42 3.443-.42 1.876 0 3.55.33 5.02.988 1.47.658 2.526 1.812 3.17 3.465.28.7.456 1.427.526 2.184.068.757.103 1.5.103 2.227v8.106c0 .504.09.86.273 1.07.182.21.496.315.944.315.224 0 .378-.014.462-.042.084 0 .154-.015.21-.042v3.866zm-7.014-9.45l-5.545.42c-.812.057-1.54.322-2.184.798s-.967 1.16-.967 2.058c0 .84.316 1.505.945 1.996.63.49 1.35.735 2.163.735 1.653 0 2.997-.428 4.033-1.28 1.035-.855 1.554-2.094 1.554-3.718l.002-1.01zM489.55 133.62c-.056.87-.224 1.717-.503 2.542-.28.825-.672 1.562-1.176 2.205-.755.952-1.77 1.764-3.044 2.436-1.275.672-2.752 1.01-4.433 1.01-1.68 0-3.177-.345-4.494-1.03-1.316-.686-2.353-1.49-3.108-2.415-.812-1.036-1.415-2.227-1.807-3.57-.393-1.345-.59-2.813-.59-4.41 0-1.596.197-3.065.59-4.41.392-1.344.994-2.533 1.807-3.57.756-.923 1.792-1.728 3.107-2.414 1.315-.687 2.813-1.03 4.493-1.03 1.68 0 3.156.336 4.433 1.01 1.273.67 2.29 1.484 3.045 2.436.505.645.897 1.38 1.177 2.205.28.826.446 1.673.504 2.54h-5.165c-.028-.392-.098-.755-.21-1.092-.112-.336-.252-.644-.42-.924-.31-.477-.742-.868-1.303-1.177-.56-.308-1.246-.462-2.06-.462-.728 0-1.35.127-1.868.38-.518.25-.96.573-1.322.965-.645.7-1.05 1.542-1.22 2.52-.167.98-.25 1.99-.25 3.024 0 1.035.084 2.035.25 3.002.17.967.575 1.8 1.22 2.5.363.392.805.72 1.322.985.518.267 1.14.4 1.87.4.81 0 1.497-.153 2.058-.462.56-.308.994-.7 1.302-1.177.17-.28.31-.59.42-.924.112-.336.182-.7.21-1.092h5.167zM506.77 141.054c-1.51.393-3.01.59-4.492.59-2.213 0-3.864-.596-4.957-1.786-1.09-1.19-1.638-2.835-1.638-4.936v-11.088h-3.99v-4.326h3.99v-5.544l5.25-1.302v6.846h5.502v4.326h-5.502v10.626c0 .84.196 1.45.59 1.827s1.008.567 1.847.567c.56 0 1.084-.015 1.575-.042.49-.027 1.098-.084 1.826-.17v4.412zM511.348 116.484v-5.418h5.63v5.418h-5.63zm.17 24.865v-21.842h5.333v21.84h-5.333zM542.136 130.595c-.03.197-.043.38-.043.547v.925h-14.615c0 .84.132 1.638.398 2.394.266.757.666 1.387 1.197 1.892.392.363.847.678 1.364.943.518.267 1.14.4 1.87.4.755 0 1.378-.077 1.868-.23.49-.154.93-.428 1.322-.82.505-.504.854-1.12 1.05-1.847h5.04c-.056.645-.272 1.352-.65 2.12-.378.772-.777 1.408-1.197 1.912-.924 1.09-2.03 1.876-3.317 2.352-1.29.477-2.633.714-4.032.714-1.512 0-2.82-.246-3.927-.735s-2.094-1.14-2.96-1.952c-1.093-1.063-1.927-2.338-2.5-3.823-.574-1.483-.86-3.12-.86-4.914 0-1.763.258-3.394.777-4.892.517-1.497 1.31-2.778 2.373-3.843.812-.84 1.8-1.512 2.96-2.017 1.162-.504 2.5-.755 4.013-.755 1.623 0 3.136.33 4.536.987s2.548 1.673 3.443 3.045c.812 1.203 1.33 2.43 1.554 3.674.223 1.246.336 2.554.336 3.925zm-5.25-2.35c-.03-1.596-.477-2.87-1.345-3.822-.363-.392-.818-.7-1.364-.924-.547-.225-1.197-.337-1.953-.337-.813 0-1.527.154-2.143.462-.616.31-1.12.714-1.512 1.218-.393.476-.67.98-.84 1.513-.168.532-.267 1.162-.294 1.89h9.45z"/></g></svg>