<svg xmlns="http://www.w3.org/2000/svg" width="492.157" height="26.075" viewBox="0 0 492.157 26.075"><path d="M0 .433h2.852l6.63 20.997L15.847.36H18l6.366 21.07L30.996.43h2.75L25.46 25.824h-2.222L16.873 5.366l-6.398 20.458H8.288L0 .434zM37.817.433H54.59v2.593H40.436v8.607h12.662v2.594H40.436v8.823h14.32v2.594h-16.94V.434zM67.944.25h2.453l10.575 25.392h-2.817l-2.718-6.662h-12.63l-2.75 6.662H57.37L67.944.252zm6.463 16.137l-5.27-12.822-5.304 12.82h10.574zM84.876.433h9.98c2.85 0 5.138.937 6.596 2.52 1.127 1.226 1.79 2.99 1.79 4.972v.072c0 4.177-2.65 6.626-6.3 7.348l7.128 10.3h-3.215l-6.73-9.796h-6.63v9.795h-2.618V.433zm9.746 12.856c3.48 0 5.968-1.944 5.968-5.188v-.07c0-3.1-2.188-4.972-5.934-4.972h-7.16v10.23h7.126zM108.176.433h16.773v2.593h-14.155v8.607h12.662v2.594h-12.662v8.823h14.32v2.594H108.18V.434h-.002zM129.718.433h9.978c2.85 0 5.138.937 6.596 2.52 1.127 1.226 1.79 2.99 1.79 4.972v.072c0 4.177-2.652 6.626-6.3 7.348l7.128 10.3h-3.215l-6.73-9.796h-6.63v9.795h-2.618V.433zm9.745 12.856c3.48 0 5.968-1.944 5.968-5.188v-.07c0-3.1-2.187-4.972-5.933-4.972h-7.16v10.23h7.126zM153.016.433h16.773v2.593h-14.155v8.607h12.662v2.594h-12.662v8.823h14.32v2.594H153.02V.434h-.002zM183.144.25h2.453l10.576 25.392h-2.817l-2.72-6.662H178.01l-2.75 6.662h-2.687L183.145.252zm6.464 16.137l-5.27-12.82-5.304 12.82h10.574zM198.09 21.97l1.623-2.09c2.42 2.377 4.74 3.565 7.956 3.565 3.115 0 5.17-1.8 5.17-4.285v-.072c0-2.342-1.158-3.673-6.032-4.79-5.338-1.26-7.79-3.133-7.79-7.275V6.95c0-3.962 3.214-6.878 7.624-6.878 3.38 0 5.8 1.044 8.154 3.098l-1.524 2.196c-2.155-1.91-4.31-2.737-6.696-2.737-3.017 0-4.94 1.8-4.94 4.07v.07c0 2.377 1.194 3.71 6.3 4.898 5.17 1.225 7.56 3.28 7.56 7.132v.072c0 4.32-3.317 7.13-7.924 7.13-3.682 0-6.7-1.33-9.483-4.033zM219.134 13.11v-.073C219.134 6.087 223.94 0 231 0c7.06 0 11.802 6.014 11.802 12.967v.072c0 6.95-4.807 13.035-11.868 13.035s-11.8-6.014-11.8-12.966zm20.95 0v-.073c0-5.726-3.846-10.408-9.15-10.408s-9.083 4.608-9.083 10.335v.072c0 5.727 3.846 10.408 9.15 10.408s9.084-4.61 9.084-10.336zM247.67.433h2.452l14.62 20.206V.432h2.55v25.21h-2.087L250.222 4.97v20.674h-2.553V.434zM281.774.25h2.452L294.8 25.643h-2.818l-2.718-6.662h-12.63l-2.75 6.662h-2.685L281.773.252zm6.464 16.137l-5.27-12.82-5.305 12.82h10.575zM298.705.433h9.88c2.652 0 4.74.828 6.066 2.233.96 1.08 1.493 2.413 1.493 4.034v.072c0 3.277-1.857 4.97-3.68 5.835 2.75.898 4.973 2.628 4.973 6.085v.072c0 4.32-3.35 6.88-8.42 6.88h-10.31V.433zm14.785 6.663c0-2.486-1.822-4.105-5.138-4.105h-7.06v8.68h6.86c3.15 0 5.337-1.548 5.337-4.5v-.074zm-4.874 7.095h-7.325v8.896h7.792c3.514 0 5.7-1.693 5.7-4.5v-.074c0-2.738-2.12-4.32-6.166-4.32zM321.97.433h2.62v22.583h13.06v2.628h-15.68V.434zM341.823.433h16.775v2.593h-14.155v8.607h12.662v2.594h-12.662v8.823h14.32v2.594h-16.94V.434zM363.365.433h8.686c5.24 0 8.687 3.024 8.687 7.996V8.5c0 5.438-4.176 8.246-9.115 8.246h-5.637v8.896h-2.62V.434zm8.354 13.72c3.844 0 6.364-2.232 6.364-5.545v-.073c0-3.602-2.487-5.475-6.233-5.475h-5.866v11.094h5.735zM384.84.433h16.774v2.593H387.46v8.607h12.662v2.594H387.46v8.823h14.32v2.594h-16.94V.434zM405.357 13.11v-.073c0-6.95 4.806-13.037 11.866-13.037s11.8 6.014 11.8 12.967v.072c0 6.95-4.807 13.035-11.866 13.035-7.06 0-11.8-6.014-11.8-12.966zm20.95 0v-.073c0-5.726-3.846-10.408-9.15-10.408s-9.084 4.608-9.084 10.335v.072c0 5.727 3.847 10.408 9.15 10.408 5.305.002 9.083-4.61 9.083-10.336zM433.89.433h8.686c5.238 0 8.686 3.024 8.686 7.996V8.5c0 5.438-4.177 8.246-9.116 8.246h-5.636v8.896h-2.62V.434zm8.355 13.72c3.846 0 6.365-2.232 6.365-5.545v-.073c0-3.602-2.487-5.475-6.233-5.475h-5.867v11.094h5.735zM455.366.433h2.62v22.583h13.06v2.628h-15.682V.434h.002zM475.217.433h16.775v2.593h-14.154v8.607H490.5v2.594h-12.662v8.823h14.32v2.594h-16.94V.434z"/></svg>