<?xml version="1.0" encoding="utf-8"?>
<!-- Generator: Adobe Illustrator 15.0.2, SVG Export Plug-In . SVG Version: 6.00 Build 0)  -->
<!DOCTYPE svg PUBLIC "-//W3C//DTD SVG 1.1//EN" "http://www.w3.org/Graphics/SVG/1.1/DTD/svg11.dtd">
<svg version="1.1" id="Layer_1" xmlns="http://www.w3.org/2000/svg" xmlns:xlink="http://www.w3.org/1999/xlink" x="0px" y="0px"
	 width="750.111px" height="108.41px" viewBox="0 0 750.111 108.41" enable-background="new 0 0 750.111 108.41"
	 xml:space="preserve">
<g id="Layer_2">
</g>
<g id="Layer_1_1_">
	<path fill="#89AD3F" d="M750.112,102.295c0,3.335-2.779,6.115-6.115,6.115H360.115c-3.335,0-6.115-2.78-6.115-6.115V6.115
		c0-3.335,2.78-6.115,6.115-6.115h383.882c3.336,0,6.115,2.78,6.115,6.115V102.295z"/>
	<g>
		<path fill="#1C1C1C" d="M0,86.867V17.234h21.96c7.783,0,13.621,1.529,17.373,4.587c3.893,3.058,5.838,7.505,5.838,13.203
			c0,3.892-1.112,7.089-3.196,9.591c-2.225,2.501-5.143,4.03-8.757,4.586c4.726,0.834,8.34,2.641,10.98,5.699
			c2.641,2.918,3.892,6.671,3.892,11.118c0,6.255-2.363,11.397-7.089,15.15c-4.726,3.752-11.258,5.698-19.597,5.698H0L0,86.867z
			 M22.377,28.492H13.76v15.289h7.645c2.641,0,4.864-0.834,6.949-2.363c2.085-1.528,3.058-3.613,3.058-6.115
			C31.411,31.133,28.354,28.909,22.377,28.492z M13.76,75.331h9.868c3.196,0,5.698-0.834,7.645-2.502
			c1.945-1.668,2.919-4.03,2.919-6.811c0-2.918-1.112-5.42-3.197-7.505c-2.224-2.224-5.281-3.197-9.451-3.197H13.76V75.331z"/>
		<path fill="#1C1C1C" d="M101.183,80.752c-4.447,4.447-10.841,6.671-19.319,6.671s-14.871-2.224-19.319-6.671
			c-4.447-4.448-6.671-10.98-6.671-19.598V17.095h14.594v45.171c0,4.447,0.973,7.783,2.918,10.146
			c1.946,2.363,4.726,3.475,8.479,3.475c3.614,0,6.532-1.111,8.479-3.475c2.085-2.362,3.058-5.698,3.058-10.146V17.095h14.594
			v44.059C107.854,69.771,105.63,76.303,101.183,80.752z"/>
		<path fill="#1C1C1C" d="M171.927,49.479c0,11.258-3.196,20.292-9.729,27.103c-6.533,6.811-15.15,10.285-26.13,10.285h-18.485
			V17.234h21.543c9.868,0,17.79,3.058,23.767,9.034S171.927,40.028,171.927,49.479z M156.916,48.645
			c0-6.255-1.668-11.119-5.143-14.732c-3.335-3.614-7.505-5.421-12.23-5.421h-7.922v46.839h5.42c5.56,0,10.285-2.363,14.177-7.089
			C154.971,63.516,156.916,56.984,156.916,48.645z"/>
		<path fill="#1C1C1C" d="M210.426,87.423c-10.284,0-18.346-3.196-24.322-9.729c-5.977-6.533-9.034-15.15-9.034-25.991
			s2.919-19.458,8.617-25.852s13.76-9.59,23.905-9.59c6.811,0,13.621,1.251,20.57,3.613l-1.807,11.119
			c-2.502-0.973-5.838-1.668-9.868-2.362c-4.03-0.695-7.228-0.974-9.451-0.974c-5.56,0-9.868,2.085-12.926,6.255
			s-4.726,9.868-4.726,17.096c0,7.227,1.668,13.064,5.004,17.929c3.336,4.726,7.645,7.089,12.926,7.089
			c3.058,0,5.837-0.695,8.339-1.946V60.598h-11.536V49.201h25.991V82.28C225.159,85.616,217.932,87.423,210.426,87.423z"/>
		<path fill="#1C1C1C" d="M282.838,86.867h-41.557V17.234h41.557v11.397h-27.102v14.593h24.601V54.9h-24.601v20.569h27.102V86.867z"
			/>
		<path fill="#1C1C1C" d="M303.687,86.867V28.77h-15.983V17.095h46.144V28.77h-15.845v58.097H303.687z"/>
		<path fill="#FAFDFF" d="M417.656,86.867h-41.418V17.234h41.557v11.397h-27.103v14.593h24.462V54.9h-24.601v20.569h27.103V86.867z"
			/>
		<path fill="#FAFDFF" d="M483.118,86.867h-15.149L444.341,43.92v42.809h-14.732V17.095h14.732l24.322,45.031V17.095h14.455V86.867z
			"/>
		<path fill="#FAFDFF" d="M536.35,86.867h-41.557V17.234h41.557v11.397h-27.103v14.593h24.602V54.9h-24.602v20.569h27.103V86.867z"
			/>
		<path fill="#FAFDFF" d="M561.924,56.567h-1.251v30.161h-14.455V17.095h22.099c7.506,0,13.065,1.668,16.817,4.864
			c3.753,3.336,5.56,7.922,5.56,14.038c0,3.752-1.251,7.088-3.892,10.146s-5.698,4.865-9.451,5.281
			c2.642,0.695,4.726,1.946,6.116,3.614c1.528,1.668,2.918,4.447,4.586,8.2l9.868,23.35H583.05l-9.591-22.238
			c-1.39-3.196-2.918-5.281-4.447-6.254C567.484,56.984,565.12,56.567,561.924,56.567z M567.9,28.353h-7.227v16.817h6.254
			c2.641,0,4.726-0.834,6.255-2.641c1.528-1.668,2.224-3.892,2.224-6.394C575.406,30.994,572.904,28.353,567.9,28.353z"/>
		<path fill="#FAFDFF" d="M632.807,87.423c-10.285,0-18.347-3.196-24.462-9.729c-5.977-6.533-9.034-15.15-9.034-25.991
			s2.919-19.458,8.617-25.852c5.699-6.394,13.76-9.59,23.906-9.59c6.811,0,13.62,1.251,20.569,3.613l-1.807,11.119
			c-2.501-0.973-5.837-1.668-9.868-2.362c-4.03-0.695-7.227-0.974-9.45-0.974c-5.56,0-9.868,2.085-12.926,6.255
			c-3.059,4.17-4.726,9.868-4.726,17.096c0,7.227,1.667,13.064,5.003,17.929c3.336,4.726,7.645,7.089,12.926,7.089
			c3.058,0,5.838-0.695,8.34-1.946V60.598H628.36V49.201h25.99V82.28C647.539,85.616,640.312,87.423,632.807,87.423z"/>
		<path fill="#FAFDFF" d="M678.533,86.867h-14.454V17.234h14.454V86.867z"/>
		<path fill="#FAFDFF" d="M730.237,86.867H688.68V17.234h41.557v11.397h-27.103v14.593h24.601V54.9h-24.601v20.569h27.103V86.867z"
			/>
	</g>
</g>
</svg>
