<?xml version="1.0" encoding="utf-8"?>
<!-- Generator: Adobe Illustrator 15.0.2, SVG Export Plug-In . SVG Version: 6.00 Build 0)  -->
<!DOCTYPE svg PUBLIC "-//W3C//DTD SVG 1.1//EN" "http://www.w3.org/Graphics/SVG/1.1/DTD/svg11.dtd">
<svg version="1.1" id="Layer_1" xmlns="http://www.w3.org/2000/svg" xmlns:xlink="http://www.w3.org/1999/xlink" x="0px" y="0px"
	 width="197.659px" height="48.926px" viewBox="0 0 197.659 48.926" enable-background="new 0 0 197.659 48.926"
	 xml:space="preserve">
<g>
	<path fill="#003876" d="M110.108,35.502v9.436c-5.253,2.626-10.214,3.988-15.271,3.988c-13.812,0-22.08-8.171-22.08-18.384
		c0-11.089,9.436-20.232,21.594-20.232c3.016,0,5.252,0.486,7.587,1.362c1.751,0.486,2.724,1.167,3.793,1.167
		c0.876,0,1.168-1.557,1.362-2.529h1.265l1.167,12.742h-1.557c-0.681-2.528-1.848-4.571-3.404-6.03
		c-2.529-2.529-5.934-3.794-9.824-3.794c-8.268,0-13.131,6.614-13.131,16.438c0,9.728,5.934,16.438,13.812,16.438
		c2.334,0,4.474-0.486,7.101-1.751v-9.727c0-3.112-0.487-4.377-4.961-4.377v-1.459h16.729v1.459
		C110.01,30.25,110.108,31.611,110.108,35.502L110.108,35.502z M64.294,20.037v28.207h-2.237l-28.208-29.18
		c0.098,0.777,0.098,1.459,0.098,2.236v17.703c0,5.544,0,7.489,4.961,7.489v1.46H25.679v-1.46c4.961,0,4.961-2.334,4.961-7.489
		V18.772c0-3.016,0-6.322-5.253-6.322v-1.459h12.45l23.247,23.928c-0.097-0.681-0.097-1.07-0.097-1.945V19.939
		c0-5.252,0.097-7.489-4.864-7.489v-1.459h13.229v1.459C64.586,12.547,64.294,14.59,64.294,20.037L64.294,20.037z M0,48.05v-1.459
		c3.112,0,5.35-0.292,5.35-4.863V17.41c0-4.766-1.751-4.863-5.35-4.863v-1.459h18.676v1.459c-3.794,0-5.351,0.098-5.351,4.863
		v24.317c0,4.571,1.945,4.863,5.351,4.863v1.459H0L0,48.05z"/>
	<path fill="none" d="M110.108,35.502v9.436c-5.253,2.626-10.214,3.988-15.271,3.988c-13.812,0-22.08-8.171-22.08-18.384
		c0-11.089,9.436-20.232,21.594-20.232c3.016,0,5.252,0.486,7.587,1.362c1.751,0.486,2.724,1.167,3.793,1.167
		c0.876,0,1.168-1.557,1.362-2.529h1.265l1.167,12.742h-1.557c-0.681-2.528-1.848-4.571-3.404-6.03
		c-2.529-2.529-5.934-3.794-9.824-3.794c-8.268,0-13.131,6.614-13.131,16.438c0,9.728,5.934,16.438,13.812,16.438
		c2.334,0,4.474-0.486,7.101-1.751v-9.727c0-3.112-0.487-4.377-4.961-4.377v-1.459h16.729v1.459
		C110.01,30.25,110.108,31.611,110.108,35.502L110.108,35.502z M64.294,20.037v28.207h-2.237l-28.208-29.18
		c0.098,0.777,0.098,1.459,0.098,2.236v17.703c0,5.544,0,7.489,4.961,7.489v1.46H25.679v-1.46c4.961,0,4.961-2.334,4.961-7.489
		V18.772c0-3.016,0-6.322-5.253-6.322v-1.459h12.45l23.247,23.928c-0.097-0.681-0.097-1.07-0.097-1.945V19.939
		c0-5.252,0.097-7.489-4.864-7.489v-1.459h13.229v1.459C64.586,12.547,64.294,14.59,64.294,20.037L64.294,20.037z M0,48.05v-1.459
		c3.112,0,5.35-0.292,5.35-4.863V17.41c0-4.766-1.751-4.863-5.35-4.863v-1.459h18.676v1.459c-3.794,0-5.351,0.098-5.351,4.863
		v24.317c0,4.571,1.945,4.863,5.351,4.863v1.459H0L0,48.05z"/>
	<g>
		<g>
			<path fill="#FF6600" d="M191.229,15.27c-1.848-1.848-3.891-2.724-5.447-4.571c-0.778-0.778-1.459-1.557-1.945-2.626
				c-0.681-0.682-1.069-1.07-1.848-1.46c0.097,0.39,0.292,0.778,0.389,1.168h-0.097c-0.682,0-1.265-0.39-1.849-0.778l0.486-0.486
				c-0.098-0.292-0.486-0.292-0.778-0.292c-2.14-0.389-4.085,0.778-6.128,1.167v0.292c1.265,0.39,1.557,1.945,2.335,2.724h0.778
				c0.291,0,0.681,0.292,0.875,0.292c0-0.292-0.292-0.778-0.292-0.778c0.292-0.292,0.486-0.292,0.778,0
				c0.681,0.389,1.557-0.292,2.237,0.778c-0.778,0-1.557,0-2.237,0.389c0,0.098,0.389,0.39,0.292,0.681
				c-0.681-0.291-1.459,0-1.653-0.486l-0.098,0.098c0.778,0.875,1.945,1.653,3.112,2.14c1.654,0.292,3.113-0.486,4.863-0.097
				c6.031,2.918,10.214,9.727,10.214,16.438c0,9.728-5.447,13.618-9.046,13.618c-0.682,0-1.654-0.39-2.141-0.778
				c0.39-1.459,0.682-3.016,0.682-5.35c0-5.642-2.237-11.672-5.253-14.785c-1.459-1.459-3.016-2.626-4.669-2.626
				c-0.778,0-1.556,0-2.042,0.681c-0.682,0.486-1.07,1.557-0.876,2.237c-1.069,0.778-2.724,1.167-4.085,1.167
				c-1.459,0-3.308-0.486-4.961-1.848v-1.945c-0.389-0.098-1.751-0.876-1.07-1.557c0.39,0.098,0.682,0.39,0.778,0.486
				c-0.097-0.875-0.097-1.945-0.778-2.724c-0.291,0-0.681,0-1.069-0.291c-0.39-0.39-0.778-0.876-0.778-1.557
				c0.389,0.681,1.07,0.389,1.459,0.778c-0.681-1.557-0.389-2.237-1.557-4.572c-0.291-1.167-1.459-1.848-2.236-2.626
				c-0.39-0.292-0.486-0.681-1.07-0.681c-0.486-0.098-0.486-0.778-0.486-1.167c0.098,0,0.486,0.291,0.778,0.389
				c-0.778-1.848-1.265-3.793-3.016-4.863l-0.389,0.292h-2.043c0.292-0.292,0.778-0.39,1.167-0.681
				c-0.389-0.39-0.681-0.486-1.459-0.486c-0.389,0.097-0.875,0.486-1.459,0.486h-0.097c0-0.39-0.098-0.876,0.681-1.168
				c-0.778-0.097-1.459-0.097-2.335,0c-0.097,0.682-0.486,1.07-0.486,1.557c-0.389,0.292-0.486,0.681-0.875,1.07
				c0-0.778,0.389-1.557,0.486-2.335c-0.486,0.098-1.167,0.486-1.459,0.486C144.443,0.583,143.178,0,142.595,0
				c0.778,0.486,0.389,1.459,0.486,2.14l-0.486-0.292c-0.098-0.486-0.778-0.875-0.876-1.557c-0.777,0-1.264,0.292-1.945,0.682v0.097
				c0.39,0,0.876,0.39,1.168,0.778c-0.876,0-1.557-0.389-2.529-0.389c0,0,0-0.098-0.098-0.098c-0.389,0.098-0.778,0.486-1.069,0.778
				c-0.876,0.778-1.557,1.459-1.945,2.626c0.291,0,0.681,0,0.777,0.098c-0.486,0.097-0.777,0.777-1.264,0.875v1.945
				c-0.39,0.39-0.876,0.778-1.168,1.557c-0.681,2.14-0.777,4.474-0.777,7.101c-0.098,0.486-0.39,0.681-0.682,0.778v2.14
				c0,0,0.778-0.778,1.168-1.07v1.653c-0.486,0-0.876,0.682-0.876,1.07c0,0.486,0.098,1.07,0.098,1.557c0,0.292,0,0.292,0.097,0.486
				c0-0.292,0.292-0.486,0.682-0.682c0,0,0.291-0.291,0.777-0.291c-0.389,0.389-0.486,0.875-0.777,1.459
				c-0.39,0.389-0.39,0.389-0.39,0.389s-0.097,0.292-0.097,0.39c0.486,2.723,1.264,5.058,2.334,7.684
				c-1.07,1.653-2.237,4.961-3.016,8.073c-0.681-0.681-1.556-0.778-2.334-0.778c-0.778,0.098-1.557,0.39-2.14,1.168
				c-0.778-0.39-1.849-0.292-2.335,0.291c-1.167,1.07-1.167,1.557-1.167,2.335c-0.292,0.292-0.778,0.875-0.778,1.848
				c0,1.167,0.098,1.945,0.778,3.016h19.843c-0.098-0.389-0.39-0.876-0.681-1.167c-0.39-0.778-0.098-1.849-0.098-2.627
				c0.389-0.777,0.778-1.556,1.265-2.236c0.097-0.39,0-0.39,0.097-0.486l0.876-0.292c0.486,0,0.875-0.39,1.556-0.39
				c0.39,0.682,0.39-0.389,1.07-0.681c1.459-0.292,2.918,0,3.696,1.07c0,0.292,0.098,0.292,0.098,0.389h-0.682
				c-0.777-0.389-1.653-0.778-2.626-0.389c0,0.389-0.098,0.389-0.098,0.778c0,0.291,0,0.291,0,0.681
				c0.486,0,0.876,0.486,1.459,0.778c0.292-0.39,1.07-0.778,1.557-0.778c0.681,0,1.557,0.389,1.557,1.459v1.459
				c0.486,0.486,1.167,0.681,1.848,0.875c-0.292,0.486-0.681,0.486-1.069,0.486h-1.07c-0.098-0.097-0.389-0.097-0.389-0.486
				c-0.39,0.486-0.682,1.07-0.876,1.557h15.271c-0.292-0.486-0.486-0.875-0.681-1.167c-0.292-0.778-0.292-1.849-0.292-2.627
				l1.459-1.945c0.778,0,1.459-0.291,2.918-0.389c0.292-0.389,0-0.681,1.167-0.681c0.876,0,1.557,0.292,1.849,0.389
				c0.097,0.292,0.097,0.292,0,0.486c-0.292,0.292-0.778-0.292-1.168-0.097c-0.291,0.291,0.098,0.389,0.098,0.681
				c0.292,0.292-1.167-0.292-1.167-0.292s-0.292,0.778-0.39,1.07c0,0,0.486,0.486,0.778,0.777c0.292,0.39-0.389,0.778-0.389,1.168
				c-0.292-0.098-0.778-0.486-0.778-0.39c-0.292,1.07,0,1.945-0.098,3.016h1.459l0.098-2.237c0.098-1.265,1.653-3.696,2.626-3.696
				c0.486,0,0.876,0.292,1.265,0.486c0.292,0.486,0.875,0.778,0.875,1.07s-0.389,0.389-1.069,0.389
				c-0.292,0-0.292-0.389-0.681-0.681l-0.778,0.778c0,0,0.875,0.778,0.875,1.265c0,0.681-0.097,0.875-0.486,1.265l-0.778-1.557
				c-0.389,0-1.069,0.778-1.069,1.167c0,0.486-0.292,0.778-0.292,1.557h8.073c0.875,0,1.653-0.292,2.626-0.778h1.557
				c3.307,0,5.934-0.876,8.268-3.308c3.112-3.112,4.961-8.073,4.961-12.937C197.843,25.289,195.411,19.453,191.229,15.27z
				 M178.487,8.462c-0.292-0.389-0.681,0-0.875,0c-0.292,0-0.39,0-0.876-0.389c0.778,0,1.167-0.39,1.849-0.682
				c0.486,0.39,1.069,0.486,1.459,1.07H178.487L178.487,8.462z M182.669,10.505c-0.389-0.486-0.875-1.168-1.459-1.168
				c0.389,0,0.875-0.389,1.557-0.389c0.291,0.681,0.777,1.07,0.875,1.557l0.098,0.777C183.544,10.699,183.058,10.505,182.669,10.505
				z M161.075,27.72l-0.681,0.292c-1.459,0-2.14-0.389-2.724-0.875c0.486,0,1.167-0.682,1.167-0.682
				C159.52,27.04,160.395,27.624,161.075,27.72z M154.267,26.261c-0.681,0.098-1.167-0.486-1.848-0.778
				c-0.292-0.777-0.292-1.556-0.486-1.945c0.486,0.39,1.75,0.39,1.459,1.557C153.294,25.483,153.878,25.775,154.267,26.261z
				 M154.267,30.638c0.389,0.098,1.07,0.486,1.459,0.778c0,0-0.292,0-0.389,0c-1.459,0.486-2.627-0.389-3.794-1.167
				c0.681-0.292,1.557-0.39,2.335-0.39L154.267,30.638z M154.461,28.499c0.486-0.389,1.168-0.389,1.459-0.486
				c0.486,0.486,1.07,1.459,1.945,1.945c-0.486,0-1.459,0-1.945-0.389C155.143,29.179,154.851,28.887,154.461,28.499z M153.1,36.67
				c0-0.39,0.292-0.778,0.778-1.07c0.777,0.292,1.459-1.459,2.237-0.486c0.389,0.098,0.777,0.098,1.069,0.098
				c0.876,0.389,1.167,1.167,1.557,1.848c-0.681,0-1.167,0-1.557-0.681c-0.097,0-0.389-0.39-0.486-0.098
				c-0.681,0.486-1.265-0.389-2.14-0.292c-0.39,0.39-0.778,0.682-1.459,0.778V36.67L153.1,36.67z M159.616,22.76
				c-0.097,0.486-0.681,0-0.778,0h-1.167c-0.097-0.291-0.292-0.389-0.292-0.681c0.486-0.097,0.876-0.389,1.265-0.097
				C158.936,22.371,159.228,22.76,159.616,22.76z M157.088,17.119c0.291,0.486,0.291,0.777,0.486,1.069
				c0.486-0.292,0.486,0.39,0.681,0.486c0.097,0.39,0.389,0.778,0.389,1.167c-0.778,0-1.167-0.389-1.556-1.167
				C157.088,18.286,156.99,17.8,157.088,17.119z M156.115,23.538l1.264,1.168c-0.777,0-1.653,0.389-2.14-0.39
				C155.531,24.219,155.823,23.83,156.115,23.538z M155.92,13.617c0,0.097-0.291,1.265-0.291,1.265l-1.07,0.292l0.681-2.919
				C155.531,12.839,155.92,13.325,155.92,13.617z M137.342,4.085c0.292,0,0.681-0.098,0.778-0.39
				c0.681-0.097,1.07-0.777,1.849-0.389c0.486,0,1.069,0.292,1.459,0.389c0,0.292,0,0.39,0.291,0.682
				c0.778,0,0.778,0.777,1.168,1.459c0.389,0.097,0.777,0.097,1.069,0.097c0.778,0.292,1.459,0.292,1.653,0.681
				c1.07-0.681,2.141-0.777,3.308-0.681c0.098-0.389,0.389-0.875,0.486-1.556c0.098,0.389,0.098,0,0.389,0
				c0.486-0.39,1.168-1.07,2.141-0.778c0.486,0.389,1.459,0.097,1.945,0.778c0.389,0.486,0.681,1.264,1.069,1.945
				c-0.389,0.778,0,1.848-0.777,2.237l-0.778,0.777c-0.292,0-0.292,0.292-0.682,0.292c0.39,0.876,0.098,2.237-0.291,3.112
				c0.291-0.097,0.681-0.097,0.681-0.486c0.098,0.098,0,0.39,0,0.486c0,0.292,0,0.39,0,0.39c0,0.681-0.39,1.265-0.876,1.848
				c-0.291,0.778-0.875,1.849-1.848,1.945v0.292c1.945,0,3.502,0.486,5.35,1.459v0.876c-1.556-0.876-3.307-1.557-5.252-1.654
				c0,0.39,0,0.778-0.098,0.876c1.557,0.778,3.016,1.459,4.28,2.626v1.167c-1.265-1.265-2.724-2.626-4.475-3.015
				c-0.098,0.291-0.681,0.486-0.778,1.069c-0.875-0.681-1.945-1.265-3.016-1.459c-0.389,0-0.681-1.459-0.681-1.459
				c0.681-0.292,1.07-0.681,1.265-1.265h0.486c0.389,0,0.389-0.291,0.389-0.681c0-0.778-1.653-0.778-2.528-0.778
				c-0.876,0-1.557,0-2.141,0.39c-0.291,0-0.097,0.389-0.097,0.681c0,0.098,0.389,0.389,0.389,0.389
				c0.292,0,0.486-0.292,0.778-0.292c-0.098,0.778,0.098,1.168,0.875,1.557l-0.097,1.265c-1.557,0-2.626,0.681-3.794,1.167
				c-0.389-0.292-0.681-0.681-0.875-1.069c-1.557,0.486-4.28,2.626-4.28,2.626s0-0.486,0-0.876c1.168-1.069,2.724-1.556,3.892-2.236
				v-0.876c-0.487-0.292-1.07,0-1.557,0c-1.167,0.098-2.335,0.681-3.112,1.265c0-0.389-0.098-0.875-0.098-0.875
				c1.459-0.778,3.307-1.459,4.961-1.168c0-0.097,0-0.486,0-0.486c-0.098-0.291-0.098-0.681-0.39-0.681
				c-0.778-0.778-1.556-1.945-1.556-2.724l0.486-0.292c-0.292-0.777-0.486-2.723,0-3.404c-0.778-0.389-1.557-1.069-1.849-1.556
				c-0.292-0.682-0.486-1.07-0.681-1.849C136.759,5.057,136.953,4.863,137.342,4.085z M149.501,28.499
				c-0.682-0.389-1.849-0.486-1.557-1.265c0.292-0.681,0.681-0.778,0.875-1.069C149.015,27.04,149.112,27.72,149.501,28.499z
				 M141.428,24.706l-0.39,1.653c-0.389-0.778-0.778-1.557-0.875-2.529L141.428,24.706z M139.677,26.845
				c-0.778-0.292-1.654-1.07-2.141-1.653c-0.291-0.486-0.389-1.168-0.389-1.557c0.486,0,0.875,0.389,1.07,0.681v0.098
				C138.899,25.094,139.579,25.775,139.677,26.845z M138.315,28.401c0,0.486-0.292,1.168-0.875,1.849
				c-0.098,0.097-0.486,0.389-0.486,0.389c0-0.778,0.389-1.459,0.389-2.14C137.634,28.401,138.023,28.11,138.315,28.401z
				 M139.579,29.958c0.098-0.098,0.292,0,0.486,0l-0.486,1.945c-0.681,0.486-1.557,0.292-2.334,0.292
				C138.315,31.903,139.093,30.736,139.579,29.958z M135.008,9.24c0.292-0.39,0.389-0.778,0.778-1.167v1.556l-0.876,0.292
				L135.008,9.24z M135.008,11.866l1.069-0.389l-0.681,0.777c0.098,1.265-0.389,2.237-0.389,3.405l-0.681-2.141
				C134.522,13.033,134.618,12.547,135.008,11.866z M134.91,27.04c0.098-0.486,0.486-0.778,0.681-0.875
				c0.39,0.097,0.682,0.097,1.168,0.291c-0.682,0.682-1.265,0.876-1.557,1.654C135.105,27.72,135.008,27.332,134.91,27.04z
				 M126.545,44.645c-0.097,0-0.486-0.389-0.875-0.389c-0.389,0.777,0,1.264,0,2.236c0,0.39-0.098,0.778-0.098,0.778
				c-0.291,0-0.777-0.486-0.875-1.069v-2.141l1.167-1.459C126.545,43.186,126.74,43.965,126.545,44.645z M129.561,44.645
				c-0.098-0.486-0.486-1.167-1.167-1.167c-0.486,1.069-0.681,1.459-0.098,3.015c-0.389,0.39-0.681,0.487-1.167,0.778
				c-0.292-0.486-0.292-1.459-0.292-1.945c0-0.875,0.098-1.848,0.39-2.626c0.389-0.389,0.681-1.07,1.069-1.459h1.459
				c-0.681,0-0.681,0.681-0.681,1.07c0.389,0.097,0.875,0.291,0.875,0.875C129.949,43.673,129.755,44.257,129.561,44.645z
				 M132.771,46.396c0-0.681,0.389-1.459,0.389-2.237c0,0-0.486-0.486-1.069-0.486c-0.39,0.292-0.39,0.486-0.486,0.875
				c-0.39,0.778-1.168,1.557-1.265,2.335c-0.098,0-0.098-0.098-0.098-0.098c0-1.265,0.098-3.501,0.876-4.474
				c0.681-0.778,1.167-0.778,1.945-0.876l0.681,0.098l-0.486,0.778c0.486,0.291,1.265,0.777,1.265,1.556
				C134.522,45.034,132.771,46.396,132.771,46.396z M137.732,43.965l-0.876-2.335c-1.069-1.069-2.237-1.167-2.918-1.653
				c-0.486-0.097-0.486,0.292-0.778,0c0-0.292,0-0.681,0.39-1.07h0.778l0.777,0.39c0.39,0.389,1.265,0.389,1.265,1.167
				c0,0.098-0.097,0.292,0.292,0.778l1.265,0.389l0.097,1.07L137.732,43.965z M139.191,41.63c-0.292-0.389,0-1.069-0.39-1.459
				c0-0.291,0.292-0.389,0.098-0.486c-0.098-0.291-1.653-0.778-1.653-0.778c-0.486-0.389-1.168-0.777-1.751-1.264
				c-0.486-0.098-0.876,0.097-1.557,0.291c0-0.097,0-0.291,0-0.291c0.292-0.486,0.292-1.168,1.07-1.168c0.389,0,0.875,0,1.167,0.39
				c0.486,0,0.778,0.486,1.167,0.681c0.682,0.681,1.168,0.875,1.557,1.167c0,0.39,0.098,0.681,0.389,0.778
				c0.778,0,0.486,0.778,0.778,1.265L139.191,41.63z M140.65,38.615c-0.292-0.876-0.876-1.849-1.654-1.849
				c-0.389-0.389-0.777-0.778-0.875-1.167c-0.389-0.389-0.778,0-1.265-0.389c-0.486,0-1.167,0-1.653,0.389v-0.389l0.875-1.07
				c0.876,0.098,2.141,0,2.335,0.681c0.681,0.39,1.265,0.778,1.459,1.07c0,0.097,0,0.097,0,0.389c0.292,0.098,0.778,0.292,1.07,0.39
				C140.746,37.058,140.65,38.615,140.65,38.615z M142.109,32.195c-0.39,0-1.07,0.292-1.849,0c0.39-0.292,0.778-0.389,1.265-0.778
				l1.07-1.07h1.069C143.276,31.125,142.887,31.903,142.109,32.195z M142.497,26.261c0.39,0,0.778,0,1.167,0.292
				c0,0.681,0.292,1.167,0.292,1.945C143.081,27.72,142.497,27.04,142.497,26.261z M142.887,34.14
				c0.097-0.389,0.486-0.486,0.777-0.875c0.292-0.39,0.778-1.07,0.876-1.459c0.681-0.39,0.875-0.39,1.459-0.39
				c-0.098,0.778-0.486,1.07-1.167,1.945C144.443,33.654,143.664,33.752,142.887,34.14z M144.735,36.67l-0.778-1.07h1.945
				l0.39,0.778C145.707,36.766,145.319,36.766,144.735,36.67z M145.61,28.887l-0.291-1.264c0.389-0.292,0.777-0.486,1.264-1.168
				C146.68,27.332,146.486,28.499,145.61,28.887z M147.166,22.079c-0.098,0,0,0.39-0.098,0.39c0,0.291-0.291,0.777-0.291,1.265
				c-0.292,0.097-0.778,0.389-1.265,0.097v-0.389c-0.098-0.292-0.098-0.778-0.098-1.07h-0.194c-0.389,0.098-0.389,0.389-0.389,0.681
				c-0.098,0.292-0.39,0.486-0.39,0.876c-0.486,0-0.778-0.098-1.167-0.39v-1.167c0-0.292,0-0.292-0.098-0.292l-0.681,0.681
				c-0.486-0.389-0.681-1.459-0.681-2.14c2.14-1.167,4.669-0.778,6.322-0.097c0.292,0.097,0.486,0.097,0.778,0.291
				c-0.098,0.778-0.39,1.945-1.167,2.529C147.653,22.76,147.458,22.469,147.166,22.079z M149.501,36.183
				c-0.098,0-1.07-0.39-1.265-0.682c-0.098-0.389-0.098-0.777-0.098-0.777h1.07l0.681,1.459H149.501z M149.501,32.681
				c-0.778-0.681-1.265-1.459-2.141-2.529l2.141,0.39c0.389,0.291,1.167,1.167,1.556,1.556
				C150.863,32.389,150.084,32.681,149.501,32.681z M150.96,27.72c-0.778-1.167-0.39-2.237,0-3.112
				c0.291,0.778,0.389,1.557,0.486,2.237c0.097,0.486,0.875,0.778,1.167,1.167C152.127,28.11,151.251,28.401,150.96,27.72z
				 M151.543,39.393l0.681-1.557c0.486,0,0.876-0.292,1.168-0.292c0.486-0.098,0.875-0.098,1.265-0.098v0.098
				c1.459,0,3.112-0.098,4.182,1.07l0.098,1.069c-0.486-0.389-1.265-0.389-1.557-1.069c-0.486-0.098-0.875-0.098-1.556-0.098
				c-0.486,0.098-1.168,0.098-1.654,0.098c-0.097,0,0-0.098-0.291-0.292C153.1,38.615,152.322,38.615,151.543,39.393z
				 M155.726,44.257l-0.389,0.389c-0.39-0.389-0.098-1.459-0.778-1.557c-0.681,0-1.167-0.681-1.459-0.777l0.486-0.292
				c0,0,0.292-0.098,0.486,0c0.292,0.292,0.486,0.389,0.486,0.681c0.292,0.389,0.681,0,0.875,0.389
				C155.726,43.381,155.823,43.965,155.726,44.257z M159.714,43.965c-0.292-0.778-0.486-1.945-1.459-1.945
				c-0.098-0.486-0.292-0.778-0.778-1.167l-1.07-0.098c0.098,0.486,0.876,0.486,0.39,1.265c0.486,0.389,0.875,0.389,1.167,1.069
				c0.292,0.39,0,0.876,0.098,1.168l-0.778,0.389c0-0.681,0.097-1.945-0.778-2.237c-0.778,0.292-0.875-0.778-1.459-1.167
				c-0.292,0-0.292-0.681-0.681-0.389c-0.682,0.389-1.459,0-2.141,0.389l0.682-1.07c0.486-0.389,1.069-0.291,1.556-0.389l1.07-0.098
				c1.07,0,1.945,0.486,3.016,0.876c0.486,0.292,0.777,0.681,0.777,1.265c0.292,0.097,0.778,0.097,0.778,0.486
				C160.103,42.602,159.908,43.381,159.714,43.965z M161.562,42.019c-0.292-0.39-0.389-0.778-0.681-0.778
				c0.389-1.459-0.389-2.626-0.681-3.794v-0.389c0.389,0.681,1.459,1.265,1.265,1.945C161.562,40.171,161.562,41.241,161.562,42.019
				L161.562,42.019z M160.297,25.678l1.07-0.486c0.389,0.389,0.875,0.486,1.167,0.681C162.048,26.165,161.075,26.261,160.297,25.678
				z M169.149,27.72c0.292,0.292,0.486,0.39,0.778,0.778v1.07c-1.167-0.682-1.848-1.849-2.918-3.016
				C168.079,26.553,168.37,27.624,169.149,27.72z M163.313,28.012c0.39,0.389,0.876,0.875,0.876,1.265
				c0,0.389-0.292,0.486-0.486,0.778c0,0-0.487-0.682-0.487-0.876C163.118,28.596,163.118,28.401,163.313,28.012z M164.48,37.837
				c0-0.778-0.097-1.459-0.681-1.945c0-0.292,0.389-0.292,0.098-0.681c0,0-0.778-0.39-0.778-0.876s0.486-0.875,0.778-1.265
				c0-0.097,0.486,0.292,0.486,1.07c0,0.098,0,0.486-0.098,0.778c-0.098,0.389,0.778,0.389,0.778,0.778
				C165.064,36.378,164.577,37.058,164.48,37.837z M165.842,32.195c0,0.292-0.39,0.486-0.486,0.486c0,0-0.681-0.681-0.778-1.265
				c-0.098-0.486,0.389-1.459,0.389-1.459c0.098,0,0.292,0.292,0.39,0.292c0.097,0.097,0,0.486,0.097,0.875
				C165.842,31.417,166.134,31.903,165.842,32.195z M167.107,39.004c0.291-0.681,0.291-1.945,0-1.945
				c-0.292-0.098-0.778,0-0.778-0.292c0-0.389,0.097-0.875,0.097-1.167c0-0.486-0.389-0.778-0.389-1.07
				c0-0.777,0.875-0.875,1.167-1.459c0.098,0.486,0.098,1.07,0.098,1.654c0,0.291,0.389,1.069,0,1.75
				c0,0.39,0.778,0.098,0.778,0.486C168.079,37.642,167.301,38.42,167.107,39.004z M169.149,35.794
				c-0.389,0-0.389-0.292-0.389-0.778c-0.098-0.777-0.39-1.459-0.681-2.236c-0.292-1.07-0.876-1.946-1.459-3.113
				c-0.098-0.486-0.778-0.778-1.265-1.167c0.681,0,1.265,0,1.848,0.486c0,0.292,0.098,0.389,0.486,0.778
				c0.876,0,0.681,1.167,1.459,1.653c-0.389,0.39-0.486,0.681-0.778,0.876c0.39,0.291,0.778,0.389,0.876,0.777
				C169.246,34.043,169.149,34.919,169.149,35.794z M170.997,34.529c-0.292-0.777-0.778-1.556-1.07-2.334
				c0-0.098-0.097-0.098,0.098-0.292c0.097,0,0.681,0,0.681,0.098c0.098,0.292,0.389,0.681,0.389,1.069
				C171.094,33.654,170.9,34.043,170.997,34.529z M178.098,30.638c-0.292-0.292,0-0.778-0.682-0.778c-0.291,0-0.681,0.39-0.681,0.39
				c-0.292,0.097-1.069-0.39-1.069,0c0,0.681-0.486,0.875-1.168,0.875c-0.291,0-0.486,0-0.777-0.097v-1.265
				c1.75,0,1.556-0.486,2.334-0.486c0.486,0,0.875,0.292,1.265,0.292c0.681,0,0.292-0.292,0.875-0.292
				c0.681,0,0.876,0.486,1.265,0.681c0,0.389,0.389,0.875,0.389,1.459C179.071,31.222,178.195,31.028,178.098,30.638z
				 M178.875,34.14c-0.389-0.098-1.264-0.292-1.264-0.681c0-0.486-0.292-0.681-0.876-0.681c-0.486,0-0.875,0.097-1.653,0.389
				c0,0-0.389-0.486-0.486-1.07c0.292-0.097,1.265-0.389,1.848-0.389c0.876,0,1.849,0,1.849,0.389
				C178.098,32.681,178.875,32.876,178.875,34.14z M177.416,26.845c0.39,0,0.682-0.292,0.876-0.292c0.681,0,1.167,1.07,1.265,1.848
				c-1.07-0.681-2.627-1.069-3.502-1.069c-0.486,0-2.14,0.681-2.626,1.167l-0.292-1.167c0.778-0.098,0.778-0.778,1.265-0.778
				c0.389,0,0.875-0.098,1.265-0.098c0.389,0,0.681-0.291,0.777-0.291C177.222,26.165,177.028,26.845,177.416,26.845z
				 M173.331,25.094c0.39-0.389,1.07-0.875,1.557-0.875c0.875,0,1.653,0.681,1.653,1.264c-0.778,0-0.875-0.097-1.459-0.097
				c-0.681,0-1.459,0.292-1.848,0.875C173.039,25.775,173.235,25.483,173.331,25.094z M173.721,21.69
				c0.486-0.292,0.777-0.098,1.069,0c0,0.778,0.876,0.389,1.459,0.681c0.292,0.389,0.39,0.681,0.486,1.167
				c-0.875-0.292-1.459-0.681-2.237-0.681c-0.291,0-1.459,0.389-1.556,0.681C172.553,23.052,173.235,21.982,173.721,21.69z
				 M176.249,41.63c-0.681-0.389-1.069-0.486-1.848-0.486c0-0.486-0.39-1.167-0.681-1.167c-0.778,0-0.682,0.486-1.265,0.486
				l1.167-1.167c0.098-0.292,0.098-0.292,0.389-0.292c0.39,0.292,0.486,0.39,0.876,0.39c0,0.291,0,0.389-0.098,0.777
				c0.39,0.292,0.681-0.097,0.876,0.292c0.389,0.098,0.777,0.292,0.777,0.778C176.444,41.339,176.249,41.63,176.249,41.63z
				 M177.514,39.782c-0.875-0.098-0.875-1.167-1.07-1.265c-0.681-0.778-1.556-0.098-2.236-0.098
				c-0.292-0.777,0.097-0.777,0.097-1.264c0.39,0,0.778-0.292,1.167,0c0.682-0.292,1.07,0.389,1.751,0.389
				c0.098,0.292,0.39,0.875,0.486,1.07C177.806,39.004,177.612,39.101,177.514,39.782z M178.195,37.058
				c-0.875,0-0.389-1.848-2.334-1.848c-0.39,0-0.681,0.681-1.167,0.777c0-0.097,0.097-0.875,0.097-0.875
				c0-0.292,0.098-0.778,0.681-1.07c1.07,0,0.778,0.39,1.557,0.682c0.389,0.097,0.681,0.389,1.167,0.389V37.058L178.195,37.058z
				 M180.043,42.992c0-0.681-0.778-1.07-1.265-2.237l0.486-0.875c0.389,0.291,0.875,0.681,0.875,1.264c0,0-0.097,0.39,0,0.682
				c0,0.097,0.292,0.097,0.292,0.389C180.14,42.602,180.14,42.602,180.043,42.992z M180.918,40.463l-0.778-1.167
				c0.292-0.389,0.292-0.875,0.682-1.557c0.097,0,0.486,0.876,0.486,1.07C181.308,39.49,181.308,39.782,180.918,40.463z
				 M168.079,43.186c0.486,0.292,0.486,0.875,0.486,1.07c0,0.389-0.292,0.777-0.486,1.069c-0.292-0.292-0.292-0.681-0.486-1.069
				c-0.292,0-0.39,0.681-0.39,0.875c0,1.167,0.486,2.14,0.876,2.918h1.167c-0.098-1.07-0.39-1.945-0.39-3.112
				c0-0.681,0.39-1.459,0.486-1.849L168.079,43.186z M151.251,43.965c-0.291,0-0.875,0.389-0.875,0.681
				c0,0.486-0.292,3.404-0.292,3.404h0.876c0.389-1.167,1.167-2.724,1.167-3.404C152.127,44.061,151.738,43.965,151.251,43.965z
				 M148.139,43.381c-0.292,0-0.681,0.778-0.681,1.07c0,1.069,0.292,2.529,0.681,3.502h1.07c0-1.168,0.097-2.529,0.097-3.502
				C149.112,44.451,149.404,44.743,148.139,43.381z M146.68,42.408l-1.459,0.292c-0.389,0.486-0.486,0.778-0.486,1.07l0.681-0.292
				c0.098,0,0.292,0.292,0.39,0.486c-0.098,0.681-0.876,0.681-1.168,0.875c-0.389,1.265,0.778,2.141,0.876,3.113h1.556
				c-0.681-1.168-0.777-3.016-0.777-3.405C146.291,43.965,146.291,42.992,146.68,42.408z M152.322,8.462h0.389
				c0.39-0.389,0.682,0,0.876-0.389c0.292-0.682,0.292-1.849-0.292-2.529c-0.292-0.486-0.875-0.778-1.557-1.265l-0.875,0.486
				c-0.486,0.292-0.778,0.778-0.778,1.459C150.96,6.711,151.933,7.683,152.322,8.462z M147.069,7.878c0.682,0,0.39,0.876,0.876,1.07
				h1.167c0-0.389-0.097-0.389-0.292-0.389c-0.681,0-0.681-1.07-1.167-0.778c-0.292,0-0.486-0.292-0.875,0
				C146.778,7.878,146.778,7.878,147.069,7.878z M147.458,10.699h-0.292c0.292,1.069,0.292,2.237,0.292,3.404
				c0.486,0.097,1.07,0.389,1.07,1.167c0.486,0.292,1.069,0.39,1.556,0.778c0.292-0.098,0.39-0.486,0.486-0.875
				c-0.486-0.682-1.751-0.292-1.751-1.46l-0.777-0.291c0-0.778,0-1.557-0.098-2.141l0.098-0.097c0,0.097,0.097,0.292,0.389,0.486
				c0.486,0,1.07,0.097,1.557-0.292c0.291-0.098,0.291-0.778,0.486-0.778c0.291,0,0.486,0,0.681-0.292c0,0,0.292,0,0-0.097
				l-2.918-0.39C148.139,10.309,147.458,10.309,147.458,10.699z M144.735,7.683c-0.292-0.292-1.07,0.098-1.459,0.292
				c-0.486,0.098-0.875,0.486-0.875,0.875h1.459C143.956,8.462,144.443,7.975,144.735,7.683z M139.287,7.878
				c0.486-0.389,1.849-1.265,2.529-1.556c-0.098-1.265-1.557-1.459-2.237-1.945h-0.486c-1.07,0.389-1.265,1.459-1.459,2.334
				C138.023,7.878,138.801,7.1,139.287,7.878z M148.139,17.8l1.459,0.486v-0.681h-1.265L148.139,17.8z M140.65,10.699
				c0,0.486,0.389,0.681,0.486,0.778c0.389,0.291,0.486,0.291,0.875,0c0.39,0.291,0.486-0.292,0.681,0c0,0.777,0,1.167-0.097,1.848
				c-0.098,0.875-0.876,0.778-1.557,1.167c0,0.39-0.389,1.07,0,1.459c0.39-0.291,0.681-0.389,1.265-0.681
				c0-0.389,0.389-0.778,0.875-1.07c0-1.167,0.39-2.334,0.39-3.501c0-0.292-0.292-0.486-0.681-0.778h-3.113
				C139.871,10.505,140.26,10.699,140.65,10.699z M141.038,17.41c0,0.292,0,0.486,0.39,0.778c0.389-0.389,1.069-0.486,1.167-0.486
				C142.303,17.119,141.719,17.702,141.038,17.41z"/>
		</g>
	</g>
</g>
</svg>
