<?xml version="1.0" encoding="iso-8859-1"?>
<!-- Generator: Adobe Illustrator 15.0.2, SVG Export Plug-In . SVG Version: 6.00 Build 0)  -->
<!DOCTYPE svg PUBLIC "-//W3C//DTD SVG 1.1//EN" "http://www.w3.org/Graphics/SVG/1.1/DTD/svg11.dtd">
<svg version="1.1" id="Layer_1" xmlns="http://www.w3.org/2000/svg" xmlns:xlink="http://www.w3.org/1999/xlink" x="0px" y="0px"
	 width="444.018px" height="38.068px" viewBox="0 0 444.018 38.068" style="enable-background:new 0 0 444.018 38.068;"
	 xml:space="preserve">
<g>
	<path style="fill:#E7E465;" d="M19.797,29.763H8.276V0.721L19.797,29.763z"/>
	<polygon style="fill:#97C685;" points="42.356,15.794 31.315,15.794 31.315,7.681 44.325,7.681 	"/>
	<polygon style="fill:#F1A7BA;" points="42.356,22.514 31.315,22.514 31.315,29.763 44.325,29.763 	"/>
	<path style="fill:#81C3BD;" d="M67.893,0.721v25.297c0,2.785-2.16,4.465-4.705,4.465c-2.544,0-4.705-1.68-4.705-4.465V0.721H67.893
		z"/>
	<polygon style="fill:#A3D58C;" points="107.492,0 90.451,16.994 90.451,0.721 	"/>
	<polygon style="fill:#AEA5C4;" points="90.451,36.723 90.451,21.026 107.492,38.068 	"/>
	<polygon style="fill:#F1A164;" points="107.492,9.841 98.275,19.01 107.492,28.178 	"/>
	<polygon style="fill:#9B717B;" points="131.731,15.794 120.69,15.794 120.69,7.681 133.7,7.681 	"/>
	<polygon style="fill:#E8E667;" points="131.731,22.514 120.69,22.514 120.69,29.763 133.7,29.763 	"/>
	<path style="fill:#F1A7BA;" d="M147.858,7.921h0.96c6,0,9.553,4.801,9.553,10.801c0,6.001-3.552,10.801-9.553,10.801h-0.96V7.921z"
		/>
	<polygon style="fill:#9B717B;" points="205.554,0.721 205.554,19.778 186.209,0 	"/>
	<polygon style="fill:#97C685;" points="193.649,36.723 193.649,17.666 212.996,37.444 	"/>
	<path style="fill:#EEA062;" d="M242.417,28.754c-1.151,0.865-2.88,1.488-5.328,1.488c-6.625,0-11.137-4.896-11.137-11.521
		c0-6.625,4.512-11.521,11.137-11.521s11.232,4.8,11.232,11.521c0,1.728-0.287,3.312-0.863,4.753l-7.537-7.585l-5.185,5.185
		L242.417,28.754z"/>
	<polygon style="fill:#83C3BD;" points="275.73,15.794 264.689,15.794 264.689,7.681 277.698,7.681 	"/>
	<polygon style="fill:#F0A6B9;" points="275.73,22.514 264.689,22.514 264.689,29.763 277.698,29.763 	"/>
	<polygon style="fill:#9E94BB;" points="303.761,0.721 303.761,19.778 284.416,0 	"/>
	<polygon style="fill:#E7E469;" points="291.857,36.723 291.857,17.666 311.203,37.444 	"/>
	<path style="fill:#EFA067;" d="M326.32,7.921h0.96c6,0,9.553,4.801,9.553,10.801c0,6.001-3.553,10.801-9.553,10.801h-0.96V7.921z"
		/>
	<path style="fill:#9E94B9;" d="M365.968,7.201c6.625,0,11.137,4.896,11.137,11.521c0,6.624-4.512,11.521-11.137,11.521
		s-11.137-4.896-11.137-11.521C354.832,12.098,359.343,7.201,365.968,7.201z"/>
	<polygon style="fill:#E5E468;" points="408.544,15.794 397.503,15.794 397.503,7.681 410.512,7.681 	"/>
	<polygon style="fill:#9AC988;" points="408.544,22.514 397.503,22.514 397.503,29.763 410.512,29.763 	"/>
	<polygon style="fill:#F0A8BA;" points="436.576,0.721 436.576,19.778 417.23,0 	"/>
	<polygon style="fill:#83C5BF;" points="424.672,36.723 424.672,17.666 444.018,37.444 	"/>
</g>
<g>
	<path d="M19.797,36.723H0.835V0.72h7.44v29.042h11.521V36.723z"/>
	<path d="M44.325,36.723h-20.45V0.72h20.45v6.96H31.315v8.113h11.041v6.721H31.315v7.248h13.009V36.723z"/>
	<path d="M51.043,25.97V0.72h7.44v25.298c0,2.784,2.161,4.465,4.705,4.465c2.544,0,4.705-1.681,4.705-4.465V0.72h7.44v25.25
		c0,6.673-5.28,11.474-12.145,11.474S51.043,32.643,51.043,25.97z"/>
	<path d="M90.451,36.723h-7.44V0.72h7.44v16.273L107.492,0v9.841l-9.217,9.169l9.217,9.168v9.889L90.451,21.026V36.723z"/>
	<path d="M133.7,36.723h-20.45V0.72h20.45v6.96H120.69v8.113h11.041v6.721H120.69v7.248H133.7V36.723z"/>
	<path d="M147.858,36.723h-7.44V0.72h7.44c10.369,0,17.954,7.681,17.954,18.001S158.228,36.723,147.858,36.723z M148.819,29.522
		c6,0,9.553-4.8,9.553-10.8S154.819,7.92,148.819,7.92h-0.96v21.602H148.819z"/>
	<path d="M178.53,36.723h-7.44V0.72h7.44V36.723z"/>
	<path d="M212.996,0.72v36.724l-19.346-19.778v19.058h-7.44V0l19.345,19.778V0.72H212.996z"/>
	<path d="M218.272,18.722C218.272,8.353,226,0,237.089,0c6,0,9.984,2.16,13.297,5.424l-5.137,5.088
		c-2.016-2.112-4.992-3.312-8.16-3.312c-6.625,0-11.137,4.896-11.137,11.521s4.512,11.521,11.137,11.521
		c2.448,0,4.177-0.624,5.328-1.488l-7.681-7.681l5.185-5.185l13.01,13.01c-2.881,4.8-9.025,8.545-15.842,8.545
		C226,37.444,218.272,29.09,218.272,18.722z"/>
	<path d="M277.698,36.723h-20.45V0.72h20.45v6.96h-13.009v8.113h11.041v6.721h-11.041v7.248h13.009V36.723z"/>
	<path d="M311.203,0.72v36.724l-19.346-19.778v19.058h-7.441V0l19.346,19.778V0.72H311.203z"/>
	<path d="M326.32,36.723h-7.441V0.72h7.441c10.368,0,17.953,7.681,17.953,18.001S336.688,36.723,326.32,36.723z M327.28,29.522
		c6,0,9.553-4.8,9.553-10.8S333.28,7.92,327.28,7.92h-0.96v21.602H327.28z"/>
	<path d="M365.968,0c11.089,0,18.817,8.353,18.817,18.722c0,10.369-7.729,18.722-18.817,18.722s-18.817-8.354-18.817-18.722
		C347.151,8.353,354.879,0,365.968,0z M365.968,30.243c6.625,0,11.137-4.896,11.137-11.521s-4.512-11.521-11.137-11.521
		s-11.137,4.896-11.137,11.521S359.343,30.243,365.968,30.243z"/>
	<path d="M410.512,36.723h-20.45V0.72h20.45v6.96h-13.009v8.113h11.041v6.721h-11.041v7.248h13.009V36.723z"/>
	<path d="M444.018,0.72v36.724l-19.346-19.778v19.058h-7.442V0l19.346,19.778V0.72H444.018z"/>
</g>
</svg>
