<?xml version="1.0" encoding="utf-8"?>
<!-- Generator: Adobe Illustrator 15.0.2, SVG Export Plug-In . SVG Version: 6.00 Build 0)  -->
<!DOCTYPE svg PUBLIC "-//W3C//DTD SVG 1.1//EN" "http://www.w3.org/Graphics/SVG/1.1/DTD/svg11.dtd">
<svg version="1.1" id="logo" xmlns="http://www.w3.org/2000/svg" xmlns:xlink="http://www.w3.org/1999/xlink" x="0px" y="0px"
	 width="75px" height="19.09px" viewBox="260.14 411.357 75 19.09" enable-background="new 260.14 411.357 75 19.09"
	 xml:space="preserve">
<g>
	<g>
		<path fill="#FFFFFF" d="M318.691,427.636c-1.023,0-1.789-0.853-1.789-1.79v-0.853c0.766,0.171,1.533,0.257,2.301,0.257
			c3.068,0,5.113-1.193,5.113-4.092c0-2.301-1.619-4.603-4.943-4.603c-2.216,0-5.283,1.705-5.283,4.858v4.347
			c0,3.067,2.386,4.687,4.602,4.687h4.688v-2.812H318.691z M316.816,421.499c0-0.937,0.768-2.216,2.471-2.216
			c1.45,0,2.132,0.938,2.132,1.79c0,1.278-1.023,1.534-2.387,1.534c-0.683,0-1.448-0.086-2.13-0.256v-0.853H316.816z"/>
		<path fill="#FFFFFF" d="M261.589,430.447c-0.767,0-1.449-0.596-1.449-1.448v-12.187h2.812v10.824h4.858v2.812H261.589z"/>
		<path fill="#FFFFFF" d="M272.072,416.812c0.767,0,1.449,0.596,1.449,1.449v12.187h-2.813v-10.823h-4.857v-2.812H272.072z"/>
		<circle fill="#FFFFFF" cx="272.157" cy="412.977" r="1.619"/>
		<path fill="#FFFFFF" d="M283.492,422.266v-1.192c0-0.767-0.597-1.449-1.449-1.449h-5.199v-2.812h5.199
			c2.471,0,4.176,1.79,4.176,4.176v8.011c0,0.767-0.596,1.448-1.45,1.448h-4.857c-2.217,0-4.006-2.045-4.006-4.26
			C275.906,421.584,280.083,421.329,283.492,422.266z M279.998,427.636h3.409v-2.813c-4.602-1.277-4.772,0.256-4.772,1.279
			C278.635,426.954,279.231,427.636,279.998,427.636z"/>
		<path fill="#FFFFFF" d="M296.447,430.447v-9.374c0-0.767-0.597-1.449-1.449-1.449h-3.239v10.823h-2.812v-12.187
			c0-0.767,0.597-1.449,1.449-1.449h4.603c2.471,0,4.175,1.79,4.175,4.176v9.459H296.447z"/>
		<path fill="#FFFFFF" d="M332.497,421.329c-0.597-1.278-0.938-1.62-1.705-1.62h-1.363v10.824h-2.812v-12.188
			c0-0.767,0.597-1.449,1.449-1.449h2.727c2.473,0,3.409,1.449,4.348,3.324L332.497,421.329z"/>
		<path fill="#FFFFFF" d="M306.589,427.636c-1.535,0-2.302-2.13-2.302-4.007c0-3.237,0.853-4.346,2.472-4.346
			c0.938,0,1.705,0.426,2.045,0.938v7.415H306.589z M305.906,430.447h4.262c0.768,0,1.449-0.596,1.449-1.448v-17.13h-2.812v5.369
			c-0.34-0.341-1.277-0.682-2.301-0.682c-3.153,0-5.028,2.557-5.028,6.989C301.475,428.146,303.861,430.447,305.906,430.447z"/>
	</g>
</g>
</svg>
