<svg width="175" height="44.3" xmlns="http://www.w3.org/2000/svg"><path d="M0 28.8c0-2.3.4-4.5 1.3-6.4.8-1.9 2-3.5 3.4-4.9 1.4-1.4 3.1-2.4 5.1-3.1 2-.7 4.1-1.1 6.3-1.1s4.3.4 6.3 1.1c2 .7 3.7 1.8 5.1 3.1 1.4 1.4 2.6 3 3.4 4.9.8 1.9 1.3 4 1.3 6.4 0 2.3-.4 4.5-1.3 6.4-.8 1.9-2 3.5-3.4 4.9-1.4 1.4-3.1 2.4-5.1 3.1-2 .7-4.1 1.1-6.3 1.1s-4.3-.4-6.3-1.1c-2-.7-3.7-1.8-5.1-3.1-1.4-1.4-2.6-3-3.4-4.9-.9-2-1.3-4.1-1.3-6.4zm7.4 0c0 1.1.2 2.3.6 3.3.4 1.1 1 2 1.7 2.8.8.8 1.7 1.5 2.7 2 1.1.5 2.3.7 3.6.7 1.4 0 2.6-.2 3.6-.7 1.1-.5 2-1.1 2.7-2 .8-.8 1.3-1.8 1.7-2.8.4-1.1.6-2.2.6-3.3s-.2-2.3-.6-3.3c-.4-1.1-1-2-1.7-2.8-.8-.8-1.7-1.5-2.7-2-1.1-.5-2.3-.7-3.6-.7-1.4 0-2.6.2-3.6.7-1.1.5-2 1.1-2.7 2-.8.8-1.3 1.8-1.7 2.8-.4 1-.6 2.1-.6 3.3zM39 14h7v4.7h.1c.7-1.5 1.8-2.8 3.2-3.8 1.4-1.1 3.4-1.6 5.8-1.6 2 0 3.6.3 5 1s2.5 1.5 3.3 2.6c.9 1.1 1.5 2.3 1.8 3.7.4 1.4.6 2.8.6 4.4v18.6h-7.4v-15c0-.8 0-1.7-.1-2.7-.1-1-.3-1.9-.6-2.8-.3-.9-.9-1.6-1.6-2.2-.7-.6-1.7-.9-3-.9-1.2 0-2.3.2-3.1.6-.8.4-1.5 1-2.1 1.7-.6.7-1 1.5-1.2 2.4-.2.9-.4 1.8-.4 2.8v16.1H39V14zM80.1 31.3c.2 2.2 1.1 3.9 2.6 5.2 1.5 1.2 3.3 1.8 5.3 1.8 1.8 0 3.4-.4 4.6-1.1 1.2-.8 2.3-1.7 3.3-2.9l5.3 4c-1.7 2.1-3.6 3.6-5.8 4.5-2.1.9-4.4 1.4-6.7 1.4-2.2 0-4.3-.4-6.3-1.1-2-.7-3.7-1.8-5.1-3.1-1.4-1.4-2.6-3-3.4-4.9-.8-1.9-1.3-4-1.3-6.4 0-2.3.4-4.5 1.3-6.4.8-1.9 2-3.5 3.4-4.9 1.4-1.4 3.1-2.4 5.1-3.1 2-.7 4.1-1.1 6.3-1.1 2 0 3.9.4 5.6 1.1 1.7.7 3.2 1.8 4.4 3.1 1.2 1.4 2.2 3 2.8 5 .7 2 1 4.3 1 6.9v2H80.1zm15.2-5.5c0-2.2-.7-3.9-2-5.1-1.3-1.3-3.1-1.9-5.5-1.9-2.2 0-4 .6-5.3 1.9-1.3 1.3-2.1 3-2.4 5.1h15.2z"/><g><path d="M134.8 30.2h-7v-4.7h-.1c-.7 1.5-1.8 2.8-3.2 3.8-1.4 1.1-3.4 1.6-5.8 1.6-2 0-3.6-.3-5-1-1.4-.6-2.5-1.5-3.3-2.6-.9-1.1-1.5-2.3-1.8-3.7-.4-1.4-.6-2.8-.6-4.4V.7h7.4v14.9c0 .8 0 1.7.1 2.7.1 1 .3 1.9.6 2.8.3.9.9 1.6 1.6 2.2.7.6 1.7.9 3 .9 1.2 0 2.3-.2 3.1-.6.8-.4 1.5-1 2.1-1.7.6-.7 1-1.5 1.2-2.4.2-.9.4-1.8.4-2.8V.7h7.4v29.5zM143.2.7h7v4.4h.1c1.1-1.8 2.5-3.1 4.3-3.9 1.8-.8 3.7-1.2 5.8-1.2 2.3 0 4.3.4 6.1 1.2 1.8.8 3.3 1.9 4.6 3.3 1.3 1.4 2.2 3 2.9 4.9.7 1.9 1 3.9 1 6.1 0 2.2-.4 4.2-1 6.1-.7 1.9-1.7 3.5-2.9 4.9-1.3 1.4-2.8 2.5-4.5 3.3-1.8.8-3.7 1.2-5.8 1.2-1.4 0-2.6-.1-3.7-.4-1.1-.3-2-.7-2.8-1.1-.8-.4-1.5-.9-2.1-1.4-.6-.5-1-1-1.4-1.5h-.2v17.8h-7.4V.7zm24.4 14.8c0-1.1-.2-2.3-.6-3.3-.4-1.1-1-2-1.7-2.8-.8-.8-1.7-1.5-2.7-2-1.1-.5-2.3-.7-3.6-.7-1.4 0-2.6.2-3.6.7-1.1.5-2 1.1-2.7 2-.8.8-1.3 1.8-1.7 2.8a9.6 9.6 0 0 0-.6 3.3c0 1.1.2 2.3.6 3.3.4 1.1 1 2 1.7 2.8.8.8 1.7 1.5 2.7 2 1.1.5 2.3.7 3.6.7 1.4 0 2.6-.2 3.6-.7 1.1-.5 2-1.1 2.7-2 .8-.8 1.3-1.8 1.7-2.8.4-1.1.6-2.2.6-3.3z"/></g></svg>