<svg xmlns="http://www.w3.org/2000/svg" width="535.309" height="261.38" viewBox="0 0 535.309 261.38"><g fill="#231F20"><path d="M101.27 209.05c0-10.724-.68-19.414-7.52-28.475-6.165-8.197-15.287-13.066-25.89-13.066-11.833 0-21.633 5.36-27.427 15.407v-43.515H7.58v19.107h11.836v81.358H7.58v19.107h44.626v-19.107H40.372v-27.12c0-6.718-.186-12.39 4.438-17.936 3.76-4.685 9.615-7.212 15.78-7.212 6.717 0 12.88 2.527 16.64 8.197 3.575 5.67 3.082 12.204 3.082 18.737v25.27H68.478v19.107h44.625v-19.105H101.27V209.05zM428.555 139.464h-32.913v19.107h12.02v24.1c-7.212-9.183-18.553-14.545-30.202-14.545-25.888 0-46.474 21.265-46.474 46.165 0 24.777 21.08 46.042 46.658 46.042 12.204 0 23.175-4.685 30.017-14.73v13.312h32.792v-19.106h-11.835V139.464h-.062zm-48.2 102.07c-15.284 0-27.61-12.205-27.61-26.936 0-15.225 12.326-27.43 27.98-27.43 14.917 0 27.43 12.082 27.43 26.75 0 15.042-12.206 27.615-27.8 27.615zM188.36 182.3c-6.348-9.676-16.642-15.038-28.476-15.038-26.75 0-48.015 21.572-48.015 47.52 0 25.272 20.77 46.536 47.027 46.536 12.02 0 22.806-4.5 29.524-14.423v12.02h32.79v-19.107h-11.587V188.65h11.526v-19.107h-32.79V182.3zm-27.613 59.05c-14.73 0-27.305-12.02-27.305-26.628 0-15.04 12.02-27.613 27.612-27.613 15.102 0 27.613 11.895 27.613 26.626 0 15.224-12.14 27.613-27.92 27.613zM320.507 204.86c0-10.232-.185-18.06-7.704-26.258-6.72-7.026-16.457-11.032-26.442-11.032-11.34 0-21.633 4.87-27.118 14.73v-12.76h-32.79v19.108h11.834v51.22h-11.834v19.107h44.624v-19.107h-11.834V213.92c0-6.04 0-13.744 3.944-18.737 3.76-4.992 10.294-7.52 16.642-7.52 6.164 0 12.327 2.343 16.148 7.212 3.575 4.87 3.575 10.54 3.575 16.087v28.97h-11.833v19.106h44.624V239.93h-11.833v-35.07zM535.31 214.845c0-12.697-3.76-24.1-12.883-33.47-8.938-8.874-21.635-14.42-34.33-14.42-27.306 0-47.708 21.263-47.708 47.705 0 26.257 21.448 46.72 48.198 46.72 19.046 0 36.058-11.525 43.207-28.6h-21.757c-5.178 7.335-13.067 10.726-22.128 10.726-13.066 0-24.716-9.06-27.428-21.45h74.086l.74-7.21zm-75.012-8.506c2.588-11.712 14.423-21.08 26.75-21.08 13.56 0 25.21 8.197 28.846 21.08h-55.596z"/></g><g fill="#FFF"><path d="M253.077 31.97c-27.305 0-47.706 21.266-47.706 47.708 0 26.257 21.45 46.72 48.2 46.72 19.046 0 36.057-11.526 43.207-28.6h-21.82c-5.176 7.335-13.065 10.725-22.126 10.725-13.065 0-24.715-9.06-27.427-21.45h74.086l.677-7.21c0-12.697-3.76-24.1-12.882-33.47-8.813-8.874-21.51-14.422-34.208-14.422zM225.28 71.357c2.59-11.71 14.423-21.08 26.75-21.08 13.56 0 25.21 8.198 28.846 21.08H225.28zM76.49 47.318c-6.35-9.677-16.642-15.04-28.476-15.04C21.264 32.28 0 53.853 0 79.802c0 25.272 20.77 46.536 47.028 46.536 12.02 0 22.806-4.5 29.523-14.36v11.956h32.792v-19.106H97.878v-51.16h11.465V34.56H76.49v12.758zm-27.612 59.047c-14.73 0-27.305-12.02-27.305-26.626 0-15.04 12.02-27.614 27.612-27.614 15.1 0 27.613 11.896 27.613 26.627.063 15.224-12.142 27.612-27.92 27.612zM361.99 33.635l-3.946.124c-11.094.923-20.647 6.04-25.764 16.086V34.56h-31.25v19.107h11.835v51.22H301.03v19.106h44.625v-19.106H333.82v-22.62c0-8.383 1.05-15.595 7.89-21.265 5.18-4.5 11.342-6.164 18-6.534l3.882-.123h3.205V33.573c0 .062-4.685 0-4.808.062zM193.23 4.48h-32.79v19.047h11.833v81.36H145.46V4.48h-32.79v19.047h11.835v100.405h80.558v-19.045H193.23"/></g><path fill="#00A0DD" d="M507.573 60.632L478.357 6.146c-3.08-5.732-10.17-7.828-15.778-4.685l-53.5 29.833c-2.405 1.356-4.624 3.76-5.672 7.212l-14.36 49.863c-1.727 5.98 1.664 12.204 7.52 13.99l84.38 23.978c5.854 1.726 12.02-1.665 13.744-7.644l13.93-48.938c.923-2.835.368-6.41-1.05-9.122"/><path fill="#FFF" d="M453.95 56.01c4.745-6.842 9.06-13.622 17.072-13.622 8.875 0 13.744 7.458 13.744 13.745l-.062 40.125h-9.984l-.062-37.968c0-5.24-4.19-5.24-4.252-5.24-3.39 0-9.615 8.507-16.52 17.875v25.333H443.78v-11.71s-6.657 11.71-16.703 11.71c-11.342 0-15.225-7.828-15.225-26.504 0-17.812 2.527-27.366 14.67-27.366 9.245 0 17.196 13.498 17.196 13.498V47.32l10.17-13.684c.06.06 0 22.434.06 22.373m-11.957 15.1s-9.244-18.12-15.284-18.12c-4.623 0-5.055 4.93-5.055 16.764s.68 16.457 4.994 16.457c6.04 0 15.347-15.1 15.347-15.1"/></svg>