<svg xmlns="http://www.w3.org/2000/svg" width="540.624" height="73.959" viewBox="0 0 540.624 73.959"><g fill="#231F20"><path d="M277.24 42.282c0-6.505-.423-11.808-4.595-17.252-3.748-4.95-9.263-7.92-15.697-7.92-7.212 0-13.15 3.253-16.687 9.334V0h-19.868v11.596h7.213V60.95h-7.213v11.596h27.08V60.95h-7.21V44.474c0-4.03-.072-7.495 2.686-10.89 2.263-2.827 5.798-4.383 9.546-4.383 4.03 0 7.777 1.556 10.11 4.95 2.192 3.464 1.91 7.423 1.91 11.383V60.88H257.3v11.595h27.082V60.88h-7.213V42.28h.07zM475.857 0h-20.01v11.596h7.282v14.637c-4.385-5.586-11.243-8.84-18.314-8.84-15.696 0-28.212 12.87-28.212 28 0 15.062 12.798 27.93 28.283 27.93 7.424 0 14.07-2.827 18.242-8.908v8.13h19.867V60.95h-7.212V0h.072zm-29.273 61.94c-9.263 0-16.758-7.426-16.758-16.335 0-9.262 7.495-16.687 16.97-16.687 9.05 0 16.687 7.283 16.687 16.263 0 9.193-7.424 16.76-16.9 16.76zM330.06 26.02c-3.818-5.868-10.11-9.12-17.253-9.12-16.263 0-29.13 13.08-29.13 28.848 0 15.344 12.584 28.212 28.493 28.212 7.283 0 13.858-2.757 17.89-8.768v7.283h19.868V60.88h-7V29.767h7V18.313h-19.87v7.708zM313.3 61.87c-8.98 0-16.546-7.282-16.546-16.12 0-9.122 7.283-16.758 16.758-16.758 9.19 0 16.758 7.212 16.758 16.12 0 9.263-7.355 16.758-16.97 16.758zM410.312 39.737c0-6.223-.07-10.96-4.667-15.98-4.03-4.242-9.97-6.717-16.05-6.717-6.86 0-13.152 2.97-16.476 8.91v-7.637h-19.87V29.91h7.213v31.11h-7.212v11.596h27.08V61.02h-7.21V45.252c0-3.677 0-8.343 2.403-11.384 2.263-3.04 6.222-4.596 10.11-4.596 3.748 0 7.495 1.414 9.758 4.384 2.193 2.97 2.193 6.364 2.193 9.758V60.95h-7.212v11.595h27.08V60.95h-7.21V39.736h.072zM540.624 45.747c0-7.707-2.263-14.636-7.778-20.293-5.444-5.373-13.15-8.768-20.788-8.768-16.545 0-28.92 12.87-28.92 28.92 0 15.98 13.012 28.353 29.273 28.353 11.526 0 21.85-7 26.233-17.395H525.28c-3.11 4.454-7.92 6.505-13.435 6.505-7.92 0-14.99-5.515-16.687-13.01h44.97l.496-4.313zm-45.535-5.16c1.554-7.143 8.767-12.8 16.26-12.8 8.203 0 15.274 4.95 17.466 12.8H495.09z"/></g><g fill="#EC2427"><path d="M153.575 16.758c-16.546 0-28.92 12.868-28.92 28.92 0 15.978 13.01 28.353 29.273 28.353 11.525 0 21.85-7 26.232-17.394h-13.223c-3.11 4.455-7.92 6.506-13.435 6.506-7.92 0-14.99-5.516-16.687-13.01h44.97l.424-4.385c0-7.707-2.264-14.636-7.778-20.293-5.442-5.373-13.15-8.696-20.857-8.696zm-16.9 23.828c1.557-7.142 8.77-12.798 16.264-12.798 8.2 0 15.27 4.95 17.464 12.798h-33.728zM46.384 26.02c-3.818-5.868-10.11-9.12-17.253-9.12C12.87 16.9 0 29.98 0 45.747 0 61.09 12.586 73.96 28.495 73.96c7.282 0 13.858-2.758 17.89-8.77v7.284H66.25V60.88h-6.93V29.767h7V18.313H46.385v7.708zM29.626 61.87c-8.98 0-16.545-7.282-16.545-16.12 0-9.122 7.283-16.758 16.758-16.758 9.192 0 16.758 7.212 16.758 16.12 0 9.263-7.354 16.758-16.97 16.758zM219.615 17.677l-2.404.07c-6.716.566-12.514 3.677-15.625 9.758v-9.19h-18.95V29.91h7.213v31.11h-7.212v11.597h27.08V61.02h-7.212V47.303c0-5.09.637-9.475 4.81-12.868 3.11-2.758 6.857-3.748 10.958-3.96l2.334-.07h1.908V17.677h-2.9zM117.232 0H97.364v11.596h7.14V60.95H88.243V0h-19.87v11.596h7.143v60.948h48.929V60.95h-7.212"/></g></svg>