<svg xmlns="http://www.w3.org/2000/svg" width="750.111" height="108.41" viewBox="0 0 750.111 108.41"><path fill="#89AD3F" d="M750.112 102.295c0 3.335-2.78 6.115-6.115 6.115H360.115c-3.335 0-6.115-2.78-6.115-6.115V6.115C354 2.78 356.78 0 360.115 0h383.882c3.336 0 6.115 2.78 6.115 6.115v96.18z"/><path fill="#1C1C1C" d="M0 86.867V17.234h21.96c7.783 0 13.62 1.53 17.373 4.587 3.893 3.06 5.838 7.506 5.838 13.204 0 3.892-1.11 7.09-3.195 9.59-2.225 2.502-5.143 4.03-8.757 4.587 4.726.835 8.34 2.642 10.98 5.7 2.64 2.918 3.892 6.67 3.892 11.118 0 6.255-2.363 11.397-7.09 15.15-4.725 3.752-11.257 5.698-19.596 5.698H0zm22.377-58.375H13.76v15.29h7.645c2.64 0 4.864-.835 6.95-2.364 2.084-1.528 3.057-3.613 3.057-6.115 0-4.17-3.058-6.394-9.035-6.81zm-8.617 46.84h9.868c3.196 0 5.698-.835 7.645-2.503 1.945-1.67 2.92-4.03 2.92-6.812 0-2.918-1.113-5.42-3.198-7.505-2.224-2.224-5.28-3.197-9.45-3.197H13.76V75.33zM101.183 80.752c-4.447 4.447-10.84 6.67-19.32 6.67s-14.87-2.223-19.318-6.67c-4.447-4.448-6.67-10.98-6.67-19.598v-44.06h14.593v45.172c0 4.447.973 7.783 2.918 10.146 1.946 2.363 4.726 3.475 8.48 3.475 3.613 0 6.53-1.11 8.478-3.475 2.085-2.362 3.058-5.698 3.058-10.146v-45.17h14.594v44.058c-.142 8.617-2.366 15.15-6.813 19.598zM171.927 49.48c0 11.257-3.196 20.29-9.73 27.102-6.532 6.81-15.15 10.285-26.13 10.285h-18.484V17.234h21.543c9.868 0 17.79 3.058 23.767 9.034s9.034 13.76 9.034 23.21zm-15.01-.835c0-6.255-1.67-11.12-5.144-14.732-3.335-3.614-7.505-5.42-12.23-5.42h-7.922V75.33h5.42c5.56 0 10.286-2.362 14.178-7.088 3.753-4.726 5.698-11.258 5.698-19.597zM210.426 87.423c-10.284 0-18.346-3.196-24.322-9.73-5.977-6.532-9.034-15.15-9.034-25.99s2.92-19.458 8.617-25.852 13.76-9.59 23.905-9.59c6.81 0 13.62 1.252 20.57 3.614l-1.807 11.12c-2.502-.974-5.838-1.67-9.868-2.363-4.03-.694-7.228-.973-9.45-.973-5.56 0-9.87 2.085-12.927 6.255s-4.726 9.868-4.726 17.096c0 7.227 1.668 13.064 5.004 17.93 3.336 4.725 7.645 7.088 12.926 7.088 3.058 0 5.837-.695 8.34-1.946V60.598h-11.537V49.2h25.99v33.08c-6.948 3.336-14.175 5.143-21.68 5.143zM282.838 86.867H241.28V17.234h41.558V28.63h-27.102v14.594h24.6V54.9h-24.6v20.57h27.102v11.397zM303.687 86.867V28.77h-15.983V17.095h46.144V28.77h-15.845v58.097h-14.316z"/><path fill="#FAFDFF" d="M417.656 86.867h-41.418V17.234h41.557V28.63h-27.103v14.594h24.462V54.9h-24.6v20.57h27.102v11.397zM483.118 86.867h-15.15L444.342 43.92v42.81h-14.73V17.094h14.73l24.323 45.03v-45.03h14.455v69.772zM536.35 86.867h-41.557V17.234h41.557V28.63h-27.103v14.594h24.602V54.9h-24.603v20.57h27.103v11.397zM561.924 56.567h-1.25v30.16h-14.456V17.096h22.1c7.505 0 13.064 1.668 16.816 4.864 3.753 3.335 5.56 7.92 5.56 14.037 0 3.752-1.25 7.088-3.892 10.146s-5.698 4.865-9.45 5.28c2.64.696 4.725 1.947 6.115 3.615 1.528 1.668 2.918 4.447 4.586 8.2l9.868 23.35h-14.87l-9.59-22.238c-1.39-3.196-2.92-5.28-4.448-6.254-1.528-1.112-3.892-1.53-7.088-1.53zm5.976-28.214h-7.227V45.17h6.254c2.64 0 4.726-.834 6.255-2.64 1.528-1.67 2.224-3.893 2.224-6.395 0-5.14-2.502-7.782-7.506-7.782zM632.807 87.423c-10.285 0-18.347-3.196-24.462-9.73-5.977-6.532-9.034-15.15-9.034-25.99s2.92-19.458 8.618-25.852c5.7-6.393 13.76-9.59 23.906-9.59 6.81 0 13.62 1.252 20.57 3.614l-1.808 11.12c-2.5-.974-5.837-1.67-9.868-2.363-4.03-.694-7.227-.973-9.45-.973-5.56 0-9.868 2.085-12.926 6.255-3.06 4.17-4.726 9.868-4.726 17.096 0 7.227 1.667 13.064 5.003 17.93 3.335 4.725 7.644 7.088 12.925 7.088 3.058 0 5.838-.695 8.34-1.946V60.598H628.36V49.2h25.99v33.08c-6.81 3.336-14.038 5.143-21.543 5.143zM678.533 86.867H664.08V17.234h14.453v69.633zM730.237 86.867H688.68V17.234h41.557V28.63h-27.103v14.594h24.6V54.9h-24.6v20.57h27.103v11.397z"/></svg>