<svg xmlns="http://www.w3.org/2000/svg" width="197.659" height="48.926" viewBox="0 0 197.659 48.926"><path fill="#003876" d="M110.108 35.502v9.436c-5.253 2.626-10.214 3.988-15.27 3.988-13.813 0-22.08-8.17-22.08-18.384 0-11.09 9.435-20.232 21.593-20.232 3.017 0 5.253.486 7.588 1.362 1.75.486 2.724 1.167 3.793 1.167.877 0 1.17-1.558 1.363-2.53h1.265l1.167 12.742h-1.557c-.68-2.528-1.848-4.57-3.404-6.03-2.53-2.53-5.934-3.794-9.824-3.794-8.268 0-13.13 6.614-13.13 16.438 0 9.728 5.933 16.438 13.81 16.438 2.335 0 4.475-.486 7.102-1.75v-9.728c0-3.112-.487-4.377-4.96-4.377v-1.46h16.728v1.46c-4.28 0-4.182 1.36-4.182 5.252zM64.294 20.037v28.207h-2.237L33.85 19.064c.097.777.097 1.46.097 2.236v17.703c0 5.544 0 7.49 4.96 7.49v1.46H25.68v-1.46c4.96 0 4.96-2.335 4.96-7.49v-20.23c0-3.017 0-6.323-5.253-6.323v-1.46h12.45l23.247 23.93c-.097-.682-.097-1.07-.097-1.946V19.94c0-5.253.097-7.49-4.864-7.49v-1.46h13.23v1.46c-4.767.097-5.06 2.14-5.06 7.587zM0 48.05v-1.46c3.112 0 5.35-.29 5.35-4.862V17.41c0-4.766-1.75-4.863-5.35-4.863v-1.46h18.676v1.46c-3.794 0-5.35.098-5.35 4.863v24.317c0 4.57 1.944 4.863 5.35 4.863v1.46H0z"/><path fill="none" d="M110.108 35.502v9.436c-5.253 2.626-10.214 3.988-15.27 3.988-13.813 0-22.08-8.17-22.08-18.384 0-11.09 9.435-20.232 21.593-20.232 3.017 0 5.253.486 7.588 1.362 1.75.486 2.724 1.167 3.793 1.167.877 0 1.17-1.558 1.363-2.53h1.265l1.167 12.742h-1.557c-.68-2.528-1.848-4.57-3.404-6.03-2.53-2.53-5.934-3.794-9.824-3.794-8.268 0-13.13 6.614-13.13 16.438 0 9.728 5.933 16.438 13.81 16.438 2.335 0 4.475-.486 7.102-1.75v-9.728c0-3.112-.487-4.377-4.96-4.377v-1.46h16.728v1.46c-4.28 0-4.182 1.36-4.182 5.252zM64.294 20.037v28.207h-2.237L33.85 19.064c.097.777.097 1.46.097 2.236v17.703c0 5.544 0 7.49 4.96 7.49v1.46H25.68v-1.46c4.96 0 4.96-2.335 4.96-7.49v-20.23c0-3.017 0-6.323-5.253-6.323v-1.46h12.45l23.247 23.93c-.097-.682-.097-1.07-.097-1.946V19.94c0-5.253.097-7.49-4.864-7.49v-1.46h13.23v1.46c-4.767.097-5.06 2.14-5.06 7.587zM0 48.05v-1.46c3.112 0 5.35-.29 5.35-4.862V17.41c0-4.766-1.75-4.863-5.35-4.863v-1.46h18.676v1.46c-3.794 0-5.35.098-5.35 4.863v24.317c0 4.57 1.944 4.863 5.35 4.863v1.46H0z"/><path fill="#F60" d="M191.23 15.27c-1.85-1.848-3.892-2.724-5.448-4.57-.778-.78-1.46-1.558-1.945-2.627-.68-.682-1.07-1.07-1.848-1.46.096.39.29.778.388 1.168h-.097c-.68 0-1.264-.39-1.848-.777l.486-.486c-.098-.292-.486-.292-.778-.292-2.14-.39-4.085.778-6.128 1.167v.292c1.265.39 1.557 1.945 2.335 2.724h.778c.29 0 .68.292.875.292 0-.292-.292-.778-.292-.778.292-.292.486-.292.778 0 .68.39 1.557-.292 2.237.778-.778 0-1.557 0-2.237.39 0 .097.39.39.292.68-.68-.29-1.46 0-1.653-.486l-.098.098c.778.875 1.945 1.653 3.112 2.14 1.653.292 3.112-.486 4.862-.097 6.03 2.918 10.214 9.727 10.214 16.438 0 9.728-5.447 13.618-9.046 13.618-.682 0-1.654-.39-2.14-.777.39-1.46.68-3.016.68-5.35 0-5.642-2.236-11.672-5.252-14.785-1.46-1.46-3.016-2.626-4.67-2.626-.777 0-1.555 0-2.04.68-.683.487-1.07 1.558-.877 2.238-1.068.778-2.723 1.167-4.084 1.167-1.46 0-3.308-.486-4.96-1.848v-1.946c-.39-.098-1.752-.876-1.07-1.557.39.098.68.39.777.486-.097-.875-.097-1.945-.778-2.724-.29 0-.68 0-1.07-.292-.39-.39-.777-.876-.777-1.557.39.682 1.07.39 1.46.78-.682-1.558-.39-2.238-1.558-4.573-.29-1.167-1.46-1.848-2.236-2.626-.39-.29-.486-.68-1.07-.68-.486-.098-.486-.778-.486-1.167.098 0 .486.29.778.39-.778-1.85-1.265-3.794-3.016-4.864l-.39.29h-2.042c.292-.29.778-.39 1.167-.68-.39-.39-.68-.486-1.46-.486-.388.097-.874.486-1.458.486h-.097c0-.39-.098-.876.68-1.168-.777-.097-1.458-.097-2.334 0-.097.682-.486 1.07-.486 1.557-.39.29-.486.68-.875 1.07 0-.78.39-1.558.486-2.336-.485.098-1.166.486-1.458.486-1.07-.487-2.334-1.07-2.917-1.07.778.486.39 1.46.486 2.14l-.485-.292c-.098-.486-.778-.875-.876-1.557-.778 0-1.265.293-1.946.683v.097c.39 0 .876.39 1.168.778-.876 0-1.557-.39-2.53-.39 0 0 0-.097-.097-.097-.39.1-.778.487-1.07.78-.875.777-1.556 1.458-1.944 2.625.292 0 .682 0 .778.098-.486.097-.777.777-1.264.875v1.945c-.39.39-.876.778-1.168 1.557-.68 2.14-.777 4.474-.777 7.1-.1.487-.39.682-.683.78v2.14s.778-.78 1.168-1.07v1.652c-.486 0-.876.682-.876 1.07 0 .486.097 1.07.097 1.557 0 .29 0 .29.097.485 0-.292.292-.486.682-.682 0 0 .29-.29.777-.29-.39.388-.486.874-.777 1.458l-.39.39s-.097.292-.097.39c.485 2.723 1.263 5.058 2.333 7.684-1.07 1.653-2.237 4.96-3.016 8.073-.68-.68-1.556-.778-2.334-.778-.778.097-1.557.39-2.14 1.167-.778-.39-1.85-.292-2.335.29-1.167 1.07-1.167 1.558-1.167 2.336-.29.292-.777.875-.777 1.848 0 1.168.098 1.946.778 3.017h19.844c-.098-.39-.39-.876-.68-1.167-.39-.778-.1-1.85-.1-2.627.39-.777.78-1.556 1.266-2.236.097-.39 0-.39.097-.486l.876-.29c.486 0 .875-.39 1.556-.39.39.68.39-.39 1.07-.682 1.458-.292 2.917 0 3.695 1.07 0 .292.098.292.098.39h-.682c-.776-.39-1.652-.78-2.625-.39 0 .39-.098.39-.098.778v.68c.486 0 .876.487 1.46.78.29-.39 1.07-.78 1.556-.78.68 0 1.557.39 1.557 1.46v1.46c.486.485 1.167.68 1.848.874-.292.486-.68.486-1.07.486h-1.07c-.097-.097-.388-.097-.388-.486-.39.486-.682 1.07-.876 1.557h15.27c-.29-.486-.485-.875-.68-1.167-.292-.778-.292-1.85-.292-2.627l1.46-1.945c.777 0 1.458-.29 2.917-.39.29-.388 0-.68 1.166-.68.876 0 1.557.292 1.85.39.096.29.096.29 0 .485-.293.292-.78-.292-1.17-.097-.29.29.1.39.1.68.29.293-1.168-.29-1.168-.29s-.292.777-.39 1.07l.778.776c.292.39-.39.778-.39 1.168-.29-.098-.777-.486-.777-.39-.293 1.07 0 1.945-.1 3.016h1.46l.098-2.237c.098-1.266 1.653-3.697 2.626-3.697.486 0 .876.292 1.265.486.29.485.874.777.874 1.07s-.39.388-1.07.388c-.29 0-.29-.39-.68-.68l-.778.777s.875.778.875 1.265c0 .68-.096.875-.485 1.265l-.778-1.557c-.39 0-1.07.778-1.07 1.167 0 .486-.29.778-.29 1.557h8.072c.874 0 1.652-.292 2.625-.778h1.557c3.307 0 5.934-.876 8.268-3.308 3.112-3.112 4.96-8.073 4.96-12.937.193-5.35-2.24-11.187-6.42-15.37zm-12.743-6.808c-.292-.39-.68 0-.875 0-.292 0-.39 0-.876-.39.778 0 1.167-.39 1.85-.68.485.39 1.068.485 1.458 1.07h-1.557zm4.182 2.043c-.39-.486-.876-1.168-1.46-1.168.39 0 .875-.39 1.557-.39.29.682.777 1.07.875 1.558l.098.777c-.196-.583-.682-.777-1.07-.777zM161.074 27.72l-.68.292c-1.46 0-2.14-.39-2.725-.875.486 0 1.167-.682 1.167-.682.683.585 1.558 1.17 2.238 1.265zm-6.808-1.46c-.68.1-1.167-.485-1.848-.777-.293-.777-.293-1.556-.487-1.945.486.39 1.75.39 1.46 1.557-.1.388.485.68.874 1.166zm0 4.378c.39.098 1.07.486 1.46.778h-.39c-1.46.486-2.627-.39-3.794-1.167.68-.293 1.557-.39 2.335-.39l.39.778zm.194-2.14c.487-.388 1.17-.388 1.46-.485.486.486 1.07 1.46 1.945 1.945-.486 0-1.46 0-1.945-.39-.777-.39-1.07-.68-1.46-1.07zm-1.36 8.172c0-.39.292-.778.778-1.07.777.292 1.46-1.46 2.237-.486.39.098.777.098 1.07.098.875.39 1.166 1.167 1.556 1.848-.68 0-1.166 0-1.556-.68-.097 0-.39-.39-.486-.1-.68.487-1.265-.388-2.14-.29-.39.39-.778.68-1.46.777v-.097h.002zm6.516-13.91c-.097.486-.68 0-.778 0h-1.167c-.096-.29-.29-.39-.29-.68.485-.098.875-.39 1.264-.098.292.39.584.778.972.778zm-2.528-5.64c.29.485.29.776.486 1.068.486-.292.486.39.68.486.098.39.39.778.39 1.167-.778 0-1.167-.388-1.556-1.166 0-.388-.098-.874 0-1.555zm-.973 6.418l1.264 1.168c-.778 0-1.654.39-2.14-.39.29-.097.583-.486.875-.778zm-.195-9.92c0 .096-.29 1.264-.29 1.264l-1.07.292.68-2.92c.29.585.68 1.07.68 1.363zm-18.578-9.533c.292 0 .68-.098.778-.39.68-.097 1.07-.777 1.85-.39.485 0 1.068.293 1.458.39 0 .292 0 .39.29.682.78 0 .78.777 1.17 1.46.388.096.776.096 1.068.096.778.292 1.46.292 1.653.68 1.07-.68 2.14-.776 3.307-.68.098-.39.39-.875.486-1.556.098.39.098 0 .39 0 .485-.39 1.167-1.07 2.14-.778.486.388 1.46.096 1.945.777.39.486.68 1.264 1.07 1.945-.39.778 0 1.848-.778 2.237l-.778.776c-.292 0-.292.292-.682.292.39.876.098 2.237-.29 3.112.29-.097.68-.097.68-.486.098.098 0 .39 0 .486v.39c0 .68-.39 1.265-.876 1.848-.29.778-.875 1.85-1.848 1.945v.292c1.945 0 3.502.486 5.35 1.46v.875c-1.556-.876-3.307-1.557-5.252-1.654 0 .39 0 .778-.098.876 1.557.778 3.016 1.46 4.28 2.626v1.167c-1.265-1.265-2.724-2.626-4.475-3.015-.097.29-.68.486-.777 1.07-.875-.682-1.945-1.266-3.016-1.46-.39 0-.68-1.46-.68-1.46.68-.29 1.07-.68 1.264-1.264h.487c.39 0 .39-.29.39-.68 0-.78-1.654-.78-2.53-.78-.875 0-1.556 0-2.14.39-.29 0-.097.39-.097.682 0 .098.39.39.39.39.29 0 .485-.293.777-.293-.098.778.098 1.168.875 1.557l-.097 1.265c-1.557 0-2.626.68-3.794 1.167-.388-.292-.68-.68-.874-1.07-1.557.487-4.28 2.627-4.28 2.627v-.875c1.168-1.07 2.724-1.556 3.892-2.236v-.877c-.487-.292-1.07 0-1.557 0-1.166.098-2.334.68-3.11 1.265 0-.39-.1-.875-.1-.875 1.46-.778 3.308-1.46 4.962-1.168v-.486c-.098-.292-.098-.682-.39-.682-.778-.778-1.556-1.945-1.556-2.724l.486-.292c-.292-.777-.486-2.723 0-3.404-.778-.39-1.557-1.07-1.85-1.556-.29-.682-.485-1.07-.68-1.85.587-.875.78-1.07 1.17-1.847zm12.16 24.414c-.683-.39-1.85-.487-1.558-1.266.292-.68.68-.778.875-1.07.195.876.292 1.556.68 2.335zm-8.074-3.794l-.39 1.653c-.39-.78-.778-1.558-.875-2.53l1.265.876zm-1.75 2.14c-.78-.293-1.655-1.07-2.142-1.654-.29-.486-.39-1.168-.39-1.557.487 0 .876.39 1.07.68v.1c.683.68 1.363 1.36 1.46 2.43zm-1.363 1.555c0 .487-.292 1.17-.875 1.85-.098.097-.486.39-.486.39 0-.78.39-1.46.39-2.14.29-.1.68-.39.97-.1zm1.264 1.558c.097-.098.29 0 .485 0l-.486 1.945c-.682.486-1.558.292-2.335.292 1.07-.292 1.848-1.46 2.334-2.237zM135.007 9.24c.292-.39.39-.778.778-1.167V9.63l-.876.29.098-.68zm0 2.626l1.07-.39-.682.778c.098 1.265-.39 2.237-.39 3.405l-.68-2.142c.196-.485.292-.97.682-1.652zm-.098 15.174c.098-.486.486-.778.68-.875.39.097.683.097 1.17.29-.683.683-1.266.877-1.558 1.655-.097-.39-.194-.778-.292-1.07zm-8.365 17.605c-.097 0-.486-.39-.875-.39-.39.778 0 1.265 0 2.237 0 .39-.098.778-.098.778-.29 0-.777-.486-.875-1.07v-2.14l1.167-1.46c.68.586.876 1.365.68 2.045zm3.016 0c-.097-.486-.485-1.167-1.166-1.167-.486 1.07-.68 1.46-.098 3.015-.39.39-.68.487-1.167.778-.293-.485-.293-1.458-.293-1.944 0-.875.098-1.848.39-2.626.39-.39.68-1.07 1.07-1.46h1.458c-.68 0-.68.682-.68 1.07.388.098.874.292.874.876 0 .487-.195 1.07-.39 1.46zm3.21 1.75c0-.68.39-1.458.39-2.236 0 0-.486-.487-1.07-.487-.39.292-.39.486-.485.875-.39.778-1.168 1.557-1.265 2.335-.098 0-.098-.098-.098-.098 0-1.265.098-3.5.876-4.474.68-.777 1.167-.777 1.945-.875l.68.098-.485.778c.486.292 1.265.778 1.265 1.557 0 1.167-1.752 2.53-1.752 2.53zm4.962-2.43l-.876-2.335c-1.07-1.07-2.237-1.167-2.918-1.653-.486-.097-.486.292-.778 0 0-.292 0-.68.39-1.07h.778l.777.39c.39.39 1.265.39 1.265 1.167 0 .098-.097.292.292.778l1.265.39.097 1.07-.292 1.263zm1.46-2.335c-.293-.39 0-1.07-.39-1.46 0-.29.29-.388.097-.485-.1-.29-1.654-.778-1.654-.778-.486-.39-1.168-.777-1.75-1.264-.487-.098-.877.097-1.558.29v-.29c.292-.486.292-1.168 1.07-1.168.39 0 .875 0 1.167.39.486 0 .778.486 1.167.68.682.682 1.168.876 1.557 1.168 0 .39.097.68.388.778.778 0 .486.78.778 1.266l-.875.874zm1.458-3.015c-.292-.876-.876-1.85-1.654-1.85-.39-.388-.777-.777-.875-1.166-.388-.39-.777 0-1.264-.39-.486 0-1.167 0-1.653.39v-.39l.875-1.07c.876.098 2.14 0 2.335.68.68.39 1.265.78 1.46 1.07v.39c.29.098.777.292 1.07.39-.197.388-.293 1.945-.293 1.945zm1.46-6.42c-.39 0-1.07.292-1.85 0 .39-.292.778-.39 1.265-.778l1.07-1.07h1.07c-.39.778-.778 1.556-1.556 1.848zm.387-5.934c.39 0 .778 0 1.167.293 0 .68.292 1.167.292 1.945-.875-.778-1.46-1.458-1.46-2.237zm.39 7.88c.097-.39.486-.486.777-.875.292-.39.778-1.07.876-1.46.68-.39.875-.39 1.46-.39-.1.78-.487 1.07-1.168 1.946-.39.294-1.168.392-1.945.78zm1.848 2.53l-.778-1.07h1.945l.39.778c-.585.388-.973.388-1.557.292zm.875-7.783l-.29-1.264c.388-.292.776-.486 1.263-1.168.097.877-.097 2.044-.973 2.432zm1.556-6.808c-.098 0 0 .39-.098.39 0 .29-.29.776-.29 1.264-.293.097-.78.39-1.266.097v-.388c-.098-.292-.098-.778-.098-1.07h-.194c-.39.098-.39.39-.39.68-.097.293-.39.487-.39.877-.485 0-.777-.1-1.166-.39V22.37c0-.292 0-.292-.098-.292l-.68.68c-.487-.388-.682-1.458-.682-2.14 2.14-1.166 4.67-.777 6.322-.096.292.097.486.097.778.29-.098.78-.39 1.946-1.167 2.53-.094-.584-.29-.875-.58-1.265zm2.335 14.103c-.097 0-1.07-.39-1.264-.682-.098-.388-.098-.776-.098-.776h1.07l.68 1.46h-.387zm0-3.502c-.777-.68-1.264-1.458-2.14-2.528l2.14.39c.39.29 1.168 1.167 1.557 1.556-.194.29-.973.583-1.556.583zm1.46-4.96c-.778-1.167-.39-2.237 0-3.112.29.778.39 1.557.486 2.237.097.486.875.778 1.167 1.167-.486.098-1.362.39-1.653-.292zm.583 11.673l.68-1.557c.487 0 .877-.292 1.17-.292.485-.098.874-.098 1.264-.098v.098c1.46 0 3.112-.098 4.182 1.07l.097 1.07c-.486-.39-1.265-.39-1.557-1.07-.486-.098-.875-.098-1.556-.098-.486.098-1.168.098-1.654.098-.097 0 0-.098-.29-.292-.78.293-1.558.293-2.337 1.07zm4.183 4.864l-.39.39c-.39-.39-.097-1.46-.777-1.558-.682 0-1.168-.682-1.46-.778l.486-.292s.292-.098.486 0c.292.292.486.39.486.68.292.39.68 0 .875.39.293.29.39.875.293 1.167zm3.988-.292c-.292-.778-.486-1.945-1.46-1.945-.097-.486-.29-.778-.777-1.167l-1.07-.098c.098.486.876.486.39 1.265.486.39.875.39 1.167 1.07.292.39 0 .875.098 1.167l-.778.39c0-.682.097-1.946-.778-2.238-.778.29-.875-.78-1.46-1.168-.29 0-.29-.68-.68-.39-.682.39-1.46 0-2.14.39l.68-1.07c.487-.39 1.07-.29 1.557-.39l1.07-.097c1.07 0 1.945.486 3.016.876.485.293.776.682.776 1.266.292.097.778.097.778.486 0 .29-.196 1.07-.39 1.653zm1.848-1.946c-.292-.39-.39-.78-.68-.78.388-1.458-.39-2.625-.682-3.793v-.39c.39.682 1.46 1.266 1.265 1.946.097 1.168.097 2.238.097 3.016zm-1.265-16.342l1.07-.486c.39.39.875.486 1.167.68-.486.293-1.46.39-2.237-.194zm8.852 2.042c.29.292.485.39.777.778v1.07c-1.167-.682-1.848-1.85-2.918-3.016 1.07 0 1.36 1.072 2.14 1.168zm-5.837.292c.39.39.876.875.876 1.265 0 .39-.293.486-.487.778 0 0-.487-.682-.487-.876-.098-.584-.098-.78.097-1.168zm1.167 9.825c0-.778-.097-1.46-.68-1.945 0-.292.388-.292.097-.68 0 0-.778-.39-.778-.877s.485-.875.777-1.265c0-.097.486.292.486 1.07 0 .098 0 .486-.098.778-.098.39.778.39.778.778 0 .682-.486 1.362-.583 2.14zm1.362-5.642c0 .292-.39.486-.486.486 0 0-.68-.68-.778-1.264-.098-.486.39-1.46.39-1.46.097 0 .29.293.39.293.096.096 0 .485.096.874.388.293.68.78.388 1.07zm1.265 6.81c.29-.682.29-1.946 0-1.946-.292-.1-.778 0-.778-.293 0-.39.096-.875.096-1.167 0-.486-.39-.778-.39-1.07 0-.777.876-.875 1.168-1.46.098.487.098 1.07.098 1.655 0 .29.39 1.07 0 1.75 0 .39.778.098.778.486 0 .682-.78 1.46-.973 2.044zm2.042-3.21c-.39 0-.39-.293-.39-.78-.098-.776-.39-1.458-.68-2.235-.293-1.07-.877-1.946-1.46-3.113-.098-.486-.778-.778-1.265-1.167.68 0 1.265 0 1.848.486 0 .292.098.39.486.778.875 0 .68 1.167 1.458 1.653-.39.39-.486.68-.778.876.39.29.778.39.876.777 0 .973-.097 1.85-.097 2.724zm1.847-1.266c-.292-.778-.778-1.557-1.07-2.335 0-.098-.097-.098.098-.292.097 0 .68 0 .68.098.1.293.39.682.39 1.07 0 .584-.195.973-.098 1.46zm7.1-3.892c-.29-.292 0-.778-.68-.778-.292 0-.682.39-.682.39-.292.097-1.07-.39-1.07 0 0 .68-.485.875-1.167.875-.29 0-.486 0-.777-.097v-1.265c1.75 0 1.557-.486 2.335-.486.486 0 .875.292 1.265.292.68 0 .292-.293.875-.293.68 0 .876.486 1.265.68 0 .39.39.876.39 1.46-.78-.195-1.655-.39-1.752-.78zm.778 3.502c-.39-.098-1.264-.292-1.264-.68 0-.487-.29-.682-.875-.682-.486 0-.875.097-1.653.39 0 0-.39-.487-.486-1.07.292-.098 1.265-.39 1.848-.39.876 0 1.85 0 1.85.39-.196.583.58.778.58 2.042zm-1.46-7.295c.39 0 .683-.292.877-.292.68 0 1.167 1.07 1.265 1.848-1.07-.68-2.627-1.068-3.502-1.068-.486 0-2.14.68-2.626 1.167l-.293-1.168c.778-.098.778-.778 1.265-.778.39 0 .875-.098 1.265-.098.39 0 .68-.29.777-.29.778 0 .584.68.972.68zm-4.084-1.75c.39-.39 1.07-.876 1.558-.876.875 0 1.653.68 1.653 1.263-.777 0-.874-.097-1.458-.097-.68 0-1.46.292-1.848.875-.195-.485 0-.777.097-1.166zm.39-3.405c.487-.292.778-.098 1.07 0 0 .778.876.39 1.46.68.29.39.39.682.485 1.168-.875-.292-1.46-.68-2.237-.68-.29 0-1.46.388-1.556.68-.39-.486.293-1.556.78-1.848zm2.53 19.94c-.682-.39-1.07-.486-1.85-.486 0-.486-.39-1.167-.68-1.167-.778 0-.682.486-1.265.486l1.167-1.167c.098-.292.098-.292.39-.292.39.292.485.39.875.39 0 .29 0 .39-.098.777.39.293.68-.096.875.293.39.098.777.292.777.778.002.1-.193.39-.193.39zm1.264-1.848c-.875-.098-.875-1.167-1.07-1.265-.68-.778-1.556-.098-2.236-.098-.292-.778.097-.778.097-1.265.39 0 .778-.292 1.167 0 .682-.292 1.07.39 1.75.39.1.29.39.874.487 1.07.096.39-.098.486-.196 1.167zm.68-2.724c-.874 0-.388-1.848-2.333-1.848-.39 0-.68.68-1.166.777 0-.097.097-.875.097-.875 0-.292.1-.778.682-1.07 1.07 0 .778.39 1.557.682.388.097.68.39 1.166.39v1.944zm1.85 5.934c0-.68-.78-1.07-1.266-2.237l.486-.875c.39.29.875.68.875 1.264 0 0-.098.39 0 .682 0 .097.29.097.29.39-.29.386-.29.386-.387.776zm.874-2.53l-.778-1.166c.292-.39.292-.875.682-1.557.097 0 .486.875.486 1.07 0 .68 0 .972-.39 1.653zm-12.84 2.724c.487.292.487.875.487 1.07 0 .39-.292.777-.486 1.07-.293-.293-.293-.682-.487-1.07-.292 0-.39.68-.39.875 0 1.168.486 2.14.876 2.92h1.166c-.098-1.07-.39-1.946-.39-3.113 0-.68.39-1.46.486-1.85l-1.263.1zm-16.827.78c-.29 0-.874.388-.874.68 0 .486-.292 3.404-.292 3.404h.876c.39-1.167 1.167-2.724 1.167-3.404 0-.585-.39-.68-.876-.68zm-3.11-.585c-.293 0-.682.78-.682 1.07 0 1.07.292 2.53.68 3.503h1.07c0-1.168.098-2.53.098-3.502-.194 0 .098.293-1.167-1.07zm-1.46-.972l-1.46.292c-.388.486-.485.778-.485 1.07l.68-.292c.1 0 .293.292.39.486-.097.68-.875.68-1.167.875-.39 1.264.778 2.14.876 3.112h1.556c-.68-1.168-.777-3.016-.777-3.405-.002-.582-.002-1.555.387-2.14zm5.642-33.946h.39c.39-.39.68 0 .875-.39.292-.68.292-1.848-.292-2.528-.292-.486-.875-.778-1.557-1.265l-.875.485c-.486.292-.778.778-.778 1.46.875.486 1.848 1.458 2.237 2.237zm-5.253-.584c.68 0 .39.876.875 1.07h1.167c0-.39-.097-.39-.292-.39-.68 0-.68-1.07-1.167-.777-.292 0-.486-.29-.875 0 0 .098 0 .098.29.098zm.388 2.82h-.292c.292 1.07.292 2.238.292 3.405.486.097 1.07.39 1.07 1.167.486.292 1.07.39 1.556.778.292-.098.39-.486.486-.875-.486-.682-1.75-.292-1.75-1.46l-.778-.29c0-.78 0-1.558-.098-2.142l.098-.096c0 .097.097.292.39.486.485 0 1.07.097 1.556-.292.29-.098.29-.778.486-.778.29 0 .486 0 .68-.292 0 0 .293 0 0-.097l-2.917-.39c-.098.49-.78.49-.78.88zm-2.723-3.015c-.292-.292-1.07.098-1.46.292-.485.098-.874.486-.874.875h1.46c.096-.388.583-.875.875-1.167zm-5.448.195c.486-.39 1.85-1.265 2.53-1.556-.1-1.265-1.558-1.46-2.238-1.945h-.487c-1.07.39-1.265 1.46-1.46 2.334.39 1.168 1.168.39 1.654 1.168zm8.852 9.922l1.458.486v-.68h-1.265l-.194.194zm-7.49-7.1c0 .485.39.68.486.777.39.29.486.29.875 0 .39.29.487-.292.682 0 0 .777 0 1.167-.097 1.848-.098.875-.876.778-1.557 1.167 0 .39-.39 1.07 0 1.46.39-.292.68-.39 1.265-.682 0-.39.39-.778.875-1.07 0-1.167.39-2.334.39-3.5 0-.293-.292-.487-.68-.78h-3.114c.097.585.486.78.876.78zm.388 6.71c0 .292 0 .486.39.778.39-.39 1.07-.486 1.167-.486-.292-.583-.876 0-1.557-.292z"/></svg>