<svg xmlns="http://www.w3.org/2000/svg" width="444.018" height="38.068" viewBox="0 0 444.018 38.068"><path d="M19.797 29.763H8.277V.72l11.52 29.043z" fill="#E7E465"/><path fill="#97C685" d="M42.356 15.794h-11.04V7.68h13.01"/><path fill="#F1A7BA" d="M42.356 22.514h-11.04v7.25h13.01"/><path d="M67.893.72V26.02c0 2.785-2.16 4.465-4.705 4.465-2.544 0-4.705-1.68-4.705-4.465V.72h9.41z" fill="#81C3BD"/><path fill="#A3D58C" d="M107.492 0l-17.04 16.994V.72"/><path fill="#AEA5C4" d="M90.45 36.723V21.026l17.042 17.042"/><path fill="#F1A164" d="M107.492 9.84l-9.217 9.17 9.217 9.168"/><path fill="#9B717B" d="M131.73 15.794h-11.04V7.68h13.01"/><path fill="#E8E667" d="M131.73 22.514h-11.04v7.25h13.01"/><path d="M147.858 7.92h.96c6 0 9.553 4.802 9.553 10.802s-3.55 10.8-9.552 10.8h-.96v-21.6z" fill="#F1A7BA"/><path fill="#9B717B" d="M205.554.72V19.78L186.21 0"/><path fill="#97C685" d="M193.65 36.723V17.666l19.346 19.778"/><path d="M242.417 28.754c-1.15.865-2.88 1.488-5.328 1.488-6.626 0-11.138-4.896-11.138-11.52 0-6.626 4.512-11.522 11.137-11.522s11.23 4.8 11.23 11.52c0 1.73-.286 3.313-.862 4.754l-7.537-7.585-5.184 5.184 7.68 7.68z" fill="#EEA062"/><path fill="#83C3BD" d="M275.73 15.794h-11.04V7.68h13.008"/><path fill="#F0A6B9" d="M275.73 22.514h-11.04v7.25h13.008"/><path fill="#9E94BB" d="M303.76.72V19.78L284.417 0"/><path fill="#E7E469" d="M291.857 36.723V17.666l19.346 19.778"/><path d="M326.32 7.92h.96c6 0 9.553 4.802 9.553 10.802s-3.553 10.8-9.553 10.8h-.96v-21.6z" fill="#EFA067"/><path d="M365.968 7.2c6.625 0 11.137 4.897 11.137 11.522 0 6.624-4.512 11.52-11.137 11.52s-11.137-4.895-11.137-11.52c.002-6.624 4.513-11.52 11.138-11.52z" fill="#9E94B9"/><path fill="#E5E468" d="M408.544 15.794h-11.04V7.68h13.008"/><path fill="#9AC988" d="M408.544 22.514h-11.04v7.25h13.008"/><path fill="#F0A8BA" d="M436.576.72V19.78L417.23 0"/><path fill="#83C5BF" d="M424.672 36.723V17.666l19.346 19.778"/><g><path d="M19.797 36.723H.835V.72h7.44v29.042h11.52v6.96zM44.325 36.723h-20.45V.72h20.45v6.96h-13.01v8.113h11.04v6.72h-11.04v7.25h13.01v6.96zM51.043 25.97V.72h7.44v25.298c0 2.784 2.16 4.465 4.705 4.465 2.544 0 4.705-1.68 4.705-4.465V.72h7.44v25.25c0 6.673-5.28 11.474-12.145 11.474s-12.145-4.8-12.145-11.474zM90.45 36.723h-7.44V.72h7.44v16.273L107.493 0v9.84l-9.217 9.17 9.217 9.168v9.89l-17.04-17.042v15.697zM133.7 36.723h-20.45V.72h20.45v6.96h-13.01v8.113h11.04v6.72h-11.04v7.25h13.01v6.96zM147.858 36.723h-7.44V.72h7.44c10.37 0 17.954 7.68 17.954 18s-7.584 18.003-17.954 18.003zm.96-7.2c6 0 9.554-4.8 9.554-10.8S154.82 7.92 148.82 7.92h-.96v21.602h.96zM178.53 36.723h-7.44V.72h7.44v36.003zM212.996.72v36.724L193.65 17.666v19.058h-7.44V0l19.345 19.778V.72h7.44zM218.272 18.722C218.272 8.352 226 0 237.09 0c6 0 9.983 2.16 13.296 5.424l-5.137 5.088C243.232 8.4 240.256 7.2 237.09 7.2c-6.626 0-11.138 4.896-11.138 11.52s4.512 11.522 11.137 11.522c2.447 0 4.176-.624 5.327-1.488l-7.68-7.68 5.184-5.186 13.01 13.01c-2.88 4.8-9.024 8.545-15.84 8.545-11.09 0-18.818-8.353-18.818-18.72zM277.698 36.723h-20.45V.72h20.45v6.96h-13.01v8.113h11.042v6.72h-11.04v7.25h13.008v6.96zM311.203.72v36.724l-19.346-19.778v19.058h-7.44V0l19.345 19.778V.72h7.44zM326.32 36.723h-7.44V.72h7.44c10.368 0 17.953 7.68 17.953 18s-7.585 18.003-17.953 18.003zm.96-7.2c6 0 9.553-4.8 9.553-10.8S333.28 7.92 327.28 7.92h-.96v21.602h.96zM365.968 0c11.09 0 18.817 8.353 18.817 18.722 0 10.37-7.73 18.722-18.817 18.722S347.15 29.09 347.15 18.722C347.15 8.352 354.88 0 365.97 0zm0 30.243c6.625 0 11.137-4.896 11.137-11.52S372.593 7.2 365.968 7.2s-11.137 4.897-11.137 11.522 4.513 11.52 11.138 11.52zM410.512 36.723h-20.45V.72h20.45v6.96h-13.01v8.113h11.042v6.72h-11.04v7.25h13.008v6.96zM444.018.72v36.724l-19.346-19.778v19.058h-7.442V0l19.346 19.778V.72h7.442z"/></g></svg>