<svg xmlns="http://www.w3.org/2000/svg" width="75" height="19.09" viewBox="260.14 411.357 75 19.09"><g fill="#FFF"><path d="M318.69 427.636c-1.022 0-1.788-.853-1.788-1.79v-.853c.766.17 1.533.257 2.3.257 3.07 0 5.114-1.193 5.114-4.092 0-2.3-1.62-4.603-4.943-4.603-2.216 0-5.283 1.705-5.283 4.858v4.347c0 3.067 2.386 4.687 4.602 4.687h4.688v-2.812h-4.69zm-1.874-6.137c0-.938.768-2.217 2.47-2.217 1.45 0 2.133.938 2.133 1.79 0 1.278-1.024 1.534-2.388 1.534-.683 0-1.448-.086-2.13-.256v-.852h-.086zM261.59 430.447c-.768 0-1.45-.596-1.45-1.448V416.81h2.812v10.824h4.858v2.812h-6.22zM272.072 416.812c.767 0 1.45.596 1.45 1.45v12.186h-2.814v-10.823h-4.857v-2.812h6.222z"/><circle cx="272.157" cy="412.977" r="1.619"/><path d="M283.492 422.266v-1.192c0-.767-.597-1.45-1.45-1.45h-5.198v-2.81h5.2c2.47 0 4.175 1.79 4.175 4.175V429c0 .767-.597 1.448-1.45 1.448h-4.858c-2.217 0-4.006-2.045-4.006-4.26 0-4.604 4.177-4.86 7.586-3.922zm-3.494 5.37h3.41v-2.813c-4.603-1.277-4.773.256-4.773 1.28 0 .85.596 1.533 1.363 1.533zM296.447 430.447v-9.374c0-.767-.597-1.45-1.45-1.45h-3.238v10.824h-2.813V418.26c0-.767.597-1.45 1.45-1.45h4.602c2.47 0 4.174 1.79 4.174 4.177v9.46h-2.727zM332.497 421.33c-.597-1.28-.938-1.62-1.705-1.62h-1.363v10.823h-2.813v-12.188c0-.767.597-1.45 1.45-1.45h2.726c2.473 0 3.41 1.45 4.348 3.325l-2.643 1.11zM306.59 427.636c-1.536 0-2.303-2.13-2.303-4.007 0-3.238.853-4.347 2.472-4.347.937 0 1.704.426 2.044.938v7.416h-2.215zm-.684 2.81h4.262c.768 0 1.45-.595 1.45-1.447v-17.13h-2.813v5.368c-.34-.34-1.277-.682-2.3-.682-3.154 0-5.03 2.557-5.03 6.99 0 4.6 2.386 6.9 4.43 6.9z"/></g></svg>