<svg xmlns="http://www.w3.org/2000/svg" width="377.787" height="70.495" viewBox="0 0 377.787 70.495"><g fill="#FFF"><path d="M5.728 24.748c.99.99 2.333 1.838 3.89 2.615 1.625.778 3.393 1.202 5.302 1.202.495 0 .92-.07 1.414-.142.495-.07.92-.212 1.344-.424s.707-.496.99-.85c.282-.354.354-.777.354-1.343 0-.92-.495-1.627-1.414-2.263-.92-.566-2.334-1.202-4.172-1.77l-1.98-.635c-1.13-.355-2.19-.78-3.322-1.345-1.134-.563-2.124-1.2-3.043-1.977S3.466 16.12 2.9 15.06c-.567-1.06-.85-2.262-.85-3.747 0-1.626.283-3.04.92-4.455.637-1.344 1.485-2.545 2.687-3.606C6.79 2.262 8.273 1.414 9.97.848 11.667.283 13.647 0 15.91 0c1.767 0 3.322.142 4.736.495 1.414.283 2.687.707 3.747 1.13s1.98.92 2.758 1.486c.78.496 1.345.99 1.698 1.415l-4.81 5.94c-1.27-.92-2.544-1.627-3.888-2.193-1.344-.566-2.758-.85-4.172-.85-.495 0-.92.072-1.414.143s-.85.283-1.272.495c-.354.212-.707.495-.92.778-.21.354-.353.708-.353 1.203 0 .495.14.99.423 1.344.283.354.637.707 1.132.99.494.282 1.06.495 1.696.777.638.214 1.345.426 2.122.708l1.697.495c1.2.354 2.474.85 3.676 1.344 1.272.495 2.404 1.202 3.394 2.05.99.85 1.84 1.91 2.476 3.183.636 1.272.99 2.828.99 4.666 0 1.627-.355 3.04-1.132 4.384-.778 1.344-1.84 2.546-3.11 3.465-1.273.99-2.83 1.697-4.597 2.263s-3.677.778-5.657.778c-3.605 0-6.575-.425-8.98-1.344S1.7 32.95 0 31.395l5.728-6.647zM31.96 1.06h9.475v26.587H58.05v8.13H32.03V1.062h-.07zM76.647 36.484c-2.688 0-5.162-.424-7.425-1.343s-4.242-2.19-5.868-3.817-2.97-3.535-3.89-5.798c-.92-2.263-1.413-4.667-1.413-7.283s.495-5.09 1.415-7.282c.92-2.263 2.19-4.172 3.89-5.798 1.625-1.626 3.604-2.9 5.867-3.748C71.485.494 73.96.07 76.647.07c2.687 0 5.16.425 7.424 1.344 2.264.92 4.243 2.192 5.87 3.748 1.626 1.626 2.898 3.536 3.89 5.798.918 2.263 1.413 4.666 1.413 7.282s-.495 5.09-1.414 7.283c-.92 2.263-2.193 4.172-3.89 5.798-1.627 1.626-3.606 2.9-5.87 3.818s-4.737 1.344-7.423 1.344zm0-8.626c1.414 0 2.616-.282 3.747-.777 1.06-.494 1.98-1.2 2.758-2.05.777-.85 1.344-1.91 1.697-3.04.423-1.202.564-2.404.564-3.748 0-1.343-.212-2.545-.565-3.747-.426-1.202-.99-2.192-1.698-3.04-.707-.85-1.697-1.556-2.758-2.05s-2.333-.78-3.747-.78-2.616.284-3.748.78c-1.062.494-1.98 1.2-2.758 2.05-.778.848-1.344 1.91-1.697 3.04-.425 1.202-.565 2.404-.565 3.747 0 1.344.212 2.546.565 3.748.424 1.202.99 2.19 1.697 3.04s1.696 1.556 2.757 2.05c1.13.566 2.403.778 3.747.778zM115.96 36.484c-2.688 0-5.162-.424-7.425-1.343s-4.242-2.19-5.87-3.817c-1.625-1.626-2.97-3.535-3.888-5.798s-1.414-4.667-1.414-7.283.495-5.09 1.414-7.282c.92-2.263 2.192-4.172 3.89-5.798 1.626-1.626 3.605-2.9 5.868-3.748C110.798.494 113.272.07 115.96.07c2.687 0 5.16.425 7.424 1.344 2.263.92 4.242 2.192 5.868 3.748 1.626 1.626 2.9 3.536 3.89 5.798.92 2.263 1.413 4.666 1.413 7.282s-.494 5.09-1.414 7.283c-.918 2.263-2.19 4.172-3.888 5.798-1.626 1.626-3.606 2.9-5.868 3.818-2.263.92-4.737 1.344-7.425 1.344zm0-8.626c1.413 0 2.615-.282 3.747-.777 1.06-.494 1.98-1.2 2.757-2.05.778-.85 1.344-1.91 1.697-3.04.425-1.202.566-2.404.566-3.748 0-1.343-.212-2.545-.565-3.747-.423-1.202-.99-2.192-1.696-3.04-.777-.85-1.696-1.556-2.757-2.05s-2.334-.78-3.748-.78-2.617.284-3.748.78c-1.06.494-1.98 1.2-2.758 2.05-.777.848-1.344 1.91-1.697 3.04-.424 1.202-.565 2.404-.565 3.747 0 1.344.212 2.546.565 3.748.425 1.202.99 2.19 1.697 3.04.778.85 1.697 1.556 2.758 2.05 1.13.566 2.404.778 3.747.778zM138.16 1.06h14.566c1.91 0 3.677.284 5.232.78 1.556.494 2.9 1.2 3.96 2.19 1.13.92 1.98 2.123 2.545 3.607.637 1.414.92 3.11.92 4.95 0 1.767-.283 3.393-.92 4.808-.636 1.414-1.484 2.687-2.545 3.676-1.06.99-2.404 1.77-3.89 2.335-1.484.565-3.182.777-5.02.777h-5.586v11.525h-9.263V1.06zm13.79 15.84c1.27 0 2.332-.426 3.04-1.203.776-.778 1.13-1.84 1.13-3.04 0-1.344-.354-2.404-1.06-3.182s-1.77-1.202-3.183-1.202h-4.454V16.9h4.526zM183.767 33.162c-.92 1.06-2.05 1.838-3.252 2.403-1.272.495-2.475.778-3.677.778-1.344 0-2.616-.213-3.748-.566-1.13-.424-2.12-.99-3.04-1.696-1.344-1.13-2.404-2.545-3.11-4.383-.708-1.84-1.062-3.818-1.062-6.01 0-1.84.354-3.536.99-5.092.636-1.556 1.556-2.97 2.758-4.1 1.2-1.133 2.616-2.052 4.312-2.76 1.627-.635 3.535-.988 5.516-.988.85 0 1.556.07 2.263.212s1.272.28 1.696.423V1.06h9.05v34.647h-8.27l-.426-2.545zm-.354-14.566c-.92-.282-1.91-.494-2.97-.494-1.626 0-2.898.494-3.96 1.484-.99.99-1.555 2.475-1.555 4.384 0 1.485.354 2.616 1.13 3.535.708.85 1.84 1.344 3.324 1.344 1.344 0 2.334-.355 2.97-1.133.637-.777.99-1.838.99-3.252v-5.87h.07zM218.98 33.94c-.425.21-.99.494-1.627.776-.637.283-1.414.566-2.333.85-.92.282-1.91.494-2.97.706-1.132.212-2.263.283-3.536.283-4.666 0-8.2-1.132-10.677-3.394-2.474-2.262-3.676-5.444-3.676-9.545 0-1.626.283-3.253.778-4.808.565-1.556 1.344-2.97 2.404-4.243 1.06-1.202 2.475-2.19 4.1-2.97 1.627-.777 3.607-1.13 5.8-1.13 1.696 0 3.322.282 4.878.848 1.484.565 2.828 1.414 3.96 2.616 1.13 1.13 1.98 2.616 2.687 4.384.637 1.768.99 3.818.99 6.15v1.698h-17.04c0 .424.14.848.353 1.272.213.424.566.85.99 1.272.495.425 1.13.707 1.91.99.776.212 1.767.354 2.97.354 1.555 0 2.97-.212 4.17-.565 1.273-.354 2.264-.778 2.97-1.202l2.9 5.66zm-7.283-13.082c0-.424-.07-.85-.283-1.272s-.424-.85-.85-1.272c-.353-.354-.848-.707-1.413-.99-.564-.282-1.2-.424-1.978-.424s-1.414.142-1.98.424c-.565.283-1.06.565-1.414.99-.354.354-.636.777-.777 1.272-.21.424-.282.85-.282 1.272h8.98zM257.02 29.272c-4.03 4.88-9.334 7.354-15.91 7.354-2.757 0-5.23-.424-7.565-1.343-2.263-.92-4.242-2.12-5.868-3.748-1.626-1.626-2.9-3.465-3.818-5.727-.92-2.192-1.345-4.667-1.345-7.354 0-2.616.425-5.092 1.344-7.283.918-2.262 2.19-4.17 3.817-5.797 1.626-1.626 3.605-2.9 5.868-3.818 2.263-.92 4.81-1.343 7.566-1.343 3.11 0 6.01.495 8.627 1.485 2.616.99 4.88 2.757 6.717 5.232l-6.293 6.15c-.988-1.344-2.19-2.404-3.604-3.182-1.414-.778-2.97-1.202-4.737-1.202-1.486 0-2.83.212-4.03.707-1.203.495-2.193 1.13-2.97 2.05-.78.85-1.415 1.91-1.84 3.04-.424 1.132-.636 2.405-.636 3.748 0 1.415.212 2.69.636 3.82.425 1.2 1.06 2.19 1.91 3.04.848.848 1.838 1.555 2.97 2.05s2.474.707 3.888.707c2.05 0 3.748-.354 5.09-1.06 1.274-.708 2.547-1.84 3.82-3.324l6.36 5.8zM259 1.06h14.776c1.91 0 3.677.213 5.232.708 1.556.495 2.9 1.202 3.96 2.192 1.13.92 1.98 2.12 2.545 3.535.637 1.414.92 3.04.92 4.95 0 2.262-.495 4.24-1.557 5.938-1.06 1.697-2.403 3.04-4.1 4.03l7.636 13.293H278.23l-6.08-11.808h-3.96v11.808h-9.264V1.06H259zm13.858 15.627c1.272 0 2.263-.354 3.04-1.13.778-.778 1.202-1.77 1.202-2.97 0-1.345-.354-2.334-1.13-3.112-.78-.777-1.84-1.13-3.184-1.13h-4.524v8.342h4.596zM291.1 1.06h9.475v34.647H291.1V1.06zM308.28 24.748c.99.99 2.334 1.838 3.89 2.615 1.627.778 3.395 1.202 5.304 1.202.494 0 .92-.07 1.414-.142.494-.07.92-.212 1.343-.424.426-.213.708-.496.99-.85s.355-.777.355-1.343c0-.92-.495-1.627-1.414-2.263-.918-.566-2.332-1.202-4.17-1.77l-1.98-.635c-1.132-.355-2.192-.78-3.323-1.345-1.132-.565-2.12-1.202-3.04-1.98-.92-.776-1.627-1.696-2.192-2.757s-.85-2.263-.85-3.747c0-1.625.284-3.04.92-4.454.637-1.344 1.485-2.545 2.688-3.606 1.13-.99 2.616-1.838 4.312-2.404C314.22.283 316.2 0 318.463 0c1.768 0 3.323.142 4.737.495 1.414.283 2.688.707 3.748 1.13s1.98.92 2.757 1.486c.778.566 1.344.99 1.697 1.415l-4.808 5.94c-1.273-.92-2.546-1.627-3.89-2.193-1.343-.566-2.757-.85-4.17-.85-.496 0-.92.072-1.415.143-.496.07-.85.283-1.274.495-.354.212-.707.495-.92.778-.21.354-.353.708-.353 1.203 0 .495.142.99.425 1.344.282.354.636.707 1.13.99.496.282 1.062.495 1.698.777.636.214 1.343.426 2.12.708l1.697.495c1.202.354 2.476.85 3.677 1.344 1.273.495 2.404 1.202 3.395 2.05.99.85 1.838 1.91 2.475 3.183.637 1.272.99 2.828.99 4.666 0 1.627-.354 3.04-1.132 4.384-.777 1.344-1.838 2.546-3.11 3.465-1.273.99-2.83 1.697-4.597 2.263s-3.676.778-5.655.778c-3.606 0-6.576-.425-8.98-1.344-2.403-.92-4.454-2.192-6.15-3.747l5.726-6.647zM335.645 1.06h9.475v34.647h-9.475V1.06zM353.888 24.748c.99.99 2.333 1.838 3.89 2.615 1.625.778 3.393 1.202 5.302 1.202.495 0 .92-.07 1.414-.142.495-.07.92-.212 1.344-.424.424-.213.707-.496.99-.85.282-.354.353-.777.353-1.343 0-.92-.493-1.627-1.413-2.263-.92-.566-2.333-1.202-4.17-1.77l-1.98-.635c-1.132-.355-2.192-.78-3.324-1.345-1.13-.565-2.12-1.202-3.04-1.98s-1.626-1.696-2.192-2.757c-.564-1.06-.847-2.263-.847-3.747 0-1.625.282-3.04.92-4.454.635-1.344 1.483-2.545 2.686-3.606 1.13-.99 2.615-1.838 4.312-2.404C359.826.283 361.807 0 364.07 0c1.768 0 3.323.142 4.737.495 1.414.283 2.687.707 3.747 1.13s1.98.92 2.758 1.486c.777.496 1.344.99 1.697 1.415l-4.81 5.94c-1.272-.92-2.545-1.627-3.89-2.193-1.343-.566-2.757-.85-4.17-.85-.496 0-.92.072-1.415.143s-.85.283-1.272.495c-.354.212-.707.495-.92.778-.212.354-.353.708-.353 1.203 0 .495.14.99.424 1.344s.637.707 1.13.99c.496.282 1.062.495 1.698.777.637.214 1.344.426 2.12.708l1.698.495c1.202.354 2.475.85 3.677 1.344 1.272.495 2.404 1.202 3.394 2.05.99.85 1.84 1.91 2.476 3.183.637 1.272.99 2.828.99 4.666 0 1.627-.354 3.04-1.13 4.384-.78 1.344-1.84 2.546-3.112 3.465-1.272.99-2.828 1.697-4.596 2.263s-3.677.778-5.657.778c-3.604 0-6.574-.425-8.978-1.344s-4.454-2.192-6.15-3.747l5.726-6.647z"/><g><path d="M19.516 62.293c.212.212.424.495.707.707.282.212.565.424.92.637.353.212.706.354 1.13.494.425.143.85.143 1.344.143.99 0 1.768-.212 2.333-.636.565-.425.85-1.06.85-1.77 0-.776-.284-1.413-.92-1.837-.637-.425-1.556-.707-2.758-.99-.637-.142-1.202-.282-1.768-.565-.495-.212-.99-.495-1.344-.85s-.707-.776-.92-1.2c-.21-.495-.282-.99-.282-1.557 0-.565.07-1.06.283-1.555.213-.495.496-.92.92-1.273.425-.354.92-.636 1.556-.85.637-.21 1.344-.353 2.192-.353.707 0 1.343.07 1.91.213.564.14.988.354 1.342.565s.707.424.92.707c.212.212.424.424.494.565L27.01 54.16l-.424-.425c-.212-.142-.425-.354-.707-.495-.284-.142-.638-.283-.99-.424-.355-.142-.778-.142-1.273-.142s-.92.07-1.272.212-.637.283-.85.495-.424.428-.495.64c-.07.283-.142.495-.142.778 0 .354.07.707.212.92.142.282.354.494.707.706.283.212.707.354 1.132.495.423.14.918.282 1.555.424.565.14 1.13.282 1.626.494.566.213.99.495 1.415.85.425.353.778.777.99 1.343.282.496.354 1.132.354 1.91 0 .636-.143 1.202-.426 1.768-.282.495-.636.99-1.13 1.344s-1.062.707-1.698.92c-.636.21-1.343.353-2.12.353-.708 0-1.345-.07-1.91-.212-.566-.143-1.13-.355-1.556-.638-.424-.283-.92-.495-1.272-.85-.354-.28-.637-.564-.85-.918l1.628-1.414zM37.687 64.626c-.424.495-.92.92-1.556 1.132-.635.282-1.27.354-1.978.354-.424 0-.85-.07-1.272-.142-.425-.142-.85-.283-1.202-.565-.354-.283-.637-.566-.85-.99s-.353-.92-.353-1.484c0-1.13.425-1.98 1.202-2.615.777-.637 1.91-.99 3.394-.99h.78c.28 0 .494 0 .776.07.212 0 .425 0 .637.07.212 0 .282 0 .354.07v-.353c0-.777-.212-1.272-.707-1.626s-1.132-.495-1.91-.495-1.414.07-1.91.284c-.494.212-.848.424-1.2.636l-.92-1.343.637-.425c.282-.142.565-.282.92-.424s.706-.212 1.2-.283c.425-.07.92-.142 1.485-.142 1.344 0 2.404.354 3.182.92.778.565 1.132 1.555 1.132 2.687V65.828h-1.91l.07-1.202zm0-3.605c-.07 0-.212 0-.354-.07-.142 0-.354-.07-.565-.07s-.495 0-.707-.07h-.776c-.566 0-1.062.07-1.415.212-.355.14-.637.282-.85.494-.212.213-.353.425-.424.637-.07.212-.142.495-.142.707 0 .565.213.99.566 1.272.424.283.92.425 1.626.425.424 0 .777-.07 1.13-.212.355-.142.638-.283.92-.495.283-.212.495-.495.637-.778.142-.282.283-.565.283-.92v-1.13h.07zM41.86 65.828v-9.12-1.062h1.978l.07 1.556c.143-.142.283-.354.496-.565.212-.213.424-.425.707-.566.283-.14.566-.353.99-.423.354-.142.778-.142 1.273-.142.848 0 1.484.142 2.05.495.566.283.92.777 1.273 1.344.424-.495.92-.92 1.555-1.273.638-.353 1.345-.564 2.264-.564 1.344 0 2.334.425 3.04 1.202.637.777.99 1.838.99 3.182v6.15h-2.05v-5.938c0-.92-.213-1.626-.566-2.12-.354-.425-.92-.637-1.696-.637-.425 0-.778.07-1.132.282-.354.142-.636.425-.92.637-.282.282-.494.637-.636.99-.14.354-.212.777-.212 1.2v5.658h-2.05v-5.94c0-.918-.213-1.625-.566-2.12-.354-.425-.92-.637-1.696-.637-.566 0-1.06.142-1.415.354-.354.21-.707.564-.92.918s-.423.778-.494 1.273c-.07.495-.14.99-.14 1.415v4.737h-2.192v-.284zM70.142 64.344c-.142.14-.283.282-.566.494-.212.213-.565.425-.92.566-.353.212-.848.354-1.343.494-.494.142-1.13.213-1.768.213-.848 0-1.556-.14-2.263-.424-.707-.282-1.272-.636-1.768-1.13-.494-.496-.85-1.062-1.13-1.77-.284-.706-.426-1.413-.426-2.262 0-.778.142-1.414.354-2.12.283-.638.637-1.203 1.062-1.698.424-.495.99-.85 1.696-1.13.637-.284 1.344-.426 2.12-.426.92 0 1.698.142 2.335.495.636.354 1.2.777 1.626 1.344.425.564.708 1.2.92 1.907s.283 1.485.283 2.263H62.08c0 .425.142.85.283 1.273.212.354.425.707.778.99.283.282.708.494 1.062.636.424.14.85.21 1.272.21.92 0 1.626-.14 2.19-.423.567-.283.99-.565 1.274-.85l1.204 1.347zm-1.84-4.455c-.07-.778-.353-1.485-.848-2.052-.495-.565-1.202-.848-2.19-.848-.496 0-.92.07-1.274.212s-.708.354-.99.636c-.283.283-.495.566-.637.92s-.212.707-.282 1.06h6.223v.07zM72.05 65.828v-9.12-1.062h1.98l.07 1.556c.142-.142.283-.354.495-.565.212-.213.424-.425.707-.566.283-.14.637-.353.99-.423.354-.142.85-.142 1.272-.142 1.344 0 2.404.354 3.04 1.132.637.777.99 1.838.99 3.182v6.15h-2.05v-5.94c0-.92-.213-1.626-.637-2.12-.425-.426-.99-.638-1.768-.638-.567 0-1.063.142-1.486.354s-.707.565-.92.92-.424.777-.494 1.272-.142.99-.142 1.484v4.737H72.05v-.212zM87.323 51.616h2.263v2.19h-2.263v-2.19zm.14 4.03h2.052v10.182h-2.05V55.646zM91.778 65.828v-9.12-1.062h1.98l.07 1.556c.142-.142.282-.354.495-.565.212-.213.424-.425.707-.566.282-.14.636-.353.99-.423.353-.142.848-.142 1.272-.142 1.343 0 2.403.354 3.04 1.132.637.777.99 1.838.99 3.182v6.15h-2.05v-5.94c0-.92-.213-1.626-.638-2.12-.424-.426-.99-.638-1.768-.638-.565 0-1.06.142-1.484.354-.425.212-.707.565-.92.92-.212.353-.424.777-.494 1.272s-.142.99-.142 1.484v4.737h-2.05v-.212zM113.626 64.626c-.425.495-.92.92-1.556 1.132-.637.282-1.272.354-1.98.354-.424 0-.848-.07-1.272-.142-.424-.142-.848-.283-1.2-.565-.355-.283-.638-.566-.85-.99-.213-.424-.354-.92-.354-1.484 0-1.13.424-1.98 1.202-2.615.777-.637 1.908-.99 3.394-.99h.777c.283 0 .495 0 .778.07.212 0 .424 0 .636.07.214 0 .284 0 .355.07v-.353c0-.777-.212-1.272-.707-1.626-.494-.354-1.13-.495-1.908-.495s-1.415.07-1.91.284c-.494.212-.848.424-1.2.636l-.92-1.343.636-.425c.283-.142.565-.282.92-.424s.706-.212 1.2-.283c.426-.07.92-.142 1.486-.142 1.343 0 2.403.354 3.182.92.777.636 1.13 1.555 1.13 2.687V65.828h-1.908l.07-1.202zm0-3.605c-.07 0-.212 0-.354-.07-.142 0-.354-.07-.565-.07-.213 0-.495 0-.707-.07h-.778c-.565 0-1.06.07-1.414.212-.354.14-.637.282-.85.494-.21.213-.353.425-.423.637-.07.212-.142.495-.142.707 0 .565.212.99.565 1.272.425.283.92.425 1.626.425.425 0 .778-.07 1.132-.212.354-.142.637-.283.92-.495.282-.212.494-.495.636-.778.142-.282.282-.565.282-.92v-1.13h.072zM126.92 64.414c-.496.495-1.062.92-1.698 1.272-.707.283-1.484.495-2.404.495-.848 0-1.626-.14-2.263-.423-.707-.283-1.272-.637-1.768-1.132-.494-.495-.85-1.06-1.13-1.696-.284-.638-.355-1.416-.355-2.193 0-.778.142-1.414.424-2.12.283-.638.637-1.203 1.132-1.698s1.06-.85 1.768-1.132c.636-.283 1.414-.425 2.263-.425.918 0 1.695.142 2.332.495.707.283 1.272.707 1.768 1.272l-1.343 1.273c-.283-.354-.708-.707-1.132-.92-.424-.212-.99-.354-1.626-.354-.566 0-1.062.07-1.486.282-.424.212-.777.495-1.06.777-.283.353-.496.706-.708 1.2-.142.426-.212.92-.212 1.415s.07.92.212 1.344.354.848.707 1.2c.283.355.637.638 1.06.85.426.212.92.282 1.486.282.635 0 1.2-.14 1.695-.354.495-.212.92-.494 1.202-.92l1.132 1.206zM129.252 57.272h-1.91v-1.626h1.91v-3.323h2.05v3.323h3.112v1.626h-3.11v5.02c0 .85.14 1.415.423 1.698.283.282.637.494 1.132.494.423 0 .706-.07.988-.14.283-.143.495-.284.778-.496l.92 1.202c-.425.424-.92.707-1.345.92-.493.21-.988.28-1.625.28-1.13 0-1.91-.28-2.475-.847-.495-.566-.777-1.485-.777-2.758V57.27h-.07zM136.464 51.616h2.263v2.19h-2.263v-2.19zm.142 4.03h2.05v10.182h-2.05V55.646zM150.535 64.344c-.142.14-.283.282-.566.494-.213.213-.566.425-.92.566-.354.212-.85.354-1.344.494-.494.142-1.13.213-1.768.213-.848 0-1.555-.14-2.263-.424-.707-.282-1.272-.636-1.768-1.13-.494-.496-.848-1.062-1.13-1.77s-.426-1.413-.426-2.262c0-.778.143-1.414.355-2.12.283-.638.637-1.203 1.062-1.698.424-.495.99-.85 1.696-1.13.637-.284 1.344-.426 2.12-.426.92 0 1.698.142 2.335.495.636.354 1.202.777 1.626 1.344.424.564.707 1.2.92 1.907s.282 1.485.282 2.263h-8.272c0 .425.14.85.282 1.273.212.354.425.707.778.99.282.282.707.494 1.06.636.425.14.85.21 1.273.21.92 0 1.626-.14 2.19-.423.567-.283.99-.565 1.274-.85l1.205 1.347zm-1.838-4.455c-.07-.778-.354-1.485-.85-2.052-.494-.565-1.2-.848-2.19-.848-.495 0-.92.07-1.272.212-.354.142-.708.354-.99.636-.283.283-.495.566-.637.92s-.212.707-.282 1.06h6.222v.07zM154.778 55.646h2.333l3.254 7.99 3.252-7.99h2.192l-4.525 10.182h-2.05l-4.455-10.182zM171.323 66.182c-.85 0-1.556-.142-2.263-.424-.707-.283-1.272-.707-1.768-1.202s-.85-1.06-1.13-1.697c-.284-.638-.426-1.345-.426-2.122 0-.778.142-1.414.425-2.12.283-.638.637-1.203 1.132-1.698s1.06-.92 1.768-1.202c.707-.282 1.414-.424 2.263-.424.778 0 1.556.142 2.192.424.707.283 1.272.707 1.768 1.202s.92 1.06 1.13 1.697c.284.636.426 1.343.426 2.12 0 .778-.143 1.415-.426 2.122-.282.636-.636 1.2-1.13 1.696s-1.062.92-1.77 1.202c-.636.282-1.413.424-2.19.424zm0-1.768c.566 0 1.06-.07 1.485-.283.424-.21.777-.493 1.13-.847.284-.354.566-.708.708-1.202.142-.424.213-.92.213-1.343s-.072-.92-.214-1.344c-.142-.424-.424-.85-.707-1.202-.283-.353-.708-.635-1.132-.847-.425-.213-.92-.354-1.485-.354-.565 0-1.06.14-1.484.353-.426.212-.78.494-1.133.848-.282.355-.565.708-.707 1.203-.14.425-.212.92-.212 1.344 0 .495.07.92.212 1.344.142.425.425.85.707 1.203.283.354.707.636 1.132.848.422.214.917.284 1.483.284zM183.697 66.182c-.85 0-1.556-.142-2.263-.424-.707-.283-1.272-.707-1.768-1.202s-.85-1.06-1.132-1.697c-.282-.638-.424-1.345-.424-2.122 0-.778.142-1.414.424-2.12.283-.638.637-1.203 1.132-1.698s1.06-.92 1.768-1.202c.707-.282 1.414-.424 2.263-.424.777 0 1.556.142 2.19.424.71.283 1.274.707 1.77 1.202.494.495.92 1.06 1.13 1.697.284.636.425 1.343.425 2.12 0 .778-.14 1.415-.424 2.122-.283.636-.637 1.2-1.13 1.696-.496.495-1.062.92-1.77 1.202-.636.282-1.414.424-2.19.424zm0-1.768c.565 0 1.06-.07 1.484-.283.426-.21.78-.493 1.133-.847.283-.354.565-.708.707-1.202.142-.424.212-.92.212-1.343s-.07-.92-.212-1.344c-.142-.424-.424-.85-.707-1.202s-.707-.635-1.132-.847c-.423-.213-.918-.354-1.483-.354s-1.06.14-1.485.353c-.424.212-.777.494-1.13.848-.284.355-.566.708-.708 1.203-.142.425-.212.92-.212 1.344 0 .495.07.92.212 1.344.142.425.424.85.707 1.203s.708.636 1.132.848c.424.214.92.284 1.485.284zM190.98 65.828v-9.19-.99h1.98l.07 1.625c.14-.142.282-.354.494-.565s.425-.424.707-.565c.284-.142.638-.354.99-.425.355-.14.778-.212 1.273-.212.212 0 .424 0 .637.07.212 0 .354.07.565.142l-.425 1.84c-.282-.072-.636-.143-1.06-.143-.425 0-.85.07-1.202.212s-.708.354-.99.637c-.283.282-.495.636-.637.99s-.21.777-.21 1.2v5.375h-2.19v-.002zM209.787 64.556c-.07.07-.212.212-.354.424s-.425.354-.707.565c-.283.142-.637.354-.99.495s-.85.212-1.344.212c-.636 0-1.272-.14-1.838-.354-.565-.282-1.06-.565-1.485-1.06-.425-.425-.778-.99-.99-1.627-.212-.635-.354-1.413-.354-2.19 0-.99.142-1.77.495-2.476s.778-1.272 1.344-1.696c.565-.425 1.132-.778 1.768-.99.637-.212 1.202-.282 1.768-.282.778 0 1.344.07 1.768.282.425.142.778.283.99.425v-4.88h2.05V66.04h-1.978l-.143-1.484zm0-6.647c-.142-.143-.425-.284-.85-.496-.424-.212-.99-.283-1.767-.283-.495 0-.92.072-1.344.284-.424.142-.777.424-1.06.777s-.566.708-.708 1.203-.283.99-.283 1.556c0 .494.07.918.213 1.343.14.424.282.777.565 1.13.282.355.565.567.92.78s.848.28 1.343.28.99-.07 1.343-.28.706-.426.92-.708c.21-.283.423-.565.493-.92.142-.353.142-.636.142-.92V57.91h.072zM223.646 64.344c-.142.14-.283.282-.565.494-.212.213-.565.425-.92.566-.353.212-.847.354-1.342.494-.495.142-1.132.213-1.768.213-.85 0-1.556-.14-2.263-.424-.707-.282-1.273-.636-1.768-1.13-.496-.496-.85-1.062-1.133-1.77-.282-.706-.424-1.413-.424-2.262 0-.778.142-1.414.354-2.12.282-.638.636-1.203 1.06-1.698.425-.495.99-.85 1.697-1.13.637-.284 1.344-.426 2.122-.426.92 0 1.696.142 2.333.495s1.2.777 1.625 1.344c.425.564.707 1.2.92 1.907.212.707.282 1.485.282 2.263h-8.272c0 .425.142.85.282 1.273.142.424.425.707.778.99.282.282.707.494 1.06.636.425.14.85.21 1.273.21.92 0 1.626-.14 2.192-.423.565-.283.99-.565 1.272-.85l1.204 1.347zm-1.84-4.455c-.07-.778-.353-1.485-.848-2.052-.494-.565-1.2-.848-2.19-.848-.496 0-.92.07-1.273.212s-.707.354-.99.636c-.283.283-.495.566-.637.92-.14.354-.212.707-.282 1.06h6.222v.07zM229.16 51.19h2.05V65.83h-2.05V51.19zM240.05 64.626c-.425.495-.92.92-1.556 1.132-.637.282-1.273.354-1.98.354-.424 0-.85-.07-1.272-.142-.424-.142-.85-.283-1.202-.565-.354-.283-.636-.566-.85-.99-.21-.424-.353-.92-.353-1.484 0-1.13.425-1.98 1.202-2.615.777-.637 1.908-.99 3.394-.99h.777s.496 0 .778.07c.213 0 .425 0 .637.07.212 0 .283 0 .354.07v-.353c0-.777-.213-1.272-.708-1.626s-1.13-.495-1.91-.495c-.776 0-1.413.07-1.908.284-.495.212-.85.424-1.202.636l-.92-1.343.638-.425c.282-.142.565-.282.92-.424s.706-.212 1.2-.283c.425-.07.92-.142 1.485-.142 1.344 0 2.404.354 3.183.92.777.636 1.13 1.555 1.13 2.687V65.828h-1.908l.07-1.202zm-.07-3.605c-.07 0-.213 0-.355-.07-.142 0-.354-.07-.565-.07s-.495 0-.707-.07h-.778c-.565 0-1.06.07-1.414.212-.353.14-.635.282-.848.494-.212.213-.354.425-.424.637s-.142.495-.142.707c0 .565.212.99.565 1.272.426.283.92.425 1.628.425.424 0 .777-.07 1.13-.212.355-.142.638-.283.92-.495.283-.212.495-.495.637-.778.142-.282.283-.565.283-.92v-1.13h.07zM250.726 64.626c-.424.495-.92.92-1.555 1.132-.636.282-1.272.354-1.98.354-.423 0-.848-.07-1.27-.142-.425-.142-.85-.283-1.203-.565-.354-.283-.636-.566-.85-.99-.21-.424-.353-.92-.353-1.484 0-1.13.425-1.98 1.202-2.615.778-.637 1.91-.99 3.395-.99h.778s.495 0 .777.07c.213 0 .425 0 .637.07.212 0 .283 0 .354.07v-.353c0-.777-.212-1.272-.707-1.626s-1.132-.495-1.91-.495c-.777 0-1.414.07-1.91.284-.494.212-.848.424-1.2.636l-.92-1.343.637-.425c.282-.142.565-.282.92-.424s.706-.212 1.2-.283c.425-.07.92-.142 1.485-.142 1.344 0 2.404.354 3.182.92.778.636 1.132 1.555 1.132 2.687V65.828h-1.91l.07-1.202zm0-3.605c-.07 0-.212 0-.354-.07-.14 0-.354-.07-.565-.07s-.495 0-.707-.07h-.777c-.565 0-1.06.07-1.414.212-.355.14-.638.282-.85.494-.212.213-.354.425-.425.637-.07.212-.14.495-.14.707 0 .565.21.99.564 1.272.423.283.918.425 1.625.425.425 0 .778-.07 1.132-.212.354-.142.636-.283.92-.495.28-.212.494-.495.635-.778.142-.282.283-.565.283-.92v-1.13h.07zM256.312 67.95c.354.21.778.424 1.273.636.494.142 1.13.282 1.838.282.99 0 1.768-.282 2.263-.777.495-.564.777-1.27.777-2.12v-1.272c-.07.07-.212.212-.424.354-.213.14-.425.282-.638.424-.282.142-.565.283-.92.354-.353.142-.776.142-1.27.142-.78 0-1.486-.142-2.052-.354-.565-.283-1.13-.637-1.484-1.06-.425-.426-.707-.99-.92-1.627-.212-.636-.282-1.272-.282-2.05 0-.778.142-1.485.424-2.192.283-.636.707-1.272 1.202-1.768s1.132-.85 1.84-1.13c.706-.284 1.554-.426 2.402-.426s1.627.07 2.404.213c.707.14 1.344.282 1.768.494v9.76c0 1.483-.424 2.615-1.343 3.464-.848.777-2.12 1.202-3.747 1.202-1.06 0-1.91-.142-2.545-.354-.637-.213-1.132-.495-1.556-.778l.99-1.415zm6.15-10.536c-.14-.07-.353-.07-.706-.212-.354-.07-.777-.142-1.484-.142-.565 0-1.06.07-1.556.283-.495.212-.85.424-1.202.777s-.636.707-.777 1.202c-.212.424-.283.92-.283 1.484 0 .495.07.92.142 1.344.142.425.283.778.565 1.06.284.284.566.566.92.708s.85.283 1.414.283c.495 0 .92-.07 1.344-.21.354-.143.707-.355.92-.567.212-.212.424-.494.565-.777.14-.283.212-.637.212-.92v-4.312h-.072zM267.342 63.283c.354.354.85.636 1.344.848.495.214 1.13.355 1.84.355.706 0 1.27-.07 1.695-.354.426-.21.708-.564.708-.988 0-.212-.07-.425-.142-.637-.07-.142-.282-.354-.494-.424-.213-.14-.566-.282-.92-.353-.354-.142-.848-.213-1.414-.354-.424-.07-.777-.213-1.202-.354-.424-.143-.777-.355-1.06-.567-.283-.212-.566-.565-.778-.848-.212-.354-.283-.778-.283-1.273s.142-.92.354-1.272c.212-.354.565-.707.92-.92.423-.282.847-.424 1.342-.564.495-.142.99-.213 1.556-.213.92 0 1.626.142 2.263.354.638.213 1.203.566 1.698.92l-1.132 1.343c-.282-.282-.707-.495-1.202-.707-.494-.212-1.06-.282-1.696-.282-.637 0-1.202.07-1.556.283-.425.212-.565.565-.565.99 0 .424.282.777.777.99.495.212 1.202.424 2.05.636.496.14.99.282 1.415.424.423.14.776.354 1.13.565s.566.564.778.918.282.778.282 1.272c0 .495-.14.99-.354 1.344-.212.354-.565.707-.99.99-.424.282-.848.494-1.413.565-.495.14-1.06.21-1.627.21-1.98 0-3.464-.494-4.454-1.555l1.13-1.342zM277.737 57.272h-1.91v-1.626h1.91v-3.323h2.05v3.323h3.11v1.626h-3.11v5.02c0 .85.142 1.415.425 1.698.282.282.636.494 1.13.494.426 0 .708-.07.99-.14.284-.143.496-.284.778-.496l.92 1.202c-.425.424-.92.707-1.344.92-.495.21-.99.28-1.626.28-1.132 0-1.91-.28-2.475-.847-.495-.566-.778-1.485-.778-2.758V57.27h-.07zM294.493 64.344c-.14.14-.282.282-.565.494-.212.213-.565.425-.92.566-.353.212-.848.354-1.343.494-.495.142-1.13.213-1.768.213-.85 0-1.556-.14-2.263-.424-.707-.282-1.272-.636-1.768-1.13s-.85-1.062-1.13-1.77c-.284-.706-.426-1.413-.426-2.262 0-.778.142-1.414.354-2.12.283-.638.637-1.203 1.06-1.698.496-.495.99-.85 1.698-1.13.637-.284 1.344-.426 2.12-.426.92 0 1.698.142 2.335.495.636.354 1.2.777 1.626 1.344.424.564.707 1.2.92 1.907s.282 1.485.282 2.263h-8.273c0 .425.142.85.283 1.273.142.424.424.707.777.99.283.282.707.494 1.06.636.426.14.85.21 1.274.21.92 0 1.626-.14 2.19-.423.566-.283.99-.565 1.274-.85l1.203 1.347zm-1.837-4.455c-.07-.778-.354-1.485-.85-2.052-.494-.565-1.2-.848-2.19-.848-.495 0-.92.07-1.273.212s-.707.354-.99.636c-.282.283-.494.566-.636.92s-.212.707-.283 1.06h6.223v.07zM300.01 51.19h2.05V65.83h-2.05V51.19zM310.827 64.626c-.425.495-.92.92-1.556 1.132-.636.282-1.272.354-1.98.354-.423 0-.847-.07-1.27-.142-.425-.142-.85-.283-1.203-.565-.354-.283-.636-.566-.85-.99-.21-.424-.353-.92-.353-1.484 0-1.13.425-1.98 1.202-2.615.778-.637 1.91-.99 3.395-.99h.778c.283 0 .495 0 .778.07.212 0 .424 0 .636.07.212 0 .283 0 .354.07v-.353c0-.777-.212-1.272-.707-1.626s-1.132-.495-1.91-.495c-.777 0-1.414.07-1.91.284-.494.212-.848.424-1.2.636l-.92-1.343.637-.425c.283-.142.565-.282.92-.424s.706-.212 1.2-.283c.425-.07.92-.142 1.485-.142 1.344 0 2.404.354 3.183.92.777.636 1.13 1.555 1.13 2.687V65.828h-1.908l.07-1.202zm0-3.605c-.07 0-.213 0-.354-.07-.142 0-.354-.07-.566-.07-.212 0-.494 0-.707-.07h-.777c-.565 0-1.06.07-1.414.212-.355.14-.638.282-.85.494-.212.213-.354.425-.424.637-.07.212-.142.495-.142.707 0 .565.212.99.565 1.272.423.283.918.425 1.625.425.425 0 .778-.07 1.132-.212.354-.142.636-.283.92-.495s.494-.495.636-.778c.14-.282.282-.565.282-.92v-1.13h.072zM315.706 63.283c.354.354.848.636 1.343.848.494.214 1.13.355 1.838.355s1.272-.07 1.696-.354c.425-.21.707-.564.707-.988 0-.212-.07-.425-.14-.637-.07-.142-.283-.354-.495-.424-.212-.14-.565-.282-.92-.353-.353-.142-.848-.213-1.414-.354-.423-.07-.776-.213-1.2-.354-.425-.143-.778-.355-1.06-.567-.284-.212-.567-.565-.78-.848-.21-.354-.282-.778-.282-1.273s.142-.92.354-1.272c.212-.354.565-.707.92-.92.423-.282.848-.424 1.342-.564.495-.142.99-.213 1.556-.213.92 0 1.627.142 2.263.354.637.213 1.202.566 1.697.92L322 57.98c-.284-.282-.71-.495-1.203-.707-.495-.212-1.06-.282-1.697-.282s-1.202.07-1.556.283c-.424.212-.565.565-.565.99 0 .424.28.777.776.99.495.212 1.202.424 2.05.636.496.14.99.282 1.415.424.425.14.778.354 1.132.565.354.21.566.564.778.918s.283.778.283 1.272c0 .495-.142.99-.354 1.344-.214.354-.567.707-.99.99-.426.282-.85.494-1.415.565-.495.14-1.06.21-1.627.21-1.98 0-3.464-.494-4.454-1.555l1.132-1.342zM326.03 57.272h-1.91v-1.626h1.91v-3.323h2.05v3.323h3.11v1.626h-3.11v5.02c0 .85.142 1.415.425 1.698.282.282.636.494 1.13.494.425 0 .708-.07.99-.14.283-.143.496-.284.778-.496l.92 1.202c-.425.424-.92.707-1.344.92-.496.21-.99.28-1.628.28-1.13 0-1.91-.28-2.475-.847-.495-.566-.777-1.485-.777-2.758V57.27h-.07zM342.786 64.344c-.142.14-.283.282-.565.494-.21.213-.564.425-.918.566-.354.212-.85.354-1.344.494-.495.142-1.13.213-1.768.213-.85 0-1.556-.14-2.263-.424-.707-.282-1.272-.636-1.768-1.13s-.85-1.062-1.133-1.77c-.282-.706-.424-1.413-.424-2.262 0-.778.142-1.414.354-2.12.283-.638.637-1.203 1.06-1.698.496-.495.99-.85 1.698-1.13.636-.284 1.344-.426 2.12-.426.92 0 1.698.142 2.334.495.636.354 1.2.777 1.625 1.344.425.564.708 1.2.92 1.907s.282 1.485.282 2.263h-8.272c0 .425.142.85.283 1.273.212.354.424.707.777.99.283.282.707.494 1.06.636.426.14.85.21 1.274.21.918 0 1.625-.14 2.19-.423s.99-.565 1.272-.85l1.204 1.347zm-1.767-4.455c-.07-.778-.355-1.485-.85-2.052-.495-.565-1.202-.848-2.19-.848-.496 0-.92.07-1.274.212s-.707.354-.99.636c-.282.283-.494.566-.636.92s-.212.707-.283 1.06h6.223v.07zM344.766 65.828v-9.12-1.062h1.98l.07 1.556c.142-.142.283-.354.495-.565.213-.213.425-.425.708-.566.283-.14.637-.353.99-.423s.848-.142 1.272-.142c1.344 0 2.404.354 3.04 1.132.637.777.99 1.838.99 3.182v6.15h-2.05v-5.94c0-.92-.213-1.626-.637-2.12-.425-.426-.99-.638-1.77-.638-.564 0-1.06.142-1.483.354s-.707.565-.92.92-.424.777-.494 1.272-.142.99-.142 1.484v4.737h-2.05v-.212zM356.786 63.424h2.546v2.404h-2.546v-2.404zm.07-12.233h2.264l-.07 10.396h-2.12l-.073-10.395z"/></g></g></svg>