<svg xmlns="http://www.w3.org/2000/svg" width="75" height="27.014" viewBox="12.5 36.493 75 27.014"><g fill="#FFF"><path d="M38.047 43.656c2.242-4.23 6.73-7.076 11.908-7.076 5.18 0 9.668 2.934 11.998 7.162 2.244-4.23 6.73-7.162 11.996-7.162 7.507 0 13.55 6.042 13.55 13.463 0 7.423-6.043 13.464-13.55 13.464-5.18 0-9.667-2.937-11.997-7.163-2.244 4.23-6.732 7.163-11.998 7.163-5.178 0-9.666-2.937-11.996-7.163-2.245 4.23-6.73 7.077-11.91 7.077-7.51 0-13.55-6.04-13.55-13.463s6.04-13.464 13.55-13.464c5.178 0 9.753 2.935 11.997 7.163m35.816-3.97c-5.697 0-10.357 4.662-10.357 10.357 0 5.695 4.66 10.355 10.357 10.355 5.695 0 10.354-4.66 10.354-10.355.002-5.696-4.658-10.356-10.354-10.356zm-23.908 0c-5.695 0-10.355 4.662-10.355 10.357 0 5.695 4.66 10.355 10.355 10.355s10.357-4.66 10.357-10.355c0-5.696-4.662-10.356-10.357-10.356zm-23.906 0c-5.696 0-10.356 4.662-10.356 10.357 0 5.695 4.66 10.355 10.355 10.355 5.696 0 10.355-4.66 10.355-10.355 0-5.782-4.573-10.356-10.356-10.356z"/><path d="M67.82 43.83h12.084v3.365H75.934v8.976h-4.057v-8.975H67.82V43.83M20.008 43.83h12.17v3.365H28.12v8.976h-4.057v-8.975h-4.056V43.83M47.713 56.17v-6.3l.172.26 4.314 6.04h3.798V43.83h-3.8v6.3l-.173-.26-4.312-6.04h-3.8v12.34h3.8"/></g></svg>