<?xml version="1.0" encoding="utf-8"?>
<!-- Generator: Adobe Illustrator 15.0.2, SVG Export Plug-In . SVG Version: 6.00 Build 0)  -->
<!DOCTYPE svg PUBLIC "-//W3C//DTD SVG 1.1//EN" "http://www.w3.org/Graphics/SVG/1.1/DTD/svg11.dtd">
<svg version="1.1" id="Layer_1" xmlns="http://www.w3.org/2000/svg" xmlns:xlink="http://www.w3.org/1999/xlink" x="0px" y="0px"
	 width="542.136px" height="151.554px" viewBox="0 0 542.136 151.554" enable-background="new 0 0 542.136 151.554"
	 xml:space="preserve">
<g>
	<polygon fill="#171717" points="51.179,20.195 51.179,15.345 14.954,15.345 14.954,43.191 48.201,43.191 48.201,38.341 
		19.793,38.341 19.793,20.195 	"/>
	<polygon fill="#171717" points="4.995,4.954 51.179,4.954 51.179,0.119 0.153,0.119 0.153,90.182 4.995,90.182 	"/>
	<polygon fill="#171717" points="48.207,58.423 48.207,53.588 14.954,53.588 14.954,90.182 19.793,90.182 19.793,58.423 	"/>
	<path fill="#171717" d="M147.773,0v4.844h21.994c13.499,0,24.476,9.169,24.476,22.686c0,6.052-3.372,11.916-7.829,16.503
		l-1.028,1.041l1.028,1.055c4.457,4.592,7.829,10.451,7.829,16.497c0,13.528-10.977,22.712-24.476,22.712h-21.994v4.847h23.82
		c15.168,0,27.49-12.365,27.49-27.559c0-6.403-2.495-12.55-6.92-17.553c4.425-4.986,6.92-11.137,6.92-17.543
		C199.083,12.351,186.761,0,171.593,0H147.773z"/>
	<rect x="131.005" y="0.114" fill="#171717" width="4.852" height="90.069"/>
	<path fill="#171717" d="M147.768,50.323l0.005,4.837l22.64-0.039c4.29,0,7.645,3.299,7.645,7.504c0,4.229-3.428,7.679-7.645,7.679
		h-22.64v4.834h24.466c5.887,0,10.661-6.614,10.661-12.513c0-5.9-4.671-12.345-10.661-12.345c-0.006,0-22.645,0.043-22.645,0.043"/>
	<path fill="#171717" d="M147.773,15.189v4.847h22.64c4.29,0,7.645,3.292,7.645,7.502c0,3.838-2.881,7.098-6.713,7.592
		l-23.571-0.016v4.839h25.6c5.517-0.685,9.527-7.062,9.527-12.417c0-5.892-4.676-12.349-10.661-12.349H147.773z"/>
	<rect x="211.906" y="0.114" fill="#171717" width="4.843" height="90.069"/>
	<path fill="#171717" d="M249.266,46.475c7.509,0,13.607-7.984,13.607-15.561c0-7.572-6.1-15.565-13.607-15.565h-22.059v4.844
		h20.232c5.839,0,10.596,4.81,10.596,10.722c0,5.917-4.757,10.732-10.596,10.732h-20.232v48.536h4.848V46.475H249.266z"/>
	<polygon fill="#171717" points="78.716,57.174 96.939,57.174 87.399,21.768 82.346,21.768 90.29,52.325 74.579,52.325 
		64.83,90.182 69.723,90.182 	"/>
	<polygon fill="#171717" points="46.969,90.182 51.909,90.182 77.679,0.114 72.739,0.114 	"/>
	<polygon fill="#171717" points="92.268,0.119 118.088,90.182 123.08,90.182 97.305,0.119 	"/>
	<polygon fill="#171717" points="94.88,68.622 101.011,90.182 105.89,90.182 99.925,68.622 	"/>
	<path fill="#171717" d="M323.707,35.767V54.53c0,19.649,15.957,35.653,35.582,35.653v-4.847c-16.671,0-30.729-13.877-30.729-30.807
		V35.767c0-15.566,12.773-30.813,30.75-30.813c17.954,0,30.733,13.726,30.733,31.727v24.024
		c-4.242-3.238-32.294-24.664-32.294-24.664v5.451l37.13,28.972l0.012-34.696c0-19.661-15.958-35.653-35.581-35.653
		C339.675,0.114,323.707,16.106,323.707,35.767"/>
	<path fill="#171717" d="M355.922,69.781c-7.804-0.794-12.176-9.051-12.176-17.118l0.021-16.869c0-8.586,6.973-15.576,15.547-15.576
		c8.553,0,15.536,6.989,15.536,15.576l-0.021,5.189l4.841,0.014l0.011-6.105c0-10.258-10.145-19.515-20.367-19.515
		c-10.24,0-20.383,9.256-20.383,19.504l-0.021,19.607c0,10.26,8.305,20.442,18.511,20.442h3.338V62.231l34.119,27.959v-6.024
		l-38.956-31.694L355.922,69.781L355.922,69.781z"/>
	<rect x="291.584" y="0.114" fill="#171717" width="4.847" height="90.069"/>
	<rect x="306.896" y="0.114" fill="#171717" width="4.842" height="90.069"/>
	<path fill="#171717" d="M262.954,57.957c9.954-5.314,16.416-15.668,16.416-27.042c0-16.975-13.8-30.796-30.75-30.796h-21.408v4.835
		h19.583c15.296,0,27.734,10.643,27.734,25.961c0,10.737-7.18,19.698-16.893,24.251l-1.388,0.65l17.349,34.366h5.181L262.954,57.957
		z"/>
	<polygon fill="#171717" points="241.015,60.869 255.402,90.182 260.581,90.182 246.201,60.869 	"/>
	<polygon fill="#171717" points="541.283,20.195 541.283,15.345 505.173,15.345 505.173,39.952 541.283,39.952 541.283,35.1 
		510.024,35.1 510.024,20.195 	"/>
	<polygon fill="#171717" points="510.029,70.083 510.029,55.169 541.283,55.169 541.283,50.333 505.173,50.333 505.173,74.924 
		541.283,74.924 541.283,70.083 	"/>
	<polygon fill="#171717" points="541.283,4.954 541.283,0.119 490.363,0.119 490.363,90.2 541.283,90.2 541.283,85.352 
		495.212,85.352 495.212,4.954 	"/>
	<path fill="#171717" d="M472.137,0.119v52.591c0,17.979-12.795,32.627-30.76,32.627c-17.953,0-30.741-14.647-30.741-32.627V0.119
		h-4.838v54.417c0,19.649,15.957,35.647,35.579,35.647c19.642,0,35.602-15.998,35.602-35.647V0.119H472.137z"/>
	<path fill="#171717" d="M456.92,0.119v54.374c0,8.59-6.982,15.581-15.546,15.581s-15.526-6.991-15.526-15.581V0.119h-4.843v56.2
		c0,10.249,10.146,18.598,20.369,18.598c10.237,0,20.383-8.35,20.383-18.598v-56.2H456.92z"/>
	<g>
		<path fill="#171717" d="M25.746,141.349v-13.566c0-1.344-0.23-2.386-0.692-3.129c-0.462-0.742-1.352-1.113-2.667-1.113
			c-0.756,0-1.4,0.175-1.933,0.525s-0.973,0.812-1.322,1.386c-0.351,0.574-0.609,1.212-0.777,1.911
			c-0.168,0.701-0.252,1.387-0.252,2.058v11.929h-5.208v-13.566c0-1.344-0.231-2.386-0.693-3.129
			c-0.462-0.742-1.351-1.113-2.667-1.113c-0.756,0-1.4,0.175-1.932,0.525c-0.532,0.351-0.98,0.812-1.344,1.386
			c-0.364,0.574-0.631,1.212-0.799,1.911c-0.168,0.701-0.252,1.387-0.252,2.058v11.929H0v-21.841h4.368l0.42,2.898
			c0.615-1.008,1.442-1.834,2.479-2.479c1.035-0.644,2.281-0.966,3.738-0.966c1.539,0,2.827,0.315,3.863,0.944
			c1.036,0.63,1.834,1.506,2.395,2.625c0.644-1.147,1.533-2.03,2.667-2.646c1.134-0.616,2.442-0.924,3.927-0.924
			c2.353,0,4.122,0.707,5.313,2.12c1.189,1.414,1.784,3.255,1.784,5.523v14.742L25.746,141.349L25.746,141.349z"/>
		<path fill="#171717" d="M55.861,130.595c-0.028,0.197-0.042,0.379-0.042,0.547v0.925H41.202c0,0.84,0.132,1.638,0.398,2.394
			c0.266,0.756,0.665,1.386,1.197,1.891c0.392,0.363,0.847,0.678,1.365,0.943c0.518,0.267,1.14,0.4,1.869,0.4
			c0.756,0,1.378-0.077,1.868-0.231c0.49-0.153,0.931-0.427,1.323-0.818c0.504-0.505,0.854-1.12,1.05-1.848h5.04
			c-0.057,0.645-0.272,1.352-0.65,2.121c-0.378,0.771-0.777,1.407-1.197,1.911c-0.924,1.091-2.03,1.876-3.318,2.352
			c-1.288,0.477-2.632,0.714-4.031,0.714c-1.513,0-2.821-0.246-3.928-0.735s-2.094-1.141-2.961-1.953
			c-1.092-1.063-1.925-2.338-2.499-3.823c-0.574-1.483-0.86-3.121-0.86-4.914c0-1.764,0.258-3.395,0.776-4.893
			c0.518-1.497,1.309-2.778,2.373-3.843c0.812-0.84,1.799-1.512,2.961-2.017c1.162-0.504,2.499-0.755,4.012-0.755
			c1.623,0,3.135,0.329,4.535,0.987s2.548,1.673,3.444,3.045c0.812,1.203,1.329,2.429,1.554,3.674
			C55.748,127.916,55.861,129.224,55.861,130.595z M50.611,128.245c-0.028-1.596-0.477-2.871-1.344-3.822
			c-0.364-0.392-0.819-0.699-1.365-0.924c-0.546-0.224-1.196-0.336-1.953-0.336c-0.812,0-1.526,0.154-2.142,0.462
			c-0.616,0.309-1.12,0.714-1.512,1.218c-0.393,0.476-0.672,0.98-0.841,1.513c-0.168,0.532-0.266,1.162-0.294,1.89H50.611z"/>
		<path fill="#171717" d="M73.71,124.38c-0.645-0.14-1.246-0.21-1.806-0.21c-1.849,0-3.249,0.588-4.2,1.765
			c-0.952,1.177-1.428,2.646-1.428,4.41v11.004h-5.292v-21.84h4.451l0.463,3.276c0.504-1.26,1.336-2.17,2.499-2.73
			c1.161-0.56,2.387-0.84,3.675-0.84c0.531,0,1.077,0.042,1.638,0.127V124.38z"/>
		<path fill="#171717" d="M92.653,141.349l-6.132-9.534l-3.486,3.78v5.754h-5.25v-30.324h5.25v17.347l8.274-8.862h6.594
			l-7.812,8.442l8.652,13.397H92.653L92.653,141.349z"/>
		<path fill="#171717" d="M120.708,130.595c-0.028,0.197-0.042,0.379-0.042,0.547v0.925H106.05c0,0.84,0.132,1.638,0.398,2.394
			c0.266,0.756,0.665,1.386,1.197,1.891c0.392,0.363,0.847,0.678,1.365,0.943c0.518,0.267,1.14,0.4,1.869,0.4
			c0.756,0,1.378-0.077,1.868-0.231c0.49-0.153,0.932-0.427,1.323-0.818c0.504-0.505,0.854-1.12,1.05-1.848h5.04
			c-0.057,0.645-0.272,1.352-0.65,2.121c-0.378,0.771-0.777,1.407-1.197,1.911c-0.924,1.091-2.03,1.876-3.318,2.352
			c-1.288,0.477-2.632,0.714-4.031,0.714c-1.513,0-2.821-0.246-3.928-0.735s-2.094-1.141-2.961-1.953
			c-1.092-1.063-1.925-2.338-2.499-3.823c-0.574-1.483-0.86-3.121-0.86-4.914c0-1.764,0.258-3.395,0.776-4.893
			c0.518-1.497,1.309-2.778,2.373-3.843c0.812-0.84,1.799-1.512,2.961-2.017c1.162-0.504,2.499-0.755,4.012-0.755
			c1.623,0,3.135,0.329,4.535,0.987s2.549,1.673,3.444,3.045c0.812,1.203,1.329,2.429,1.554,3.674
			C120.596,127.916,120.708,129.224,120.708,130.595z M115.458,128.245c-0.028-1.596-0.477-2.871-1.344-3.822
			c-0.364-0.392-0.819-0.699-1.365-0.924c-0.546-0.224-1.196-0.336-1.953-0.336c-0.812,0-1.526,0.154-2.142,0.462
			c-0.616,0.309-1.12,0.714-1.512,1.218c-0.393,0.476-0.672,0.98-0.84,1.513s-0.266,1.162-0.294,1.89H115.458z"/>
		<path fill="#171717" d="M139.188,141.349v-13.398c0-1.287-0.252-2.297-0.756-3.024s-1.456-1.091-2.856-1.091
			c-0.924,0-1.693,0.259-2.31,0.777c-0.616,0.518-1.106,1.183-1.47,1.995c-0.364,0.813-0.574,1.758-0.63,2.835
			c-0.057,1.078-0.084,2.078-0.084,3.003v8.903h-5.25v-21.84h4.409l0.378,2.814c0.645-1.148,1.561-1.996,2.752-2.541
			c1.189-0.546,2.415-0.818,3.675-0.818c1.176,0,2.219,0.196,3.129,0.588c0.909,0.393,1.68,0.932,2.31,1.617
			s1.113,1.511,1.449,2.478s0.504,2.009,0.504,3.13v14.573L139.188,141.349L139.188,141.349z"/>
		<path fill="#171717" d="M156.912,140.844c0,1.82-0.315,3.354-0.945,4.6c-0.63,1.245-1.869,2.261-3.717,3.045l-1.47-2.437
			c0.615-0.281,1.112-0.574,1.49-0.883c0.378-0.308,0.672-0.65,0.882-1.028c0.211-0.378,0.351-0.798,0.421-1.261
			c0.069-0.462,0.104-0.973,0.104-1.532h-3.15v-6.553h6.385V140.844z"/>
		<path fill="#171717" d="M186.48,141.349l-0.336-2.395c-0.645,1.008-1.527,1.743-2.646,2.205c-1.12,0.462-2.282,0.693-3.486,0.693
			c-1.092,0-2.086-0.168-2.981-0.504c-0.896-0.336-1.681-0.784-2.353-1.345c-1.316-1.063-2.289-2.401-2.919-4.012
			c-0.63-1.609-0.944-3.45-0.944-5.523c0-4.339,1.302-7.588,3.905-9.743c0.672-0.561,1.449-0.994,2.331-1.303
			c0.882-0.308,1.883-0.462,3.003-0.462c1.4,0,2.583,0.204,3.55,0.609c0.966,0.405,1.686,0.889,2.163,1.449v-9.996h5.25v30.324
			L186.48,141.349L186.48,141.349z M186.018,130.386c0-0.783-0.063-1.588-0.189-2.416c-0.126-0.825-0.371-1.58-0.735-2.267
			c-0.364-0.686-0.868-1.245-1.512-1.68c-0.645-0.435-1.484-0.652-2.52-0.652c-0.812,0-1.505,0.169-2.079,0.505
			s-1.058,0.741-1.449,1.218c-0.561,0.729-0.932,1.555-1.113,2.479c-0.183,0.924-0.272,1.862-0.272,2.813
			c0,0.953,0.09,1.897,0.272,2.834c0.182,0.939,0.553,1.771,1.113,2.5c0.392,0.476,0.875,0.882,1.449,1.218
			c0.573,0.336,1.267,0.504,2.079,0.504c1.035,0,1.875-0.217,2.52-0.651c0.644-0.434,1.147-0.993,1.512-1.68
			c0.364-0.686,0.609-1.449,0.735-2.289S186.018,131.17,186.018,130.386z"/>
		<path fill="#171717" d="M216.258,130.595c-0.028,0.197-0.042,0.379-0.042,0.547v0.925H201.6c0,0.84,0.132,1.638,0.398,2.394
			c0.266,0.756,0.665,1.386,1.197,1.891c0.392,0.363,0.847,0.678,1.365,0.943c0.518,0.267,1.141,0.4,1.869,0.4
			c0.756,0,1.378-0.077,1.869-0.231c0.489-0.153,0.931-0.427,1.322-0.818c0.504-0.505,0.854-1.12,1.051-1.848h5.04
			c-0.057,0.645-0.273,1.352-0.651,2.121c-0.378,0.771-0.777,1.407-1.197,1.911c-0.924,1.091-2.03,1.876-3.318,2.352
			c-1.288,0.477-2.632,0.714-4.031,0.714c-1.513,0-2.821-0.246-3.928-0.735s-2.093-1.141-2.961-1.953
			c-1.092-1.063-1.925-2.338-2.499-3.823c-0.574-1.483-0.86-3.121-0.86-4.914c0-1.764,0.258-3.395,0.776-4.893
			c0.518-1.497,1.309-2.778,2.373-3.843c0.812-0.84,1.799-1.512,2.961-2.017c1.162-0.504,2.499-0.755,4.012-0.755
			c1.623,0,3.135,0.329,4.536,0.987c1.399,0.658,2.547,1.673,3.443,3.045c0.812,1.203,1.33,2.429,1.555,3.674
			C216.146,127.916,216.258,129.224,216.258,130.595z M211.008,128.245c-0.028-1.596-0.477-2.871-1.345-3.822
			c-0.364-0.392-0.818-0.699-1.364-0.924c-0.547-0.224-1.197-0.336-1.953-0.336c-0.812,0-1.527,0.154-2.143,0.462
			c-0.616,0.309-1.12,0.714-1.512,1.218c-0.393,0.476-0.672,0.98-0.84,1.513s-0.267,1.162-0.294,1.89H211.008z"/>
		<path fill="#171717" d="M238.349,134.585c0,1.064-0.175,1.989-0.525,2.772c-0.351,0.784-0.805,1.456-1.364,2.016
			c-0.896,0.896-1.989,1.541-3.276,1.933c-1.288,0.392-2.688,0.588-4.2,0.588c-1.4,0-2.702-0.204-3.906-0.609
			s-2.254-1.043-3.149-1.911c-0.645-0.615-1.19-1.357-1.639-2.226c-0.448-0.867-0.672-1.82-0.672-2.856h4.914
			c0,0.476,0.111,0.951,0.336,1.427c0.224,0.477,0.504,0.855,0.841,1.135c0.42,0.336,0.888,0.581,1.406,0.734
			c0.518,0.154,1.155,0.231,1.911,0.231c0.447,0,0.931-0.035,1.449-0.104c0.518-0.07,1.001-0.203,1.449-0.399
			c0.447-0.195,0.818-0.476,1.112-0.84c0.295-0.363,0.441-0.841,0.441-1.429c0-0.644-0.196-1.16-0.588-1.553
			c-0.393-0.393-0.924-0.644-1.596-0.756c-0.981-0.14-1.989-0.259-3.024-0.358c-1.036-0.098-2.044-0.258-3.024-0.481
			c-0.756-0.169-1.435-0.435-2.036-0.798c-0.604-0.364-1.128-0.806-1.575-1.323c-0.448-0.518-0.792-1.092-1.029-1.723
			c-0.238-0.63-0.357-1.295-0.357-1.995c0-1.12,0.21-2.079,0.631-2.877c0.42-0.798,0.951-1.476,1.596-2.036
			c0.812-0.701,1.777-1.239,2.897-1.617c1.12-0.377,2.366-0.566,3.738-0.566c1.315,0,2.583,0.21,3.801,0.629
			c1.219,0.42,2.232,1.064,3.046,1.933c0.588,0.645,1.056,1.35,1.406,2.121c0.35,0.771,0.525,1.561,0.525,2.372h-4.998
			c0-0.42-0.084-0.798-0.252-1.134s-0.378-0.644-0.63-0.924c-0.309-0.308-0.722-0.553-1.239-0.735
			c-0.519-0.182-1.058-0.273-1.617-0.273c-0.393,0-0.771,0.016-1.134,0.043c-0.364,0.027-0.742,0.126-1.134,0.293
			c-0.477,0.196-0.875,0.49-1.197,0.882c-0.322,0.394-0.483,0.868-0.483,1.429c0,0.784,0.273,1.322,0.819,1.616
			c0.546,0.293,1.113,0.482,1.701,0.566c0.504,0.057,0.924,0.104,1.26,0.147c0.336,0.042,0.672,0.084,1.008,0.127
			c0.336,0.041,0.687,0.091,1.051,0.146c0.363,0.057,0.812,0.127,1.344,0.211c1.735,0.28,3.163,0.945,4.284,1.995
			C237.789,131.457,238.349,132.851,238.349,134.585z"/>
		<path fill="#171717" d="M243.389,116.484v-5.418h5.628v5.418H243.389z M243.558,141.349v-21.841h5.334v21.841H243.558z"/>
		<path fill="#171717" d="M274.931,144.246c0,1.428-0.322,2.618-0.966,3.57c-0.645,0.951-1.47,1.701-2.478,2.247
			c-1.009,0.546-2.143,0.931-3.402,1.155c-1.26,0.224-2.492,0.336-3.696,0.336c-1.344,0-2.682-0.098-4.011-0.293
			c-1.33-0.197-2.568-0.702-3.717-1.513c-0.84-0.589-1.491-1.274-1.953-2.058c-0.462-0.784-0.693-1.695-0.693-2.73
			c0-0.952,0.224-1.827,0.672-2.625c0.447-0.798,1.093-1.407,1.933-1.827c-0.7-0.392-1.239-0.93-1.617-1.616
			s-0.567-1.393-0.567-2.12c0-1.877,0.867-3.346,2.604-4.41c-0.672-0.672-1.204-1.457-1.597-2.353s-0.588-1.903-0.588-3.023
			c0-1.288,0.237-2.437,0.714-3.443c0.477-1.009,1.12-1.849,1.933-2.521c0.812-0.672,1.757-1.183,2.835-1.533
			c1.077-0.35,2.232-0.524,3.465-0.524c0.896,0,1.765,0.119,2.604,0.357s1.623,0.566,2.352,0.986
			c0.476-0.951,1.105-1.646,1.89-2.079s1.639-0.65,2.562-0.65c0.168,0,0.405,0,0.713,0c0.309,0,0.547,0.028,0.715,0.084v4.073
			l-0.421-0.041c-0.615,0-1.168,0.098-1.658,0.294s-0.818,0.561-0.986,1.092c0.756,1.232,1.133,2.548,1.133,3.948
			c0,1.26-0.245,2.38-0.735,3.359s-1.141,1.806-1.953,2.479c-0.812,0.672-1.757,1.19-2.835,1.554s-2.205,0.546-3.381,0.546
			c-1.232,0-2.408-0.195-3.528-0.588c-0.252,0.14-0.497,0.344-0.734,0.609c-0.238,0.267-0.357,0.581-0.357,0.944
			c0,0.644,0.259,1.071,0.777,1.28c0.518,0.21,1.057,0.316,1.617,0.316h3.611c0.532,0,1.106,0.007,1.723,0.021
			c0.615,0.015,1.239,0.07,1.869,0.168s1.245,0.246,1.848,0.44c0.602,0.196,1.155,0.476,1.659,0.84
			c0.951,0.645,1.63,1.414,2.036,2.31C274.728,142.203,274.931,143.181,274.931,144.246z M269.975,144.372
			c0-0.671-0.183-1.19-0.546-1.553c-0.364-0.364-0.805-0.63-1.322-0.798c-0.52-0.169-1.079-0.267-1.681-0.294
			c-0.603-0.028-1.155-0.042-1.659-0.042h-4.115c-0.562,0.168-1.029,0.482-1.407,0.944s-0.567,1.043-0.567,1.742
			s0.189,1.245,0.567,1.639c0.378,0.393,0.847,0.693,1.407,0.902c0.56,0.21,1.161,0.343,1.806,0.4
			c0.644,0.056,1.218,0.084,1.722,0.084c0.531,0,1.134-0.021,1.807-0.063c0.672-0.042,1.302-0.161,1.89-0.356
			c0.587-0.196,1.085-0.498,1.491-0.903C269.772,145.667,269.975,145.1,269.975,144.372z M267.665,126.984
			c0-1.176-0.344-2.147-1.03-2.918c-0.686-0.771-1.631-1.156-2.835-1.156s-2.149,0.385-2.835,1.156
			c-0.686,0.771-1.029,1.742-1.029,2.918s0.343,2.143,1.029,2.898c0.686,0.755,1.631,1.134,2.835,1.134s2.149-0.379,2.835-1.134
			C267.322,129.126,267.665,128.16,267.665,126.984z"/>
		<path fill="#171717" d="M292.404,141.349v-13.398c0-1.287-0.251-2.297-0.757-3.024c-0.504-0.728-1.456-1.091-2.855-1.091
			c-0.924,0-1.693,0.259-2.31,0.777c-0.617,0.518-1.106,1.183-1.47,1.995c-0.364,0.813-0.574,1.758-0.63,2.835
			c-0.056,1.078-0.084,2.078-0.084,3.003v8.903h-5.25v-21.84h4.41l0.378,2.814c0.644-1.148,1.561-1.996,2.751-2.541
			c1.19-0.546,2.416-0.818,3.675-0.818c1.176,0,2.219,0.196,3.129,0.588c0.909,0.393,1.681,0.932,2.311,1.617
			c0.629,0.686,1.112,1.511,1.448,2.478c0.337,0.967,0.505,2.009,0.505,3.13v14.573L292.404,141.349L292.404,141.349z"/>
		<path fill="#171717" d="M332.975,141.39l-2.101-2.353c-1.203,1.064-2.527,1.849-3.969,2.353c-1.442,0.504-2.934,0.756-4.473,0.756
			c-1.316,0-2.576-0.21-3.78-0.63s-2.254-1.014-3.15-1.785c-0.896-0.77-1.61-1.715-2.142-2.835c-0.532-1.121-0.798-2.381-0.798-3.78
			c0-1.848,0.482-3.431,1.448-4.746c0.967-1.315,2.247-2.464,3.844-3.444c-0.476-0.504-0.91-1-1.302-1.49
			c-0.394-0.49-0.729-0.987-1.009-1.491c-0.28-0.504-0.497-1.036-0.65-1.597c-0.154-0.56-0.231-1.189-0.231-1.89
			c0-1.176,0.217-2.226,0.651-3.149c0.435-0.925,1.015-1.715,1.743-2.374c0.728-0.657,1.588-1.154,2.583-1.49
			c0.993-0.336,2.051-0.504,3.171-0.504c1.092,0,2.135,0.161,3.129,0.481c0.994,0.323,1.87,0.798,2.625,1.428
			c0.756,0.631,1.357,1.401,1.807,2.311c0.447,0.909,0.672,1.953,0.672,3.129c0,0.979-0.141,1.855-0.42,2.625
			c-0.281,0.771-0.672,1.47-1.176,2.1c-0.505,0.631-1.1,1.212-1.785,1.743c-0.687,0.532-1.436,1.037-2.247,1.513l5.165,5.628
			c0.252-0.476,0.428-1.029,0.525-1.659c0.098-0.631,0.175-1.295,0.231-1.995c0.057-0.672,0.084-1.33,0.084-1.974
			c0-0.645,0-1.204,0-1.681h7.687v4.158h-3.444c-0.056,1.176-0.209,2.339-0.462,3.485c-0.252,1.148-0.7,2.212-1.344,3.192
			l5.501,5.964h-6.384V141.39z M320.921,128.202c-0.505,0.309-0.967,0.603-1.386,0.883c-0.42,0.28-0.791,0.602-1.113,0.966
			s-0.574,0.777-0.756,1.239c-0.183,0.462-0.272,1.002-0.272,1.616c0,0.756,0.146,1.428,0.439,2.016
			c0.294,0.589,0.687,1.078,1.176,1.471c0.49,0.393,1.057,0.687,1.701,0.882c0.644,0.196,1.316,0.294,2.017,0.294
			c0.896,0,1.791-0.127,2.688-0.378c0.896-0.252,1.666-0.741,2.31-1.471L320.921,128.202z M326.128,118.5
			c0-1.035-0.314-1.833-0.943-2.394c-0.63-0.56-1.423-0.841-2.374-0.841c-0.867,0-1.639,0.26-2.31,0.778
			c-0.672,0.518-1.008,1.296-1.008,2.331c0,0.476,0.092,0.924,0.273,1.344s0.405,0.82,0.672,1.198
			c0.266,0.378,0.566,0.735,0.902,1.071s0.658,0.658,0.967,0.966c0.447-0.251,0.902-0.511,1.364-0.777
			c0.462-0.266,0.875-0.566,1.239-0.903c0.363-0.336,0.658-0.728,0.883-1.176C326.017,119.648,326.128,119.117,326.128,118.5z"/>
		<path fill="#171717" d="M353.346,116.484v-5.418h5.628v5.418H353.346z M353.513,141.349v-21.841h5.335v21.841H353.513z"/>
		<path fill="#171717" d="M379.007,141.349v-13.398c0-1.287-0.251-2.297-0.756-3.024c-0.504-0.728-1.456-1.091-2.856-1.091
			c-0.924,0-1.693,0.259-2.309,0.777c-0.617,0.518-1.106,1.183-1.471,1.995c-0.364,0.813-0.574,1.758-0.63,2.835
			c-0.057,1.078-0.084,2.078-0.084,3.003v8.903h-5.25v-21.84h4.41l0.378,2.814c0.644-1.148,1.561-1.996,2.751-2.541
			c1.19-0.546,2.416-0.818,3.675-0.818c1.177,0,2.219,0.196,3.13,0.588c0.909,0.393,1.68,0.932,2.31,1.617
			c0.629,0.686,1.113,1.511,1.449,2.478s0.504,2.009,0.504,3.13v14.573L379.007,141.349L379.007,141.349z"/>
		<path fill="#171717" d="M403.032,141.054c-1.513,0.393-3.011,0.589-4.494,0.589c-2.213,0-3.864-0.595-4.957-1.785
			c-1.091-1.19-1.638-2.835-1.638-4.936v-11.088h-3.99v-4.326h3.99v-5.544l5.25-1.302v6.846h5.502v4.326h-5.502v10.626
			c0,0.84,0.196,1.449,0.589,1.827c0.392,0.378,1.007,0.567,1.847,0.567c0.56,0,1.086-0.015,1.576-0.042
			c0.489-0.027,1.099-0.084,1.827-0.169V141.054L403.032,141.054z"/>
		<path fill="#171717" d="M426.172,130.595c-0.028,0.197-0.042,0.379-0.042,0.547v0.925h-14.615c0,0.84,0.132,1.638,0.397,2.394
			s0.666,1.386,1.198,1.891c0.392,0.363,0.847,0.678,1.364,0.943c0.518,0.267,1.141,0.4,1.869,0.4c0.756,0,1.379-0.077,1.869-0.231
			c0.489-0.153,0.931-0.427,1.322-0.818c0.505-0.505,0.854-1.12,1.05-1.848h5.041c-0.057,0.645-0.273,1.352-0.651,2.121
			c-0.378,0.771-0.777,1.407-1.196,1.911c-0.924,1.091-2.03,1.876-3.318,2.352c-1.288,0.477-2.632,0.714-4.031,0.714
			c-1.513,0-2.822-0.246-3.928-0.735c-1.106-0.489-2.094-1.141-2.961-1.953c-1.092-1.063-1.926-2.338-2.499-3.823
			c-0.574-1.483-0.861-3.121-0.861-4.914c0-1.764,0.259-3.395,0.778-4.893c0.517-1.497,1.309-2.778,2.373-3.843
			c0.812-0.84,1.8-1.512,2.961-2.017c1.161-0.504,2.499-0.755,4.011-0.755c1.624,0,3.137,0.329,4.537,0.987s2.548,1.673,3.443,3.045
			c0.812,1.203,1.329,2.429,1.554,3.674C426.06,127.916,426.172,129.224,426.172,130.595z M420.922,128.245
			c-0.028-1.596-0.477-2.871-1.344-3.822c-0.364-0.392-0.819-0.699-1.365-0.924c-0.547-0.224-1.197-0.336-1.954-0.336
			c-0.812,0-1.526,0.154-2.142,0.462c-0.616,0.309-1.12,0.714-1.512,1.218c-0.393,0.476-0.671,0.98-0.84,1.513
			c-0.168,0.532-0.267,1.162-0.294,1.89H420.922z"/>
		<path fill="#171717" d="M444.024,124.38c-0.645-0.14-1.246-0.21-1.807-0.21c-1.848,0-3.249,0.588-4.2,1.765
			c-0.952,1.177-1.428,2.646-1.428,4.41v11.004h-5.293v-21.84h4.452l0.462,3.276c0.506-1.26,1.338-2.17,2.499-2.73
			c1.162-0.56,2.387-0.84,3.676-0.84c0.531,0,1.077,0.042,1.638,0.127L444.024,124.38L444.024,124.38z"/>
		<path fill="#171717" d="M467.123,141.096c-0.448,0.196-0.833,0.343-1.155,0.44c-0.323,0.098-0.806,0.147-1.449,0.147
			c-1.148,0-2.03-0.309-2.646-0.925s-0.966-1.33-1.049-2.143c-0.505,0.896-1.345,1.666-2.521,2.311
			c-1.176,0.644-2.549,0.966-4.116,0.966c-1.315,0-2.464-0.189-3.443-0.567c-0.98-0.377-1.8-0.882-2.457-1.511
			c-0.658-0.63-1.154-1.358-1.49-2.186c-0.337-0.825-0.505-1.686-0.505-2.583c0-1.035,0.189-1.959,0.567-2.771
			c0.377-0.812,0.902-1.513,1.575-2.102c0.672-0.588,1.455-1.042,2.352-1.364c0.896-0.321,1.862-0.524,2.898-0.609l6.426-0.462
			v-1.344c0-1.036-0.245-1.869-0.735-2.499c-0.49-0.629-1.477-0.945-2.961-0.945c-1.233,0-2.191,0.267-2.877,0.798
			c-0.687,0.532-1.057,1.303-1.112,2.311h-5.082c0.084-1.232,0.37-2.296,0.86-3.192c0.489-0.895,1.141-1.631,1.953-2.205
			c0.812-0.573,1.75-1.001,2.814-1.28c1.063-0.28,2.211-0.42,3.443-0.42c1.876,0,3.55,0.329,5.02,0.987
			c1.469,0.658,2.526,1.812,3.171,3.465c0.28,0.7,0.455,1.427,0.525,2.184c0.069,0.757,0.104,1.499,0.104,2.227v8.106
			c0,0.504,0.091,0.859,0.273,1.07c0.182,0.209,0.496,0.315,0.944,0.315c0.224,0,0.378-0.014,0.462-0.042
			c0.084,0,0.154-0.015,0.21-0.042V141.096z M460.109,131.646l-5.544,0.42c-0.812,0.057-1.539,0.322-2.184,0.798
			s-0.968,1.161-0.968,2.058c0,0.84,0.316,1.505,0.945,1.996c0.63,0.489,1.351,0.735,2.163,0.735c1.652,0,2.996-0.428,4.032-1.281
			c1.035-0.854,1.554-2.093,1.554-3.717L460.109,131.646L460.109,131.646z"/>
		<path fill="#171717" d="M489.551,133.621c-0.057,0.868-0.225,1.716-0.504,2.541c-0.281,0.825-0.672,1.562-1.176,2.205
			c-0.756,0.952-1.771,1.764-3.045,2.436c-1.275,0.672-2.752,1.009-4.433,1.009c-1.68,0-3.177-0.344-4.494-1.029
			c-1.315-0.686-2.352-1.491-3.107-2.415c-0.812-1.036-1.415-2.227-1.807-3.57c-0.393-1.345-0.589-2.813-0.589-4.41
			c0-1.596,0.196-3.065,0.589-4.41c0.392-1.344,0.994-2.533,1.807-3.569c0.756-0.924,1.792-1.729,3.107-2.415
			c1.316-0.687,2.814-1.029,4.494-1.029c1.681,0,3.156,0.335,4.433,1.008c1.273,0.672,2.289,1.485,3.045,2.437
			c0.504,0.645,0.896,1.38,1.176,2.205c0.279,0.826,0.446,1.673,0.504,2.541h-5.166c-0.028-0.393-0.098-0.756-0.211-1.093
			c-0.111-0.336-0.251-0.644-0.42-0.924c-0.308-0.476-0.741-0.867-1.302-1.176c-0.561-0.308-1.246-0.462-2.059-0.462
			c-0.729,0-1.351,0.126-1.869,0.378c-0.518,0.251-0.959,0.574-1.322,0.966c-0.645,0.7-1.05,1.542-1.219,2.521
			c-0.168,0.98-0.251,1.988-0.251,3.023c0,1.036,0.084,2.036,0.251,3.003c0.169,0.967,0.574,1.8,1.219,2.499
			c0.363,0.393,0.805,0.721,1.322,0.986c0.518,0.267,1.141,0.4,1.869,0.4c0.812,0,1.498-0.153,2.059-0.462
			c0.56-0.308,0.994-0.7,1.302-1.177c0.169-0.28,0.309-0.589,0.42-0.924c0.112-0.336,0.182-0.7,0.211-1.092H489.551L489.551,133.621
			z"/>
		<path fill="#171717" d="M506.771,141.054c-1.512,0.393-3.01,0.589-4.493,0.589c-2.213,0-3.864-0.595-4.957-1.785
			c-1.092-1.19-1.639-2.835-1.639-4.936v-11.088h-3.989v-4.326h3.989v-5.544l5.25-1.302v6.846h5.502v4.326h-5.502v10.626
			c0,0.84,0.196,1.449,0.589,1.827s1.009,0.567,1.848,0.567c0.56,0,1.085-0.015,1.576-0.042c0.489-0.027,1.098-0.084,1.826-0.169
			V141.054z"/>
		<path fill="#171717" d="M511.348,116.484v-5.418h5.629v5.418H511.348z M511.517,141.349v-21.841h5.334v21.841H511.517z"/>
		<path fill="#171717" d="M542.136,130.595c-0.029,0.197-0.043,0.379-0.043,0.547v0.925h-14.615c0,0.84,0.132,1.638,0.398,2.394
			c0.266,0.756,0.666,1.386,1.197,1.891c0.392,0.363,0.847,0.678,1.364,0.943c0.518,0.267,1.141,0.4,1.87,0.4
			c0.755,0,1.378-0.077,1.868-0.231c0.49-0.153,0.93-0.427,1.322-0.818c0.505-0.505,0.854-1.12,1.05-1.848h5.041
			c-0.057,0.645-0.273,1.352-0.651,2.121c-0.378,0.771-0.777,1.407-1.197,1.911c-0.924,1.091-2.03,1.876-3.317,2.352
			c-1.289,0.477-2.633,0.714-4.032,0.714c-1.513,0-2.821-0.246-3.928-0.735s-2.094-1.141-2.961-1.953
			c-1.092-1.063-1.926-2.338-2.499-3.823c-0.574-1.483-0.86-3.121-0.86-4.914c0-1.764,0.258-3.395,0.777-4.893
			c0.517-1.497,1.309-2.778,2.373-3.843c0.812-0.84,1.8-1.512,2.961-2.017c1.161-0.504,2.499-0.755,4.012-0.755
			c1.623,0,3.136,0.329,4.536,0.987s2.548,1.673,3.443,3.045c0.812,1.203,1.329,2.429,1.554,3.674
			C542.023,127.916,542.136,129.224,542.136,130.595z M536.885,128.245c-0.028-1.596-0.476-2.871-1.344-3.822
			c-0.364-0.392-0.819-0.699-1.365-0.924c-0.547-0.224-1.197-0.336-1.953-0.336c-0.813,0-1.527,0.154-2.143,0.462
			c-0.616,0.309-1.12,0.714-1.512,1.218c-0.393,0.476-0.671,0.98-0.84,1.513c-0.168,0.532-0.267,1.162-0.294,1.89H536.885z"/>
	</g>
</g>
</svg>
