<?xml version="1.0" encoding="utf-8"?>
<!-- Generator: Adobe Illustrator 15.0.2, SVG Export Plug-In . SVG Version: 6.00 Build 0)  -->
<!DOCTYPE svg PUBLIC "-//W3C//DTD SVG 1.1//EN" "http://www.w3.org/Graphics/SVG/1.1/DTD/svg11.dtd">
<svg version="1.1" id="Layer_1" xmlns="http://www.w3.org/2000/svg" xmlns:xlink="http://www.w3.org/1999/xlink" x="0px" y="0px"
	 width="468.608px" height="93.245px" viewBox="0 0 468.608 93.245" enable-background="new 0 0 468.608 93.245"
	 xml:space="preserve">
<g>
	<g>
		<path fill="#171717" d="M0.581,60.167C0.291,59.876,0,59.354,0,58.772c0-1.046,0.93-1.977,1.977-1.977
			c0.64,0,1.104,0.349,1.453,0.698c1.919,2.674,4.012,4.011,7.325,4.011c4.011,0,6.976-2.906,6.976-8.546v-22.09
			c0-1.104,0.93-2.035,2.034-2.035c1.105,0,1.977,0.931,1.977,2.035v22.032c0,4.186-1.221,7.324-3.255,9.359
			c-1.977,1.918-4.709,2.965-7.848,2.965C5.988,65.283,2.733,63.132,0.581,60.167z"/>
		<path fill="#171717" d="M32.787,49.82V30.869c0-1.104,0.93-2.035,1.977-2.035c1.104,0,2.034,0.931,2.034,2.035v18.719
			c0,7.674,4.128,12.033,10.871,12.033c6.569,0,10.755-3.953,10.755-11.743V30.926c0-1.104,0.93-2.034,2.034-2.034
			c1.047,0,1.977,0.93,1.977,2.034v18.661c0,10.405-5.93,15.812-14.882,15.812C38.775,65.283,32.787,59.935,32.787,49.82z"/>
		<path fill="#171717" d="M73.538,30.926c0-1.046,0.93-1.977,1.977-1.977h0.581c0.931,0,1.453,0.466,2.035,1.163l21.625,27.613
			V30.81c0-1.046,0.872-1.977,1.977-1.977c1.047,0,1.918,0.931,1.918,1.977v32.206c0,1.046-0.755,1.86-1.859,1.86h-0.175
			c-0.872,0-1.453-0.523-2.093-1.221L77.433,35.403v27.613c0,1.046-0.872,1.977-1.977,1.977c-1.046,0-1.918-0.931-1.918-1.977
			V30.926z"/>
		<path fill="#171717" d="M114.348,47.03v-0.116c0-9.767,7.208-18.429,17.904-18.429c5.406,0,8.895,1.453,12.15,3.837
			c0.465,0.349,0.813,0.93,0.813,1.628c0,1.104-0.93,2.034-1.977,2.034c-0.465,0-0.872-0.174-1.279-0.523
			c-2.558-1.918-5.406-3.255-9.882-3.255c-7.906,0-13.545,6.686-13.545,14.591v0.117c0,8.487,5.464,14.823,14.126,14.823
			c4.069,0,7.848-1.569,10.289-3.546v-8.836h-9.592c-0.988,0-1.802-0.814-1.802-1.803c0-1.046,0.813-1.86,1.802-1.86h11.452
			c1.047,0,1.977,0.931,1.977,2.035v10.871c0,0.988-0.465,1.86-1.395,2.441c-3.256,2.383-7.616,4.302-12.906,4.302
			C121.265,65.341,114.348,57.203,114.348,47.03z"/>
		<path fill="#171717" d="M157.308,30.869c0-1.104,0.93-2.035,1.977-2.035c1.104,0,2.034,0.931,2.034,2.035V61.04h18.486
			c1.047,0,1.86,0.872,1.86,1.86c0,1.046-0.813,1.86-1.86,1.86h-20.521c-1.047,0-1.977-0.931-1.977-2.035V30.869z"/>
		<path fill="#171717" d="M190.617,62.725V31.159c0-1.104,0.931-2.034,1.977-2.034h22.148c1.047,0,1.86,0.813,1.86,1.86
			c0,1.046-0.813,1.86-1.86,1.86h-20.113v12.149h17.847c1.046,0,1.86,0.872,1.86,1.86s-0.814,1.86-1.86,1.86h-17.847v12.498h20.347
			c1.046,0,1.86,0.814,1.86,1.86c0,1.047-0.814,1.86-1.86,1.86h-22.382C191.548,64.76,190.617,63.83,190.617,62.725z"/>
	</g>
	<g>
		<path fill="#171717" d="M268.981,30.636c0-1.047,0.93-1.977,1.977-1.977h0.465c0.872,0,1.453,0.465,1.86,1.046l12.731,19.126
			l12.73-19.126c0.407-0.64,1.047-1.046,1.86-1.046h0.465c1.047,0,1.977,0.93,1.977,1.977v32.031c0,1.104-0.93,2.034-1.977,2.034
			c-1.104,0-2.034-0.988-2.034-2.034V36.1l-11.395,16.742c-0.465,0.64-0.987,1.047-1.686,1.047c-0.697,0-1.278-0.349-1.744-1.047
			l-11.336-16.684v26.566c0,1.104-0.872,1.977-1.977,1.977c-1.046,0-1.918-0.872-1.918-1.977V30.636L268.981,30.636z"/>
		<path fill="#171717" d="M315.37,30.578c0-1.104,0.931-2.034,1.977-2.034c1.104,0,2.035,0.93,2.035,2.034v32.09
			c0,1.104-0.931,2.034-2.035,2.034c-1.046,0-1.977-0.93-1.977-2.034V30.578z"/>
		<path fill="#171717" d="M331.59,30.636c0-1.047,0.93-1.977,1.977-1.977h0.581c0.93,0,1.453,0.465,2.034,1.162l21.626,27.613
			V30.578c0-1.046,0.872-1.977,1.977-1.977c1.046,0,1.918,0.931,1.918,1.977v32.206c0,1.046-0.756,1.86-1.86,1.86h-0.174
			c-0.872,0-1.454-0.523-2.093-1.221L335.485,35.17v27.613c0,1.046-0.872,1.977-1.977,1.977c-1.046,0-1.918-0.931-1.918-1.977
			V30.636L331.59,30.636z"/>
		<path fill="#171717" d="M373.619,30.869c0-1.104,0.931-2.035,1.977-2.035h10.406c11.22,0,18.951,7.674,18.951,17.73v0.116
			c0,10.058-7.731,17.848-18.951,17.848h-10.406c-1.046,0-1.977-0.931-1.977-2.035V30.869L373.619,30.869z M386.002,60.749
			c9.011,0,14.766-6.104,14.766-14.01v-0.116c0-7.906-5.755-14.126-14.766-14.126h-8.371v28.194h8.371V60.749z"/>
		<path fill="#171717" d="M414.022,60.167c-0.465-0.291-0.755-0.872-0.755-1.512c0-1.104,0.871-1.977,1.918-1.977
			c0.523,0,0.988,0.175,1.221,0.465c3.372,2.849,6.743,4.244,11.277,4.244c4.768,0,7.965-2.558,7.965-6.046v-0.116
			c0-3.313-1.803-5.174-9.243-6.802c-8.197-1.802-11.976-4.418-11.976-10.289v-0.116c0-5.581,4.941-9.709,11.685-9.709
			c4.709,0,8.081,1.163,11.336,3.488c0.407,0.291,0.872,0.872,0.872,1.628c0,1.046-0.872,1.918-1.918,1.918
			c-0.466,0-0.814-0.116-1.163-0.349c-3.022-2.209-5.93-3.081-9.243-3.081c-4.65,0-7.615,2.558-7.615,5.755v0.117
			c0,3.371,1.86,5.231,9.65,6.917c7.964,1.744,11.626,4.651,11.626,10.058v0.116c0,6.104-5.115,10.057-12.149,10.057
			C422.277,64.993,417.975,63.365,414.022,60.167z"/>
	</g>
	<path fill="#171717" d="M462.04,93.245H247.181c-3.604,0-6.511-2.965-6.511-6.568V6.569c0-3.604,2.906-6.569,6.511-6.569h214.917
		c3.604,0,6.511,2.965,6.511,6.569v80.107C468.609,90.338,465.644,93.245,462.04,93.245z M247.181,4.069
		c-1.337,0-2.441,1.104-2.441,2.5v80.107c0,1.395,1.104,2.499,2.441,2.499h214.917c1.337,0,2.441-1.104,2.441-2.499V6.569
		c0-1.396-1.104-2.5-2.441-2.5H247.181z"/>
</g>
</svg>
