<svg xmlns="http://www.w3.org/2000/svg" width="535" height="261" viewBox="0 0 535.3 261.4"><style>.a{fill:#231F20;}.b{fill:#FFF;}</style><path d="M101.3 209.1c0-10.7-0.7-19.4-7.5-28.5 -6.2-8.2-15.3-13.1-25.9-13.1 -11.8 0-21.6 5.4-27.4 15.4v-43.5H7.6v19.1h11.8v81.4H7.6v19.1h44.6v-19.1H40.4v-27.1c0-6.7-0.2-12.4 4.4-17.9 3.8-4.7 9.6-7.2 15.8-7.2 6.7 0 12.9 2.5 16.6 8.2 3.6 5.7 3.1 12.2 3.1 18.7v25.3H68.5v19.1h44.6v-19.1h-11.8V209.1z" class="a"/><path d="M428.6 139.5h-32.9v19.1h12v24.1c-7.2-9.2-18.6-14.5-30.2-14.5 -25.9 0-46.5 21.3-46.5 46.2 0 24.8 21.1 46 46.7 46 12.2 0 23.2-4.7 30-14.7v13.3h32.8v-19.1h-11.8V139.5H428.6zM380.4 241.5c-15.3 0-27.6-12.2-27.6-26.9 0-15.2 12.3-27.4 28-27.4 14.9 0 27.4 12.1 27.4 26.8C408.2 229 395.9 241.5 380.4 241.5z" class="a"/><path d="M188.4 182.3c-6.3-9.7-16.6-15-28.5-15 -26.7 0-48 21.6-48 47.5 0 25.3 20.8 46.5 47 46.5 12 0 22.8-4.5 29.5-14.4v12h32.8v-19.1h-11.6v-51.2h11.5v-19.1H188.4V182.3zM160.7 241.3c-14.7 0-27.3-12-27.3-26.6 0-15 12-27.6 27.6-27.6 15.1 0 27.6 11.9 27.6 26.6C188.7 229 176.5 241.3 160.7 241.3z" class="a"/><path d="M320.5 204.9c0-10.2-0.2-18.1-7.7-26.3 -6.7-7-16.5-11-26.4-11 -11.3 0-21.6 4.9-27.1 14.7v-12.8h-32.8v19.1h11.8v51.2h-11.8v19.1h44.6v-19.1h-11.8V213.9c0-6 0-13.7 3.9-18.7 3.8-5 10.3-7.5 16.6-7.5 6.2 0 12.3 2.3 16.1 7.2 3.6 4.9 3.6 10.5 3.6 16.1v29h-11.8v19.1h44.6v-19.1h-11.8V204.9L320.5 204.9z" class="a"/><path d="M535.3 214.8c0-12.7-3.8-24.1-12.9-33.5 -8.9-8.9-21.6-14.4-34.3-14.4 -27.3 0-47.7 21.3-47.7 47.7 0 26.3 21.4 46.7 48.2 46.7 19 0 36.1-11.5 43.2-28.6h-21.8c-5.2 7.3-13.1 10.7-22.1 10.7 -13.1 0-24.7-9.1-27.4-21.4h74.1L535.3 214.8zM460.3 206.3c2.6-11.7 14.4-21.1 26.8-21.1 13.6 0 25.2 8.2 28.8 21.1H460.3z" class="a"/><path d="M253.1 32c-27.3 0-47.7 21.3-47.7 47.7 0 26.3 21.4 46.7 48.2 46.7 19 0 36.1-11.5 43.2-28.6h-21.8c-5.2 7.3-13.1 10.7-22.1 10.7 -13.1 0-24.7-9.1-27.4-21.4h74.1l0.7-7.2c0-12.7-3.8-24.1-12.9-33.5C278.5 37.5 265.8 32 253.1 32zM225.3 71.4c2.6-11.7 14.4-21.1 26.8-21.1 13.6 0 25.2 8.2 28.8 21.1H225.3z" class="b"/><path d="M76.5 47.3c-6.3-9.7-16.6-15-28.5-15C21.3 32.3 0 53.9 0 79.8c0 25.3 20.8 46.5 47 46.5 12 0 22.8-4.5 29.5-14.4v12h32.8v-19.1H97.9V53.7h11.5V34.6H76.5V47.3zM48.9 106.4c-14.7 0-27.3-12-27.3-26.6 0-15 12-27.6 27.6-27.6 15.1 0 27.6 11.9 27.6 26.6C76.9 94 64.7 106.4 48.9 106.4z" class="b"/><path d="M362 33.6l-3.9 0.1c-11.1 0.9-20.6 6-25.8 16.1V34.6h-31.2v19.1h11.8v51.2h-11.8v19.1h44.6v-19.1h-11.8V82.3c0-8.4 1-15.6 7.9-21.3 5.2-4.5 11.3-6.2 18-6.5l3.9-0.1h3.2V33.6C366.8 33.6 362.1 33.6 362 33.6z" class="b"/><polygon points="193.2 4.5 160.4 4.5 160.4 23.5 172.3 23.5 172.3 104.9 164.8 104.9 162.5 104.9 145.5 104.9 145.5 4.5 112.7 4.5 112.7 23.5 124.5 23.5 124.5 104.9 124.5 123.9 162.5 123.9 164.8 123.9 205.1 123.9 205.1 104.9 193.2 104.9 " class="b"/><path d="M507.6 60.6L478.4 6.1c-3.1-5.7-10.2-7.8-15.8-4.7l-53.5 29.8c-2.4 1.4-4.6 3.8-5.7 7.2l-14.4 49.9c-1.7 6 1.7 12.2 7.5 14l84.4 24c5.9 1.7 12-1.7 13.7-7.6l13.9-48.9C509.5 66.9 509 63.3 507.6 60.6" fill="#00A0DD"/><path d="M453.9 56c4.7-6.8 9.1-13.6 17.1-13.6 8.9 0 13.7 7.5 13.7 13.7 0 0.1-0.1 40.1-0.1 40.1h-10l-0.1-38c0-5.2-4.2-5.2-4.3-5.2 -3.4 0-9.6 8.5-16.5 17.9v25.3H443.8V84.5c0 0-6.7 11.7-16.7 11.7 -11.3 0-15.2-7.8-15.2-26.5 0-17.8 2.5-27.4 14.7-27.4 9.2 0 17.2 13.5 17.2 13.5v-8.6l10.2-13.7C453.9 33.7 453.9 56.1 453.9 56M442 71.1c0 0-9.2-18.1-15.3-18.1 -4.6 0-5.1 4.9-5.1 16.8s0.7 16.5 5 16.5C432.7 86.2 442 71.1 442 71.1" class="b"/></svg>
