<svg xmlns="http://www.w3.org/2000/svg" width="75" height="19" viewBox="260.1 411.4 75 19.1"><style>.a{fill:#FFF;}</style><path d="M318.7 427.6c-1 0-1.8-0.9-1.8-1.8v-0.9c0.8 0.2 1.5 0.3 2.3 0.3 3.1 0 5.1-1.2 5.1-4.1 0-2.3-1.6-4.6-4.9-4.6 -2.2 0-5.3 1.7-5.3 4.9v4.3c0 3.1 2.4 4.7 4.6 4.7h4.7v-2.8H318.7zM316.8 421.5c0-0.9 0.8-2.2 2.5-2.2 1.5 0 2.1 0.9 2.1 1.8 0 1.3-1 1.5-2.4 1.5 -0.7 0-1.4-0.1-2.1-0.3v-0.9H316.8z" class="a"/><path d="M261.6 430.4c-0.8 0-1.4-0.6-1.4-1.4v-12.2h2.8v10.8h4.9v2.8H261.6z" class="a"/><path d="M272.1 416.8c0.8 0 1.4 0.6 1.4 1.4v12.2h-2.8v-10.8h-4.9v-2.8H272.1z" class="a"/><circle cx="272.2" cy="413" r="1.6" class="a"/><path d="M283.5 422.3v-1.2c0-0.8-0.6-1.4-1.4-1.4h-5.2v-2.8h5.2c2.5 0 4.2 1.8 4.2 4.2v8c0 0.8-0.6 1.4-1.4 1.4h-4.9c-2.2 0-4-2-4-4.3C275.9 421.6 280.1 421.3 283.5 422.3zM280 427.6h3.4v-2.8c-4.6-1.3-4.8 0.3-4.8 1.3C278.6 427 279.2 427.6 280 427.6z" class="a"/><path d="M296.4 430.4v-9.4c0-0.8-0.6-1.4-1.4-1.4h-3.2v10.8h-2.8v-12.2c0-0.8 0.6-1.4 1.4-1.4h4.6c2.5 0 4.2 1.8 4.2 4.2v9.5H296.4z" class="a"/><path d="M332.5 421.3c-0.6-1.3-0.9-1.6-1.7-1.6h-1.4v10.8h-2.8v-12.2c0-0.8 0.6-1.4 1.4-1.4h2.7c2.5 0 3.4 1.4 4.3 3.3L332.5 421.3z" class="a"/><path d="M306.6 427.6c-1.5 0-2.3-2.1-2.3-4 0-3.2 0.9-4.3 2.5-4.3 0.9 0 1.7 0.4 2 0.9v7.4H306.6zM305.9 430.4h4.3c0.8 0 1.4-0.6 1.4-1.4v-17.1h-2.8v5.4c-0.3-0.3-1.3-0.7-2.3-0.7 -3.2 0-5 2.6-5 7C301.5 428.1 303.9 430.4 305.9 430.4z" class="a"/></svg>
