<svg width="147" height="20" xmlns="http://www.w3.org/2000/svg" xmlns:xlink="http://www.w3.org/1999/xlink"><defs><path id="a" d="M.964.914h9.059v12.06H.964z"/><path id="c" d="M0 .126h15.632v19.832H0z"/><path id="e" d="M.914 0h17.87v20H.914z"/></defs><g fill="none" fill-rule="evenodd"><path d="M103.922 5.327l-.906 2.663h2.743l-.101.38h-2.742l-2.87 8.642c-.083.272-.167.553-.251.842-.084.29-.125.58-.125.87 0 .27.062.489.188.652.126.163.33.244.617.244.3 0 .587-.1.855-.298.268-.2.51-.431.73-.693a5.14 5.14 0 0 0 .553-.802c.152-.271.454-.15.303.149-.151.3-.353.598-.604.897a3.509 3.509 0 0 1-.944.775c-.378.217-.826.326-1.346.326-.638 0-1.116-.168-1.435-.503a1.69 1.69 0 0 1-.478-1.21c0-.361.063-.773.189-1.235.126-.462.255-.884.39-1.264l2.466-7.391h-2.265l.1-.381h2.266l.905-2.663h1.762z" fill="#13120D"/><path d="M106.13 18.98c.41.433.935.65 1.572.65.52 0 1.007-.16 1.46-.477a5.185 5.185 0 0 0 1.233-1.258c.368-.52.695-1.1.981-1.735a16.146 16.146 0 0 0 1.157-3.707c.101-.566.152-1.024.152-1.377 0-.849-.173-1.52-.516-2.014-.344-.493-.944-.742-1.8-.742-.487 0-.948.152-1.384.451a5.1 5.1 0 0 0-1.195 1.178 9.26 9.26 0 0 0-.969 1.656 15.098 15.098 0 0 0-1.157 3.773 9.952 9.952 0 0 0-.15 1.602c0 .901.204 1.569.615 2m-1.648-6.462a8.4 8.4 0 0 1 1.598-2.396 7.696 7.696 0 0 1 2.152-1.59c.788-.387 1.543-.582 2.264-.582.655 0 1.224.141 1.711.424.486.282.89.644 1.208 1.085.32.443.554.928.705 1.457.151.53.226 1.043.226 1.537a6.85 6.85 0 0 1-.629 2.9 9.158 9.158 0 0 1-1.585 2.397 7.578 7.578 0 0 1-2.127 1.628c-.78.396-1.522.596-2.227.596a3.496 3.496 0 0 1-1.623-.37 4.032 4.032 0 0 1-1.233-.98 4.352 4.352 0 0 1-.792-1.418 5.223 5.223 0 0 1-.277-1.707c0-1.06.21-2.054.63-2.98M117.78 9.872l.402-1.508h-2.19l.102-.391h3.875a32.27 32.27 0 0 1-.365 1.48 31.245 31.245 0 0 1-.515 1.73l.05.058c.167-.28.377-.615.629-1.006a9.54 9.54 0 0 1 .855-1.131c.319-.363.67-.67 1.057-.922a2.223 2.223 0 0 1 1.233-.377c.62 0 1.095.195 1.422.587.327.39.482.81.466 1.256 0 .298-.047.545-.14.74-.091.196-.21.345-.351.447a1.268 1.268 0 0 1-.44.21 1.805 1.805 0 0 1-.428.056.851.851 0 0 1-.58-.196c-.15-.13-.225-.325-.225-.586 0-.205.038-.36.113-.461.075-.102.155-.2.239-.294.084-.092.164-.195.239-.307a.79.79 0 0 0 .113-.447.551.551 0 0 0-.201-.446.758.758 0 0 0-.503-.168c-.32 0-.69.18-1.107.545-.42.363-.835.828-1.246 1.396a14.676 14.676 0 0 0-1.171 1.94 15.06 15.06 0 0 0-.905 2.18l-1.812 5.698h-1.762l2.718-8.603c.15-.483.294-.978.428-1.48M137.378 8.76c-.2-.247-.537-.369-1.007-.369-.52 0-1.019.158-1.497.473a5.94 5.94 0 0 0-1.296 1.172 8.938 8.938 0 0 0-1.007 1.5 9.716 9.716 0 0 0-.654 1.488c.386.07.814.105 1.284.105.604 0 1.174-.096 1.711-.289a5.214 5.214 0 0 0 1.422-.764c.411-.316.738-.685.981-1.106.243-.42.365-.859.365-1.316 0-.35-.1-.649-.302-.895m-.1 8.99a4.782 4.782 0 0 1-.83.974 5.498 5.498 0 0 1-1.297.87c-.512.253-1.128.38-1.85.38-.72 0-1.329-.123-1.824-.368a3.53 3.53 0 0 1-1.208-.948 3.8 3.8 0 0 1-.679-1.276 4.601 4.601 0 0 1-.214-1.356c0-.878.205-1.786.616-2.725.411-.938.948-1.799 1.611-2.58a9.257 9.257 0 0 1 2.252-1.935c.84-.508 1.694-.763 2.567-.763.335 0 .67.04 1.006.118.336.08.638.198.907.356.267.158.486.36.654.605.167.246.251.545.251.896 0 .473-.122.89-.364 1.25-.244.36-.559.667-.944.921-.387.255-.81.47-1.27.645-.463.175-.91.312-1.347.408-.437.097-.835.167-1.196.211a7.334 7.334 0 0 1-.792.066c-.286 0-.563-.01-.83-.027a6.323 6.323 0 0 1-.705-.079c-.185.562-.34 1.12-.466 1.672a7.856 7.856 0 0 0-.189 1.75c0 .948.235 1.655.705 2.12.47.465 1.065.697 1.786.697.537 0 1.011-.109 1.422-.329a4.823 4.823 0 0 0 1.082-.776c.31-.299.571-.6.781-.909.21-.307.566-.192.364.132" fill="#13120D"/><g transform="translate(137 7)"><mask id="b" fill="#fff"><use xlink:href="#a"/></mask><path d="M3.996 5.708c-.21-.345-.314-.756-.314-1.235 0-.407.1-.822.301-1.248.201-.425.48-.81.831-1.155A4.115 4.115 0 0 1 7.682.915c.705 0 1.271.163 1.7.49.427.329.641.749.641 1.262 0 .745-.344 1.116-1.032 1.116a.955.955 0 0 1-.617-.212c-.176-.143-.264-.346-.264-.612 0-.248.054-.429.164-.545a.613.613 0 0 0 .163-.438c0-.46-.285-.69-.855-.69-.403 0-.752.063-1.044.186A2.035 2.035 0 0 0 5.38 2.694a2.428 2.428 0 0 0-.139.797c0 .355.084.686.252.997.168.31.403.678.705 1.101l1.484 2.046c.202.265.34.546.416.838.075.292.113.588.113.889 0 .602-.143 1.128-.428 1.58a3.923 3.923 0 0 1-1.07 1.13 4.814 4.814 0 0 1-1.384.678c-.494.15-.96.224-1.396.224a4.5 4.5 0 0 1-1.107-.133 3.386 3.386 0 0 1-.944-.383 2.062 2.062 0 0 1-.667-.64 1.592 1.592 0 0 1-.25-.889c0-.408.12-.713.364-.917.243-.202.55-.304.918-.304.151 0 .29.057.415.171a.542.542 0 0 1 .19.412c0 .214-.043.413-.127.599a1.435 1.435 0 0 0-.126.598c0 .425.13.72.39.889.26.168.6.253 1.02.253a2.807 2.807 0 0 0 1.95-.745c.226-.213.398-.452.516-.716.117-.266.176-.514.176-.744 0-.354-.055-.673-.164-.957a4.519 4.519 0 0 0-.54-.956L4.687 6.76a17.338 17.338 0 0 1-.692-1.05" fill="#13120D" mask="url(#b)"/></g><path d="M130.523 4.21a1.113 1.113 0 1 1-2.227-.001 1.113 1.113 0 0 1 2.227 0M126.255 17.206l2.97-9.194h-4.002l-.1.38h2.24l-2.593 7.947a20.13 20.13 0 0 0-.302 1.017c-.1.371-.15.71-.15 1.017 0 .58.163.99.49 1.235.327.244.767.366 1.321.366.503 0 .94-.108 1.31-.326a3.54 3.54 0 0 0 .93-.773c.251-.299.448-.596.591-.895.142-.299-.163-.42-.315-.15a5.086 5.086 0 0 1-.554.8 4.449 4.449 0 0 1-.716.693c-.26.198-.525.299-.793.299-.235 0-.41-.078-.529-.232a.89.89 0 0 1-.176-.556c0-.253.042-.52.126-.8.084-.28.168-.556.252-.828" fill="#13120D"/><path d="M84.76 14.293c-.09.27-.171.527-.243.77a2.894 2.894 0 0 0-.108.822c0 .612.144 1.152.432 1.618a3.66 3.66 0 0 0 1.133 1.162c.467.306.989.538 1.565.7a6.433 6.433 0 0 0 1.753.244c.792 0 1.502-.113 2.132-.338.629-.224 1.16-.54 1.59-.945A4.03 4.03 0 0 0 94 16.898a4.704 4.704 0 0 0 .337-1.794c0-.666-.148-1.255-.445-1.768-.297-.513-.706-1.011-1.228-1.498l-1.915-1.752c-.864-.774-1.543-1.543-2.037-2.308-.495-.764-.742-1.631-.742-2.603 0-.755.17-1.447.513-2.077.34-.63.8-1.17 1.376-1.62A6.642 6.642 0 0 1 91.842.426a7.16 7.16 0 0 1 2.306-.378c.557 0 1.048.05 1.47.15.423.098.81.21 1.16.336.352.126.675.238.972.338.297.099.598.148.904.148.27 0 .476-.063.62-.189.144-.125.26-.296.35-.512l.406.08-1.862 5.154h-.324l.149-.607c.062-.26.094-.59.094-.985 0-.647-.108-1.196-.324-1.647a2.986 2.986 0 0 0-.863-1.092 3.47 3.47 0 0 0-1.254-.606 5.84 5.84 0 0 0-1.498-.19c-.647 0-1.241.09-1.78.27-.54.18-1.003.423-1.39.729a3.267 3.267 0 0 0-.904 1.105 3.166 3.166 0 0 0-.323 1.43c0 .774.216 1.444.647 2.01a11.48 11.48 0 0 0 1.457 1.579l2.4 2.158a9.181 9.181 0 0 1 1.66 1.942c.459.72.688 1.52.688 2.402 0 .684-.157 1.376-.472 2.077a5.753 5.753 0 0 1-1.403 1.901c-.62.567-1.398 1.032-2.333 1.39-.936.36-2.024.54-3.265.54a8.088 8.088 0 0 1-1.713-.162 10.968 10.968 0 0 1-1.35-.378c-.403-.143-.781-.27-1.132-.378a3.517 3.517 0 0 0-1.038-.162.972.972 0 0 0-.648.258c-.197.17-.314.363-.351.58l-.378-.081 1.889-5.342h.35z" fill="#12110C"/><g><mask id="d" fill="#fff"><use xlink:href="#c"/></mask><path d="M8.112.126v.39H5.844v19.052h4.068a4.69 4.69 0 0 0 1.639-.306c.55-.204 1.069-.544 1.554-1.018.485-.473.92-1.085 1.306-1.838.387-.752.687-1.666.9-2.743h.32v6.294H0v-.39h2.269V.515h-2.27v-.39h8.113z" fill="#12110C" mask="url(#d)"/></g><g transform="translate(19)"><mask id="f" fill="#fff"><use xlink:href="#e"/></mask><path d="M5.089 14.73c.19 1.231.489 2.21.895 2.939.405.727.93 1.235 1.574 1.523.645.287 1.412.43 2.302.43 1.178 0 2.1-.247 2.768-.74.669-.495 1.169-1.178 1.503-2.049.334-.871.545-1.904.633-3.1.087-1.194.13-2.494.13-3.895 0-1.257-.035-2.456-.106-3.598-.072-1.14-.275-2.147-.61-3.019-.333-.872-.838-1.564-1.514-2.075-.676-.512-1.61-.768-2.804-.768-1.113 0-2.003.238-2.671.713C6.52 1.567 6.01 2.237 5.66 3.1c-.35.863-.58 1.888-.692 3.074a42.152 42.152 0 0 0-.167 3.909c0 1.867.096 3.418.287 4.648m-3.353-8.8c.55-1.24 1.253-2.3 2.112-3.18A9.335 9.335 0 0 1 6.735.714C7.8.239 8.842 0 9.86 0c1.098 0 2.184.234 3.257.7a8.9 8.9 0 0 1 2.864 1.996c.835.861 1.51 1.91 2.027 3.14.517 1.23.776 2.618.776 4.165 0 1.347-.243 2.627-.728 3.84a10.708 10.708 0 0 1-1.956 3.194 9.308 9.308 0 0 1-2.84 2.17 7.579 7.579 0 0 1-3.4.796 7.822 7.822 0 0 1-3.387-.77 9.175 9.175 0 0 1-2.851-2.103c-.82-.889-1.476-1.935-1.97-3.139-.492-1.204-.738-2.507-.738-3.908 0-1.527.274-2.911.822-4.151" fill="#12110C" mask="url(#f)"/></g><path d="M76.268.126v4.763h-.32c-.083-.317-.223-.72-.42-1.213a6.13 6.13 0 0 0-.826-1.433 4.97 4.97 0 0 0-1.368-1.212c-.559-.343-1.242-.515-2.047-.515h-3.92v8.607h1.381c.608 0 1.122-.098 1.541-.293a2.795 2.795 0 0 0 1.047-.835c.28-.364.51-.798.691-1.31.181-.51.33-1.081.444-1.712h.32v8.662h-.32a17.776 17.776 0 0 0-.407-1.56 4.851 4.851 0 0 0-.629-1.323 3.002 3.002 0 0 0-.974-.905c-.386-.223-.867-.335-1.442-.335h-1.652v10.055h4.044c.755 0 1.438-.143 2.046-.431a5.073 5.073 0 0 0 1.615-1.212 6.925 6.925 0 0 0 1.171-1.825c.312-.696.55-1.443.715-2.242h.32v6.1H61.524v-.39h2.268V.515h-2.268v-.39h14.744zM54.159.126v.39h2.219l-5.202 15.097L46.072.514h2.367v-.39h-8.235v.39h2.071l6.551 19.44h1.229L56.748.514h2.12v-.39z" fill="#12110C"/></g></svg>
