<svg xmlns="http://www.w3.org/2000/svg" width="750" height="108" viewBox="0 0 750.1 108.4"><style>.a{fill:#1C1C1C;}.b{fill:#FAFDFF;}</style><path d="M750.1 102.3c0 3.3-2.8 6.1-6.1 6.1H360.1c-3.3 0-6.1-2.8-6.1-6.1V6.1c0-3.3 2.8-6.1 6.1-6.1h383.9c3.3 0 6.1 2.8 6.1 6.1V102.3z" fill="#89AD3F"/><path d="M0 86.9V17.2h22c7.8 0 13.6 1.5 17.4 4.6 3.9 3.1 5.8 7.5 5.8 13.2 0 3.9-1.1 7.1-3.2 9.6 -2.2 2.5-5.1 4-8.8 4.6 4.7 0.8 8.3 2.6 11 5.7 2.6 2.9 3.9 6.7 3.9 11.1 0 6.3-2.4 11.4-7.1 15.2 -4.7 3.8-11.3 5.7-19.6 5.7H0L0 86.9zM22.4 28.5H13.8v15.3h7.6c2.6 0 4.9-0.8 6.9-2.4 2.1-1.5 3.1-3.6 3.1-6.1C31.4 31.1 28.4 28.9 22.4 28.5zM13.8 75.3h9.9c3.2 0 5.7-0.8 7.6-2.5 1.9-1.7 2.9-4 2.9-6.8 0-2.9-1.1-5.4-3.2-7.5 -2.2-2.2-5.3-3.2-9.5-3.2H13.8V75.3z" class="a"/><path d="M101.2 80.8c-4.4 4.4-10.8 6.7-19.3 6.7s-14.9-2.2-19.3-6.7c-4.4-4.4-6.7-11-6.7-19.6V17.1h14.6v45.2c0 4.4 1 7.8 2.9 10.1 1.9 2.4 4.7 3.5 8.5 3.5 3.6 0 6.5-1.1 8.5-3.5 2.1-2.4 3.1-5.7 3.1-10.1V17.1h14.6v44.1C107.9 69.8 105.6 76.3 101.2 80.8z" class="a"/><path d="M171.9 49.5c0 11.3-3.2 20.3-9.7 27.1 -6.5 6.8-15.1 10.3-26.1 10.3h-18.5V17.2h21.5c9.9 0 17.8 3.1 23.8 9S171.9 40 171.9 49.5zM156.9 48.6c0-6.3-1.7-11.1-5.1-14.7 -3.3-3.6-7.5-5.4-12.2-5.4h-7.9v46.8h5.4c5.6 0 10.3-2.4 14.2-7.1C155 63.5 156.9 57 156.9 48.6z" class="a"/><path d="M210.4 87.4c-10.3 0-18.3-3.2-24.3-9.7 -6-6.5-9-15.1-9-26s2.9-19.5 8.6-25.9 13.8-9.6 23.9-9.6c6.8 0 13.6 1.3 20.6 3.6l-1.8 11.1c-2.5-1-5.8-1.7-9.9-2.4 -4-0.7-7.2-1-9.5-1 -5.6 0-9.9 2.1-12.9 6.3s-4.7 9.9-4.7 17.1c0 7.2 1.7 13.1 5 17.9 3.3 4.7 7.6 7.1 12.9 7.1 3.1 0 5.8-0.7 8.3-1.9V60.6h-11.5V49.2h26V82.3C225.2 85.6 217.9 87.4 210.4 87.4z" class="a"/><path d="M282.8 86.9h-41.6V17.2h41.6v11.4h-27.1v14.6h24.6V54.9h-24.6v20.6h27.1V86.9z" class="a"/><path d="M303.7 86.9V28.8h-16V17.1h46.1V28.8h-15.8v58.1H303.7z" class="a"/><path d="M417.7 86.9h-41.4V17.2h41.6v11.4h-27.1v14.6h24.5V54.9h-24.6v20.6h27.1V86.9z" class="b"/><path d="M483.1 86.9h-15.1L444.3 43.9v42.8h-14.7V17.1h14.7l24.3 45V17.1h14.5V86.9z" class="b"/><path d="M536.4 86.9h-41.6V17.2h41.6v11.4h-27.1v14.6h24.6V54.9h-24.6v20.6h27.1V86.9z" class="b"/><path d="M561.9 56.6h-1.3v30.2h-14.5V17.1h22.1c7.5 0 13.1 1.7 16.8 4.9 3.8 3.3 5.6 7.9 5.6 14 0 3.8-1.3 7.1-3.9 10.1s-5.7 4.9-9.5 5.3c2.6 0.7 4.7 1.9 6.1 3.6 1.5 1.7 2.9 4.4 4.6 8.2l9.9 23.4H583.1l-9.6-22.2c-1.4-3.2-2.9-5.3-4.4-6.3C567.5 57 565.1 56.6 561.9 56.6zM567.9 28.4h-7.2v16.8h6.3c2.6 0 4.7-0.8 6.3-2.6 1.5-1.7 2.2-3.9 2.2-6.4C575.4 31 572.9 28.4 567.9 28.4z" class="b"/><path d="M632.8 87.4c-10.3 0-18.3-3.2-24.5-9.7 -6-6.5-9-15.1-9-26s2.9-19.5 8.6-25.9c5.7-6.4 13.8-9.6 23.9-9.6 6.8 0 13.6 1.3 20.6 3.6l-1.8 11.1c-2.5-1-5.8-1.7-9.9-2.4 -4-0.7-7.2-1-9.4-1 -5.6 0-9.9 2.1-12.9 6.3 -3.1 4.2-4.7 9.9-4.7 17.1 0 7.2 1.7 13.1 5 17.9 3.3 4.7 7.6 7.1 12.9 7.1 3.1 0 5.8-0.7 8.3-1.9V60.6H628.4V49.2h26V82.3C647.5 85.6 640.3 87.4 632.8 87.4z" class="b"/><path d="M678.5 86.9h-14.5V17.2h14.5V86.9z" class="b"/><path d="M730.2 86.9H688.7V17.2h41.6v11.4h-27.1v14.6h24.6V54.9h-24.6v20.6h27.1V86.9z" class="b"/></svg>
