<svg width="141" height="47" xmlns="http://www.w3.org/2000/svg"><g fill="none" fill-rule="evenodd"><g fill="#FFF"><path d="M64.097 5.853a3.875 3.875 0 0 0-1.074-.654 3.258 3.258 0 0 0-1.236-.241 1.878 1.878 0 0 0-.986.286c-.149.096-.27.212-.364.349a.848.848 0 0 0-.142.493c0 .203.053.373.16.51.106.137.237.257.39.358.155.102.32.185.498.251.177.066.343.122.497.17l.889.268c.462.144.894.314 1.297.511.403.197.752.438 1.049.725.295.286.53.63.702 1.03.171.4.257.874.257 1.423 0 .669-.098 1.328-.293 1.978a3.433 3.433 0 0 1-1.093 1.657 4.897 4.897 0 0 1-1.794.976 7.032 7.032 0 0 1-2.008.295c-.853 0-1.68-.134-2.48-.403a8.43 8.43 0 0 1-2.229-1.138l1.492-2.828c.439.383.912.71 1.422.985a3.47 3.47 0 0 0 1.67.412c.201 0 .403-.027.604-.08.201-.055.383-.135.542-.243a1.204 1.204 0 0 0 .542-1.038c0-.25-.074-.46-.222-.627a2.015 2.015 0 0 0-.55-.43 3.55 3.55 0 0 0-.694-.286 31.72 31.72 0 0 1-.648-.197c-.545-.155-1.04-.32-1.483-.492a3.94 3.94 0 0 1-1.147-.671 2.693 2.693 0 0 1-.737-1.04c-.173-.417-.258-.954-.258-1.61 0-.681.115-1.302.346-1.863.232-.561.552-1.038.96-1.432a4.245 4.245 0 0 1 1.457-.913 5.155 5.155 0 0 1 1.857-.323c.331 0 .684.027 1.057.08.373.054.74.13 1.102.224.36.096.716.213 1.065.35.35.137.673.289.969.456l-1.386 2.722M70.761 1.018v6.84h.035c.38-.5.8-.871 1.262-1.11.462-.239 1.013-.358 1.653-.358.58 0 1.083.093 1.511.278.425.185.78.447 1.065.787.284.341.498.747.64 1.218.142.472.213 1 .213 1.585v5.622h-3.234V11.17c0-.263-.014-.525-.044-.788a2.189 2.189 0 0 0-.196-.707 1.204 1.204 0 0 0-.444-.501c-.195-.126-.453-.189-.773-.189s-.587.063-.8.189a1.563 1.563 0 0 0-.524.501 1.979 1.979 0 0 0-.283.707c-.054.263-.08.525-.08.788v4.709h-3.235V1.018h3.234M85.544 9.954a1.654 1.654 0 0 0-.648-1.057 1.915 1.915 0 0 0-1.181-.394 2.14 2.14 0 0 0-1.244.367c-.356.245-.58.606-.676 1.084h3.75zm3.003 1.879h-6.805c0 .669.169 1.176.507 1.523.337.345.843.518 1.52.518.342 0 .64-.062.896-.187.255-.126.47-.344.649-.654h3.109a3.787 3.787 0 0 1-1.732 2.39c-.42.258-.88.448-1.377.573a6.249 6.249 0 0 1-1.528.189 6.633 6.633 0 0 1-2.106-.323 4.78 4.78 0 0 1-1.67-.94 4.308 4.308 0 0 1-1.102-1.53c-.267-.61-.4-1.308-.4-2.095 0-.765.124-1.451.373-2.06a4.326 4.326 0 0 1 1.04-1.54c.444-.418.975-.74 1.59-.966.616-.228 1.297-.34 2.044-.34.794 0 1.499.118 2.114.357a4.28 4.28 0 0 1 1.563 1.02c.427.442.753.976.978 1.603.225.627.337 1.334.337 2.122v.34zM89.934 15.88h3.233V1.018h-3.233zM95.229 15.88h3.234V1.018h-3.234zM65.36 40.11h-5.049V24.845h-4.174v-4.31h13.398v4.31H65.36V40.11M76.49 30.453c-.48 0-.905.082-1.274.247-.37.164-.683.38-.94.649a2.748 2.748 0 0 0-.593.947 3.275 3.275 0 0 0-.207 1.169c0 .848.262 1.557.787 2.128.523.571 1.266.857 2.227.857.963 0 1.705-.286 2.23-.857.524-.571.786-1.28.786-2.128 0-.416-.07-.806-.206-1.17a2.774 2.774 0 0 0-.593-.946 2.948 2.948 0 0 0-.94-.65c-.37-.164-.796-.246-1.277-.246zm7.55 9.657h-4.689v-1.48H79.3a3.662 3.662 0 0 1-1.727 1.455 5.794 5.794 0 0 1-2.267.467c-.979 0-1.877-.19-2.693-.571a6.613 6.613 0 0 1-2.112-1.546 6.981 6.981 0 0 1-1.379-2.27 7.667 7.667 0 0 1-.49-2.727c0-.952.164-1.856.49-2.713a7.284 7.284 0 0 1 1.353-2.26 6.332 6.332 0 0 1 2.087-1.543c.815-.38 1.714-.57 2.693-.57.772 0 1.524.142 2.254.427.73.285 1.343.723 1.842 1.31v-1.297h4.69V40.11zM94.423 30.453c-.481 0-.906.082-1.275.247-.37.164-.683.38-.941.649a2.755 2.755 0 0 0-.592.947 3.262 3.262 0 0 0-.206 1.169c0 .848.261 1.557.786 2.128.523.571 1.265.857 2.228.857.962 0 1.704-.286 2.229-.857.523-.571.785-1.28.785-2.128 0-.416-.069-.806-.206-1.17a2.755 2.755 0 0 0-.592-.946 2.941 2.941 0 0 0-.94-.65c-.37-.164-.795-.246-1.276-.246zm-2.86-2.155h.052a3.901 3.901 0 0 1 1.739-1.467c.73-.32 1.481-.48 2.254-.48.98 0 1.88.195 2.706.584.824.389 1.528.908 2.112 1.557a7.082 7.082 0 0 1 1.365 2.273c.326.865.491 1.773.491 2.725 0 .97-.165 1.878-.49 2.726a7.307 7.307 0 0 1-1.353 2.246 6.168 6.168 0 0 1-2.087 1.531c-.816.373-1.713.559-2.693.559a6.299 6.299 0 0 1-2.253-.416 4.418 4.418 0 0 1-1.843-1.298v7.918h-4.69V26.792h4.69v1.506zM121.424 20.535v11.008c0 .623-.018 1.246-.051 1.869a11.515 11.515 0 0 1-.246 1.817 7.051 7.051 0 0 1-.605 1.7 5.704 5.704 0 0 1-1.133 1.52 6.359 6.359 0 0 1-1.379 1.012 8.715 8.715 0 0 1-1.597.675 10.43 10.43 0 0 1-1.725.377c-.594.078-1.174.117-1.74.117-.567 0-1.148-.04-1.74-.117a10.382 10.382 0 0 1-1.725-.377 8.644 8.644 0 0 1-1.598-.675 6.377 6.377 0 0 1-1.379-1.012 5.706 5.706 0 0 1-1.134-1.52 7.183 7.183 0 0 1-.605-1.7 11.305 11.305 0 0 1-.244-1.817 33.06 33.06 0 0 1-.051-1.869V20.535h5.049v10.307c0 .641.025 1.277.077 1.908.051.632.19 1.204.413 1.714.222.51.567.921 1.03 1.233.464.312 1.099.467 1.907.467.806 0 1.442-.155 1.906-.467a2.809 2.809 0 0 0 1.03-1.233c.224-.51.361-1.082.413-1.714.052-.631.077-1.267.077-1.908V20.535h5.05M131.781 30.453c-.48 0-.906.082-1.274.247-.37.164-.683.38-.94.649a2.767 2.767 0 0 0-.594.947 3.275 3.275 0 0 0-.205 1.169c0 .848.261 1.557.785 2.128.524.571 1.267.857 2.228.857.962 0 1.706-.286 2.23-.857.523-.571.785-1.28.785-2.128 0-.416-.069-.806-.206-1.17a2.755 2.755 0 0 0-.592-.946 2.948 2.948 0 0 0-.94-.65c-.37-.164-.796-.246-1.277-.246zm-2.86-2.155h.052a3.911 3.911 0 0 1 1.74-1.467c.73-.32 1.481-.48 2.253-.48.98 0 1.882.195 2.706.584.824.389 1.529.908 2.113 1.557a7.08 7.08 0 0 1 1.365 2.273c.327.865.49 1.773.49 2.725 0 .97-.163 1.878-.49 2.726a7.282 7.282 0 0 1-1.352 2.246 6.176 6.176 0 0 1-2.087 1.531c-.817.373-1.713.559-2.693.559a6.304 6.304 0 0 1-2.254-.416 4.43 4.43 0 0 1-1.843-1.298v7.918h-4.688V26.792h4.688v1.506z"/></g><path d="M19.908 39.708H9.184l-.994-8.077-6.505-4.808a21.81 21.81 0 0 1-.427-4.295c0-11.853 9.468-21.474 21.134-21.474s21.134 9.621 21.134 21.474c0 1.443-.143 2.882-.427 4.295l-6.504 4.808-.994 8.077H24.877l-.62.457a3.136 3.136 0 0 1-3.73 0l-.619-.457z" stroke="#FFF" stroke-width="1.75"/><path d="M19.908 39.708H9.184l-.994-8.077-6.505-4.808a21.81 21.81 0 0 1-.427-4.295c0-11.853 9.468-21.474 21.134-21.474s21.134 9.621 21.134 21.474c0 1.443-.143 2.882-.427 4.295l-6.504 4.808-.994 8.077H24.877l-.62.457a3.136 3.136 0 0 1-3.73 0l-.619-.457z" fill="#FBCE07"/><path d="M20.244 35.95h-7.795l-.788-6.4-6.42-4.746a9.262 9.262 0 0 1 .496-5.996l11.368 11.68L6.053 16.625a9.157 9.157 0 0 1 2.76-4.649l9.907 17.375-8.778-19.022a8.979 8.979 0 0 1 4.525-3.235l6.058 21.567-4.426-22.456a8.87 8.87 0 0 1 5.391-1.123l.902 23.352.903-23.352a8.866 8.866 0 0 1 5.39 1.122l-4.426 22.457 6.058-21.567a8.99 8.99 0 0 1 4.526 3.235l-8.779 19.022 9.907-17.375a9.151 9.151 0 0 1 2.76 4.649L27.68 30.488l11.367-11.68a9.233 9.233 0 0 1 .496 5.996l-6.42 4.745-.787 6.401H24.54l-1.153.852a1.669 1.669 0 0 1-1.989 0l-1.154-.852zm-.335 3.758H9.184l-.994-8.077-6.505-4.808a21.854 21.854 0 0 1-.427-4.295c0-11.853 9.469-21.474 21.134-21.474 11.666 0 21.134 9.62 21.134 21.474 0 1.443-.143 2.882-.426 4.295l-6.505 4.808-.994 8.077H24.877l-.62.457a3.133 3.133 0 0 1-3.73 0l-.618-.457z" fill="#DD1D21"/></g></svg>